<svg id="Layer_12" data-name="Layer 12" xmlns="http://www.w3.org/2000/svg" viewBox="0 0 850 600"><defs><style>.cls-1{fill:#fff;}.cls-2{fill:#231f20;}</style></defs><title>term2-comparison-01</title><rect class="cls-1" width="850" height="600"/><path class="cls-2" d="M160.07,102.78H139.66a12.8,12.8,0,0,1-.17-2,8.79,8.79,0,0,1,.17-2.24c0.08-.33,4.81-1.91,5.23-2.24a3,3,0,0,0,.91-1.24l19.09-50.38h8.88l21.08,50.38a3,3,0,0,0,.91,1.24c0.42,0.33,5.15,1.91,5.23,2.24a8.79,8.79,0,0,1,.17,2.24,12.8,12.8,0,0,1-.17,2H180.9a14.22,14.22,0,0,1-.25-2.07,4.08,4.08,0,0,1,.5-2.16c0.33-.17,3.65-1.74,4.48-2.24a1.41,1.41,0,0,0,0-1.16l-3.9-9.38H158.49l-3.07,9.3a1.53,1.53,0,0,0,.08,1.24c1,0.66,4,2.08,4.32,2.24a4.08,4.08,0,0,1,.5,2.16A14.22,14.22,0,0,1,160.07,102.78Zm8.8-47.89-7.8,23.32h17.51Z"/><path class="cls-2" d="M207.3,102.78a6,6,0,0,1-.25-2.07,4.1,4.1,0,0,1,.25-2c0.17-.33,3.57-1.49,4.73-2.08a1.47,1.47,0,0,0,1.08-1.49V52.4a1.42,1.42,0,0,0-.91-1.33c-1.24-.75-4.73-2-4.9-2.32a4.1,4.1,0,0,1-.25-2,6,6,0,0,1,.25-2.07c1.25-.33,14.94-0.66,21.91-0.66,11.45,0,17.35,5.23,17.35,15.1,0,4.23-4.23,9.88-9.46,12.12,6.39,1.49,11.37,6.06,11.37,13.36,0,10.13-7.55,18.18-18.67,18.18H207.3Zm31-43.41c0-5.48-3.73-9-10.37-9a28.12,28.12,0,0,0-6.39.83l0.17,17.26c2.07,0.08,3.49.17,5.06,0.17C233.69,68.67,238.34,64.19,238.34,59.37Zm1.58,25.56c0-6.81-6.14-9.88-12.53-9.88-1.58,0-3.82,0-5.64.08l0.17,19.67c0,0.91,1.33,1.16,4.56,1.16C235,96,239.92,91.91,239.92,84.94Z"/><path class="cls-2" d="M301.75,53.81c-2.49-2.07-5.23-2.82-10.21-2.82-12.7,0-24.73,7.14-24.73,24.07,0,11,9.88,21.25,22,21.25,7.39,0,14.44-2.49,16.6-4.56l3.57,4.9c-2.24,2.49-8.05,7.64-20.17,7.64-17.26,0-31-11.37-31-29.71,0-20.75,16.52-31.54,32.45-31.54,7.55,0,12.28,1.08,17.93,4.56,0.42,0,0,14.36-.25,14.44a4.49,4.49,0,0,1-2.08.25,4.1,4.1,0,0,1-2-.25C303.49,61.86,302.25,54.73,301.75,53.81Z"/><path class="cls-2" d="M315.45,102.78a6,6,0,0,1-.25-2.07,4.1,4.1,0,0,1,.25-2c0.17-.33,3.57-1.49,4.73-2.08a1.47,1.47,0,0,0,1.08-1.49V52.4a1.42,1.42,0,0,0-.91-1.33c-1.25-.75-4.73-2-4.9-2.32a4.1,4.1,0,0,1-.25-2,6,6,0,0,1,.25-2.07c3.15,0,17.51-1,26.14-1,16.93,0,30.62,10.71,30.62,29,0,20.75-16.76,30.87-30.62,30.87C335.45,103.61,331.38,102.78,315.45,102.78Zm25.06-6.06c10.62,0,21.91-7.55,21.91-24.48,0-13-7.72-21.41-20.83-21.41-7.22,0-11.45.5-11.45,1.49V94.48a1.55,1.55,0,0,0,1,1.74C332.21,96.8,336.53,96.72,340.51,96.72Z"/><path class="cls-2" d="M418.2,102.78H379.69a6,6,0,0,1-.25-2.07,4.1,4.1,0,0,1,.25-2c0.17-.33,3.57-1.49,4.73-2.08a1.47,1.47,0,0,0,1.08-1.49V52.4a1.42,1.42,0,0,0-.91-1.33c-1.25-.75-4.73-2-4.9-2.32a4.1,4.1,0,0,1-.25-2,6,6,0,0,1,.25-2.07h38.18c0.42,0,.91,13.44.66,13.53a4.48,4.48,0,0,1-2.07.25,4.1,4.1,0,0,1-2-.25c-0.33-.17-1.83-4.15-2.32-5.06a1.39,1.39,0,0,0-1.33-1H395.37a1.57,1.57,0,0,0-1.16,1.33v15.6h15.1a1.06,1.06,0,0,0,.42-0.58c0.42-.66,1.49-3.07,1.74-3.24a3.92,3.92,0,0,1,1.58-.17,6.44,6.44,0,0,1,1.58.17V80.54a6.44,6.44,0,0,1-1.58.17,3.92,3.92,0,0,1-1.58-.17c-0.25-.17-1.16-2.82-1.74-3.82a0.83,0.83,0,0,0-.33-0.42H394.21V94.48a1.57,1.57,0,0,0,1.16,1.33h16.27a1.39,1.39,0,0,0,1.33-1c0.5-.91,2-4.9,2.32-5.06a4.1,4.1,0,0,1,2-.25c1.08,0,1.66-.17,2.07.25C419.52,89.91,418.69,102.78,418.2,102.78Z"/><path class="cls-2" d="M447.83,102.78H427.66a6,6,0,0,1-.25-2.07,4.1,4.1,0,0,1,.25-2c0.17-.33,3.07-1.58,4.32-2.32a1.42,1.42,0,0,0,.91-1.33V52.32a1.47,1.47,0,0,0-1.08-1.49c-1.16-.58-4.56-1.74-4.73-2.08a4.1,4.1,0,0,1-.25-2,6,6,0,0,1,.25-2.07h38.34c0.5,0,1.33,12.86,1.16,13-0.42.42-1,.25-2.08,0.25a4.09,4.09,0,0,1-2-.25c-0.33-.17-1.83-4.15-2.32-5.06a1.39,1.39,0,0,0-1.33-1h-16.1A1.57,1.57,0,0,0,441.61,53l0.08,18.59H457a1.06,1.06,0,0,0,.42-0.58c0.41-.66,1.49-3.07,1.74-3.24a3.92,3.92,0,0,1,1.58-.17,6.44,6.44,0,0,1,1.58.17V83a6.44,6.44,0,0,1-1.58.17,3.92,3.92,0,0,1-1.58-.17c-0.25-.17-1.16-2.82-1.74-3.82a0.83,0.83,0,0,0-.33-0.42H441.69l0.08,16.27a1.39,1.39,0,0,0,1,1.33c0.91,0.5,4.9,2,5.06,2.32a4.1,4.1,0,0,1,.25,2A6,6,0,0,1,447.83,102.78Z"/><path class="cls-2" d="M516.3,54.06c-1.91-1.66-6.22-3.57-13.28-3.57-9.3.08-20.67,7.64-20.67,25a21.65,21.65,0,0,0,21.33,21.08c7.39,0,11-1.66,13.2-3.73V83.61A2.36,2.36,0,0,0,516,81.7c-1.16-.58-10-2-10.12-2.32a5.76,5.76,0,0,1-.25-2.32,10.58,10.58,0,0,1,.25-2.66h19.5l-0.42,23.4c-2.24,2.49-9.13,6.47-21.25,6.47-17.26,0-30.21-11.37-30.21-29.3,0-21.16,15.69-32,28.22-32,11.12,0,15.85,1.49,21.66,5.15,0.42,0,0,14.36-.25,14.44a6.22,6.22,0,0,1-2.41.25,5.76,5.76,0,0,1-2.32-.25C518,62.36,516.8,55,516.3,54.06Z"/><path class="cls-2" d="M555.31,102.78H534.56a6,6,0,0,1-.25-2.07,4.1,4.1,0,0,1,.25-2c0.17-.33,3.57-1.49,4.73-2.08a1.47,1.47,0,0,0,1.08-1.49V52.4a1.42,1.42,0,0,0-.91-1.33c-1.25-.75-4.73-2-4.9-2.32a4.1,4.1,0,0,1-.25-2,6,6,0,0,1,.25-2.07h20.75a6,6,0,0,1,.25,2.07,4.1,4.1,0,0,1-.25,2c-0.17.33-4.15,1.83-5.06,2.32a1.39,1.39,0,0,0-1,1.33v15H575.4v-15a1.42,1.42,0,0,0-.91-1.33c-1.16-.58-5-2-5.15-2.32a4.1,4.1,0,0,1-.25-2,6,6,0,0,1,.25-2.07h20.75a6,6,0,0,1,.25,2.07,4.1,4.1,0,0,1-.25,2c-0.17.33-3.9,1.83-4.81,2.32a1.39,1.39,0,0,0-1,1.33V94.89a1.55,1.55,0,0,0,1,1.74c0.91,0.5,4.65,1.74,4.81,2.08a4.1,4.1,0,0,1,.25,2,6,6,0,0,1-.25,2.07H569.34a6,6,0,0,1-.25-2.07,4.1,4.1,0,0,1,.25-2c0.17-.33,3.82-1.66,5-2.08a1.4,1.4,0,0,0,1.08-1.49v-20H549.25V94.89a1.55,1.55,0,0,0,1,1.74c0.91,0.5,4.9,1.74,5.06,2.08a4.1,4.1,0,0,1,.25,2A6,6,0,0,1,555.31,102.78Z"/><path class="cls-2" d="M600.8,102.78a6,6,0,0,1-.25-2.07,4.1,4.1,0,0,1,.25-2c0.17-.33,3.57-1.49,4.73-2.08a1.47,1.47,0,0,0,1.08-1.49V52.4a1.42,1.42,0,0,0-.91-1.33c-1.25-.75-4.73-2-4.9-2.32a4.1,4.1,0,0,1-.25-2,6,6,0,0,1,.25-2.07h20.33a6,6,0,0,1,.25,2.07,4.1,4.1,0,0,1-.25,2c-0.17.33-3.73,1.83-4.65,2.32a1.39,1.39,0,0,0-1,1.33V94.89a1.55,1.55,0,0,0,1,1.74c0.91,0.5,4.65,1.74,4.81,2.08a4.1,4.1,0,0,1,.25,2,6,6,0,0,1-.25,2.07H600.8Z"/><path class="cls-2" d="M634.91,51.07c-0.91-.5-5.48-2-5.64-2.32a4.1,4.1,0,0,1-.25-2,6,6,0,0,1,.25-2.07h22a6,6,0,0,1,.25,2.07,4.1,4.1,0,0,1-.25,2c-0.17.33-4.48,1.58-5.73,2.32a1.42,1.42,0,0,0-.91,1.33V94.48c0,14.19-12.28,21.08-22.91,21.08v-5.81c6.47,0,14.19-4.56,14.19-14.61V52.4A1.39,1.39,0,0,0,634.91,51.07Z"/><path class="cls-2" d="M679.15,102.78h-20.5a6,6,0,0,1-.25-2.07,4.1,4.1,0,0,1,.25-2c0.17-.33,3.57-1.49,4.73-2.08a1.47,1.47,0,0,0,1.08-1.49V52.4a1.42,1.42,0,0,0-.91-1.33c-1.25-.75-4.73-2-4.9-2.32a4.1,4.1,0,0,1-.25-2,6,6,0,0,1,.25-2.07H679a6,6,0,0,1,.25,2.07,4.1,4.1,0,0,1-.25,2c-0.17.33-3.73,1.83-4.65,2.32a1.39,1.39,0,0,0-1,1.33V74.31c7-7.8,18.76-22.24,18.76-22.66a1.32,1.32,0,0,0-.91-1.24c-1.25-.75-2.74-1.33-2.9-1.66a4.1,4.1,0,0,1-.25-2,6,6,0,0,1,.25-2.07H707a7.18,7.18,0,0,1,.25,2.24,6.7,6.7,0,0,1-.25,2.49c-0.25.58-3.4,0.25-7.3,4.15-0.5.5-6.31,7.64-12.61,15.27l16.43,26.31a3.19,3.19,0,0,0,1.66,1.49c0.91,0.5,4.65,1.74,4.81,2.08a4.11,4.11,0,0,1,.25,2,6,6,0,0,1-.25,2.07H697.9a1.48,1.48,0,0,1-1-.75L681.55,75.39c-3.07,3.65-6,7.05-8.22,9.46v10a1.55,1.55,0,0,0,1,1.74c0.91,0.5,4.65,1.74,4.81,2.08a4.1,4.1,0,0,1,.25,2A6,6,0,0,1,679.15,102.78Z"/><path class="cls-2" d="M178.62,194.08a1.57,1.57,0,0,0,1.16,1.33h16.1a1.39,1.39,0,0,0,1.33-1c0.5-.91,2-4.9,2.32-5.06a4.1,4.1,0,0,1,2-.25c1.08,0,1.66-.17,2.08.25,0.17,0.17-.66,13-1.16,13H164.1a6,6,0,0,1-.25-2.07,4.1,4.1,0,0,1,.25-2c0.17-.33,3.57-1.49,4.73-2.08a1.47,1.47,0,0,0,1.08-1.49V152a1.42,1.42,0,0,0-.91-1.33c-1.25-.75-4.73-2-4.9-2.32a4.1,4.1,0,0,1-.25-2,6,6,0,0,1,.25-2.07h20.33a6,6,0,0,1,.25,2.07,4.1,4.1,0,0,1-.25,2c-0.17.33-3.73,1.83-4.65,2.32a1.39,1.39,0,0,0-1,1.33Z"/><path class="cls-2" d="M229.92,202.38H209.58a6,6,0,0,1-.25-2.07,4.1,4.1,0,0,1,.25-2c0.17-.33,3.57-1.49,4.73-2.08a1.47,1.47,0,0,0,1.08-1.49L220,152.17a1.61,1.61,0,0,0-1-1.74c-0.91-.42-5-1.74-5.15-2.08a4.1,4.1,0,0,1-.25-2,6,6,0,0,1,.25-2.07h15.44l19.34,44.65,18.42-44.65h15.52a6,6,0,0,1,.25,2.07,4.1,4.1,0,0,1-.25,2c-0.17.33-4.23,1.66-5.15,2.08a1.61,1.61,0,0,0-1,1.74l4.23,42.58a1.47,1.47,0,0,0,1.08,1.49c1.16,0.58,4.56,1.74,4.73,2.08a4.1,4.1,0,0,1,.25,2,6,6,0,0,1-.25,2.07H265.85a6,6,0,0,1-.25-2.07,4.1,4.1,0,0,1,.25-2c0.17-.33,4.23-1.66,5.15-2.08a1.61,1.61,0,0,0,1-1.74l-3.07-34.28L251.16,201.8h-6.56l-17.93-41.66-2.9,34.36a1.52,1.52,0,0,0,1,1.74c0.91,0.42,5,1.74,5.15,2.08a4.1,4.1,0,0,1,.25,2A6,6,0,0,1,229.92,202.38Z"/><path class="cls-2" d="M293.66,202.38a6,6,0,0,1-.25-2.07,4.1,4.1,0,0,1,.25-2c0.17-.33,3.57-1.49,4.73-2.08a1.47,1.47,0,0,0,1.08-1.49V152.17a1.61,1.61,0,0,0-1-1.74c-0.91-.42-5-1.74-5.15-2.08a4.1,4.1,0,0,1-.25-2,6,6,0,0,1,.25-2.07h14.94l30.79,42.66V152a1.47,1.47,0,0,0-1.08-1.49c-1.16-.58-5.73-1.74-5.89-2.08a4.1,4.1,0,0,1-.25-2,6,6,0,0,1,.25-2.07h21.08a6,6,0,0,1,.25,2.07,4.1,4.1,0,0,1-.25,2c-0.17.33-4.23,1.66-5.15,2.08a1.52,1.52,0,0,0-1,1.74v50.13h-7.39l-32.2-43.49,0.25,35.6a1.52,1.52,0,0,0,1,1.74c0.91,0.42,5.56,1.74,5.73,2.08a4.1,4.1,0,0,1,.25,2,6,6,0,0,1-.25,2.07H293.66Z"/><path class="cls-2" d="M389.27,203.87c-12.78,0-28.63-9-28.63-31.12,0-18.84,14.19-29.55,27.89-29.55,14.36,0,29.21,8.3,29.21,30.46C417.74,194.16,404,203.87,389.27,203.87Zm0-8c9.63,0,19.59-7.39,19.59-22.24,0-16.18-11-22.49-20.17-22.49s-19,7.3-19,21.66C369.69,189,381.31,195.9,389.27,195.9Z"/><path class="cls-2" d="M445.8,202.88H426a6,6,0,0,1-.25-2.07,4.1,4.1,0,0,1,.25-2c0.17-.33,2.74-1.49,3.9-2.07a1.47,1.47,0,0,0,1.08-1.49V152.5a1.42,1.42,0,0,0-.91-1.33c-1.25-.75-4.73-2-4.9-2.32a4.1,4.1,0,0,1-.25-2,6,6,0,0,1,.25-2.07c1.83-.33,14.19-1,21.16-1,12.86,0,22.82,4.73,22.82,17.59,0,16.85-14.36,22.74-23.9,22.74a29.53,29.53,0,0,1-5.73-.5L439.57,195a1.72,1.72,0,0,0,1.24,1.74c0.91,0.5,4.81,1.74,5,2.07a4.11,4.11,0,0,1,.25,2A6,6,0,0,1,445.8,202.88Zm14-40.25c0-7.8-5.81-11.79-12-11.79-2.24,0-6.14.17-8.38,0.42l0.08,25.31a38,38,0,0,0,4.9.25C451.19,176.82,459.82,172.5,459.82,162.63Z"/><path class="cls-2" d="M533.36,215c-7.39-2.32-29.38-10.46-35-12.45-10.71-2.82-21.08-12-21.08-29.79,0-18.84,14.19-29.55,27.89-29.55,14.36,0,29.21,8.3,29.21,30.46,0,15.69-8.3,24.81-18.59,28.3,6,2.82,22.41,5.56,31.45,5.89,0.66,0.08.58,1.24,0.58,2.32a2.22,2.22,0,0,1-.66,1.83L536,215A7.14,7.14,0,0,1,533.36,215ZM506,196.15c9.63,0,19.67-7.64,19.67-22.49,0-16.18-11.2-22.74-20.33-22.74s-19.17,7.55-19.17,21.91C486.14,189,497.59,196.15,506,196.15Z"/><path class="cls-2" d="M563.24,202.38H543.32a6,6,0,0,1-.25-2.07,4.1,4.1,0,0,1,.25-2c0.17-.33,3.57-1.49,4.73-2.08a1.47,1.47,0,0,0,1.08-1.49V152a1.42,1.42,0,0,0-.91-1.33c-1.25-.75-4.73-2-4.9-2.32a4.1,4.1,0,0,1-.25-2,6,6,0,0,1,.25-2.07c1.25-.33,14.19-0.66,21.16-0.66,12.86,0,22.08,5.15,22.08,16.93a19.87,19.87,0,0,1-11,17.84c4.32,6.47,10.29,15.6,10.87,16.35a4.42,4.42,0,0,0,1.83,1.49,39.59,39.59,0,0,1,5,2.08,2.51,2.51,0,0,1,.5,2,6,6,0,0,1-.25,2.07H581.33a1.48,1.48,0,0,1-1-.75l-13.53-20.75h-1.08a55.79,55.79,0,0,1-8-.33v13.94a1.72,1.72,0,0,0,1.25,1.74c0.91,0.5,4.07,1.74,4.23,2.08a4.1,4.1,0,0,1,.25,2A6,6,0,0,1,563.24,202.38Zm14.94-41.25c0-7.39-6-10.37-12.2-10.37a56.65,56.65,0,0,0-8.38.33l0.17,22.24c1.58,0.08,4.48.17,6.81,0.17C571.37,173.5,578.18,169.1,578.18,161.13Z"/><path class="cls-2" d="M635.28,186c0,10.21-9.13,16.85-19.25,16.85-10.87,0-17.18-4.9-16.76-4.9V184.87a3.93,3.93,0,0,1,2.32-.5,3.57,3.57,0,0,1,2.24.5c0,5.81,3.24,10.37,11.45,10.37,4.81-.08,11.2-2.49,11.2-8.63,0-6.72-11.2-9.88-14.69-11.62-3.32-1.66-12.53-4.65-12.53-15.19,0-10,11.12-16.35,20.67-16.35,9,0,13,3.07,13,3.49v11.54c0,0.25-1.08.5-2.08,0.5a3.19,3.19,0,0,1-2-.5c0-3.07-1.83-7.55-9.79-7.55-4.81,0-10.71,3.24-10.71,8.05,0,7.05,9.21,9,12.78,10.54C624,170.84,635.28,174.41,635.28,186Z"/><path class="cls-2" d="M674.13,202.38H653.79a6,6,0,0,1-.25-2.07,4.1,4.1,0,0,1,.25-2l0.08-.08c0.42-.42,3.74-1.74,4.56-2.24a1.39,1.39,0,0,0,1-1.33V152.92a1.57,1.57,0,0,0-1.16-1.33h-9.79a1.13,1.13,0,0,0-1,1c-0.41,1-1.49,5.15-1.74,5.31a6.68,6.68,0,0,1-2.41.25c-0.83,0-1.25.17-1.58-.25-0.08-.17.5-13.78,0.91-13.78h42.91c0.33,0,1,13.61.83,13.78-0.25.42-.75,0.25-1.58,0.25a6.2,6.2,0,0,1-2.32-.25c-0.25-.17-1.41-4.32-1.74-5.31a1.13,1.13,0,0,0-1-1H669.64a1.57,1.57,0,0,0-1.16,1.33v41.75a1.39,1.39,0,0,0,1,1.33c0.91,0.5,4.48,2,4.65,2.32a4.1,4.1,0,0,1,.25,2A6,6,0,0,1,674.13,202.38Z"/><path class="cls-2" d="M278.63,251.6a1.39,1.39,0,0,0-1-1.33c-1.41-.58-5.81-2-6.06-2.32a4.1,4.1,0,0,1-.25-2,6,6,0,0,1,.25-2.07h22.57a6,6,0,0,1,.25,2.07,4.1,4.1,0,0,1-.25,2c-0.25.33-4.32,1.83-5.39,2.32a1.48,1.48,0,0,0-1.08,1.33v20.5c0,19.42-5,31-23.24,31-17.84,0-21.66-11.62-21.66-30.62V251.6a1.51,1.51,0,0,0-1-1.33c-1.41-.75-5.23-2-5.39-2.32a3.18,3.18,0,0,1-.33-2,4.27,4.27,0,0,1,.33-2.07h22.49a6,6,0,0,1,.25,2.07,4.1,4.1,0,0,1-.25,2c-0.17.33-4.81,1.83-6,2.32a1.48,1.48,0,0,0-1.08,1.33v21.33c0,12.7,1.58,22.41,12.78,22.41s14-9.63,14-22.24V251.6Z"/><path class="cls-2" d="M322.71,302c-4.81-12.61-19.17-49.8-19.42-50.38a3,3,0,0,0-.91-1.25c-0.42-.33-5.15-1.91-5.23-2.24a8.79,8.79,0,0,1-.17-2.24,12.79,12.79,0,0,1,.17-2h20.58A14.22,14.22,0,0,1,318,246a4.08,4.08,0,0,1-.5,2.16c-0.33.17-3.65,1.74-4.48,2.24a1.41,1.41,0,0,0,0,1.16l14.86,39.92,14.69-39.84a1.53,1.53,0,0,0-.08-1.25c-1-.66-4-2.07-4.32-2.24a4.08,4.08,0,0,1-.5-2.16,14.22,14.22,0,0,1,.25-2.07h20.58a12.79,12.79,0,0,1,.17,2,8.79,8.79,0,0,1-.17,2.24c-0.08.33-4.81,1.91-5.23,2.24a3,3,0,0,0-.91,1.25L331.59,302h-8.88Z"/><path class="cls-2" d="M403.3,255.59L391.1,302H380.81l-14-50.38a3,3,0,0,0-.91-1.25c-0.42-.33-5.15-1.91-5.23-2.24a8.79,8.79,0,0,1-.17-2.24,12.79,12.79,0,0,1,.17-2h21.08A14.22,14.22,0,0,1,382,246a4.08,4.08,0,0,1-.5,2.16c-0.33.17-4.15,1.74-5,2.24a1.41,1.41,0,0,0,0,1.16l9.71,38.92,12.53-45.89h10.21l14.19,45.31,9.13-38.26a1.53,1.53,0,0,0-.08-1.25,54.73,54.73,0,0,0-5.31-2.24,4.08,4.08,0,0,1-.5-2.16,14.22,14.22,0,0,1,.25-2.07H448.2a12.79,12.79,0,0,1,.17,2,8.79,8.79,0,0,1-.17,2.24c-0.08.33-4.81,1.91-5.23,2.24a3,3,0,0,0-.91,1.25L427.62,302h-9.88Z"/><path class="cls-2" d="M473.27,302.06H451.11a12.79,12.79,0,0,1-.17-2,8.79,8.79,0,0,1,.17-2.24c0.08-.33,5.31-1.91,5.73-2.24s0.58-.66,1.08-1.16c0.75-.75,11.54-15.27,16.68-22.24-5-6.64-15.52-20.25-15.85-20.75a4.6,4.6,0,0,0-1.16-1.08c-0.41-.33-5.06-1.91-5.15-2.24a8.79,8.79,0,0,1-.17-2.24,12.79,12.79,0,0,1,.17-2h21.91a14.22,14.22,0,0,1,.25,2.07,4.08,4.08,0,0,1-.5,2.16c-0.33.17-3.49,1.74-4.32,2.24-0.17.08-.25,0.5,0.25,1.25,0.33,0.42,7.05,9.29,10.54,14.11,4-5.06,10.29-13.36,10.71-14.11a1.27,1.27,0,0,0-.08-1.25c-1-.66-4-2.07-4.32-2.24a4.08,4.08,0,0,1-.5-2.16,14.22,14.22,0,0,1,.25-2.07h21.08a12.79,12.79,0,0,1,.17,2,8.79,8.79,0,0,1-.17,2.24c-0.08.33-4.81,2-5.23,2.16a3.3,3.3,0,0,0-1.49.91c-0.66.58-10.54,13.61-15.44,20.42,5.73,7.64,16.93,22.33,17.26,22.66a9.8,9.8,0,0,0,1.33,1.33c0.42,0.33,5.15,1.91,5.23,2.24a8.79,8.79,0,0,1,.17,2.24,12.79,12.79,0,0,1-.17,2H487.21A14.22,14.22,0,0,1,487,300a4.08,4.08,0,0,1,.5-2.16c0.33-.17,3.32-1.58,4.32-2.24a1.53,1.53,0,0,0,.08-1.24c-0.25-.5-7.88-10.46-12-15.85-4.15,5.48-11,15.19-11.37,15.93a1.12,1.12,0,0,0,0,1.16c0.83,0.5,4.15,2.08,4.48,2.24a4.08,4.08,0,0,1,.5,2.16A14.37,14.37,0,0,1,473.27,302.06Z"/><path class="cls-2" d="M527.3,301.9a6,6,0,0,1-.25-2.07,4.1,4.1,0,0,1,.25-2c0.17-.33,3.57-1.49,4.73-2.08a1.47,1.47,0,0,0,1.08-1.49V279.49l-16.35-29a2.6,2.6,0,0,0-.66-0.91c-0.25-.25-3.9-1.33-4-1.66a11.8,11.8,0,0,1-.25-2.07,13,13,0,0,1,.25-2h18.34a14.24,14.24,0,0,1,.33,2,5.39,5.39,0,0,1-.5,2.07c-0.25.08-3.32,1.33-3.82,1.66a1.41,1.41,0,0,0,0,.83l11.79,21.66,11.62-21.58a1.65,1.65,0,0,0-.08-0.91,25.8,25.8,0,0,0-3.65-1.66,5.39,5.39,0,0,1-.5-2.07,14.24,14.24,0,0,1,.33-2h17.76c0,0.42.25,1.41,0.25,2a11.8,11.8,0,0,1-.25,2.07c-0.08.33-3.73,1.41-4,1.66a1.88,1.88,0,0,0-.66.91l-17.1,29V294a1.55,1.55,0,0,0,1,1.74c0.91,0.5,4.65,1.74,4.81,2.08a4.1,4.1,0,0,1,.25,2,6,6,0,0,1-.25,2.07H527.3Z"/><path class="cls-2" d="M568.06,300c0-1.33-.08-5,0.33-5.64l32-42.66H579a2.06,2.06,0,0,0-2.24,1.16c-0.58,1.08-2.57,6.64-2.91,6.89a4.1,4.1,0,0,1-2,.25,6,6,0,0,1-2.08-.25l1.08-14.44a1.72,1.72,0,0,1,1.16-1.41h37.68c0.75,0,.83,7,0.66,7.72l-30.87,42.74H603a1.52,1.52,0,0,0,1.49-1.25c0.58-1.41,2.66-6.81,3-7a3.18,3.18,0,0,1,2-.33,5.59,5.59,0,0,1,2.07.33l-1.08,15.77H569.8A1.63,1.63,0,0,1,568.06,300Z"/><path class="cls-2" d="M144.88,393.28c-1.91,4.15-7.88,9.54-16.43,9.54-13.2,0-22.91-10.71-22.91-24s9.54-24.15,22.74-24.15c7.22,0,14.11,4.4,16.6,9,0-2.24.08-4.4,0.08-4.81,0.08-2.57.83-2.9,2.66-2.9H157c0.42,0,.91.42,0.91,1.74s-0.25,2.08-.66,2.24L152.43,362a1.06,1.06,0,0,0-.66.91v31a2,2,0,0,0,1,1.49,57,57,0,0,0,5.48,2.08c0.58,0.25.66,1.41,0.66,2.07s-0.42,2-1.16,2h-9.88C146.87,401.58,145.46,397.18,144.88,393.28Zm-30.29-14.52c0,9,5.15,16.85,14.36,16.85,8.05,0,14.69-8.38,14.69-16.85,0-9-5.81-17-14.44-17C120.15,361.74,114.59,369.79,114.59,378.76Z"/><path class="cls-2" d="M176.09,395.19l-3.32,5.15a1.79,1.79,0,0,1-1.66,1.25H168v-55l-6-3c-0.42,0-.83-1.25-0.83-2.16s0.33-2.07.83-2.07h11.78a2.16,2.16,0,0,1,2.49,2.24l0.17,20.83c2.49-3.57,8.71-7.72,15.93-7.72,13.44,0,21.25,10.54,21.25,23.15,0,16.1-11.2,25.06-22.91,25.06C185.39,402.91,177.92,398.76,176.09,395.19Zm15-.33c8.8,0,14.11-7.22,14.11-16.35,0-10.79-6.39-16.68-14.86-16.68-8.05,0-14.36,8-14.36,17C176,389.21,182.15,394.86,191.11,394.86Z"/><path class="cls-2" d="M255.6,364.4c-2.08-1.66-4.23-2.82-9.71-2.82-8.47,0-15.69,5.39-15.69,17.93,0,9.13,6.14,16.35,16,16.35,7.64,0,12.28-2.66,14.11-4.07,0.25-.25,1.24,1,1.91,2.16s1.16,3,.91,3.15c-1.83,1.91-7.55,5.64-16.93,5.64-13.86,0-25-8.71-25-23.57,0-15.6,11.45-24.4,23.82-24.4,7.64,0,11.62.83,16.27,3.57,0.33,0,1.49,11.62,1.33,11.62a3.2,3.2,0,0,1-1.74.25,2.88,2.88,0,0,1-1.66-.25C259,369.88,256,365.06,255.6,364.4Z"/><path class="cls-2" d="M309.89,393.45c-2.08,4.07-8,9.38-16.43,9.38-13.2,0-23.16-10.71-23.16-24s9.79-24.15,23-24.15c7.22,0,14,4.48,16.52,9.13V345.89l-6.47-2.32c-0.42,0-.83-1.25-0.83-2.16s0.33-2.07.83-2.07h12a2.16,2.16,0,0,1,2.49,2.24c-0.25,10-.42,45.4,0,52.53l6.72,2.16c0.75,0.17,1,1.25,1,2.49,0.08,1.41-.42,2.82-0.83,2.82H312.87C311.21,401.58,310.22,397.26,309.89,393.45Zm-30.71-14.69c0,9,6,16.18,15.19,16.18s15.19-7.22,15.19-16.18-6.39-16.76-15-16.76C285.49,362,279.18,369.79,279.18,378.76Z"/><path class="cls-2" d="M330,378.84a24.11,24.11,0,0,1,24.4-24.32c11.2,0,20.75,9.46,20.75,21.83,0,1-3.49,3.49-4.48,3.49h-32c0.5,10.21,8.05,15.93,15.44,15.93,7.8,0,12.2-2.82,17-6.89,0.42-.42,1.66.5,2.49,1.58a5.17,5.17,0,0,1,.91,3.07c-3.65,3.9-9,9.21-20.67,9.21C339.68,402.74,330,393,330,378.84Zm9.38-5.39h28c-1.08-5.48-6-11.7-13.36-11.7S341.18,366.89,339.35,373.44Z"/><path class="cls-2" d="M383.09,399.5a4.1,4.1,0,0,1,.25-2,7.9,7.9,0,0,1,2.41-2.32,1.42,1.42,0,0,0,.91-1.33V367H382c-0.25,0-.5-2-0.5-3.07s0.25-3,.5-3h4.65v-5.39c0-8.71,3.32-17.51,16.27-17.51,7.39,0,10.21,2.08,10.54,2.41l2.08,10a4.7,4.7,0,0,1-2.08.33,5.73,5.73,0,0,1-2.32-.33c-1.33-3.4-2.9-5.31-7.8-5.31-6.72,0-8,4.32-8,11v4.73h12.28c0.42,0,1.08,1.49,1.08,3.15,0,1.33-.25,2.91-0.58,2.91H395.38v26.89a1.39,1.39,0,0,0,1,1.33c0.91,0.5,7,2,7.14,2.32a4.1,4.1,0,0,1,.25,2,6,6,0,0,1-.25,2.08H383.34A6,6,0,0,1,383.09,399.5Z"/><path class="cls-2" d="M422.77,412.53c0-.83,1.58-1.74,2.66-2.32,1.41-.75,3.32-1.16,3.32-0.33,0,3.24,5.89,7.8,12.78,7.8,6.14,0,10.71-3,10.71-7.39,0-3.9-1.83-7.22-15.19-8.55-8.88-.91-21.41-6.89-21.41-23.16,0-13.44,9.13-23.57,23.74-23.57a24.65,24.65,0,0,1,13.94,4.07c2.32-1.41,5.06-2.9,6.64-3.73,1.16-.58,7.22-0.25,8.55-0.25,0.83,0-.66,8.38-2,8.38H464c0-.33-2.07-2.41-2.9-2.41a6.8,6.8,0,0,0-3.57,1.74,23.39,23.39,0,0,1,5.73,15.52c0,10.13-7.39,18.34-12.45,21,5,1.08,10.13,4.57,10.13,11.2,0,10.54-10.71,14-18.51,14C429.74,424.57,422.77,416.6,422.77,412.53Zm1.41-33.94c0.17,10.62,6.64,16.76,15.19,16.93,9,0,15.1-7.22,15.1-16.93,0-8.8-5.56-16.18-15.1-16.18C430.9,362.41,424.18,369.79,424.18,378.59Z"/><path class="cls-2" d="M492.32,401.58H472.15a15.22,15.22,0,0,1-.25-2.08,9.84,9.84,0,0,1,.25-2c0.25-.25,3.24-1.58,3.9-2.08a1.74,1.74,0,0,0,.83-1.49V346.72a1.35,1.35,0,0,0-.83-1.33c-1.33-.5-5-2-5.15-2.32a2.73,2.73,0,0,1-.25-1.66,6,6,0,0,1,.25-2.07h11.87a2.16,2.16,0,0,1,2.49,2.24v20.25a17.81,17.81,0,0,1,14.44-7.14c13.61,0,18.84,8.38,18.84,19.34V393.2a2.39,2.39,0,0,0,.91,1.33c0.75,0.42,6.22,2.66,6.72,3s0.58,0.58.58,1.91c0,1.08-.25,2.16-0.83,2.16H512.82c-1.83,0-2.91-1.33-2.91-3.9,0.08-5.73,0-16.35,0-21.74,0-10.12-4.81-13.94-12.28-13.94-6.8,0-12.12,5.06-12.12,14v18.09a1.42,1.42,0,0,0,1,1.33c1.08,0.5,5.64,1.83,5.73,2.08a3.39,3.39,0,0,1,.42,2A4.94,4.94,0,0,1,492.32,401.58Z"/><path class="cls-2" d="M544.69,393.2a2.39,2.39,0,0,0,.91,1.33c0.75,0.42,6,2.66,6.47,3s0.58,0.58.58,1.91a9.92,9.92,0,0,1-.42,2.16H538.63c-1.83,0-2.91-1.33-2.91-3.9l0.5-34.36a1.35,1.35,0,0,0-.83-1.33c-1.33-.5-5-2-5.15-2.32A2.73,2.73,0,0,1,530,358a6,6,0,0,1,.25-2.07H542.7a2.16,2.16,0,0,1,2.49,2.24Zm-10-47.47c0-3.9,1.58-4.9,5.15-4.9,3.73,0,5.39,1,5.39,4.9s-1.66,5.06-5.39,5.06C536.31,350.79,534.73,349.71,534.73,345.73Z"/><path class="cls-2" d="M563.53,401.33V363.65a1.39,1.39,0,0,0-1-1.33c-0.91-.5-4.65-2-4.81-2.32a4.11,4.11,0,0,1-.25-2,6,6,0,0,1,.25-2.07h13.36c0.91,0,1.16.83,1.16,2.74V402c0,8.71-3.32,17.51-16.27,17.51-7.39,0-10.21-2.08-10.54-2.41l-2.08-10a4.7,4.7,0,0,1,2.08-.33,5.73,5.73,0,0,1,2.32.33c1.33,1.83,2.91,5.31,7.8,5.31C562.29,412.37,563.53,408.05,563.53,401.33Zm-1.91-55.6c0-3.9,1.58-4.9,5.15-4.9,3.73,0,5.39,1,5.39,4.9s-1.66,5.06-5.39,5.06C563.2,350.79,561.62,349.71,561.62,345.73Z"/><path class="cls-2" d="M602.87,401.58H582.79a15.22,15.22,0,0,1-.25-2.08,9.84,9.84,0,0,1,.25-2c0.25-.25,3.24-1.58,3.9-2.08a1.74,1.74,0,0,0,.83-1.49V346.72a1.35,1.35,0,0,0-.83-1.33c-1.33-.5-5-2-5.15-2.32a2.73,2.73,0,0,1-.25-1.66,6,6,0,0,1,.25-2.07h12a2.16,2.16,0,0,1,2.49,2.24v34.69c6.47-5.06,15.93-14.52,15.93-14.94a1.32,1.32,0,0,0-.91-1.25c-1.25-.75-3.82-0.83-4-1.16a4.1,4.1,0,0,1-.25-2,6,6,0,0,1,.25-2.07h18.76a7.18,7.18,0,0,1,.25,2.24,6.7,6.7,0,0,1-.25,2.49c-0.25.58-3.07-.58-5.73,2.08-0.5.5-4.73,5.15-9.88,10.54L624,393.61a3.19,3.19,0,0,0,1.66,1.49c0.91,0.5,5.31,2.08,5.48,2.41a4.1,4.1,0,0,1,.25,2,6,6,0,0,1-.25,2.08h-11.2a1.48,1.48,0,0,1-1-.75l-14.61-22.66c-3,2.91-5.89,5.64-8.22,7.55v8.38a1.42,1.42,0,0,0,1,1.33c1.08,0.5,5.64,1.83,5.73,2.08a3.39,3.39,0,0,1,.42,2A4.94,4.94,0,0,1,602.87,401.58Z"/><path class="cls-2" d="M649.77,393.2a2.39,2.39,0,0,0,.91,1.33c0.75,0.42,6,2.66,6.47,3s0.58,0.58.58,1.91a9.92,9.92,0,0,1-.42,2.16H643.87c-1.83,0-2.91-1.33-2.91-3.9l0.25-51a1.35,1.35,0,0,0-.83-1.33c-1.33-.5-5-2-5.15-2.32a2.73,2.73,0,0,1-.25-1.66,6,6,0,0,1,.25-2.07h12.28a2.16,2.16,0,0,1,2.49,2.24Z"/><path class="cls-2" d="M729.69,397.76v-23c0-9.79-5.64-12.53-10.54-12.53-5.23,0-10.46,4.23-10.46,11.7v19.75c0.08,1,.33,1.58,1,1.74,1,0.58,5.56,1.91,5.89,2.08a3.55,3.55,0,0,1,.33,1.91c0,1.16-.25,2.16-0.58,2.16H697.16a3.65,3.65,0,0,1-.33-2.08,4.77,4.77,0,0,1,.33-2,16.7,16.7,0,0,1,2.41-2.08,1.48,1.48,0,0,0,.66-1.41V374.77c0-9.79-5.81-12.53-11.87-12.53-5.56,0-10.46,4.4-10.46,13.61v17.84c0.08,1,.33,1.58,1,1.74,1,0.58,5,1.91,5.31,2.08a3.54,3.54,0,0,1,.33,1.91c0,1.16-.25,2.16-0.58,2.16H666.12a3.65,3.65,0,0,1-.33-2.08,4.77,4.77,0,0,1,.33-2,23.11,23.11,0,0,1,2.74-2.08,1.48,1.48,0,0,0,.66-1.41V363.9a0.91,0.91,0,0,0-.5-0.83l-6-2.49c-0.42,0-.58-1.49-0.58-2.41s0.08-2.24.58-2.24h10c1.49,0,2.66.66,2.74,2.24v6.31c1.66-4.56,6.47-9.79,15-9.79,8.13,0,13.36,3.57,15.1,7.39,2.16-3.82,8.3-7.3,15.19-7.3,12.28,0,17,7.72,17,18.09V394a2.39,2.39,0,0,0,.91,1.33c0.75,0.42,5.64,1.91,6.14,2.24s0.58,0.58.58,1.91c0,1.08-.33,2.16-0.58,2.16H732.59C730.77,401.66,729.69,400.33,729.69,397.76Z"/><path class="cls-2" d="M126.41,497.36c0.08-5.81.08-15.6,0.08-20.91,0-9.63-4.07-14.52-12.12-14.52-7.88,0-12.7,5.39-12.7,14.61,0,5.73-.08,11.62,0,17.18a1.42,1.42,0,0,0,1,1.33c1.08,0.5,5.64,1.83,5.73,2.08a3.39,3.39,0,0,1,.42,2c0,1.16-.25,2.08-0.58,2.08H88.9c-0.33,0-.58-0.91-0.66-2.08a9.81,9.81,0,0,1,.25-2c0.25-.25,3.24-1.58,3.9-2.08a1.74,1.74,0,0,0,.83-1.49v-30a0.91,0.91,0,0,0-.5-0.83l-6-2.49c-0.42,0-.58-1.49-0.58-2.41s0.08-2.24.58-2.24H97c1.49,0,2.66.66,2.74,2.24l0.33,5.64c2.24-4.73,8.22-9.13,16.18-9.13,12.12,0,18.84,5.48,18.84,22.33v17A2.39,2.39,0,0,0,136,495c0.75,0.42,5.64,1.91,6.14,2.24s0.58,0.58.58,1.91c0,1.08-.33,2.16-0.58,2.16H129.32C127.49,501.26,126.41,499.93,126.41,497.36Z"/><path class="cls-2" d="M171.82,454.12a24.28,24.28,0,1,1-24,24.32A24.23,24.23,0,0,1,171.82,454.12ZM156.3,478.44c0,8.8,5.89,16.85,15.44,16.85s15.35-8,15.35-16.85-6.06-17.18-15.27-17.18C162.27,461.26,156.3,469.64,156.3,478.44Z"/><path class="cls-2" d="M222.36,521.93H203.28a15.22,15.22,0,0,1-.25-2.08,9.84,9.84,0,0,1,.25-2c0.25-.25,1.66-1.58,2.32-2.08,0.5-.42,1.41-0.75,1.41-1.49V462.92a1.42,1.42,0,0,0-.91-1.33c-1.33-.5-5-2-5.15-2.32a2.74,2.74,0,0,1-.25-1.66,6,6,0,0,1,.25-2.07h11.29a2.16,2.16,0,0,1,2.49,2.24l0.25,6.06c2-4.07,7.88-9.29,16.35-9.29,13.2,0,22.33,10.46,22.33,23.74S243.61,502,230.41,502c-6.72,0-12.61-3.82-15.1-7.55v20a1.42,1.42,0,0,0,1,1.33c1.08,0.5,5.89,1.83,6,2.08a3.39,3.39,0,0,1,.42,2A4.94,4.94,0,0,1,222.36,521.93Zm22.82-43.57c0-9-5.31-16.27-14.52-16.27-8.38,0-15.35,6.81-15.35,16.27,0,9.71,6.56,15.93,14.44,15.93C240.21,494.29,245.19,487.32,245.19,478.36Z"/><path class="cls-2" d="M300.71,521.93a2.16,2.16,0,0,1-2.49-2.24V495.45c-2.41,3.73-8.13,7.3-15.44,7.3-13.86,0-21.66-10.54-21.66-23.16,0-16.1,11.2-25.06,22.91-25.06,6.31,0,13,4.07,14.86,7.88l3.15-5.31a1.79,1.79,0,0,1,1.66-1.24h2.9v58.84l6,3c0.42,0,.83,1.25.83,2.16s-0.33,2.08-.83,2.08H300.71Zm-17-60.17c-8.8,0-14.11,8.05-14.11,17.18,0,10.79,6.39,16.52,14,16.52,8.88,0,15-8.13,15-17.18C298.64,467.9,292.66,461.76,283.7,461.76Z"/><path class="cls-2" d="M337,501.18H318.23a15.22,15.22,0,0,1-.25-2.08,9.84,9.84,0,0,1,.25-2c0.25-.25,2.07-1.58,2.74-2.08a1.48,1.48,0,0,0,.66-1.41V462.92a1.35,1.35,0,0,0-.83-1.33c-1.33-.5-5-2-5.15-2.32a2.73,2.73,0,0,1-.25-1.66,6,6,0,0,1,.25-2.07h12c1.49,0,1.83.58,1.91,2.16L329.1,461c3.9-3.9,8-6.72,12.37-6.72,2.24,0,5.64.42,7.39,1.83,0.5,0.42-.08,6.64-0.91,7.47a3.85,3.85,0,0,1-2.74.17,7.76,7.76,0,0,0-5.06-2.24c-6.72,0-10,5.06-10,12.45-0.08,4.65,0,17.35,0,19.34,0.08,1,.33,1.58,1,1.74,1,0.58,5.81,1.83,5.89,2.08a2.94,2.94,0,0,1,.25,2A3.35,3.35,0,0,1,337,501.18Z"/><path class="cls-2" d="M385.79,488.07c0,8.8-7.8,14.11-16.6,14.11-9.46,0-14.27-5.06-13.94-5.06l-1.58-9.54,2.07-.25,2.16,0.25c0,4.07,4.32,7.39,10.46,7.39,4.32,0,9.3-1.74,9.3-6.06,0-5.48-9.38-7.39-12.28-8.71s-10.79-4.32-10.79-12.86c0-8,9.21-13.11,17.43-13.11,7.8,0,10.79,2,10.79,2.32l1.08,9.3-1.83.17-1.66-.17c0-2.32-3.9-5-9-5-4.15,0-8.38,1.66-8.38,5.56,0,4.65,7.55,7.14,10.62,8.38C376.08,475.78,385.79,479.19,385.79,488.07Z"/><path class="cls-2" d="M397.41,483.67V461.59H391.1c-0.58,0-1.24-1-1.24-1.91,0-1.16.41-2.49,1-2.49,1.74,0,8.8-2.49,8.8-12.37a6.36,6.36,0,0,1,3.15-.83,5.42,5.42,0,0,1,3.07.66L406,455.53h15.27c0.42,0,1.08,1,1.08,2.66,0,1.33-.66,3.57-1,3.57H406.12V483c0,6.72.75,12.12,7.39,12.12,5,0,6.22-2.16,7.47-5.56a6.26,6.26,0,0,1,2.32-.33,4.27,4.27,0,0,1,2.07.33l-2.07,10c-0.25.33-2.74,2.41-10.21,2.41C400.23,502,397.41,493.46,397.41,483.67Z"/><path class="cls-2" d="M470.2,493.71c-2.32,4.23-8.47,8.71-16.1,8.71-12,0-18-8-18-18.18V462.59a1,1,0,0,0-.75-0.75l-6.8-2a3.75,3.75,0,0,1-.75-2.24c0-.75.33-2.07,0.75-2.07h12.95c1.83,0,3.15,1,3.15,2.49v24.32c0,9.79,5.64,12.53,11.62,12.7A13.12,13.12,0,0,0,469,482c0-5.73.08-13.69,0-19.25a0.62,0.62,0,0,0-.42-0.58l-7.39-2.24c-0.66-.33-0.83-1.49-0.83-2.32s0.33-2.07.83-2.07h13.36c1.83,0,2.9,1.33,2.9,3.9v32.95a2.16,2.16,0,0,0,1.08,1.83l5.15,2.08a3.44,3.44,0,0,1,.75,2.41c0,1-.33,2.49-0.75,2.49H472.94a2.16,2.16,0,0,1-2.49-2.24Z"/><path class="cls-2" d="M509.29,501.18A1.81,1.81,0,0,1,508,500.1l-16.18-37.18a2.54,2.54,0,0,0-.91-1.41l-5.64-1.66c-0.5-.08-0.91-1.33-0.91-2s0.17-2.32.75-2.32h11.54a2.29,2.29,0,0,1,2.49,2.24l13.86,34.44,13.78-30a0.47,0.47,0,0,0-.42-0.58l-5.73-1.74a4.24,4.24,0,0,1-.42-2.16c0-.66.08-2.16,0.42-2.16h17.34c0.58,0,.75,1.41.75,2.07,0,1-.08,2.16-0.42,2.32-0.66.33-2.41,1.08-2.82,1.33a1.61,1.61,0,0,0-.75.75l-17.51,37.93a2.14,2.14,0,0,1-1.41,1.25h-6.47Z"/><path class="cls-2" d="M577.27,469.56l-12.12,31.62H556l-12.2-39.5-5.56-2a2.13,2.13,0,0,1-1-1.83c0-.75.17-2.32,0.75-2.32H553.2c1.49,0,1.41,0,1.66,1.49l-0.33,1.83L552,460.18l9.63,31.37,11.29-29.88-5.39-1.91a4.24,4.24,0,0,1-.42-2.16c0-.66.08-2.16,0.42-2.16h17c0.58,0,.75,1.41.75,2.07,0,0.5-.08,1.08-0.08,1.66l-2.82,1.74,10.79,30.54,11.2-29.71a0.47,0.47,0,0,0-.42-0.58l-4.56-1.66a2.75,2.75,0,0,1-.58-1.83c0-.66.08-2.16,0.42-2.16h13.28c0.58,0,.75,1.41.75,2.07a6.49,6.49,0,0,1-.42,2.66l-16.27,40.92h-8.88Z"/><path class="cls-2" d="M635.7,501.18H615.36a15.22,15.22,0,0,1-.25-2.08,9.84,9.84,0,0,1,.25-2c0.25-.25,3.24-1.58,3.9-2.08l16.35-17.51-12.37-16.43c-0.75-.42-5.23-1.58-5.73-1.91s-0.75-.66-0.75-2c0-1.08.33-1.66,0.58-1.66h10.71a2.53,2.53,0,0,1,2.49,1.41l10.54,14.11,9.29-10.21a0.51,0.51,0,0,0-.17-0.58c-0.66-.5-4.48-1.25-4.73-1.49a4.93,4.93,0,0,1-.25-1.49,8.82,8.82,0,0,1,.25-1.74h18.84a3.22,3.22,0,0,1,.33,1.74,1.9,1.9,0,0,1-.42,1.49c-0.08.25-2.32,1-3.4,1.91L646,477l14.27,18.34c0.75,0.42,5,1.83,5.48,2.16s0.58,0.58.58,1.91a1.76,1.76,0,0,1-.75,1.74H655.2a2.36,2.36,0,0,1-2.41-1.16l-12.53-16.68L629.81,495a1.42,1.42,0,0,0,1,1.33c1.08,0.5,4.73.58,4.81,0.83a3.39,3.39,0,0,1,.42,2A4.94,4.94,0,0,1,635.7,501.18Z"/><path class="cls-2" d="M675,521.76a1.34,1.34,0,0,1,.25-1.49c0.5-.66,3.57-4.32,4.15-5.15a108.94,108.94,0,0,0,9-14.27l-14.69-39.09L667.4,460c-0.5-.08-0.91-1.49-0.91-2.16s0.17-2.32.75-2.32H679c1.49,0,2.07.75,2.49,2.24l12.12,33.86,13.86-29.71a0.47,0.47,0,0,0-.42-0.58l-5.64-1.66a3.54,3.54,0,0,1-.42-2c0-.66.08-2.16,0.42-2.16h18.17c0.58,0,.75,1.41.75,2.07,0,1-.08,2.16-0.42,2.32-0.66.33-2.41,1.08-2.82,1.33a1.61,1.61,0,0,0-.75.75c-1.41,2.57-28.88,57.51-30.46,60.58a1.78,1.78,0,0,1-1.58.66C683.42,523.25,675.54,522.18,675,521.76Z"/><path class="cls-2" d="M724.18,498.36a8.71,8.71,0,0,1,.58-3.24l25.15-32.37H734.05a2,2,0,0,0-1.91.91c-0.5.91-3.24,5.31-3.49,5.56a5.7,5.7,0,0,1-1.91.17,7.55,7.55,0,0,1-1.74-.17l2.24-12.53a1.57,1.57,0,0,1,1-1.16h31.12c0.83,0,1.49,1.49,1.49,2.32,0,1.08,0,3.32-.58,3.82l-25.15,32.7H754.3a1.26,1.26,0,0,0,1.25-1c0.5-1.16,2.07-4.9,2.41-5a5.53,5.53,0,0,1,2.24-.25,4.27,4.27,0,0,1,1.74.25l-2.24,12.7H725.59C724.76,501.1,724.18,499.52,724.18,498.36Z"/></svg>