<svg id="Layer_12" data-name="Layer 12" xmlns="http://www.w3.org/2000/svg" viewBox="0 0 850 600"><defs><style>.cls-1{fill:#fff;}.cls-2{fill:#231f20;}</style></defs><title>term2-comparison-03</title><rect class="cls-1" width="850" height="600"/><path class="cls-2" d="M160.07,103.61H139.66a12.8,12.8,0,0,1-.17-2,8.79,8.79,0,0,1,.17-2.24c0.08-.33,4.81-1.91,5.23-2.24a3,3,0,0,0,.91-1.24l19.09-50.38h8.88l21.08,50.38a3,3,0,0,0,.91,1.24c0.42,0.33,5.15,1.91,5.23,2.24a8.79,8.79,0,0,1,.17,2.24,12.8,12.8,0,0,1-.17,2H180.9a14.22,14.22,0,0,1-.25-2.07,4.08,4.08,0,0,1,.5-2.16c0.33-.17,3.65-1.74,4.48-2.24a1.41,1.41,0,0,0,0-1.16l-3.9-9.38H158.49l-3.07,9.3a1.53,1.53,0,0,0,.08,1.24c1,0.66,4,2.08,4.32,2.24a4.08,4.08,0,0,1,.5,2.16A14.22,14.22,0,0,1,160.07,103.61Zm8.8-47.89L161.07,79h17.51Z"/><path class="cls-2" d="M207.3,103.61a6,6,0,0,1-.25-2.07,4.1,4.1,0,0,1,.25-2c0.17-.33,3.57-1.49,4.73-2.08A1.47,1.47,0,0,0,213.11,96V53.23a1.42,1.42,0,0,0-.91-1.33c-1.24-.75-4.73-2-4.9-2.32a4.1,4.1,0,0,1-.25-2,6,6,0,0,1,.25-2.07c1.25-.33,14.94-0.66,21.91-0.66,11.45,0,17.35,5.23,17.35,15.1,0,4.23-4.23,9.88-9.46,12.12,6.39,1.49,11.37,6.06,11.37,13.36,0,10.13-7.55,18.18-18.67,18.18H207.3Zm31-43.41c0-5.48-3.73-9-10.37-9a28.12,28.12,0,0,0-6.39.83l0.17,17.26c2.07,0.08,3.49.17,5.06,0.17C233.69,69.5,238.34,65,238.34,60.2Zm1.58,25.56c0-6.81-6.14-9.88-12.53-9.88-1.58,0-3.82,0-5.64.08l0.17,19.67c0,0.91,1.33,1.16,4.56,1.16C235,96.8,239.92,92.74,239.92,85.76Z"/><path class="cls-2" d="M301.75,54.64c-2.49-2.07-5.23-2.82-10.21-2.82-12.7,0-24.73,7.14-24.73,24.07,0,11,9.88,21.25,22,21.25,7.39,0,14.44-2.49,16.6-4.56l3.57,4.9c-2.24,2.49-8.05,7.64-20.17,7.64-17.26,0-31-11.37-31-29.71,0-20.75,16.52-31.54,32.45-31.54,7.55,0,12.28,1.08,17.93,4.56,0.42,0,0,14.36-.25,14.44a4.49,4.49,0,0,1-2.08.25,4.1,4.1,0,0,1-2-.25C303.49,62.69,302.25,55.56,301.75,54.64Z"/><path class="cls-2" d="M315.45,103.61a6,6,0,0,1-.25-2.07,4.1,4.1,0,0,1,.25-2c0.17-.33,3.57-1.49,4.73-2.08A1.47,1.47,0,0,0,321.26,96V53.23a1.42,1.42,0,0,0-.91-1.33c-1.25-.75-4.73-2-4.9-2.32a4.1,4.1,0,0,1-.25-2,6,6,0,0,1,.25-2.07c3.15,0,17.51-1,26.14-1,16.93,0,30.62,10.71,30.62,29,0,20.75-16.76,30.87-30.62,30.87C335.45,104.44,331.38,103.61,315.45,103.61Zm25.06-6.06c10.62,0,21.91-7.55,21.91-24.48,0-13-7.72-21.41-20.83-21.41-7.22,0-11.45.5-11.45,1.49V95.31a1.55,1.55,0,0,0,1,1.74C332.21,97.63,336.53,97.55,340.51,97.55Z"/><path class="cls-2" d="M418.2,103.61H379.69a6,6,0,0,1-.25-2.07,4.1,4.1,0,0,1,.25-2c0.17-.33,3.57-1.49,4.73-2.08A1.47,1.47,0,0,0,385.5,96V53.23a1.42,1.42,0,0,0-.91-1.33c-1.25-.75-4.73-2-4.9-2.32a4.1,4.1,0,0,1-.25-2,6,6,0,0,1,.25-2.07h38.18c0.42,0,.91,13.44.66,13.53a4.48,4.48,0,0,1-2.07.25,4.1,4.1,0,0,1-2-.25c-0.33-.17-1.83-4.15-2.32-5.06a1.39,1.39,0,0,0-1.33-1H395.37a1.57,1.57,0,0,0-1.16,1.33v15.6h15.1a1.06,1.06,0,0,0,.42-0.58c0.42-.66,1.49-3.07,1.74-3.24a3.92,3.92,0,0,1,1.58-.17,6.44,6.44,0,0,1,1.58.17V81.37a6.44,6.44,0,0,1-1.58.17,3.92,3.92,0,0,1-1.58-.17c-0.25-.17-1.16-2.82-1.74-3.82a0.83,0.83,0,0,0-.33-0.42H394.21V95.31a1.57,1.57,0,0,0,1.16,1.33h16.27a1.39,1.39,0,0,0,1.33-1c0.5-.91,2-4.9,2.32-5.06a4.1,4.1,0,0,1,2-.25c1.08,0,1.66-.17,2.07.25C419.52,90.74,418.69,103.61,418.2,103.61Z"/><path class="cls-2" d="M447.83,103.61H427.66a6,6,0,0,1-.25-2.07,4.1,4.1,0,0,1,.25-2c0.17-.33,3.07-1.58,4.32-2.32a1.42,1.42,0,0,0,.91-1.33V53.15a1.47,1.47,0,0,0-1.08-1.49c-1.16-.58-4.56-1.74-4.73-2.08a4.1,4.1,0,0,1-.25-2,6,6,0,0,1,.25-2.07h38.34c0.5,0,1.33,12.86,1.16,13-0.42.42-1,.25-2.08,0.25a4.09,4.09,0,0,1-2-.25c-0.33-.17-1.83-4.15-2.32-5.06a1.39,1.39,0,0,0-1.33-1h-16.1a1.57,1.57,0,0,0-1.16,1.33l0.08,18.59H457a1.06,1.06,0,0,0,.42-0.58c0.41-.66,1.49-3.07,1.74-3.24a3.92,3.92,0,0,1,1.58-.17,6.44,6.44,0,0,1,1.58.17V83.86a6.44,6.44,0,0,1-1.58.17,3.92,3.92,0,0,1-1.58-.17C458.87,83.69,458,81,457.37,80a0.83,0.83,0,0,0-.33-0.42H441.69l0.08,16.27a1.39,1.39,0,0,0,1,1.33c0.91,0.5,4.9,2,5.06,2.32a4.1,4.1,0,0,1,.25,2A6,6,0,0,1,447.83,103.61Z"/><path class="cls-2" d="M516.3,54.89c-1.91-1.66-6.22-3.57-13.28-3.57-9.3.08-20.67,7.64-20.67,25a21.65,21.65,0,0,0,21.33,21.08c7.39,0,11-1.66,13.2-3.73V84.44a2.36,2.36,0,0,0-.91-1.91c-1.16-.58-10-2-10.12-2.32a5.76,5.76,0,0,1-.25-2.32,10.57,10.57,0,0,1,.25-2.66h19.5l-0.42,23.4c-2.24,2.49-9.13,6.47-21.25,6.47-17.26,0-30.21-11.37-30.21-29.3,0-21.16,15.69-32,28.22-32,11.12,0,15.85,1.49,21.66,5.15,0.42,0,0,14.36-.25,14.44a6.22,6.22,0,0,1-2.41.25,5.76,5.76,0,0,1-2.32-.25C518,63.19,516.8,55.8,516.3,54.89Z"/><path class="cls-2" d="M555.31,103.61H534.56a6,6,0,0,1-.25-2.07,4.1,4.1,0,0,1,.25-2c0.17-.33,3.57-1.49,4.73-2.08A1.47,1.47,0,0,0,540.37,96V53.23a1.42,1.42,0,0,0-.91-1.33c-1.25-.75-4.73-2-4.9-2.32a4.1,4.1,0,0,1-.25-2,6,6,0,0,1,.25-2.07h20.75a6,6,0,0,1,.25,2.07,4.1,4.1,0,0,1-.25,2c-0.17.33-4.15,1.83-5.06,2.32a1.39,1.39,0,0,0-1,1.33v15H575.4v-15a1.42,1.42,0,0,0-.91-1.33c-1.16-.58-5-2-5.15-2.32a4.1,4.1,0,0,1-.25-2,6,6,0,0,1,.25-2.07h20.75a6,6,0,0,1,.25,2.07,4.1,4.1,0,0,1-.25,2c-0.17.33-3.9,1.83-4.81,2.32a1.39,1.39,0,0,0-1,1.33V95.72a1.55,1.55,0,0,0,1,1.74c0.91,0.5,4.65,1.74,4.81,2.08a4.1,4.1,0,0,1,.25,2,6,6,0,0,1-.25,2.07H569.34a6,6,0,0,1-.25-2.07,4.1,4.1,0,0,1,.25-2c0.17-.33,3.82-1.66,5-2.08A1.4,1.4,0,0,0,575.4,96V76H549.25V95.72a1.55,1.55,0,0,0,1,1.74c0.91,0.5,4.9,1.74,5.06,2.08a4.1,4.1,0,0,1,.25,2A6,6,0,0,1,555.31,103.61Z"/><path class="cls-2" d="M600.8,103.61a6,6,0,0,1-.25-2.07,4.1,4.1,0,0,1,.25-2c0.17-.33,3.57-1.49,4.73-2.08A1.47,1.47,0,0,0,606.61,96V53.23a1.42,1.42,0,0,0-.91-1.33c-1.25-.75-4.73-2-4.9-2.32a4.1,4.1,0,0,1-.25-2,6,6,0,0,1,.25-2.07h20.33a6,6,0,0,1,.25,2.07,4.1,4.1,0,0,1-.25,2c-0.17.33-3.73,1.83-4.65,2.32a1.39,1.39,0,0,0-1,1.33V95.72a1.55,1.55,0,0,0,1,1.74c0.91,0.5,4.65,1.74,4.81,2.08a4.1,4.1,0,0,1,.25,2,6,6,0,0,1-.25,2.07H600.8Z"/><path class="cls-2" d="M634.91,51.9c-0.91-.5-5.48-2-5.64-2.32a4.1,4.1,0,0,1-.25-2,6,6,0,0,1,.25-2.07h22a6,6,0,0,1,.25,2.07,4.1,4.1,0,0,1-.25,2c-0.17.33-4.48,1.58-5.73,2.32a1.42,1.42,0,0,0-.91,1.33V95.31c0,14.19-12.28,21.08-22.91,21.08v-5.81c6.47,0,14.19-4.56,14.19-14.61V53.23A1.39,1.39,0,0,0,634.91,51.9Z"/><path class="cls-2" d="M679.15,103.61h-20.5a6,6,0,0,1-.25-2.07,4.1,4.1,0,0,1,.25-2c0.17-.33,3.57-1.49,4.73-2.08A1.47,1.47,0,0,0,664.46,96V53.23a1.42,1.42,0,0,0-.91-1.33c-1.25-.75-4.73-2-4.9-2.32a4.1,4.1,0,0,1-.25-2,6,6,0,0,1,.25-2.07H679a6,6,0,0,1,.25,2.07,4.1,4.1,0,0,1-.25,2c-0.17.33-3.73,1.83-4.65,2.32a1.39,1.39,0,0,0-1,1.33V75.14c7-7.8,18.76-22.24,18.76-22.66a1.32,1.32,0,0,0-.91-1.24c-1.25-.75-2.74-1.33-2.9-1.66a4.1,4.1,0,0,1-.25-2,6,6,0,0,1,.25-2.07H707a7.18,7.18,0,0,1,.25,2.24,6.7,6.7,0,0,1-.25,2.49c-0.25.58-3.4,0.25-7.3,4.15-0.5.5-6.31,7.64-12.61,15.27L703.55,96a3.19,3.19,0,0,0,1.66,1.49c0.91,0.5,4.65,1.74,4.81,2.08a4.11,4.11,0,0,1,.25,2,6,6,0,0,1-.25,2.07H697.9a1.48,1.48,0,0,1-1-.75L681.55,76.22c-3.07,3.65-6,7.05-8.22,9.46v10a1.55,1.55,0,0,0,1,1.74c0.91,0.5,4.65,1.74,4.81,2.08a4.1,4.1,0,0,1,.25,2A6,6,0,0,1,679.15,103.61Z"/><path class="cls-2" d="M178.62,194.91a1.57,1.57,0,0,0,1.16,1.33h16.1a1.39,1.39,0,0,0,1.33-1c0.5-.91,2-4.9,2.32-5.06a4.1,4.1,0,0,1,2-.25c1.08,0,1.66-.17,2.08.25,0.17,0.17-.66,13-1.16,13H164.1a6,6,0,0,1-.25-2.07,4.1,4.1,0,0,1,.25-2c0.17-.33,3.57-1.49,4.73-2.08a1.47,1.47,0,0,0,1.08-1.49V152.83a1.42,1.42,0,0,0-.91-1.33c-1.25-.75-4.73-2-4.9-2.32a4.1,4.1,0,0,1-.25-2,6,6,0,0,1,.25-2.07h20.33a6,6,0,0,1,.25,2.07,4.1,4.1,0,0,1-.25,2c-0.17.33-3.73,1.83-4.65,2.32a1.39,1.39,0,0,0-1,1.33Z"/><path class="cls-2" d="M229.92,203.21H209.58a6,6,0,0,1-.25-2.07,4.1,4.1,0,0,1,.25-2c0.17-.33,3.57-1.49,4.73-2.08a1.47,1.47,0,0,0,1.08-1.49L220,153a1.61,1.61,0,0,0-1-1.74c-0.91-.42-5-1.74-5.15-2.08a4.1,4.1,0,0,1-.25-2,6,6,0,0,1,.25-2.07h15.44l19.34,44.65,18.42-44.65h15.52a6,6,0,0,1,.25,2.07,4.1,4.1,0,0,1-.25,2c-0.17.33-4.23,1.66-5.15,2.08a1.61,1.61,0,0,0-1,1.74l4.23,42.58a1.47,1.47,0,0,0,1.08,1.49c1.16,0.58,4.56,1.74,4.73,2.08a4.1,4.1,0,0,1,.25,2,6,6,0,0,1-.25,2.07H265.85a6,6,0,0,1-.25-2.07,4.1,4.1,0,0,1,.25-2c0.17-.33,4.23-1.66,5.15-2.08a1.61,1.61,0,0,0,1-1.74L268.92,161l-17.76,41.58h-6.56L226.68,161l-2.9,34.36a1.52,1.52,0,0,0,1,1.74c0.91,0.42,5,1.74,5.15,2.08a4.1,4.1,0,0,1,.25,2A6,6,0,0,1,229.92,203.21Z"/><path class="cls-2" d="M293.66,203.21a6,6,0,0,1-.25-2.07,4.1,4.1,0,0,1,.25-2c0.17-.33,3.57-1.49,4.73-2.08a1.47,1.47,0,0,0,1.08-1.49V153a1.61,1.61,0,0,0-1-1.74c-0.91-.42-5-1.74-5.15-2.08a4.1,4.1,0,0,1-.25-2,6,6,0,0,1,.25-2.07h14.94l30.79,42.66V152.83a1.47,1.47,0,0,0-1.08-1.49c-1.16-.58-5.73-1.74-5.89-2.08a4.1,4.1,0,0,1-.25-2,6,6,0,0,1,.25-2.07h21.08a6,6,0,0,1,.25,2.07,4.1,4.1,0,0,1-.25,2c-0.17.33-4.23,1.66-5.15,2.08a1.52,1.52,0,0,0-1,1.74v50.13h-7.39l-32.2-43.49,0.25,35.6a1.52,1.52,0,0,0,1,1.74c0.91,0.42,5.56,1.74,5.73,2.08a4.1,4.1,0,0,1,.25,2,6,6,0,0,1-.25,2.07H293.66Z"/><path class="cls-2" d="M389.27,204.7c-12.78,0-28.63-9-28.63-31.12,0-18.84,14.19-29.55,27.89-29.55,14.36,0,29.21,8.3,29.21,30.46C417.74,195,404,204.7,389.27,204.7Zm0-8c9.63,0,19.59-7.39,19.59-22.24,0-16.18-11-22.49-20.17-22.49s-19,7.3-19,21.66C369.69,189.85,381.31,196.73,389.27,196.73Z"/><path class="cls-2" d="M445.8,203.71H426a6,6,0,0,1-.25-2.07,4.1,4.1,0,0,1,.25-2c0.17-.33,2.74-1.49,3.9-2.07a1.47,1.47,0,0,0,1.08-1.49V153.33A1.42,1.42,0,0,0,430,152c-1.25-.75-4.73-2-4.9-2.32a4.1,4.1,0,0,1-.25-2,6,6,0,0,1,.25-2.07c1.83-.33,14.19-1,21.16-1,12.86,0,22.82,4.73,22.82,17.59,0,16.85-14.36,22.74-23.9,22.74a29.53,29.53,0,0,1-5.73-.5l0.08,11.37a1.72,1.72,0,0,0,1.24,1.74c0.91,0.5,4.81,1.74,5,2.07a4.11,4.11,0,0,1,.25,2A6,6,0,0,1,445.8,203.71Zm14-40.25c0-7.8-5.81-11.79-12-11.79-2.24,0-6.14.17-8.38,0.42l0.08,25.31a38,38,0,0,0,4.9.25C451.19,177.65,459.82,173.33,459.82,163.45Z"/><path class="cls-2" d="M533.36,215.82c-7.39-2.32-29.38-10.46-35-12.45-10.71-2.82-21.08-12-21.08-29.79,0-18.84,14.19-29.55,27.89-29.55,14.36,0,29.21,8.3,29.21,30.46,0,15.69-8.3,24.81-18.59,28.3,6,2.82,22.41,5.56,31.45,5.89,0.66,0.08.58,1.24,0.58,2.32a2.22,2.22,0,0,1-.66,1.83l-11.12,3A7.14,7.14,0,0,1,533.36,215.82ZM506,197c9.63,0,19.67-7.64,19.67-22.49,0-16.18-11.2-22.74-20.33-22.74s-19.17,7.55-19.17,21.91C486.14,189.85,497.59,197,506,197Z"/><path class="cls-2" d="M563.24,203.21H543.32a6,6,0,0,1-.25-2.07,4.1,4.1,0,0,1,.25-2c0.17-.33,3.57-1.49,4.73-2.08a1.47,1.47,0,0,0,1.08-1.49V152.83a1.42,1.42,0,0,0-.91-1.33c-1.25-.75-4.73-2-4.9-2.32a4.1,4.1,0,0,1-.25-2,6,6,0,0,1,.25-2.07c1.25-.33,14.19-0.66,21.16-0.66,12.86,0,22.08,5.15,22.08,16.93a19.87,19.87,0,0,1-11,17.84c4.32,6.47,10.29,15.6,10.87,16.35a4.42,4.42,0,0,0,1.83,1.49,39.59,39.59,0,0,1,5,2.08,2.51,2.51,0,0,1,.5,2,6,6,0,0,1-.25,2.07H581.33a1.48,1.48,0,0,1-1-.75l-13.53-20.75h-1.08a55.79,55.79,0,0,1-8-.33v13.94a1.72,1.72,0,0,0,1.25,1.74c0.91,0.5,4.07,1.74,4.23,2.08a4.1,4.1,0,0,1,.25,2A6,6,0,0,1,563.24,203.21ZM578.18,162c0-7.39-6-10.37-12.2-10.37a56.65,56.65,0,0,0-8.38.33l0.17,22.24c1.58,0.08,4.48.17,6.81,0.17C571.37,174.33,578.18,169.93,578.18,162Z"/><path class="cls-2" d="M635.28,186.86c0,10.21-9.13,16.85-19.25,16.85-10.87,0-17.18-4.9-16.76-4.9V185.7a3.93,3.93,0,0,1,2.32-.5,3.57,3.57,0,0,1,2.24.5c0,5.81,3.24,10.37,11.45,10.37,4.81-.08,11.2-2.49,11.2-8.63,0-6.72-11.2-9.88-14.69-11.62-3.32-1.66-12.53-4.65-12.53-15.19,0-10,11.12-16.35,20.67-16.35,9,0,13,3.07,13,3.49v11.54c0,0.25-1.08.5-2.08,0.5a3.19,3.19,0,0,1-2-.5c0-3.07-1.83-7.55-9.79-7.55-4.81,0-10.71,3.24-10.71,8.05,0,7.05,9.21,9,12.78,10.54C624,171.67,635.28,175.24,635.28,186.86Z"/><path class="cls-2" d="M674.13,203.21H653.79a6,6,0,0,1-.25-2.07,4.1,4.1,0,0,1,.25-2l0.08-.08c0.42-.42,3.74-1.74,4.56-2.24a1.39,1.39,0,0,0,1-1.33V153.74a1.57,1.57,0,0,0-1.16-1.33h-9.79a1.13,1.13,0,0,0-1,1c-0.41,1-1.49,5.15-1.74,5.31a6.68,6.68,0,0,1-2.41.25c-0.83,0-1.25.17-1.58-.25-0.08-.17.5-13.78,0.91-13.78h42.91c0.33,0,1,13.61.83,13.78-0.25.42-.75,0.25-1.58,0.25a6.2,6.2,0,0,1-2.32-.25c-0.25-.17-1.41-4.32-1.74-5.31a1.13,1.13,0,0,0-1-1H669.64a1.57,1.57,0,0,0-1.16,1.33v41.75a1.39,1.39,0,0,0,1,1.33c0.91,0.5,4.48,2,4.65,2.32a4.1,4.1,0,0,1,.25,2A6,6,0,0,1,674.13,203.21Z"/><path class="cls-2" d="M278.63,252.43a1.39,1.39,0,0,0-1-1.33c-1.41-.58-5.81-2-6.06-2.32a4.1,4.1,0,0,1-.25-2,6,6,0,0,1,.25-2.07h22.57a6,6,0,0,1,.25,2.07,4.1,4.1,0,0,1-.25,2c-0.25.33-4.32,1.83-5.39,2.32a1.48,1.48,0,0,0-1.08,1.33v20.5c0,19.42-5,31-23.24,31-17.84,0-21.66-11.62-21.66-30.62V252.43a1.51,1.51,0,0,0-1-1.33c-1.41-.75-5.23-2-5.39-2.32a3.18,3.18,0,0,1-.33-2,4.27,4.27,0,0,1,.33-2.07h22.49a6,6,0,0,1,.25,2.07,4.1,4.1,0,0,1-.25,2c-0.17.33-4.81,1.83-6,2.32a1.48,1.48,0,0,0-1.08,1.33v21.33c0,12.7,1.58,22.41,12.78,22.41s14-9.63,14-22.24v-21.5Z"/><path class="cls-2" d="M322.71,302.81c-4.81-12.62-19.17-49.8-19.42-50.38a3,3,0,0,0-.91-1.25c-0.42-.33-5.15-1.91-5.23-2.24a8.79,8.79,0,0,1-.17-2.24,12.79,12.79,0,0,1,.17-2h20.58a14.22,14.22,0,0,1,.25,2.07,4.08,4.08,0,0,1-.5,2.16c-0.33.17-3.65,1.74-4.48,2.24a1.41,1.41,0,0,0,0,1.16l14.86,39.92,14.69-39.84a1.53,1.53,0,0,0-.08-1.25c-1-.66-4-2.07-4.32-2.24a4.08,4.08,0,0,1-.5-2.16,14.22,14.22,0,0,1,.25-2.07h20.58a12.79,12.79,0,0,1,.17,2,8.79,8.79,0,0,1-.17,2.24c-0.08.33-4.81,1.91-5.23,2.24a3,3,0,0,0-.91,1.25l-20.75,50.38h-8.88Z"/><path class="cls-2" d="M403.3,256.42l-12.2,46.39H380.81l-14-50.38a3,3,0,0,0-.91-1.25c-0.42-.33-5.15-1.91-5.23-2.24a8.79,8.79,0,0,1-.17-2.24,12.79,12.79,0,0,1,.17-2h21.08a14.22,14.22,0,0,1,.25,2.07,4.08,4.08,0,0,1-.5,2.16c-0.33.17-4.15,1.74-5,2.24a1.41,1.41,0,0,0,0,1.16l9.71,38.92,12.53-45.89h10.21l14.19,45.31,9.13-38.26a1.53,1.53,0,0,0-.08-1.25,54.73,54.73,0,0,0-5.31-2.24,4.08,4.08,0,0,1-.5-2.16,14.22,14.22,0,0,1,.25-2.07H448.2a12.79,12.79,0,0,1,.17,2,8.79,8.79,0,0,1-.17,2.24c-0.08.33-4.81,1.91-5.23,2.24a3,3,0,0,0-.91,1.25l-14.44,50.38h-9.88Z"/><path class="cls-2" d="M473.27,302.89H451.11a12.8,12.8,0,0,1-.17-2,8.79,8.79,0,0,1,.17-2.24c0.08-.33,5.31-1.91,5.73-2.24s0.58-.66,1.08-1.16c0.75-.75,11.54-15.27,16.68-22.24-5-6.64-15.52-20.25-15.85-20.75a4.6,4.6,0,0,0-1.16-1.08c-0.41-.33-5.06-1.91-5.15-2.24a8.79,8.79,0,0,1-.17-2.24,12.79,12.79,0,0,1,.17-2h21.91a14.22,14.22,0,0,1,.25,2.07,4.08,4.08,0,0,1-.5,2.16c-0.33.17-3.49,1.74-4.32,2.24-0.17.08-.25,0.5,0.25,1.25,0.33,0.42,7.05,9.29,10.54,14.11,4-5.06,10.29-13.36,10.71-14.11a1.27,1.27,0,0,0-.08-1.25c-1-.66-4-2.07-4.32-2.24a4.08,4.08,0,0,1-.5-2.16,14.22,14.22,0,0,1,.25-2.07h21.08a12.79,12.79,0,0,1,.17,2,8.79,8.79,0,0,1-.17,2.24c-0.08.33-4.81,2-5.23,2.16A3.3,3.3,0,0,0,501,252c-0.66.58-10.54,13.61-15.44,20.42,5.73,7.64,16.93,22.33,17.26,22.66a9.83,9.83,0,0,0,1.33,1.33c0.42,0.33,5.15,1.91,5.23,2.24a8.79,8.79,0,0,1,.17,2.24,12.8,12.8,0,0,1-.17,2H487.21a14.22,14.22,0,0,1-.25-2.08,4.08,4.08,0,0,1,.5-2.16c0.33-.17,3.32-1.58,4.32-2.24a1.53,1.53,0,0,0,.08-1.24c-0.25-.5-7.88-10.46-12-15.85-4.15,5.48-11,15.19-11.37,15.93a1.12,1.12,0,0,0,0,1.16c0.83,0.5,4.15,2.08,4.48,2.24a4.08,4.08,0,0,1,.5,2.16A14.37,14.37,0,0,1,473.27,302.89Z"/><path class="cls-2" d="M527.3,302.73a6,6,0,0,1-.25-2.08,4.1,4.1,0,0,1,.25-2c0.17-.33,3.57-1.49,4.73-2.08a1.47,1.47,0,0,0,1.08-1.49V280.32l-16.35-29a2.6,2.6,0,0,0-.66-0.91c-0.25-.25-3.9-1.33-4-1.66a11.8,11.8,0,0,1-.25-2.07,13,13,0,0,1,.25-2h18.34a14.24,14.24,0,0,1,.33,2,5.39,5.39,0,0,1-.5,2.07c-0.25.08-3.32,1.33-3.82,1.66a1.41,1.41,0,0,0,0,.83l11.79,21.66,11.62-21.58a1.65,1.65,0,0,0-.08-0.91,25.8,25.8,0,0,0-3.65-1.66,5.39,5.39,0,0,1-.5-2.07,14.24,14.24,0,0,1,.33-2h17.76c0,0.42.25,1.41,0.25,2a11.8,11.8,0,0,1-.25,2.07c-0.08.33-3.73,1.41-4,1.66a1.88,1.88,0,0,0-.66.91l-17.1,29v14.52a1.55,1.55,0,0,0,1,1.74c0.91,0.5,4.65,1.74,4.81,2.08a4.1,4.1,0,0,1,.25,2,6,6,0,0,1-.25,2.08H527.3Z"/><path class="cls-2" d="M568.06,300.82c0-1.33-.08-5,0.33-5.64l32-42.66H579a2.06,2.06,0,0,0-2.24,1.16c-0.58,1.08-2.57,6.64-2.91,6.89a4.1,4.1,0,0,1-2,.25,6,6,0,0,1-2.08-.25l1.08-14.44a1.72,1.72,0,0,1,1.16-1.41h37.68c0.75,0,.83,7,0.66,7.72l-30.87,42.74H603a1.52,1.52,0,0,0,1.49-1.25c0.58-1.41,2.66-6.81,3-7a3.18,3.18,0,0,1,2-.33,5.59,5.59,0,0,1,2.07.33l-1.08,15.77H569.8A1.63,1.63,0,0,1,568.06,300.82Z"/><path class="cls-2" d="M148.7,392.45c-3.07,5.48-8.88,10.79-17.68,10.79-10,0-14.69-8.47-14.69-17.26,0-17.59,12-30.87,25.48-30.87,6.56,0,10.79,3.07,12.28,7.22,0.5-2.91,1.41-5.56,2.16-5.56H162c1.24,0.08,1.08.08,1.08,1.33,0,1.08-7.64,24.82-7.64,36.68,0,1.49,5.06-.25,6.56-0.17a1.38,1.38,0,0,1,.75,1.41,5.61,5.61,0,0,1-.17,1.16c-0.17,1.41-.91,2.74-1.33,2.74-2.66.66-8.71,2.82-10.71,2.82-1.16-.08-2.49-2.32-2.49-5C148,397.1,148.37,394.94,148.7,392.45Zm-5.64-30c-9.46,0-18.26,9.21-18.26,22.24,0,6.14,2.66,11,7.8,11,12.12,0,18.18-16,18.18-26.06C150.78,366.06,147.37,362.49,143.06,362.49Z"/><path class="cls-2" d="M172.61,389.71c0-7.88,5.81-31.87,7.64-44.15l-5.31-.25c-0.42-.08-0.66-1.33-0.5-2.24s0.75-2.07,1.25-2L187,339.17c1.49,0.17,2.24.91,2.08,2.49l-4.48,22.16c3.07-3.82,9.21-8.3,16.6-8.3,10.13,0,13.36,8,13.36,16.27,0,17.18-10.71,31.87-27.22,31.87C178.58,403.65,172.61,399.42,172.61,389.71ZM188,395.93c12.61,0,18.51-15.35,18.51-22.74,0-5.06-2.07-10.62-7.3-10.62-10.87,0-18,15-18,25.73C181.16,393.53,182.57,395.93,188,395.93Z"/><path class="cls-2" d="M259.59,365.89c-1.58-2.16-4.07-3.15-9.13-3.15-8.88,0-17.35,9.71-17.35,22.33,0,8.05,5,12.95,12.37,12.95s10.46-2.74,12.2-4.23h0.08c0.33,0,1,.91,1.41,2a8.26,8.26,0,0,1,.5,2.66,0.92,0.92,0,0,1-.08.58c-2,1.58-6.47,5-15.35,5.15-11.2,0-20.17-7.22-20.17-18.76,0-17.68,13.36-29.54,26.39-29.54,10.62,0,13.78,3,15.85,5.81,0,2.57-2.66,11-2.82,11a3.53,3.53,0,0,1-.91.17c-0.25,0-.5-0.08-0.91-0.08a2.56,2.56,0,0,1-1.58-.42C259.92,372.2,259.92,366.56,259.59,365.89Z"/><path class="cls-2" d="M306.07,393.61c-2.9,5-10,9.63-18,9.63-8.55,0-14.19-8.47-14.19-19.25,0-15.6,10.79-28.88,23.9-28.88,8.88,0,12.45,5.31,13.28,10.54,1.49-6.81,4.4-19.67,4-20.42-0.33-.58-4.32-0.17-5.73-0.25a1.59,1.59,0,0,1-.5-1.49,2.3,2.3,0,0,1,.08-0.75c0.17-1,.66-2,1.16-2l11.45-1.41c1.24,0.08,2.07.66,2.07,1.91v0.5c-1.91,9.88-10.87,52-9.88,53,1.16,1.16,4.48-.25,6-0.17a1.38,1.38,0,0,1,.75,1.41,5.61,5.61,0,0,1-.17,1.16c-0.17,1.41-.91,2.74-1.33,2.74-2.66.66-8.71,2.82-10.71,2.82-1.16-.08-2.49-2.32-2.49-5C305.73,396.85,305.9,395.19,306.07,393.61Zm-7.55-31.12c-8.47,0-15.93,9.13-15.93,21.08,0,5.56,1.66,12,8.3,12,8.55,0,16.76-10.12,16.76-22.33C307.64,365.89,302.83,362.49,298.51,362.49Z"/><path class="cls-2" d="M331.3,385.15c0-13.53,11.12-29.63,27.55-29.63,9.63,0,14.44,5.73,14.44,12.61,0,10.71-18,17.84-33.36,18.67,0.66,6,4.15,10.37,10.13,10.37,7.47,0,11.29-1.66,16.43-5.89,0.41-.42,1.16,0,1.91,1.25a3.28,3.28,0,0,1,.08,2.66c-4.23,3.57-10.12,8.38-19.92,8.38C336.28,403.57,331.3,393.61,331.3,385.15Zm8.8-3.9c11.54-.5,25.4-6.64,25.4-12.37,0-3.49-2.41-6.89-8.05-6.89C347.65,362,341.34,372,340.1,381.25Z"/><path class="cls-2" d="M370.56,415.36c0-.75.58-2.08,1.58-2.08,1.74,0,5.56-3.07,6.72-7.47,1.91-7.22,5-24.4,7.14-37.18h-4.07c-0.25,0-.33-2-0.25-3.07s0.41-3,1.41-3H387c0.5-3.07.91-5.56,1.16-7.22,1.33-8.63,6.31-16,19.09-16,7.3,0,9.79,3,10,3.32L415,351.53a9.13,9.13,0,0,1-2.24.17,5.25,5.25,0,0,1-2.16-.58c0-1.74-.66-5-4.65-5-6.31,0-8.38,4.15-9.79,10.62-0.33,1.41-.66,3.4-1.08,5.81h12.62c0.42-.08.83,1.41,0.66,3.15-0.25,1.33-1.25,2.9-1.58,2.9h-12.7c-2.07,12.2-4.56,28.72-6.06,34.94-2,8.46-8,13.78-16.18,13.78C370.73,417.35,370.56,416.35,370.56,415.36Z"/><path class="cls-2" d="M414.13,415.19c0-1,1.33-4.4,1.91-3.82,2.32,2.32,6.22,4.23,12.95,4.23,5.89,0,10.79-2.74,12.86-8.71,1-2.9,2.57-9,3.57-13.44a19.56,19.56,0,0,1-17.34,9.79c-9.21,0-14.69-8.47-14.69-17.26,0-17.59,12-30.87,25.48-30.87,7,0,11.62,3.4,13,8,1.08-3.15,3.15-6.31,3.9-6.31h6.06c1.25,0.08,1.58,1.41,1.49,2.41-0.17,1.66-4.4,4.07-6.89,13.36-2.07,7.88-4.4,28.47-6.39,34.61-3.65,11.12-12.45,14.61-22.08,14.61C420.44,421.75,414.13,417,414.13,415.19Zm26-52.7c-9.46,0-18.18,10.29-18.18,22.24,0,5.56,2.49,11,8,11,13.2,0,17.93-16.1,17.93-26.14C447.83,366.06,444.43,362.49,440.11,362.49Z"/><path class="cls-2" d="M468.17,403.07c0-2.41,10-55.11,10-55.69a1.4,1.4,0,0,0-1.25-1.49c-1.66,0-5.15.5-5.56-.08a3.46,3.46,0,0,1-.58-1.91c0.17-1.08.33-2.08,1.08-2.08l13.44-2.9c1.33,0.08,2.16.75,2.16,2v0.42l-5.06,27c3.15-5.56,9.54-12.61,19.67-12.61,7.47,0,10.62,6.72,10.62,15.27,0,5.89-2.57,16.43-4,23.9a2.34,2.34,0,0,0,.75,1.41c0.58,0.42,5.39.66,5.81,1.08a0.67,0.67,0,0,1,.41.75c0,0.25-.08.58-0.17,1.16-0.17,1.08-.58,2.07-1.08,2.07h-0.08c-3.24.25-9.88,1.66-12,1.66-1.66,0-3.07-1.74-3.07-3.9a2.82,2.82,0,0,1,.08-0.83c1.58-8.47,4.9-21.41,4.9-27,0-5.31-2-7.39-6.56-7.39-7.39,0-14.69,10.62-17.26,18.09l-3.82,19.42A35.47,35.47,0,0,1,468.17,403.07Z"/><path class="cls-2" d="M537.8,394.94a1.28,1.28,0,0,0,.66,1.33c0.66,0.33,5.23.42,5.73,0.75s0.42,0.58.17,1.91a12.64,12.64,0,0,1-.75,2.16L532,403.32c-1.83,0-4.07-1.33-3.65-3.9l7-36.1a1,1,0,0,0-.58-1.33c-1.25-.5-4.48,0-4.65-0.17s0.33-3.65.66-3.74l11.37-2.57c1.49,0,2.9.66,2.66,2.24C543,367.05,537.8,394.19,537.8,394.94ZM539,351.45a1.3,1.3,0,0,1-1.49-1.25c0-1.66.91-7.14,2.32-7.14l7-.83a1.25,1.25,0,0,1,1.16,1.25c0,1.08-.75,7.14-2.41,7.14Z"/><path class="cls-2" d="M555.65,402c1.33-6,5.39-27.55,7.22-38.26a1.14,1.14,0,0,0-.66-1.41c-0.83-.58-4.65,0-4.81-0.33a4.16,4.16,0,0,1,.08-2,9.54,9.54,0,0,1,.58-2.08l13.28-1.58c0.91,0.08,1,.91.66,2.82-2.66,15-6.89,37.35-8.3,43.65-1.91,8.71-7.72,17.1-20.08,17.1-6.06,0-8.47-2.82-8.71-3.24-0.33-.25-0.42-2,0-3.49,0.33-1.08,1.08-2.32,1.83-2.32,0.91,1.16,3.07,2.41,6.72,2.41C549.92,413.28,554.15,408.72,555.65,402Zm10.46-50.54a1.3,1.3,0,0,1-1.49-1.25c0-1.66.91-7.14,2.32-7.14l7-.83a1.25,1.25,0,0,1,1.16,1.25c0,1.08-.75,7.14-2.41,7.14Z"/><path class="cls-2" d="M613.08,403.4l-15.6-18.34,0.66-4.81c10,0,19.42-5.89,19.42-13.2,0-3.32-.83-5.39-3.49-5.39-9.54,0-20.08,10.62-21.33,19.92-0.5,2.74-2.9,16.35-3.32,19.17,0,0.66-8.38,2.82-9.71,2.74,0-2.41,10.87-55.52,10.87-56.1a1.4,1.4,0,0,0-1.25-1.49c-1.66,0-5.15.5-5.56-.08a3.46,3.46,0,0,1-.58-1.91c0.17-1.08.33-2.08,1.08-2.08l13.36-2.9c1.33,0.08,2.16.75,2.16,2v0.42l-4.56,25.4a29.59,29.59,0,0,1,23.4-11.87c4.65,0,8,4,8,9,0,10.62-8.47,17.68-19.5,20.17l10,12c0.5,0.75,1.91,1,2.66,1.33,0.91,0.42,4.23-.33,4.65-0.08a2.24,2.24,0,0,1,.58,1.83,6,6,0,0,1-.25,2.07l-9.29,3A3.38,3.38,0,0,1,613.08,403.4Z"/><path class="cls-2" d="M635.57,399.42l9.63-52a1,1,0,0,0-.58-1.33c-1.25-.5-4.48.17-4.56-0.17a1.86,1.86,0,0,1-.33-1.66,6.39,6.39,0,0,1,.58-2.08l11.7-2.57c1.49,0,2.91.66,2.66,2.24l-9.54,52.62a7.81,7.81,0,0,0,.58,1.83c0.66,0.42,5.23.42,5.73,0.75s0.42,0.58.17,1.91a12.64,12.64,0,0,1-.75,2.16l-11.62,2.24C637.4,403.32,635.16,402,635.57,399.42Z"/><path class="cls-2" d="M691.76,403.07c-0.08-1.49,5.56-25.06,5.56-32.87,0-4.23-1.16-6.47-4.65-6.47-7.55,0-15.77,10.79-18.34,18.26l-3.4,18.84c0,0.66-9.13,2.91-9.13,2.08,0-2.08,7.3-37.43,7.3-38.51a1.4,1.4,0,0,0-1.25-1.49c-1.66,0-5.15.5-5.56-.08a6.24,6.24,0,0,1-.5-2.49c0.17-1.08.33-2.08,1.08-2.08l13.69-2.9c1.33,0.08,2.16.75,2.16,2v0.42l-2.49,10.37c5-6.8,11-12.45,19.25-12.45,7.3,0,9.71,4.48,10.29,11.54,3-5,10.46-11.54,19-11.54,9.13,0,10.71,6.06,10.71,11.29,0,7.05-3.07,20.58-4.48,28.05a2.34,2.34,0,0,0,.75,1.41c0.58,0.42,5.39.66,5.81,1.08a0.67,0.67,0,0,1,.42.75c0,0.25-.08.58-0.17,1.16-0.17,1.08-.58,2.07-1.08,2.07h-0.08c-3.24.25-10.12,1.66-12.2,1.66-1.66,0-3.07-1.74-3.07-3.9a2.82,2.82,0,0,1,.08-0.83c1.58-8.47,5.06-22.66,5.06-28.13,0-4.48-.91-6.56-5.06-6.56-7.39,0-13.86,10-16.6,17.43L701.06,401C700.89,401.74,691.84,403.9,691.76,403.07Z"/><path class="cls-2" d="M129.32,498.86a2.82,2.82,0,0,1,.08-0.83c1.58-8.47,4.81-21.58,4.81-27.14,0-5.31-1.41-7.55-5.73-7.55-7.39,0-15.1,10.13-17.68,17.59L107,500.1c0,0.91-4.56,1.83-8.8,2.66,0-2.41,7.14-38.18,7.14-38.76a1.4,1.4,0,0,0-1.25-1.49c-1.66,0-5.15.5-5.56-.08a6.24,6.24,0,0,1-.5-2.49c0.17-1.08.33-2.08,1.08-2.08L112.8,455c1.33,0.08,2.16.75,2.16,2v0.42l-2.32,9.88c3.65-5.39,10.37-12,20.17-12,7.22,0,9.79,6.31,9.79,13.28,0,7.47-2.49,18.59-3.9,26.06a2.34,2.34,0,0,0,.75,1.41c0.58,0.42,5.39.66,5.81,1.08a0.67,0.67,0,0,1,.42.75c0,0.25-.08.58-0.17,1.16-0.17,1.08-.58,2.07-1.08,2.07h-0.08c-3.24.25-9.88,1.66-12,1.66C130.73,502.76,129.32,501,129.32,498.86Z"/><path class="cls-2" d="M199.12,470.8c0,16.93-8.8,32.7-27.14,32.7-11,0-16.6-7.72-16.6-17.59,0-15.27,9.38-31,26.89-31C192.07,455,199.12,461.26,199.12,470.8ZM164,485.08c0,6.64,1.74,12.12,9.29,12.12,10,0,17.26-13.2,17.26-24.57,0-5.73-2.41-11.7-9.63-11.7C172.23,460.93,164,474.21,164,485.08Z"/><path class="cls-2" d="M207.92,518.61a2.39,2.39,0,0,1-2.24-2.16c0-2.49,10.71-52,9.54-53.12s-4.23-.42-5.73-0.5c-0.83-.25-1.08-1.08-0.83-2.16,0.17-1.41.91-2.49,1.33-2.49,2.66-.66,9-2.49,11-2.49,1.16,0.08,2.49,2,2.49,4.65a26.13,26.13,0,0,1-.33,3.07,21.25,21.25,0,0,1,16.6-8.55c10.21,0,15.27,6.64,15.27,17.59,0,15.6-10.62,30.54-24.23,30.54-7.3,0-11.37-3.9-12.61-9.13-1.41,6.72-3.57,17.18-3.32,18.17s4,0.66,5.31.83a1.59,1.59,0,0,1,.5,1.49,2.3,2.3,0,0,1-.08.75c-0.17,1-.66,2-1.16,2C216.64,517.53,210.16,518.61,207.92,518.61Zm22-23.24c9.63,0,16.18-11.54,16.18-20.33,0-8-2.41-12.53-8.88-12.53-9,0-16,9.13-16,20.25C221.2,490.31,224.11,495.37,229.92,495.37Z"/><path class="cls-2" d="M290.34,518.19c0-1.33,2.49-14.44,4.07-23.07-3.4,4.23-8.46,7.72-15.19,7.72-10.71,0-15.6-8.47-15.6-17.26,0-17.59,11-30.87,24.57-30.87,6.81,0,11.37,3.24,12.95,7.63,0.75-3.07,2.16-6,2.9-6h6.31c1.25,0.08,1.58,1.41,1.49,2.41-0.17,1.66-4.07,3.9-5.81,13.36-1.49,8-6.22,33.61-7.05,40.17-0.17,1.49,4.65-.33,5.48.42a1.84,1.84,0,0,1,.08,2.16c-0.91,1.66-8.55,5.56-11.54,5.56C291.83,520.43,290.34,518.52,290.34,518.19Zm-0.91-56.52c-9.46,0-17,10.71-17,22.66,0,5.56,1.58,11.54,7.64,11.54,12.28,0,17.1-16.6,17.1-26.64A8,8,0,0,0,289.43,461.67Z"/><path class="cls-2" d="M320.55,502.09c-0.58,0-1.74-1.74-1.66-2.49l6.22-35.11a1.35,1.35,0,0,0-.83-1.33c-1.33-.5-5-1.41-5.15-1.74a2.73,2.73,0,0,1-.25-1.66c0-1.08.5-2.08,0.83-2.08l11.7-1.33c1.49,0,1.83.58,1.91,2.16l-0.66,5.15c2.49-3.4,8-8.55,11.79-8.55,2.66,0,6,.33,7.47,1.83,0.5,0.5-2.74,7.55-3.65,8.22a2.26,2.26,0,0,1-2.74.17c-0.58-.58.33-2.57-3.49-2.57-4.81,0-10,7.64-10.62,10.79-1.66,8-3.32,17.35-3.32,21.08,0.08,1,.25,1.41.91,1.58,1,0.58,4.15-.25,4.32,0a3,3,0,0,1,.33,2.08,4.12,4.12,0,0,1-.83,1.91C330.18,501,323.13,502.26,320.55,502.09Z"/><path class="cls-2" d="M384.13,487.65c0,9.29-6.31,15.19-17.93,15.19-10.12,0-13.86-6.39-13.86-6.81l2-8.13a4.3,4.3,0,0,1,2.07-.42c0.91,0,2.07.25,2.07,0.58-1.16,5.64,3.4,8.22,8.05,8.22,5.31,0,8.8-1.91,8.8-7.39,0-4.07-6.14-6.22-9.3-8-2.9-1.66-9.46-5-9.46-11,0-10.54,10.13-14.36,18.34-14.36,7.88,0,11.78,2.82,11.78,3.15l-2.41,8.47a3.49,3.49,0,0,1-1.83.42,2.68,2.68,0,0,1-1.83-.75c0.42-2.57-1.25-5.81-6.47-5.89-4.4.08-9.54,2-9.54,6.39,0,4.81,6,6.39,9.13,8C377.24,477.11,384.13,480.68,384.13,487.65Z"/><path class="cls-2" d="M395.25,486.49l4.15-24.9h-6.22c-0.58,0-1.08-1.08-.91-2,0.17-1.16.75-2.41,1.33-2.41,1.74,0.17,9.21-2.32,11-12.12a6.65,6.65,0,0,1,3.24-.58,5.47,5.47,0,0,1,2.9.91l-1.74,10.87h14.27c0.42,0.08.91,1.08,0.66,2.74-0.33,1.33-1.33,2.74-1.66,2.74H407.7l-3.57,21.91c-1.25,7.72-1.25,12.7,3,12.7,5.06,0,7.64-4.65,9.71-8a6.88,6.88,0,0,1,2.32-.08,3.93,3.93,0,0,1,2,1.49c-3,7.3-6.81,13.45-16.1,13.45C395.58,503.17,393.76,495.45,395.25,486.49Z"/><path class="cls-2" d="M461.4,500.76v-0.42l1.49-8.8c-3,5.06-8.88,10.87-18.51,10.87-7.47,0-11-5.15-11-10.54,0-5.73,3.49-22.66,4.48-29.63a2,2,0,0,0-.75-1.41c-0.58-.42-4.9.17-5.31-0.25-0.5-.25-1-0.33-0.75-1.91,0.17-1.08.58-2.07,1.08-2.07h0.08c3.24-.25,10.13-1.66,12.2-1.66,1.66,0,2.66,1.74,2.66,3.9a2.82,2.82,0,0,1-.08.83c-1.16,6.22-5,23.9-5,29,0,4.4,1.83,6.64,6.39,6.64,7.39,0,14.36-10.54,16.93-18,0.5-2.74,2.57-12,3-14.77a1.22,1.22,0,0,0-.75-1.41c-1-.17-5.73.08-5.81-0.17a2.78,2.78,0,0,1-.5-2,6.61,6.61,0,0,1,.66-2.08c3.32-.58,10.79-1.91,12.37-1.91,1.91,0,2.82.91,2.82,3,0,2.41-7.14,35.77-7.14,36.35a1.4,1.4,0,0,0,1.25,1.49c1.66,0,4.48-.33,4.65,0a8.15,8.15,0,0,1,.5,2.49c-0.17,1.08-.75,2.16-1.49,2.16l-11,2.24C462.56,502.67,461.4,502,461.4,500.76Z"/><path class="cls-2" d="M500.16,501.93c-2.24-11.87-6.22-33.2-8.88-39.67a1.62,1.62,0,0,0-.75-0.75c-0.41-.25-3.9.17-4.56-0.17-0.33-.17-0.5-1.08-0.5-2.08,0-.66.17-2.08,0.75-2.08l10.21-2.49c1.33,0,1.91.91,2.49,3.32,0.83,3,5.31,21.25,7.55,34.69,5.64-9.63,13.45-23,16.68-30.79,0-.17,0-1-0.42-1l-3.57.25a3.74,3.74,0,0,1-1-2.16c0-.66.17-2.16,0.5-2.16l11.87-2.16c0.66,0,2.32.75,2.32,1.83a37.39,37.39,0,0,1-.58,4.65c-4.57,10-21.91,37.68-22.57,39a5.35,5.35,0,0,1-1.91,1.58L501.49,503A1.81,1.81,0,0,1,500.16,501.93Z"/><path class="cls-2" d="M582.58,501.93c-1.49-7.88-3.57-19.83-6.22-30.87-7.72,13.61-16.43,28.22-16.93,29.13a5.35,5.35,0,0,1-1.91,1.58L551.2,503a1.8,1.8,0,0,1-1.33-1.08c-2.24-11.87-4.57-33.2-7.22-39.67a1.62,1.62,0,0,0-.75-0.75c-0.42-.25-3.9.17-4.56-0.17-0.33-.17-0.5-1.08-0.5-2.08,0-.66.17-2.08,0.75-2.08l10.21-2.49c1.33,0,1.91.91,2.49,3.32,0.75,2.82,3.4,19.42,5.89,34.69,6.56-11.45,13.53-25,16.6-32.28-0.58-1.83-.42-4,1.25-4.4,1.25-.33,4.15-1.33,5.73-1.33,1.41,0,5.64,17.76,9.13,38a327.79,327.79,0,0,0,15.6-30.79c0-.17,0-1-0.42-1l-3.57.25a3.74,3.74,0,0,1-1-2.16c0-.66.17-2.16,0.5-2.16l11.87-2.16c0.66,0,2.32.75,2.32,1.83a37.4,37.4,0,0,1-.58,4.65c-4.57,10-20.83,37.68-21.5,39a5.35,5.35,0,0,1-1.91,1.58L583.9,503A1.81,1.81,0,0,1,582.58,501.93Z"/><path class="cls-2" d="M647.73,501.76l-9.88-18.18-13.53,12.28c-0.75.75,0,.75,0.17,1.16a35.93,35.93,0,0,0,3.9.91,1.49,1.49,0,0,1,1.08,1.41c-0.08.33-.58,1.66-0.66,1.91-2.49.25-11.29,1-13.44,1-1.41,0-2.91-5.15-1.74-6.31l20.67-18.76-8.63-15.77c-0.75-.42-5.31.66-5.81,0.33s-0.75-.66-0.75-2c0-1.08.33-1.66,0.58-1.66l10.13-3.65a2.53,2.53,0,0,1,2.49,1.41l9,16.1,11.45-10.37a0.51,0.51,0,0,0-.17-0.58c-0.66-.5-4.32-0.83-4.56-1.08a4.93,4.93,0,0,1-.25-1.49,8.81,8.81,0,0,1,.25-1.74l13.53-.91c0.75,0,1.58.08,1.83,0.83s1.49,3.9.66,4.9l-19.25,17.43,9.46,16.35c0.75,0.42,6.39-.5,6.89-0.17s0.58,0.58.58,1.91a1.76,1.76,0,0,1-.75,1.74l-10.79,4.15A2.36,2.36,0,0,1,647.73,501.76Z"/><path class="cls-2" d="M673,513.3c0-1,1.41-4.48,1.91-3.82,1.66,2.32,6.22,4.65,12.95,4.65,5.56,0,11.45-5.06,13-10.46a116,116,0,0,0,2.57-11.54c-4.4,5.89-9.46,10.29-18.42,10.29-7.47,0-10-5.15-10-10.54,0-5.73,3.82-22.66,4.81-29.63a2,2,0,0,0-.75-1.41c-0.58-.42-4.9.17-5.31-0.25-0.5-.25-1-0.33-0.75-1.91,0.17-1.08.58-2.07,1.08-2.07h0.08c3.24,0,9.79-1.66,11.87-1.66,1.66,0,2.66,1.74,2.66,3.9a2.82,2.82,0,0,1-.08.83c-1.16,6.22-5,24.73-5,29.88,0,4.4,1.08,5.56,4.9,5.56,6.89,0,16-11,17.51-18.51,0.58-2.74,2.16-10.87,2.57-13.69a1.39,1.39,0,0,0-.75-1.41c-1-.58-5.31-0.25-5.39-0.5a2.78,2.78,0,0,1-.5-2,6.58,6.58,0,0,1,.66-2.08C706,456.36,713.47,455,715,455c1.91,0,3.24.91,2.82,3-3.82,20.67-7.05,36.1-9.21,46-2.32,10.71-12.12,16.27-20.91,16.27C679.36,520.27,673,515.12,673,513.3Z"/><path class="cls-2" d="M720.19,498.77a11.2,11.2,0,0,1,.91-3.74l29.46-31.21H736a2,2,0,0,0-1.91.91c-0.5.91-3.24,4.56-3.49,4.81a5.7,5.7,0,0,1-1.91.17,7.55,7.55,0,0,1-1.74-.17l3.07-12a1.56,1.56,0,0,1,1-1.16h30.29c0.83,0,1.49,1.49,1.49,2.32,0,1.08,0,3.32-.58,3.82l-29.88,32.12h18.51a1.26,1.26,0,0,0,1.24-1,19.33,19.33,0,0,1,3.32-4.4,5.52,5.52,0,0,1,2.24-.25,4.27,4.27,0,0,1,1.74.25l-4.07,12.7H721.6C720.77,501.93,720.19,499.93,720.19,498.77Z"/></svg>