<svg id="Layer_12" data-name="Layer 12" xmlns="http://www.w3.org/2000/svg" viewBox="0 0 850 600"><defs><style>.cls-1{fill:#fff;}.cls-2{fill:#231f20;}</style></defs><title>term2-comparison-04-01</title><rect class="cls-1" width="850" height="600"/><path class="cls-2" d="M204.43,108l0.17-18.18H184.52l-8,14.52h5.06l-0.91,4.07-10.46,3-4-3.4,30.13-54.78H191.9l0.91-4.4,16.43-4.32,3.32,3,0.17,56.85h5.48l-0.91,4.07-8.88,3Zm0.41-55.19L188.08,83.36H204.6Z"/><path class="cls-2" d="M226.76,108l0.08-.08h-0.08l12.62-54.69h-6.72l0.91-4.4,12.2-4.32,3.24,2.9,0.08,0.08-0.08.08a39.44,39.44,0,0,1,14.86-3c5.31,0,9.63,5.06,9.63,12.37a19.61,19.61,0,0,1-12,18.26A11.34,11.34,0,0,1,270,86.1c0,10.79-6.31,25.73-25.06,25.73A50.41,50.41,0,0,1,226.76,108Zm35.11-20.08c0-4.07-2.07-8.55-7.64-8.55a120.13,120.13,0,0,0-12.78.91l-5.64,24.23a39,39,0,0,0,9.63,1.08C257.06,105.6,261.87,94.73,261.87,87.92ZM247.76,52.73L242.86,74a50.67,50.67,0,0,0,11.45-1c5.15-1.41,11-7.64,11-15.77,0-3.32-.66-6.56-5.39-6.56A42.86,42.86,0,0,0,247.76,52.73Z"/><path class="cls-2" d="M300.63,112.07c-16.43,0-20.75-9-20.75-19.17,0-17.76,7.64-47.8,28.47-47.8,8,0,11.79,1.49,16.76,4.9l-5.23,15-6.14-1.41,2.07-10a18.12,18.12,0,0,0-7.88-1.83c-12,0-19.75,22.24-19.75,38.84,0,8.38,3.4,15.1,12.53,15.1a14.33,14.33,0,0,0,10.46-5.31l4.23,4C311.67,108.59,306.27,112.07,300.63,112.07Z"/><path class="cls-2" d="M324.29,108.09l0.08-.08H324.2l12.62-54.78H330l0.91-4.4,12.2-4.32,3.32,3v0.17a42.72,42.72,0,0,1,15.69-3.07c4.73,0,12.45,4.81,12.45,18.18,0,16.85-9.29,48.88-33.28,48.88C333,111.66,329,110.41,324.29,108.09Zm41.58-44.65c0-9.13-3.57-12.61-7.72-12.61A49.76,49.76,0,0,0,345.2,52.9l-12,52a33.12,33.12,0,0,0,7.3.66C358.48,105.52,365.87,77,365.87,63.44Z"/><path class="cls-2" d="M412.76,109.75H383.38l-4-3.4,12.2-52.87h-7.14l0.83-3.73,8.38-3.24h32.12l-3.65,15.1h-5.31l-0.25-8.13H399.9L395,74.81h21.83l-1.58,6.47H393.51l-5.15,22.08h18.42l4.81-7.8h5.31Z"/><path class="cls-2" d="M431.69,111.41l-4-3.4,12.78-54.53H432.6l0.83-3.73,9.13-3.24h32.12L471,61.61h-5.31l-0.25-8.13H448.78l-5.39,23h21.5l-1.58,6.47H441.9l-5.06,21.41h5.64l-0.91,4.07Z"/><path class="cls-2" d="M495.26,112.07c-16.43,0-20.75-9-20.75-19.17,0-17.76,6.56-47.8,30.54-47.8,8.05,0,13.94,1.74,17.51,4.56l-4.73,12.28-6.14-1.41,1.49-6.89c-1.74-1-4.65-1.83-9-1.83-15.1,0-21.41,22.24-21.41,38.84,0,8.38,3.4,15.1,12,15.1a20.92,20.92,0,0,0,8.88-2.24L508,86.35h-9l0.91-4.4,13.61-4.32,3.9,4.48-0.17.08h0.08l-5.73,23.65C508.54,109.25,500.91,112.07,495.26,112.07Zm11.29-10.37a16,16,0,0,0,1.16-1.24Z"/><path class="cls-2" d="M558.67,108l6.14-26.72H541l-5.31,23.07h6.22L541,108.42l-10.46,3-4-3.4,12.62-54.78h-6.81l0.91-4.4,12.2-4.32,3.32,3-6.31,27.3h23.82l5-21.58h-6.81l0.91-4.4,12.2-4.32,3.32,3L567.8,104.36H574l-0.91,4.07-10.46,3Z"/><path class="cls-2" d="M585.9,108l12.62-54.78h-6.81l0.91-4.4,12.2-4.32,3.32,3L595,104.36h6.22l-0.91,4.07-10.46,3Z"/><path class="cls-2" d="M596.19,126.1l1.58-6c0.42,0,.83.08,1.33,0.08,8.38,0,11-2.49,15.1-14.77C615.36,102,625,64.1,626.9,53.15h-9.46l0.91-4.4,15.27-4.32,3.32,3-0.17.08h0.17c-2.49,12.95-14.11,56.93-14.94,59.67-4.48,15.35-10.37,19.17-22.24,19.17A31,31,0,0,1,596.19,126.1Z"/><path class="cls-2" d="M663,80.21L653,90.83l-3.15,13.53h5.31l-0.91,4.07-9.54,3-4-3.4,12.62-54.78h-6.81l0.91-4.4,12.2-4.32,3.32,3-7.3,31.79,24.32-26.14h-5.31l0.83-3.57,12-4.9,4.07,5.48L668.9,74l12,30.54h5.48l-0.83,4.07-10.87,3.15Z"/><path class="cls-2" d="M195.31,209.35l-4-3.4,12.45-53.12H197l0.91-4.4,12.2-4.32,3.32,3-13.2,56.19h17.18l5-8.13h5.31l-4.15,14.19H195.31Z"/><path class="cls-2" d="M286.52,207.61l0.17-.08h-0.17l7.14-48.22,0.58-6.56-1.91,6.56-24,47.64L259,209.52l-2.41-49.46-0.17-7.3L255.06,160l-15.27,44h6.39L245.27,208l-10.46,3-4-3.4,0.08-.08,19.17-54.69h-5.31l0.91-4.4,13.69-4.32,3.32,3,2.66,46.81-0.5,7.39,2-7.39,20.58-41.16h-3.65l0.91-4.4L298.3,144l3.32,3L295.07,204h5.31L299.47,208l-9,3Z"/><path class="cls-2" d="M313.91,211l-4-3.4,12.78-54.78h-6l0.91-4.4,12.12-4.32,3.32,3,16.68,47.56,0.58,6.31,0.75-6.56L360,152.75h-7.14l0.91-4.4,12.2-4.32,3.32,3-0.17.08h0.17L355,208.1l-8.47,2.49-18-52.62-10.12,46h6.89L324.37,208Z"/><path class="cls-2" d="M396.08,211.67c-16.43,0-20.75-9-20.75-19.17,0-17.76,7.64-47.8,27.3-47.8,14.86,0,19.67,9,19.67,17.26C422.3,182.79,415.08,211.67,396.08,211.67Zm0.08-6.81c10.21,0,17.76-20.25,17.76-39.84,0-7.47-3.82-13.36-12.78-13.36-9.79,0-17.51,22-17.51,38.59C383.63,198.64,387,204.87,396.16,204.87Z"/><path class="cls-2" d="M432.85,211l-4-3.4,12.62-54.78h-6.81l0.91-4.4,12.2-4.32,3.32,3a39.1,39.1,0,0,1,14.77-2.9c5.31,0,12.28,4.81,12.28,12.12,0,13.53-5.81,31.62-25.15,31.62-5.31,0-8.47-.58-11-1.58L438,204h8.38L445.46,208Zm36.6-52.78c0-4.32-2.82-7.8-7.55-7.8a45,45,0,0,0-12,2l-6.31,27.3a22.43,22.43,0,0,0,9.71,2C465.13,181.71,469.45,168.19,469.45,158.23Z"/><path class="cls-2" d="M506.63,210.84a15.84,15.84,0,0,1-5.31.83c-16.43,0-20.75-9-20.75-19.17,0-17.76,7.64-47.8,27.3-47.8,14.86,0,19.67,9,19.67,17.26,0,16-4.32,36.85-14.94,45.56l3.32,4.9h5.39l-0.91,4.07L512,219.06Zm-4-6.06-2.74-4.23,5.81-3.15,2.74,4c6.47-6.56,10.71-21.66,10.71-36.35,0-7.47-3.82-13.36-12.78-13.36-9.79,0-17.51,22-17.51,38.59,0,8.38,3.4,14.61,12.53,14.61A6.28,6.28,0,0,0,502.65,204.79Z"/><path class="cls-2" d="M558.34,183.37h-0.17a56,56,0,0,1-10.12-.66L543.15,204h5.31L547.55,208,538,211l-4-3.4,12.62-54.78h-6.81l0.91-4.4,12.2-4.32,3.32,3A39.1,39.1,0,0,1,571,144.2c5.31,0,11.54,4.81,11.54,12.61,0,10.46-5.64,21.25-16,25.06l6.64,22.24h5.23l-0.83,4.07-10.79,3.15Zm15.52-24.65c0-4.81-2.08-8.3-6.81-8.3a45,45,0,0,0-12,2l-5.56,24.32a36,36,0,0,0,7.55.66C566.81,177.4,573.86,168.19,573.86,158.72Z"/><path class="cls-2" d="M585.32,204.45l3.57-15.35,5.56,2,0.08,10A17.2,17.2,0,0,0,605,204.45c9.21,0,12-6.14,12-12,0-15.52-23.07-10-23.07-30.21,0-9.88,8.22-17.76,20.58-17.76A31.47,31.47,0,0,1,631,149.26l-3.49,14.27-6.06-.91,0.33-9a16.47,16.47,0,0,0-9.29-2.57c-5,0-10.46,4.81-10.46,10.79,0,14.19,23.4,9.13,23.4,30,0,9.79-6.14,19.17-19.83,19.17C595.11,210.93,589.55,207.61,585.32,204.45Z"/><path class="cls-2" d="M646.16,211l-4-3.4,13.2-56.19h-9.63l-4.07,8.13h-5.31l3.24-14.19h41.25l-3.07,14.19h-5.31v-8.13h-8.8L651.3,204h6.22L656.61,208Z"/><path class="cls-2" d="M294.11,307l3-11.62c-4.07,6.81-11.62,15.52-20.25,15.52-6.39,0-12-5.31-12-10.54,0-5.4,8.55-38.84,10.71-48.05H268.8l0.91-4.4,12.2-4.32,3.32,3c-1.91,8.3-11.54,47.47-11.54,50,0,4.32,2.49,7.05,6.22,7.05,6.39,0,15-12.7,19.67-20.25l7.22-31h-6.56l0.91-4.4,12.2-4.32,3.32,3-13.53,56.93h6.14l-0.91,4.07-10.46,3-4-3.4Z"/><path class="cls-2" d="M330.88,252.43h-6.39l0.91-4.4,10.21-4.32,3.32,3,0.66,48.8-0.75,6.06,1.74-6.06L365,252.43h-5.81l0.91-4.4L374,243.72l3.32,3-0.17.08h0.08l-36.43,61.75-9,.83Z"/><path class="cls-2" d="M415.71,258.41l-20,49.8-10.29.83L384,252.43h-6.39l0.91-4.4,10.21-4.32,3.32,3,1.16,48.8-0.75,6.06,1.74-6.06,17.59-46.72,11.37-3.15,2.08,49.88-0.75,6.06,1.74-6.06,18.26-43.07H438.7l0.91-4.4,13.44-4.32,3.32,3-0.17.17,0.17-.08L427.74,308.2l-10.29.83Z"/><path class="cls-2" d="M451.9,311L449,305.55l24.07-31-8.22-22.08h-6.31l0.91-4.4,11.29-3.9,9.54,27.14L494,252.52h-5.81l0.91-4.4L503,244.38l2.82,4.65-22.32,28.63,9.79,25.64,6.06,0.58L498.62,308l-11.54,3-10.54-29.63L459.78,304h5.39L464.43,308Z"/><path class="cls-2" d="M518.3,307.21l5-17.84-5.15-37-0.17.08h-6.47l0.91-4.4,10.21-4.32,3.32,3,4,33.86,17.76-28.13H542l0.91-4.4,13.86-4.32,3.32,3-0.17.08H560L531,289.2l-3.49,14.36h4.81l-0.91,4.07-9.13,3Z"/><path class="cls-2" d="M552.82,301.73l37.76-47.89h-20l-2.82,5.31H562.7l3.24-12.53h35.52v5.89l-39.09,49.71h23.24l2.66-6.06h5.64l-3.24,12.7H552.82v-7.14Z"/><path class="cls-2" d="M167.58,406.81H167.5l1.24-5.15c-3.57,4.32-8.55,8.55-14.86,8.55-5.06,0-10.71-5.31-10.71-11,0-18.42,7.64-35.94,20.42-35.94,6.64,0,10.71,2.74,13.36,5.89L180.2,365h5.64l-9.71,38.18h6.81L182,407.22l-10.46,3Zm3.07-12.86,4.65-18.84a11.31,11.31,0,0,0-9.71-5.23c-8.13,0-14.44,14.28-14.44,27.55,0,3,2.32,6.72,5.39,6.72C161.36,404.15,166.92,398.59,170.65,393.94Z"/><path class="cls-2" d="M192.82,406.39l-0.33-.08v-0.08L206.43,348h-7l0.91-4.4,12.2-4.32,3.24,2.9h0.08v0.08l-7.3,30.46c4.07-4.65,9.79-9.46,15.77-9.46,5.31,0,11.62,4.65,11.62,10.54,0,14.94-5.73,37-25.06,37C200.78,410.79,197.22,408.55,192.82,406.39Zm35-30.21c0-3.4-3.65-6.14-5.89-6.14-4.73,0-11.29,6.14-15.19,10.29l-5.39,22.57a25.09,25.09,0,0,0,9.79,2C223,404.9,227.84,387.06,227.84,376.18Z"/><path class="cls-2" d="M273.66,404.4c-3.65,3.73-8.22,6.31-13.94,6.31-12.37,0-17.26-8.3-17.26-15.19,0-16.1,7.05-32.2,22-32.2,6.72,0,13.78,2.24,15.77,4.9l-4.15,11.37-4.4-.75,0.33-7c-1.58-1.41-5-2.32-8.63-2.32-6.72,0-12.86,11.54-12.86,24.82,0,4.9,2.41,10.13,9.54,10.13a15.84,15.84,0,0,0,10.46-4.56Z"/><path class="cls-2" d="M308.18,406.81l1.16-4.9c-4.15,4.32-9.54,8.3-15.77,8.3-5.48,0-11-5.31-11-11,0-18.42,7.39-35.52,20.17-35.52,7.64,0,11.7,2.32,14.19,5L321.79,348h-7.14l0.91-4.4,12.2-4.32,3.15,2.82H331v0.08l0.08,0.08-0.17.08-14,60.75h6.64l-0.91,4.07-10.46,3Zm2.74-11.87L315.74,374c-2.07-2.57-5.39-3.73-11.29-3.73-8.13,0-14,13.61-14,26.89,0,3,2.49,6.72,5.89,6.72C301.38,403.9,306.86,399.26,310.92,394.94Z"/><path class="cls-2" d="M332.92,397.18c0-16.1,7.05-34,22-34,8.05,0,14.77,5.15,14.77,10.54,0,15-13.44,17.51-28.47,17.76A42.06,42.06,0,0,0,341,396c0,4.9,2.41,8.13,9.54,8.13a16.12,16.12,0,0,0,10.62-4.48l3.15,4.56a19.35,19.35,0,0,1-14.11,6.14C337.82,410.38,332.92,404.07,332.92,397.18Zm9.46-12.37c11.29-.25,19.92-2.07,19.92-10,0-2.82-3.32-5.48-7.55-5.48C349.27,369.38,344.62,376.18,342.38,384.81Z"/><path class="cls-2" d="M376.91,406.81l0.08-.08h-0.08L385.37,371h-3.73l1.49-6.06h3.65l2.41-10c1.41-6.06,4.73-13.2,14.77-13.2a20.89,20.89,0,0,1,13.36,4.56l-2.57,11.12-4.32-.42L410,349.88a11.26,11.26,0,0,0-6.39-1.83c-4.07,0-5.48,4.57-6.39,8.22l-2.16,8.63H408L406.54,371H393.59l-8,32.2h6.64l-0.91,4.07-10.46,3Z"/><path class="cls-2" d="M407.62,420.83l2.07-5.48c1.91,1.74,5.56,5.64,11.62,5.81,8.38,0,12.7-3.9,15.35-15.6l0.66-2.74c-3.74,3.9-8.71,7.39-14.86,7.39-5.48,0-11-5.31-11-12.45,0-17,7.39-34.52,20.17-34.52,6.72,0,10.87,2.49,13.44,5.39L448.7,365h5.15L443.3,409c-3.07,12.86-10.12,18.26-22,18.26C413.93,427.22,409,422.16,407.62,420.83Zm31.21-25,4.9-21.41a13.18,13.18,0,0,0-10.37-4.56c-8.13,0-14,14.28-14,26.56,0,4,2.49,7.72,5.89,7.72C430.28,404.15,435.17,400,438.82,395.85Z"/><path class="cls-2" d="M488.46,406.81l0.25-.17-0.58.17c1.91-8.3,7.22-28.8,7.22-31.29a4.62,4.62,0,0,0-4.4-4.73c-5.23,0-15.6,12-18.51,17.84l-4.9,19.92h-7.88l14.52-60.83h-7.3l0.91-4.4L480,339l3.32,3h0.08l-8.47,35.35c4.4-5.81,12.95-14.36,19.25-14.36,4.81,0,9.63,3.73,9.63,7.8,0,5.48-5.56,26.39-6.89,32.37h6.89l-0.91,4.07-10.46,3Z"/><path class="cls-2" d="M513.77,406.81h-0.08l8.8-36h-7l0.91-4.4,12.2-4.32,3.24,2.9h0.08v0.08l-9.63,38.09h6.8l-0.91,4.07-10.46,3Zm19.34-64c4.23,0,4.48,1.58,3.15,7s-2.32,5.81-6.56,5.81-4.65-1.74-3.32-7.14S528.88,342.82,533.11,342.82Z"/><path class="cls-2" d="M523.4,427l1.58-6.22c0.42,0,.83.08,1.33,0.08,8.38,0,12.7-3.9,15.35-15.6l8-34.44h-7.14l0.91-4.4,12.2-4.32,3.24,2.9h0.08v0.08L548.38,409c-3.07,12.86-10.12,18.26-22,18.26A16.83,16.83,0,0,1,523.4,427Zm36.77-84.16c4.23,0,4.48,1.58,3.15,7s-2.32,5.81-6.56,5.81-4.65-1.74-3.32-7.14S555.94,342.82,560.17,342.82Z"/><path class="cls-2" d="M582.66,391l0.66-3.82c11,0,18.76-6.22,18.76-12a4.67,4.67,0,0,0-4.4-4.73c-5.23,0-15.85,10.87-18,15l-5.56,23.07h-7.88l14.36-60.83-0.17.08h-7.55l0.91-4.4,12.2-4.32,3.24,2.91h0.08v0.08l-8.22,34.28c4.4-5.48,13.11-13.36,19.5-13.36,4.81,0,9.63,3.73,9.63,7.8,0,12.86-10.12,19.34-19,20.58l7.72,12h7.55l-0.83,4.07-11.45,3.15Z"/><path class="cls-2" d="M617.69,406.81l0.17-.17,13.61-58.76h-7.22l0.91-4.4,12.2-4.32,3.32,3-14.11,61H633l-0.91,4.07-10.46,3Z"/><path class="cls-2" d="M697.78,406.81l0.17-.17c2-8.38,7.22-28.63,7.22-31.12a4.62,4.62,0,0,0-4.4-4.73c-6.22,0-15.52,14.69-17.68,19.75-1.66,8.38-3.4,16.52-3.65,18h-8.05c1.91-8.3,7.39-30.54,7.39-33a4.62,4.62,0,0,0-4.4-4.73c-5.64,0-14.77,12.37-17.59,18.09l-5,19.67h-8.05L653,370.62h-7.55l0.91-4.4,12.2-4.32,3.32,3-0.17.08h0.17L659,377.84c3.49-5.39,10.87-14.94,17.76-14.94,5.23,0,9.63,3.73,9.63,7.8a55.32,55.32,0,0,1-1.08,8.05C689.23,372.53,696.7,363,703,363c5.81,0,10.54,3.73,10.54,7.8,0,5.48-5.56,26.39-6.89,32.37h6.47l-0.91,4.07-10.46,3Z"/><path class="cls-2" d="M152,506.41l0.08-.08-0.17.08c1.91-8.3,7.14-28.3,7.14-30.79a4.62,4.62,0,0,0-4.4-4.73c-4.73,0-13.69,9.29-17.51,15.44l-5.39,21.83h-8l9-37.1h-7.05l0.91-4.4,12.2-4.32,3.32,3-0.17.08h0.25l-2.49,10.13c4.65-5.56,12.28-12.45,18.09-12.45,4.81,0,9.71,3.9,9.71,7.8,0,5.73-5.73,26.89-6.72,31.87h6.22l-0.66,4.07-10.46,3Z"/><path class="cls-2" d="M194.39,510.31c-12.37,0-17.68-8.3-17.68-15.19,0-16.1,7.05-32.45,22-32.45,11.62,0,17.26,7.88,17.26,14.11C216,495,208.5,510.31,194.39,510.31Zm0.25-6.22c7.14,0,13.2-11.29,13.2-25.64,0-5.23-3.4-9.54-10-9.54-7,0-13.11,11.79-13.11,25.06C184.68,498.86,187.5,504.08,194.64,504.08Z"/><path class="cls-2" d="M222.86,532.55l-4-3.4L219,529l13.61-58.68h-7.22l0.91-4.4,12.2-4.32,3.24,2.9h0.08v0.08L239.71,474c4.32-5.23,10.54-11.29,17-11.29,5.31,0,11.62,4.81,11.62,10.54,0,14.94-5.64,36.43-25,36.43a16.57,16.57,0,0,1-11-3.74l-4.56,19.59h6.31l-0.75,4.07Zm36.93-56.93c0-3.4-3.65-6.14-5.89-6.14-5.15,0-12.7,9.3-16.43,13.94l-3.9,17a17.43,17.43,0,0,0,10,3.15C255.48,503.59,259.8,486.49,259.8,475.62Z"/><path class="cls-2" d="M293.74,529.65l0.5-.33-0.25-.08,6.14-26.64c-3.73,3.82-8.55,7.22-14.61,7.22-5.48,0-11-5.31-11-11,0-18.42,7.39-36,20.17-36,6.72,0,10.87,2.57,13.53,5.48l3.49-3.65h5.15L302.62,526h6.31l-0.75,4.07-10.46,3Zm8.05-34,5-21.58a13.23,13.23,0,0,0-10.37-4.65c-8.13,0-14,14.11-14,27.39,0,3,2.49,6.72,5.89,6.72C293.33,503.5,298.06,499.6,301.79,495.62Z"/><path class="cls-2" d="M323,508.15l9-37.84h-7.55l0.91-4.4,12.2-4.32,3.32,3-3.4,14.77c4.4-6.47,12.95-16.76,19.25-16.76l2.74,10-3.9,3.24-2.57-2.66c-7.72,0-14.77,12.12-17.68,17.1l-4.48,17.93H323Z"/><path class="cls-2" d="M359.23,505.41l2.41-11.29,4.81,1.49,0.33,5.73a14.4,14.4,0,0,0,8,2.32c5.23,0,10.46-3.24,10.46-7.72,0-9.38-20.58-4.73-20.58-19.75,0-7,6.06-13.94,16.93-13.94,6.47,0,11.87,1.74,14.61,3.49l-2.9,10.71-4.65-.83v-5.81c-2.24-1.16-5.64-1.49-8.47-1.49-3.65,0-7.72,2.82-7.72,7.14,0,8.88,20.58,5.48,20.58,19.09,0,8.8-7.05,15.6-17.51,15.6C367.78,510.14,362.55,507.74,359.23,505.41Z"/><path class="cls-2" d="M414.09,509.31c-4.9,0-11.2-4.4-9.3-12.78l5.89-26h-5.31l1.49-6.06h5.64l4.4-8.3h5.64l-2,8.3h12.86l-1.49,6.06H419.07l-6.14,25.06c-1.33,5.31,2.16,7.47,4.23,7.47,4.65,0,7.14-2.32,9.88-5.06l2.74,3.65C426.71,505.08,424.13,509.31,414.09,509.31Z"/><path class="cls-2" d="M465.63,506.24l2.24-10.12c-3.57,5.81-11.79,14-18.92,14-4.81,0-9.54-4-9.54-8.05,0-5.31,5.06-24.4,6.72-31.29H439l0.91-4.4,12.2-4.32,3.32,3c-1.91,8.3-7.72,30.79-7.72,33.28a4.38,4.38,0,0,0,4.48,4.56c5.56,0,12.53-8.55,17.18-14.44l4.4-17.68h-7l0.91-4.4,12.2-4.32,3.32,3L474,502.76h6.81l-0.91,4.07-10.46,3-4-3.4Z"/><path class="cls-2" d="M500.16,508.15l-3.82-37.43h-6.22l0.91-4.4,9-4.32,3.32,3L506,499.52l17.18-28.72h-5.31l0.91-4.4,12.86-4.32,3.32,3-0.17.08h0.08l-27.64,43h-7.05Z"/><path class="cls-2" d="M567.8,477.19l-13.94,31h-7.55l-5-37.43h-5.81l0.91-4.4,8.63-4.32,3.32,3L552,498.86l14-32.37,8-2.57,4.23,35.36,14.11-28.47H587l0.91-4.4,11.79-4.32,3.32,3-0.08.08-23.07,43h-7.3Z"/><path class="cls-2" d="M622.17,490.47l-12.62,12.7h4.73l-0.75,4.07-11.7,3-2.91-5.48L619,484.5l-5.23-13.69h-7.47l0.91-4.4,11.29-3.9,7.72,19.83,11-11.29h-4.73l0.91-4.4,13.28-4.32,2.66,5.23-20.25,20.67,5.81,14.27,7.39,0.66-0.75,4.07-11.37,3Z"/><path class="cls-2" d="M650.39,520.43l2.08-5.48c1.91,1.74,5.56,5.64,11.62,5.81,8.38,0,12.7-3.9,15.35-15.6l1.91-8.38c-3.07,5.15-11,13.36-18.84,13.36-4.81,0-9.54-4-9.54-8.05,0-5.31,5.06-24.4,6.72-31.29h-7.14l0.91-4.4,12.2-4.32,3.32,3c-1.91,8.3-7.72,30.79-7.72,33.28a4.38,4.38,0,0,0,4.48,4.56c5.23,0,13-9.46,17.68-15.44l3.9-17.1h-7.14l0.91-4.4,12.2-4.32,3.24,2.9h0.08v0.08l-10.54,43.9c-3.07,12.86-10.12,18.26-22,18.26C656.7,526.82,651.8,521.76,650.39,520.43Z"/><path class="cls-2" d="M699.53,501.18l28.63-30.46H713.63L710.31,477h-5.06l3.24-12.53H738.2v5.64l-29.55,31.79h17.59l2.9-6.56h5.64l-3.24,12.7h-32v-6.89Z"/></svg>