<svg id="Layer_12" data-name="Layer 12" xmlns="http://www.w3.org/2000/svg" viewBox="0 0 850 600"><defs><style>.cls-1{fill:#fff;}.cls-2{fill:#231f20;}</style></defs><title>term3-comparison-02</title><rect class="cls-1" width="850" height="600"/><path class="cls-2" d="M166.09,106.93H145.42V103l5.64-2.82,19.09-56.35h8.63l18.76,56.27,5.73,2.9v3.9H182.44V103l6.47-2.82-4.23-12.45H163.52l-4.07,12.37,6.64,2.9v3.9Zm-0.5-25.64h16.85l-7.72-22.66-0.91-5.73-0.75,5.64Z"/><path class="cls-2" d="M208.75,106.93v-3.32l5.56-2.9V51.07L208.59,49V44.68c6-.17,17.51-0.58,22.41-0.58,10.79,0,19.92,2.9,19.92,14.77,0,8.63-3.73,12.78-9,14.52,7.22,1.49,11.2,5.89,11.2,15.93,0,12-7.3,17.59-21.5,17.59H208.75Zm33.53-46.81c0-8.3-4.56-10.13-11.29-10.13a45.82,45.82,0,0,0-8.22.58v20c1.91,0.08,4.07.17,6.89,0.17C237.47,70.74,242.28,67.92,242.28,60.12Zm2,29.54c0-9.79-4.15-12.78-13.61-12.78-2.57,0-5.23.17-7.88,0.33v23.32c2.07,0.17,4.65.17,8.13,0.17C238.79,100.7,244.27,97.38,244.27,89.66Z"/><path class="cls-2" d="M285.19,108.26c-20.33,0-23.49-14.27-23.49-34.53,0-20.08,7.14-30.71,24.81-30.71,7.55,0,12.28,1.08,17.93,4.56L304.2,62h-5.56c-0.58-1.33-1.49-6.81-2.66-11.37a19.74,19.74,0,0,0-8-1.24c-13.94,0-17.26,9.79-17.43,24.73,0,15.69,2.16,27.14,16.68,27.14,8.55,0,12-3.49,14.19-5.56l3.57,4.9C302.79,103.11,298.64,108.26,285.19,108.26Z"/><path class="cls-2" d="M312.58,106.93v-3.32l5.56-2.9V50.91L312.42,49V44.68c6-.17,18.84-0.58,23.74-0.58,16,0,26.14,6.89,26.14,30.21,0,20.67-7.22,32.62-27.39,32.62H312.58Zm41-32.62c0-18.18-6.89-24.07-17.1-24.07a65.42,65.42,0,0,0-9.79.83v49c2.57,0.25,5.31.33,8.13,0.33C347.27,100.37,353.58,92.15,353.58,74.31Z"/><path class="cls-2" d="M370.68,106.93v-3.73l5.81-2.82V50.91l-5.81-2.49V44.68H412.1l1.16,13.69h-4.9l-2.82-7.14H385.12V71.16h21.5v6.72h-21.5v22.49h20.75l3.24-7.47h4.65l-1.33,14H370.68Z"/><path class="cls-2" d="M421.23,106.93v-3.73l5.81-2.82V50.91l-5.81-2.49V44.68h39L461.4,58h-4.81l-2.82-6.72H435.67V73.07h20v6.64h-20v20.67l10.21,2.82v3.73H421.23Z"/><path class="cls-2" d="M490.37,108.42c-18.42,0-22.66-12.7-22.66-34.69,0-20.75,7-30.71,23.49-30.71,7.88,0,14.11,1,19.92,4.56l-0.25,15.35H505.3c-0.42-1.16-1.41-6.06-3-11.7a23.94,23.94,0,0,0-9.63-1.83c-12.61,0-15.93,9-16.1,24.48,0,18,2.24,27.55,15.85,27.55a24.84,24.84,0,0,0,11.79-2.82V81.45L491.86,79V74.39h20.42V103C508.21,105.93,500.82,108.42,490.37,108.42Z"/><path class="cls-2" d="M544,106.93H523.24v-3.49L529,100.7V50.91l-5.81-2.32v-3.9H544v3.9l-6.22,2.32V72H564.9V50.91l-6.22-2.32v-3.9h20.75v3.9l-5.81,2.32v49.8l5.81,2.74v3.49H558.67v-3.49l6.22-2.74V78.46H537.76V100.7l6.22,2.74v3.49Z"/><path class="cls-2" d="M590.63,106.93v-3.4l6.22-2.9V50.91l-6.22-2.82v-3.4h20.91v3.4l-6.22,2.82v49.71l6.22,2.9v3.4H590.63Z"/><path class="cls-2" d="M618.19,117.63v-6.14c10.62-.17,11.87-8.47,11.87-15.85V50.91l-8.3-2.32v-3.9h22.57v3.9l-5.81,2.32V96.47C638.52,107.18,634.12,117.47,618.19,117.63Z"/><path class="cls-2" d="M672.14,106.93H652.71v-3.4l5.23-2.82V50.91l-5.81-2V44.68h21v4.23l-6.89,2h-0.08V78l22-27.06-5-2.16V44.68h19.34v4.56l-5.73,1.66L679.85,70.66l17.93,30,6.47,2.08v4.15H691.89l-17.1-30.38-8.63,10.13v14l6,2.82v3.4Z"/><path class="cls-2" d="M209.5,206.53H168.91v-3.73l5.81-2.82V150.51l-5.73-2v-4.23H191.9v4.23l-8.55,2h-0.17V200h19.42l3.07-10.79h5Z"/><path class="cls-2" d="M237.39,206.53H217.47v-3.4L224,200.3l1.58-49.8-6.06-2.82v-3.4h16.85l16.93,48.63,16.76-48.63h16.27v3.4l-6.06,2.82,1.58,49.8,6.56,2.82v3.4h-21v-3.4l5.89-2.82-0.66-35,0.33-8.55-2.16,8.3-14.36,39.84h-7.8L234.9,164.78l-2.32-8.22,0.17,8.63L232,200.3l5.39,2.82v3.4Z"/><path class="cls-2" d="M317.73,206.53H297.48v-3.4l6.22-2.9V150.51l-6.22-2.82v-3.4H312l26.23,42.58,3,5.15-0.66-7V150.51l-6.22-2.82v-3.4h20.17v3.4l-6.22,2.82v56h-7.72L314.24,165.2l-3.15-6.81L311.5,167v33.2l6.22,2.9v3.4Z"/><path class="cls-2" d="M387.2,142.37c19.25,0,25,11,25,32.87,0,22.32-5.39,32.86-25,32.86-19.25,0-25-10.54-25-32.86C362.22,153.41,367.94,142.37,387.2,142.37Zm0,59c13.53,0,15.44-9.54,15.44-26.14,0-16.1-1.58-26.56-15.35-26.56-13.53,0-15.52,10.46-15.52,26.56C371.76,191.84,373.67,201.38,387.2,201.38Z"/><path class="cls-2" d="M443.39,206.53H421.31v-3.65l5.56-2.57V150.67l-5.73-2.07v-4.32c6-.17,18.34-0.58,23.24-0.58,13,0,20.5,2.66,20.5,18.42,0,14.52-5.81,22.08-17.68,22.08h-12v15.93l7.88,2.74ZM435.26,150v27.47h10.37c8.8,0,11.12-4.32,11.12-15.35,0-8.47-3.24-12.28-11.29-12.28C442,149.84,438.16,149.93,435.26,150Z"/><path class="cls-2" d="M516.34,215.91c-6.06,0-9-3.15-9.54-8.71a39.8,39.8,0,0,1-8.8.91c-19.25,0-25-10.54-25-32.86,0-21.83,5.73-32.87,25-32.87s25,11,25,32.87c0,15.27-2.49,25.06-10.37,29.71,0.66,2.57,2.07,4.23,4.4,4.23h4.32V216A47.21,47.21,0,0,1,516.34,215.91Zm-4.81-23.07c1.58-4.4,1.91-10.29,1.91-17.59,0-16.1-1.58-26.56-15.35-26.56-13.53,0-15.52,10.46-15.52,26.56,0,6.22.25,11.45,1.33,15.52,1.58-6.39,5.48-11.2,14-11.2C505.39,179.55,510.53,185.61,511.53,192.83Zm-5,6.56c-0.58-8-3.07-13.28-8.46-13.28-6.22,0-9.21,4.65-10,12.28,2.24,2,5.39,3,9.88,3A16.09,16.09,0,0,0,506.55,199.39Z"/><path class="cls-2" d="M553,206.53H532.61v-3.65l5.56-2.57V150.67l-5.73-2.07v-4.32c6-.17,20.75-0.58,25.64-0.58,10.79,0,19,2.49,19,17.18,0,10.29-3.49,17.1-11.2,19.17l10.79,20.17,6.22,2.9v3.4h-12.7L557.43,180.8H546.89v19.34l6.14,2.74v3.65Zm-6.14-56.44v24.07h10.54c7.22,0,10.79-4.15,10.79-12.53,0-8.05-2.82-11.79-10.71-11.79C553.7,149.84,549.79,150,546.89,150.09Z"/><path class="cls-2" d="M630.3,189.76c0,14.27-8,18-20.42,18-14.27,0-19.09-5-19.92-5.81V187.27h6.47l2.32,10.87c0.5,0.33,3.73,2.74,11.2,2.74,8.8,0,12-3,12-10.62,0-7.39-4.4-9.13-14.86-11.54-13.11-3.07-17-8.3-17-18.42,0-10.71,5.81-17.76,20.33-17.76,13.11,0,16.93,4.4,17.51,5.48v13.2h-6.22l-2.16-9.79c-0.75-1-4.15-2.16-9.54-2.16-8.63,0-12,4.48-12,10.46s1.83,8.13,12.28,10.62C622.83,173.33,630.3,176.73,630.3,189.76Z"/><path class="cls-2" d="M647.4,202.46l8.13-2.49V150.09H644.41l-2.49,12.53h-5.48V144.28h46.81v18.34h-5.48l-2.49-12.53H664.17V200l8.13,2.49v4.07H647.4v-4.07Z"/><path class="cls-2" d="M250.09,287.37V250.11l-5.81-2.32v-3.9h21.16v3.9l-6.64,2.32v35.6c0,7.55,2.66,15,13.61,15s14.36-7.55,14.36-15v-35.6l-6.64-2.32v-3.9h20.42v3.9l-5.81,2.32v37.26c0,10.79-6.14,20.33-22.33,20.33S250.09,298.24,250.09,287.37Z"/><path class="cls-2" d="M352.75,249.86l-20,56.27h-9l-19.17-56.27-4.56-2.07v-3.9h21v3.9L314.41,250,328,293.76l0.91,2.66,0.75-2.66L344.2,250l-6.81-2.24v-3.9h19.92v3.9Z"/><path class="cls-2" d="M398.65,260.32l-14.19,45.81h-9.63l-13-56.19-4.48-2.16v-3.9h20.75v3.9L370.85,250l9,42.49,0.83,3.65,0.75-3.65,14.61-46.64h6.39l14,46.64,0.75,3.57,0.75-3.57L427.86,250l-7.39-2.24v-3.9h19.75v3.9L435.75,250l-14.19,56.1h-9.79Z"/><path class="cls-2" d="M459.74,306.13H441.07v-4.07l5.64-2.16,16-26.06-15-23.9-5-2v-4.07h18.59v4.07l-3.15,2,11.37,18.92,12-18.92-3.4-2v-4.07H496v4l-5.15,2.07-15.69,23.9,17.18,25.89,5.31,2.16V306h-19V301.9l3.65-2.16-13.78-20.91L456.09,299.9l3.65,2.16v4.07Z"/><path class="cls-2" d="M537.18,306.13h-21.5v-3.4l6.22-2.9V284.3l-18.09-34.19L498,247.78v-3.9h21.41v3.9l-5.81,2.32,12.53,24.15,0.91,2.32,1-2.32,12.45-24.15-6.14-2.32v-3.9h20.42v3.9L549,250.11,531,284.3v15.52l6.22,2.9v3.4Z"/><path class="cls-2" d="M559.42,300.48l32.87-49.88H568.8l-2.24,12.78h-5.48v-19.5h41.33v6.39l-32.2,49h24.15L597,286.38h5.64l-0.17,19.75H559.59Z"/><path class="cls-2" d="M160.36,399.34c-3.15,3.15-9,7.55-16.68,7.55-9.71,0-13.53-6.64-13.53-14.28,0-10.87,10.54-13.36,18.51-13.36a83.78,83.78,0,0,1,11.12.75v-4.32c0-5.73-3.24-8.8-10.29-8.8a20.57,20.57,0,0,0-10.12,2.32L138,374h-5.56V364.9c3.73-2.08,9.3-4.23,17.76-4.23,12.2,0,17.68,4.57,17.68,14.86v24l5.31,2.32v3.9H160.36v-6.39Zm-0.58-6.81v-6.14a75.3,75.3,0,0,0-10.62-.75c-7.05,0-10.54,2.07-10.54,7.14,0,4,1.83,7.14,6.06,7.14C149.32,399.92,156.3,395.77,159.78,392.53Z"/><path class="cls-2" d="M191.16,402.08l-2.82,3.57-4.56.08V346.3l-5.56-2.74v-4.23H191.9l-0.08,26C195.14,363,200,361,207.09,361c10,0,15.69,6.47,15.69,22.74s-5.56,23.32-17.76,23.32C198,407.06,194,404.73,191.16,402.08Zm23-18.84c0-11.45-2.49-15.27-9-15.27A22,22,0,0,0,191.82,373l-0.08,22.66c2,2.32,5.81,4.56,12,4.56C212.15,400.25,214.14,393.94,214.14,383.24Z"/><path class="cls-2" d="M262.7,376.6l-1.58-7.72c-1.41-1.25-3.57-1.91-6.56-1.91-9.54,0-13.28,6.31-13.28,16.85s3.07,16.68,12.86,16.68a18.07,18.07,0,0,0,12.28-4.32l2.9,6.06c-3.24,2.07-7.72,4.9-15.19,4.9-16.35,0-21.41-8.38-21.41-23.32s7.3-23.32,21.83-23.32a30.87,30.87,0,0,1,13.94,3.73V376.6H262.7Z"/><path class="cls-2" d="M309.59,399.34a18.5,18.5,0,0,1-15.6,7.72c-10,0-16.18-8.05-16.18-23.16,0-15.35,4.56-23.65,17.93-23.65,6.56,0,10.62,1.74,13.44,3.9V346.47l-5.81-2.9v-4.23h13.86v59.09l5.06,3.4v3.82h-12Zm-0.42-6.81V370.37c-2.16-2.08-5.81-3.74-11.7-3.74-9.3,0-11,7.14-11,17.26,0,9.71,3.4,16.76,9.38,16.76C302.37,400.67,306.27,396.93,309.18,392.53Z"/><path class="cls-2" d="M350.18,407.06c-14.11,0-19.67-6.72-19.67-23.24,0-15.77,6-23.32,20.5-23.32,15.77,0,17,9.54,17.1,18.34a55.29,55.29,0,0,1-.5,7.47H339.06c0.42,10.29,3.07,14.11,12.12,14.11,7.14,0,10.87-2.24,12.95-4l2.9,6.22C363.79,404.73,358.4,407.06,350.18,407.06Zm-11-27.39h21.16a32.68,32.68,0,0,0,.17-3.9c0-4-1.91-8.8-10-8.8C342.8,367,339.81,370,339.14,379.67Z"/><path class="cls-2" d="M377.57,401.66l4.48-2.16V367.88h-4.9v-5.64h4.9v-10c0-10.54,5.81-13.94,13.78-13.94a16,16,0,0,1,8.8,2.57l-2,4.56a11.27,11.27,0,0,0-6.14-1.74c-5,0-6.22,3.49-6.22,9.54v9h10.87v5.64H390.27V399.5l8.13,2.16v4.07H377.57v-4.07Z"/><path class="cls-2" d="M411.35,419.25l2.32-5.73a25,25,0,0,0,12.95,3.15c9.21,0,12-3.65,12-12.95v-1.83c-3.07,2.57-7.47,4.23-14.19,4.23-10.62,0-16.1-6.56-16.1-22.08,0-15.35,5.64-23.24,17.59-23.24,6.47,0,10.71,2.24,13.53,4.9l1.58-3.57h10.79v4.23l-5,2.49v35.27c0,14.19-8.38,19-18.84,19C418.66,423.16,413.26,420.58,411.35,419.25Zm27.3-23.82V371.78A16.92,16.92,0,0,0,427,367.3c-8,0-10.21,6.64-10.21,16.76s2.82,15.27,10.13,15.27C432.76,399.34,436.25,397.68,438.66,395.44Z"/><path class="cls-2" d="M481.32,405.73h-20v-4.07l3.49-2.16v-53l-6.72-2.9v-4.23h14.52V367.8c3.24-3.49,8-6.72,16-6.72,9.79,0,13.94,5,13.94,16.43v22h0.08l6.31,2.16v4.07H490.53v-4.07l3.74-2.08V380.91c0-10.12-1.83-12.86-8-12.86-6.56,0-10.79,3.9-13.28,8V399.5l8.3,2.16v4.07Z"/><path class="cls-2" d="M517.76,401.66l3.82-2.08V368.88l-5-2.49v-4.23h13.2V399.5h0.08l6.31,2.16v4.07H517.76v-4.07ZM525,340.74c4.9,0,5.48.83,5.48,5.81s-0.58,6-5.48,6-5.48-1.08-5.48-6S520,340.74,525,340.74Z"/><path class="cls-2" d="M539.25,416.52c4.73,0,9.29-3.65,9.29-12.45V369.29l-5.89-2.91v-4.23h13.86V405c0,14.77-9.54,17.51-17.26,17.51v-6ZM552,340.74c4.9,0,5.48.83,5.48,5.81s-0.58,6-5.48,6-5.48-1.08-5.48-6S547,340.74,552,340.74Z"/><path class="cls-2" d="M586.15,405.73H567.72v-4.07l3.9-2.16v-53l-5.89-2.9v-4.23h14.11v41.83l17-13.61-5.23-1.33v-4.07h16.85v4.07l-14.94,11.45,12.12,21.83,5.64,2.08v4.15H600.17l-12.37-23.65-8,6.06V399.5l6.31,2.16v4.07Z"/><path class="cls-2" d="M618.68,401.66l3.9-2.16V346.39l-5.64-2.82v-4.23h13.78V399.5h0.08l6.31,2.16v4.07H618.68v-4.07Z"/><path class="cls-2" d="M666.41,405.73h-20v-4.07l3.49-2.16V369.29L644,366.39v-4.23h12.62v7.39c3.82-5,8.8-8.47,17.26-8.47a12.5,12.5,0,0,1,11.37,7.8,19.66,19.66,0,0,1,15.85-7.72c11,0,13.78,5.23,13.78,16.27V399.5l6.56,2.16v4.07H703v-4.07l3.57-2V380.33c0-8.71-1.58-12.28-7.47-12.28-6.31,0-10.79,4.15-12.78,9V399.5l8.47,2.16v4.07h-20v-4.07l3.24-2V380.42c0-8.88-1.49-12.37-7.47-12.37-6.14,0-10.46,4.32-12.45,8.55V399.5l8.3,2.16v4.07Z"/><path class="cls-2" d="M128.28,505.33h-20v-4.07l3.49-2.16V468.89L105.88,466v-4.23h12.61v7.47c2.41-4.07,7.64-8.3,15.77-8.3,12.12,0,15,4.48,15,16.1V499.1l6.22,2.16v4.07H137.08v-4.07l4-2.16V479.35c0-9.79-1.49-11.87-8.38-11.87a14.5,14.5,0,0,0-12.7,8.3V499.1l8.3,2.16v4.07Z"/><path class="cls-2" d="M163.48,483.58c0-15,4.65-24,20.5-24,15.52,0,20.5,8.38,20.5,23.15,0,15.19-4.65,24-20.5,24C168.46,506.74,163.48,498.52,163.48,483.58Zm32.53-.83c0-10.46-2.07-16.6-12-16.6-10.71,0-12,6.72-12,17.43s2,16.6,12,16.6C194.68,500.18,196,493.63,196,482.75Z"/><path class="cls-2" d="M214.44,521.93v-4.07l3.49-2.16V469l-5.64-3.4v-3.82h12.45l0.66,5.56a19.4,19.4,0,0,1,15.27-7c11.37,0,16.1,5.81,16.1,21.91,0,15.35-5.15,24.15-17.35,24.15-6.81,0-10.79-1.25-13.53-3v12l7.55,2.49v4.07h-19Zm33.78-39.67c0-10.87-2.57-15.19-9.29-15.19-6.06,0-10.21,3.49-13,7.14v22.41c2.16,1.58,5.89,3.32,12.28,3.32C246.56,499.93,248.22,492.38,248.22,482.26Z"/><path class="cls-2" d="M293.28,517.86l4.07-2.16V500.93a19.79,19.79,0,0,1-14.52,5.73c-11.62,0-16.1-7.39-16.1-23.49,0-13.86,4.23-22.91,17.1-22.91a19.66,19.66,0,0,1,14.36,6.06l0.91-5.39h6.22V515.7l6.39,2.16v4.07H293.28v-4.07Zm4.07-24.32V473.21c-2.41-2.9-6.39-6.47-12.28-6.47-8.38,0-9.79,7.64-9.79,16.43,0,10.62,1.74,16.68,8.8,16.68A17,17,0,0,0,297.35,493.54Z"/><path class="cls-2" d="M339.1,505.41h-20v-4.07l3.49-2.16V468.89L316.69,466v-4.23h12.61v7.72c2.66-4.4,8.3-8.55,14.44-8.55,4,0,7.22.75,7.88,1.66l-0.42,12h-5l-2.41-6.81a14.79,14.79,0,0,0-13,8.63V499.1l8.3,2.24v4.07Z"/><path class="cls-2" d="M392.38,492.63c0,9-5.31,13.94-17.59,13.94-9.79,0-15.27-4-16.68-5.39V491.3h5.31l1.91,6.64c0.91,0.75,3.73,2.49,9.54,2.49,6.14,0,9.71-2,9.71-7.3,0-3.49-3.57-5.64-12.53-7.05-9.46-1.49-14.11-5.23-14.11-13.11,0-7.39,4.56-13,16.93-13,8.63,0,13,2.74,15.1,4.56v9.13h-5.23l-1.58-5.39c-0.66-.83-3.82-2.57-8.55-2.57-6.14,0-8.88,3.57-8.88,6.89,0,4.15,3.49,6,12.37,7.22C387.32,481,392.38,484.25,392.38,492.63Z"/><path class="cls-2" d="M403.09,490V467.65h-5.31v-5.89h5.31l2.74-8h5.23v8h12.61v5.89H411.06v21.41c0,7.22.58,11.37,7.3,11.37a12.44,12.44,0,0,0,6.14-1.58l1.58,4.81c-1.41,1.16-5.06,2.74-10.46,2.74C406.41,506.41,403.09,502.09,403.09,490Z"/><path class="cls-2" d="M466.92,498.27c-3.24,4.9-9.3,8.13-16.85,8.13-10.71,0-13.45-4.9-13.45-17.35V468.15l-5.64-2v-4.4h13.94v24.07c0,10.37,1.33,13.86,7.14,13.86A17.52,17.52,0,0,0,465.59,493V468.4l-6.89-2.24v-4.4h15.1v36.77l6.14,2.91v3.9h-13v-7.05Z"/><path class="cls-2" d="M488.91,468l-5.31-2.16v-4.07h17.93v4.07L497.3,468l9.63,27,1.16,3.82,1.08-3.82L519,468l-4.48-2.16v-4.07H532.4v4.07L526.84,468l-15.35,37.35h-8.3Z"/><path class="cls-2" d="M568,472.79l-10.37,32.53h-9.13l-10.29-37.51-5-2v-4.07h17.51v4.07L546.68,468l6,26.72,0.91,3.73,1.08-3.73L564.86,462h7.55l8.38,32.7,1,3.82,1-3.82,6.8-26.72-4.4-2.16v-4.07h17.26v4.07l-5.31,2.08-11,37.43h-9.71Z"/><path class="cls-2" d="M622,505.33H604.12v-4.07l5.39-2,11.62-17.18L610,467.9l-5.23-2.08v-4.07h17.93v4.07L619.55,468l8.13,11,7.55-11-3.4-2.16v-4.07h17.93v4.07l-6.22,2.08-11.12,15.77,12.53,15.52,5.23,2.08v4.07H631.84v-4.07l3.65-2.16-9.38-12.45L618,499.1l4.07,2.16v4.07Z"/><path class="cls-2" d="M660.8,518.86l2.32-5.73a25,25,0,0,0,12.95,3.15c9.21,0,12-3.4,12-12.12v-2.82c-2.74,2.74-6.89,5.06-13.28,5.06-10.79,0-14.61-4.9-14.61-17.35V468.15l-5.64-2v-4.4h13.94v25.06c0,9.54,2,12.62,8,12.62a13.8,13.8,0,0,0,11.62-5.73v-25.4l-6.64-2.16v-4.4h14.86v42.82c0,13.61-8.38,18.18-18.84,18.18C668.11,522.76,662.71,520.18,660.8,518.86Z"/><path class="cls-2" d="M707,499.68L733,468.4H715.67l-2.24,7.8h-4.65V461.76h34.28v6.06l-25.15,30.87h18.18l1.58-8.13h4.81v14.77H707v-5.64Z"/></svg>