<svg id="Layer_12" data-name="Layer 12" xmlns="http://www.w3.org/2000/svg" viewBox="0 0 850 600"><defs><style>.cls-1{fill:#fff;}.cls-2{fill:#231f20;}</style></defs><title>term3-comparison-03</title><rect class="cls-1" width="850" height="600"/><path class="cls-2" d="M574.4,106.6H546.6V98.13l3.32-2.74V54.73L546.6,52.4V44.35h27.8V52.4l-3.73,2.32V67.51H582V54.73L578.3,52.4V44.35h27.8V52.4l-3.32,2.32V95.39l3.32,2.74v8.47H578.22V98.13L582,95.39V80.62H570.67V95.39l3.73,2.74v8.47Z"/><path class="cls-2" d="M572.37,206.69H544.65v-8.63l3.07-2.57V155l-3.24-2.07v-8.47c10.13,0,30.87-.58,35.77-0.58,10.79,0,19,2.49,19,19,0,8.38-2.82,14.69-8,18l7,14.52,3.73,2.9v8.38H580.17l-6.56-23h-5.15v11.62l3.65,2.74Zm-3.9-51.37v16.6h2.82c5.56,0,7.39-2.82,7.39-9.21,0-5.81-2.82-7.39-7.3-7.39h-2.91Z"/><path class="cls-2" d="M131,401.74c-3,2.57-7.55,5.06-14.77,5.06-10,0-14.61-5.23-14.61-13.94,0-10.79,9.29-14.44,20-14.44,2.9,0,6,.08,8.8.25v-3.82c0-2.08-1.49-3.57-4.48-3.57a6.67,6.67,0,0,0-4.4,1.66l-1.33,3.24H105.25l-1.33-12.37a66.55,66.55,0,0,1,26.56-5.23c12.86,0,20.25,4.81,20.25,16.18v20l2.41,2.32V406H131v-4.23Zm-0.58-10v-4.56a34.19,34.19,0,0,0-4.48-.33c-2.82,0-5.56,1.16-5.56,4,0,2.66,1.33,3.9,3.57,3.9C125.92,394.77,128.41,393.28,130.4,391.79Z"/><path class="cls-2" d="M174.85,402.91l-2.66,2.74H158V350.45l-3.07-2.74v-8.38h23.49v22.08a20.56,20.56,0,0,1,11.87-3.32c11.37,0,18.59,5,18.59,23.32,0,17.59-6,25.64-22.57,25.64A18.58,18.58,0,0,1,174.85,402.91Zm12-21.83c0-7.55-1.49-9.54-3.9-9.54a4.89,4.89,0,0,0-4.48,2.74v17.1a5.25,5.25,0,0,0,4.4,2.24C186.22,393.61,186.8,388.13,186.8,381.08Z"/><path class="cls-2" d="M257.05,364.81v16.93H241.12l-0.58-6.89c-0.58-1.74-1.24-3.15-3.73-3.15-3,0-4.65,1.74-4.65,11,0,7,2.24,10.21,8,10.21A29.91,29.91,0,0,0,255,388.63l3.32,12.53c-5.39,3.57-11.12,5.64-20.75,5.64-17.93,0-26.56-6.89-26.56-23.65,0-17.51,7.72-25.06,25.48-25.06C246.85,358.09,252.91,361.08,257.05,364.81Z"/><path class="cls-2" d="M342.67,407c-17.84,0-25.81-7.39-25.81-24.32,0-16.6,7.55-24.32,25.48-24.32,17,0,23.16,7.39,23.16,19.42,0,3.4-.33,9.3-0.5,10H338.11c1,5.15,3.49,6.22,8.55,6.22,7.05,0,11.62-1.25,16.27-4.07l2.91,12.53C360.6,405.44,353.13,407,342.67,407Zm-5.15-28.63h9.54c0-1.08.08-2.32,0.08-2.41a4.31,4.31,0,0,0-4.56-4.48C339.77,371.49,337.86,373.24,337.52,378.38Z"/><path class="cls-2" d="M407.66,424.36L410,411.83A25,25,0,0,0,422.93,415c9.21,0,12.45-3.4,12.45-9.21a25.38,25.38,0,0,1-11.45,2.32c-11,0-18.26-5.64-18.26-24,0-18.17,7.39-25.15,19.75-25.15,6.89,0,11.12,2.08,13.78,4.73l2.49-3.15h16.68v9.21l-2.74,2.57v30.63c0,17.84-11.37,25.31-26.81,25.31C417.54,428.26,412.06,426.43,407.66,424.36Zm27.72-31.79V375.39a5.16,5.16,0,0,0-4.73-2.24c-3.65,0-4.73,4.15-4.73,11,0,6.72,1.33,10.29,4.65,10.29A6.19,6.19,0,0,0,435.38,392.57Z"/><path class="cls-2" d="M519.87,396.23l3-2.08V370.91l-4.15-2.49v-9.21h24.81v34.86h0.08l4.65,2.16v9H519.87v-9Zm12.7-60.92c9.38,0,11.45,1.49,11.45,9.29s-2.08,9.46-11.45,9.46-11.37-1.66-11.37-9.46S523.11,335.31,532.57,335.31Z"/><path class="cls-2" d="M635,396.81l2.24-2.16v-44L634,347.84v-8.38h23.74v55.19h0.08l3,2.16v9H635v-9Z"/><path class="cls-2" d="M100.73,505.58H74v-9l2.66-2.16V471.22l-3.15-2.9v-8.8H95v7.14c2.08-4.07,7.8-8,18-8,10.71,0,13.61,4.48,13.61,16.1v19.59l3.49,2.16v9H104v-9l1.91-2.16V481.26c0-4-.66-6.06-3.15-6.06-2.16,0-4.23,2.24-5.48,6.72v12.45l3.4,2.16v9Z"/><path class="cls-2" d="M132.35,482.88c0-16.1,6-25.15,26.23-25.15,19.92,0,26.23,8.46,26.23,24.32,0,16-5.81,24.82-26.23,24.82C138.74,506.86,132.35,498.65,132.35,482.88Zm31.29-1.49c0-6.47-.83-10.37-4.9-10.37-4.23,0-4.73,4.4-4.73,11,0,7.72.83,11.7,4.73,11.7C163.06,493.75,163.64,489.35,163.64,481.39Z"/><path class="cls-2" d="M677,521.51l2.32-11.29a25,25,0,0,0,12.95,3.15c9.21,0,12-3.4,12-9.21v-1.33a18.16,18.16,0,0,1-12,4.07c-11.37,0-16.6-5.39-16.6-17.84l-0.17-17.59-2.32-2V459.27h23.07v25.89c0,6.06.83,8.22,3.24,8.22a5.7,5.7,0,0,0,4.73-2.82V471.63L701,469.48V459.27h24v41.91C724.88,516.95,714.67,526,697.07,526,685.7,526,679.56,522.84,677,521.51Z"/></svg>