<svg id="Layer_12" data-name="Layer 12" xmlns="http://www.w3.org/2000/svg" viewBox="0 0 850 600"><defs><style>.cls-1{fill:#fff;}.cls-2{fill:#231f20;}</style></defs><title>term3-comparison-04</title><rect class="cls-1" width="850" height="600"/><path class="cls-2" d="M127.12,106.93H95.67V98l5.64-2.82,14.11-50.54h31l13.78,50.46L166,98v8.88H134.34V98L140,95.23l-1.49-6H122.72l-1.41,5.89,5.81,2.9v8.88ZM125.46,77.8h10.29l-3.24-13.28-1.74-10.87-2.16,10.87Z"/><path class="cls-2" d="M168.37,106.93v-8.3l6.39-2.9V54.81l-6.56-2.08V44.68c7.8-.17,30.13-0.58,36.52-0.58,13.94,0,23.07,2.9,23.07,15.6,0,7.88-4,11.78-9.38,13.44,7,1.49,10.71,5.73,10.71,15.44-0.25,13.28-8.47,18.34-24.32,18.34H168.37Zm38.34-46.06c0-5.31-3.15-6.56-5.73-6.56-1.33,0-3.49.08-5.15,0.25V68.83c1.58,0.08,3.49.08,4.56,0.08C203.73,68.92,206.72,67.17,206.72,60.87Zm0.91,26.39c0-6.89-3.07-8.55-6.89-8.55-1.41,0-3.32.08-4.9,0.25V95.64c1.49,0.17,3.32.25,4.07,0.25C204.47,95.89,207.63,93.23,207.63,87.26Z"/><path class="cls-2" d="M263.57,108.59c-21,0-30.21-12.61-30.21-33.94S244.32,43,264.9,43c9.46,0,15.27,1.16,22.41,4.56L286,66.92H269.71c-0.66-1.49-1.25-7.72-2.32-12.86a17.18,17.18,0,0,0-3.82-.33c-6.22,0-7.64,7.8-7.8,21,0,11.79,2.57,20.58,12,20.58,7.88,0,10.62-3.57,13.61-6.64l7.14,10.46C285.65,102.11,279.26,108.59,263.57,108.59Z"/><path class="cls-2" d="M326.32,44.1c19.59,0,31.45,4.32,31.45,28.8,0,26.39-8.63,34-31,34h-33.2V97.63l5.56-2.74V56.72l-5.73-1.91V44.68C298.85,44.52,321,44.1,326.32,44.1Zm9.21,31c0-17-4.73-20-10-20-1.33,0-3.32.17-5.31,0.33V95.72c0.83,0.08,1.66.08,2.57,0.08C331.21,95.81,335.53,92,335.53,75.14Z"/><path class="cls-2" d="M362.18,106.93V97.63L368,94.89V56.72l-5.81-2.49V44.68h54.69l-0.5,19.5H399.85l-2-7.14h-8.8V68.67H406V81.2H389.07V94.81h9.13l2.41-8.38h16.27l0.33,20.5h-55Z"/><path class="cls-2" d="M421,106.93V97.63l5.81-2.82V56.72L421,54.23V44.68h53.12l-0.91,21.58H457.54l-2-9.21h-7.63V72.24h17.84V84.69H447.91V94.81l10.21,2.82v9.29H421Z"/><path class="cls-2" d="M509.08,108.42c-25.4,0-32.7-12.45-32.7-34,0-21.25,11.29-31.37,32.53-31.37,10.21,0,18.76,1.74,25.56,5.31l-0.91,16.6H516.22c-0.42-1.08-1.49-5.06-2.9-10a7.73,7.73,0,0,0-4.32-1c-7.14,0-9,7.39-9,20,0,14.69,1.33,22.57,9.79,22.57,2.74,0,5.23-1,6.39-2.32V86.1l-6.47-2.41V74.06h26.14V101.7C530.24,105.18,521.53,108.42,509.08,108.42Z"/><path class="cls-2" d="M574,106.93H541.21V97.63L547,94.89V56.72l-5.81-2.32V44.68H574v9.71l-5.39,2.32V67.84h15.52V56.72l-5.39-2.32V44.68H611.5v9.71l-5.81,2.32V94.89l5.81,2.74v9.29H578.64V97.63l5.48-2.74V81H568.59V94.89L574,97.63v9.29Z"/><path class="cls-2" d="M615.32,106.93V97.63l6.22-2.82V56.72l-6.22-2.82V44.68h34.19V53.9l-6.22,2.82V94.81l6.22,2.82v9.29H615.32Z"/><path class="cls-2" d="M647.45,110.66c10.62-.17,11.87-8.47,11.87-15.85V55.89L651,53.56V44.68h35v8.88l-5.81,2.32V95.64c-0.17,13.2-7.3,26-32.78,26.14V110.66Z"/><path class="cls-2" d="M720.81,106.93h-32.7V97.71l6.06-2.82V55.06l-6.64-2V44.68h32.62v8.38l-5.23,2h-0.08v17l13.44-17-4.73-2.16V44.68h27.64V53.4l-6.39,1.66-11.7,12.7,15.35,28.8,5.31,2.07v8.3H731L720.4,81.53l-5.56,6.06v7.3l6,2.82v9.21Z"/><path class="cls-2" d="M162.69,182h16.1L179,206.53H126.34v-9.3l5.81-2.82V155.49l-5.73-2v-9.21h35.35v9.21l-8.71,2v38.92h6.56Z"/><path class="cls-2" d="M208.5,206.53H179.79v-9.21l5.73-2.82,1.24-38.18-5.23-2.82v-9.21h36.6l6.14,39.84,5.31-39.84H266v9.21l-5.23,2.82,1.08,38.18,5.89,2.82v9.21H239v-9.21l3.15-2.82v-22l0.75-18.76-2.24,15.6-8,35.52h-17.1l-8.71-35.52L204.44,154l0.91,18.51v22l3.15,2.82v9.21Z"/><path class="cls-2" d="M298.64,206.53H270.92v-9.3l6.22-2.9V156.48l-6.22-2.82v-9.38h28l18.42,36.19-0.83-24-6.22-2.82v-9.38h26.81v9.38l-6.22,2.82v50H308.93l-17.35-33.86,0.83,21.66,6.22,2.9v9.3Z"/><path class="cls-2" d="M340.89,175.24c0-21.83,8.22-32.95,32.53-32.95s32.37,11.12,32.37,32.95c0.08,22.32-7.64,33-32.45,33C349.19,208.27,341,197.56,340.89,175.24Zm41.83,0c-0.17-12.37-1.25-20.25-9.3-20.25S364,162.87,364,175.24s1.49,19.09,9.46,19.09S382.88,187.6,382.72,175.24Z"/><path class="cls-2" d="M445.46,206.53h-36V197.9l5.56-2.57v-40.5l-5.73-2.07v-8.47c7.72-.17,25.65-0.58,33.28-0.58,16.76,0,25,2.16,25,21.08,0,16.35-8.63,21.08-23.32,21.08h-8.38v9.29l9.63,2.74v8.63Zm-9.63-52.37V175h4.81c4.9,0,6.56-4.23,6.56-10.62,0-5.73-1.41-10.29-5.64-10.29C440.23,154.08,437.83,154.08,435.84,154.16Z"/><path class="cls-2" d="M507.46,215a27.77,27.77,0,0,1,1-7c-1.83.17-3.82,0.25-5.89,0.25-24.15,0-32.37-10.71-32.45-33,0-21.83,8.22-32.95,32.53-32.95S535,153.41,535,175.24c0.08,16.27-4,26.31-15.77,30.62,1,2.49,2.82,3.4,5.31,3.4a7.72,7.72,0,0,0,6.56-4.23c2.66,2.07,4,5.56,4.07,9.71,0,7.88-7.22,11.2-14.86,11.2C512,225.95,507.46,219.31,507.46,215Zm4.48-39.5v-0.25c-0.17-12.37-1.25-20.25-9.29-20.25s-9.46,7.88-9.46,20.25c2.16-1.74,5.06-2.74,9-2.74A17,17,0,0,1,511.94,175.49Zm-1,12.2a9.67,9.67,0,0,0-8.63-5.23,10.66,10.66,0,0,0-8.38,3.73c1.08,5.31,3.57,8.13,8.71,8.13C507.3,194.33,509.79,192.09,510.95,187.69Z"/><path class="cls-2" d="M573.53,206.53H538.92v-8.47l6.39-2.74V155.65l-6.56-2.07v-9.3c10.13,0,37.51-.58,42.41-0.58,10.79,0,19.83,2.49,19.83,19,0,8-3.73,13.78-10.29,16.93l9.21,15.69,6.22,2.74v8.47H581.66L572,182.71h-4.9v12.61l6.47,2.74v8.47Zm-6.47-52.2v18.26h5.15c5.56,0,6.72-3.65,6.72-10,0-5.81-2.16-8.22-6.64-8.22h-5.23Z"/><path class="cls-2" d="M630,182.13c-17.76-4.65-22.16-10.54-22.16-22s7-17.59,25.73-17.59c17.43,0,23.74,3.57,24.48,4.65l-0.58,16.68H639.51l-0.91-7.55c-0.42-.66-1.91-1.91-5.06-1.91-3.57,0-5,2.49-5,5.89,0,2.9,2.07,4.4,10.29,6.39,16.43,3.82,22.33,8.13,22.33,21.66,0,15-9.38,19.42-25.65,19.42-18.67,0-26-4.15-27.14-5l0.41-17.18h19.09l0.66,6a8.43,8.43,0,0,0,5.64,2.74c3.24,0,6-.75,6-4.9C640.18,185.78,638,184.2,630,182.13Z"/><path class="cls-2" d="M683,155.9h-2.82l-1.25,10.87H664.33l-0.83-22.49h60.09l-0.83,22.49H708.15l-1.24-10.87h-2.82V195l8.13,2.49v9H674.87v-9L683,195V155.9Z"/><path class="cls-2" d="M214.23,255.92l-5.81-2.32v-9.71H241.2v9.71l-5,2.32v27.3c0,5,1,9.88,6.72,9.88s7.05-5,7.14-9.88v-27.3l-5-2.32v-9.71h32v9.71l-5.81,2.32v31.45c-0.25,10.79-7.88,20.33-28.38,20.33-21.08,0-28.72-9.46-28.72-20.33V255.92Z"/><path class="cls-2" d="M315.49,283.55L323,255.83l-6.81-2.24v-9.71h32.37v9.71L344,255.67l-20,50.46H302.54l-19.17-50.46-4.56-2.07v-9.71h33.45v9.71l-6.64,2.24L313,283.47l1.16,9.71Z"/><path class="cls-2" d="M396.74,267.37l-4.65,38.76H363.54l-9.71-50.38-4.48-2.16v-9.71h33.2v9.71l-7.22,2.24,3.82,27.3,0.75,9.79,0.75-9.79,7.3-37.26h17.84L413,283.14l1.41,9.79,0.75-9.79,4.48-27.3-7.39-2.24v-9.71h32.45v9.71l-4.48,2.24-10.87,50.29h-27.8Z"/><path class="cls-2" d="M477.09,306.13h-32v-9l5.64-2.16L467,275.25l-16-20.33-5-2v-9h31.87v9l-4,2,7.22,9.71,6.31-9.71-4.32-2v-9h31.12v9L509,254.92l-15.77,19,16.43,21,5.31,2.16v9H482.73v-9l4.07-2.16-7.55-10-6.64,10,4.48,2.16v9Z"/><path class="cls-2" d="M550.37,270.77l5.39-15.69-4.48-2.32v-8.88h31.21v8.88l-5.73,2.32-18.09,28.47v11.29l6.22,2.9v8.38H531v-8.38l6.22-2.9V283.55l-16.35-28.47L515,252.76v-8.88h32.2v8.88l-4.15,2.32,5.31,15.77,0.91,5.73Z"/><path class="cls-2" d="M584.24,291.44L618,255.25H604.24l-3.32,13.2H585.65V243.88H640v14.69l-31.12,35.11h13.36l3.65-14.52h15.19l-0.17,27H584.41Z"/><path class="cls-2" d="M131,401.5c-3,2.57-7.55,5.06-14.77,5.06-10,0-14.61-5.23-14.61-13.94,0-10.79,9.29-14.94,20-14.94,2.9,0,6,.08,8.8.25v-4.15c0-2.08-1.58-3.57-4.4-3.57a5.23,5.23,0,0,0-4,1.66l-0.66,4.07h-16.1l-1.33-12.37a66.55,66.55,0,0,1,26.56-5.23c12.86,0,20.25,4.81,20.25,16.18v20l2.41,2.32v8.88H131V401.5Zm-0.58-10v-5.06a34.19,34.19,0,0,0-4.48-.33c-2.82,0-5.56,1.66-5.56,4.48,0,2.66,1.33,3.9,3.57,3.9C125.92,394.52,128.41,393,130.4,391.54Z"/><path class="cls-2" d="M175.8,400.33l-4.32,5.31H157.29V351.28L154,348.55v-9.21h23.74V363.4c2.57-2.9,6.64-5.31,12.86-5.31,9.54,0,16.76,5,16.76,23.32,0,17.59-6,25.64-18.67,25.64A15.8,15.8,0,0,1,175.8,400.33Zm10.29-18.76c0-8.05-1.49-11.62-3.9-11.62a6.48,6.48,0,0,0-4.48,1.74v21.41a5.36,5.36,0,0,0,4.4,2.24C185.51,395.35,186.09,389.79,186.09,381.58Z"/><path class="cls-2" d="M257.05,365v16.93H241.12l-0.58-7.8c-0.75-2.32-1.24-4.23-3.73-4.23-3,0-4.65,2.66-4.65,11.87,0,7.72,2.24,11.29,8,11.29A29.91,29.91,0,0,0,255,388.8l3.32,12.53c-5.39,3.57-11.12,5.64-20.75,5.64-17.93,0-26.56-6.89-26.56-23.65,0-17.51,7.72-25.06,25.48-25.06C246.85,358.26,252.91,361.24,257.05,365Z"/><path class="cls-2" d="M291.25,401.16a15,15,0,0,1-12.53,5.89c-11.62,0-18.59-8.05-18.59-23.16,0-16.43,4.32-25.64,17.76-25.64a17.24,17.24,0,0,1,12,4.56V351.45l-3.32-2.9v-9.21h23.82v54.94l2.57,3.4v8H292.58Zm-1.41-8.05V371.78a7.28,7.28,0,0,0-4.56-1.83c-3.32,0-3.9,5.73-3.9,12.95,0,8.47,1.33,12.37,3.9,12.37A5.87,5.87,0,0,0,289.84,393.11Z"/><path class="cls-2" d="M341.72,406.89c-17.51,0-25.31-7.39-25.31-24.32,0-16.6,8.47-24.32,25-24.32,17,0,23.15,7.39,23.15,19.42,0,3.4-.33,9.3-0.5,10H337.48c1.16,5,4,6.31,9.63,6.31A29.55,29.55,0,0,0,362,390l2.9,12.37C359.64,405.31,352.17,406.89,341.72,406.89Zm-4.9-28.63h9c0.08-.83.08-1.83,0.08-2.9,0-3.07-1.41-5.56-4.32-5.56C338.31,369.79,337,372.28,336.82,378.26Z"/><path class="cls-2" d="M399.9,405.73H368.78v-9l3.49-2.16V371.45h-4.9V359.67h4.9v-3.9c0-13.36,7.14-17.43,21.5-17.43,7.64,0,15.44,1.74,16.76,2.66l-0.83,13.36H398.82l-0.91-3.57a2.88,2.88,0,0,0-2.57-1c-2.66,0-3.24,1.74-3.24,5.56v4.32h11.2v11.78H392.1v23.07l7.8,2.16v9Z"/><path class="cls-2" d="M407.45,419.34l2.32-12.53A25,25,0,0,0,422.72,410c9,0,12.28-2.9,12.45-8.22-2.91,1.41-6.56,2.16-11.45,2.16-11,0-18.26-5.06-18.26-20.67,0-18.17,7.39-25.15,19-25.15,7.14,0,11.37,2.24,14.11,5.31l2.08-3.73h17.93v9.21l-3.15,2.57v28.13c0,16.43-11.37,23.65-26.81,23.65C417.33,423.24,411.85,421.41,407.45,419.34Zm27.72-26.56V371.62a5,5,0,0,0-3.9-1.33c-3.65,0-4.73,5.23-4.73,12.2,0,6.31,1,11.29,4.81,11.29A7.49,7.49,0,0,0,435.17,392.78Z"/><path class="cls-2" d="M487.46,405.73H460.74v-9l2.66-2.16V351.28l-3.15-2.9v-8.8h21.5v26.72c3.4-4.23,9.38-7.47,18-7.47,10.21,0,12.95,4.48,12.95,16.1v19.59l3.49,2.16v9h-25.4v-9l1.91-2.16V376.27c0-2.74-.83-4.57-2.82-4.57a7.5,7.5,0,0,0-5.81,3.24v19.59l3.4,2.16v9Z"/><path class="cls-2" d="M519.67,396.68l3-2.08V371.37l-4.15-2.49v-9.21h24.81v34.86h0.08l4.65,2.16v9H519.67v-9Zm12.7-60.09c9.38,0,11.45,1.49,11.45,9.29s-2.08,9.46-11.45,9.46S521,353.69,521,345.89,522.9,336.59,532.37,336.59Z"/><path class="cls-2" d="M541.5,411.54c7.22,0,11-2.82,11-10V371.78l-4.23-2.9v-9.21H573v39.42c0,20.58-11.37,23.57-31.45,23.57V411.54Zm20.25-74.94c9.38,0,11.45,1.49,11.45,9.29s-2.07,9.46-11.45,9.46-11.37-1.66-11.37-9.46S552.29,336.59,561.75,336.59Z"/><path class="cls-2" d="M577.93,405.73v-9l3.07-2.16V351.45l-4.23-2.9v-9.21h24.48v39.92l12-9.71-5.15-2v-8H631.8v9.13l-12,7.8,9.29,18.26,3.49,1.83v9.13H614.12l-7.64-20.58-5.23,3.4v6l2.41,2.16v9H577.93Z"/><path class="cls-2" d="M635,396.68l2.24-2.16v-44L634,347.72v-8.38h23.74v55.19h0.08l3,2.16v9H635v-9Z"/><path class="cls-2" d="M690.15,405.73H663.75v-9l2.66-2.16V372l-3.4-2.9v-9.46h22.57v6.72a21.93,21.93,0,0,1,16.76-7.47c6.31,0,10.21,2.41,12.12,7.3a21.5,21.5,0,0,1,16.43-7.3c11,0,13.53,6.06,13.53,16.27v19.34l3.4,2.16v9H721.52v-9l2.16-2V375.85c0-2.16-.5-3.9-2.41-3.9-2.41,0-4.23,1.49-5.56,3.65v18.92l3.24,2.16v9H693.13v-9l1.83-2V376.27c0-2.66-.42-4.32-2.32-4.32-2.57,0-4.4,1.33-5.56,3.9v18.67l3.07,2.16v9Z"/><path class="cls-2" d="M100.73,505.33H74v-9l2.66-2.16V471l-3.15-2.9v-8.8H95v6.47c3.15-4.07,9-7.3,18-7.3,10.71,0,13.61,4.48,13.61,16.1v19.59l3.49,2.16v9H104v-9l1.91-2.16V475.87c0-2.66-.83-4.48-2.82-4.48-2.32,0-4.23,1.41-5.81,3.49v19.25l3.4,2.16v9Z"/><path class="cls-2" d="M132.35,482.75c0-16.1,6-25.4,26.23-25.4,19.92,0,26.23,8.71,26.23,24.57,0,16-5.81,25.23-26.23,25.23C138.74,507.15,132.35,498.52,132.35,482.75Zm31-.75c0-8.22-.83-13.28-4.56-13.28s-4.4,4.81-4.4,13.28c0,9.63.83,14.69,4.4,14.69C162.64,496.7,163.31,491.88,163.31,482Z"/><path class="cls-2" d="M187.71,521.93v-9l2.66-2.16V470.64l-4-3.4v-8h22.41l1.08,6.47c2.9-4,7.05-7.72,13.36-7.72,10.54,0,16,6.14,16,23.24,0,16.35-4.81,25-16.35,25-5.64,0-9.46-1.33-12.12-3.07v7.22l5.06,2.49v9H187.71Zm31.54-39.09c0-9-.66-12.12-3.07-12.2a6.64,6.64,0,0,0-5.39,2.9v21.08a7.83,7.83,0,0,0,4,1C218.67,495.62,219.25,490.56,219.25,482.84Z"/><path class="cls-2" d="M268.22,521.93v-9l4.07-2.16v-8.88a21.49,21.49,0,0,1-14.19,4.81c-11.62,0-16.1-7.39-16.1-23.49,0-15.35,4.81-25.4,18.51-25.4,6.39,0,10.79,3.65,13.69,7.3l2.57-5.81H292.7v51.46l3.9,2.16v9H268.22Zm4.07-28.3v-21.5a5.47,5.47,0,0,0-3.82-1.49c-3.82,0-4.65,4.81-4.65,11.62,0,8.13.83,12.86,4,12.86A7.1,7.1,0,0,0,272.28,493.63Z"/><path class="cls-2" d="M332.21,505.41H299.76v-9l2.66-2.16V470.55l-4.23-2.91v-8.38h23.4v7.55c2.74-4.56,7.05-8.38,13.2-8.38a15.92,15.92,0,0,1,7.8,1.66L340.51,482H328.72l-1.83-9.13a10.58,10.58,0,0,0-3.82,3v18.26l9.13,2.24v9Z"/><path class="cls-2" d="M366.24,497c3,0,4.73-1.41,4.73-3.82,0-1.74-1.91-3.57-7.22-4.65-16.27-3.4-19.67-7.55-19.67-15.85,0-11.45,8.55-15.35,23.65-15.35a50.53,50.53,0,0,1,19.67,3.73l-0.5,12-14.86-.33L371.22,468a6.33,6.33,0,0,0-4.07-1c-2.49,0-4.81,1.16-4.81,3.32s2.74,3.57,8.05,4.4c16.18,2.66,19.67,7.3,19.67,16.76,0,12.12-8.55,15.44-24.07,15.44-9.79,0-17.59-1.74-21.5-3.57V489.64l15.93,0.42,1.16,5.56A6.5,6.5,0,0,0,366.24,497Z"/><path class="cls-2" d="M394.3,490V471.05h-3.65V459.27h5.56l2.9-8.05h15.6v8.05H424v11.78h-9.3v15.19c0,4.32.25,6.89,3.4,6.89,1.58,0,4.4-.5,5.06-1.08l1.33,11.2c-3.07,1.91-7.14,3.15-13.86,3.15C398.61,506.41,394.3,501.43,394.3,490Z"/><path class="cls-2" d="M457.46,498.27c-3.49,5.48-8.8,8.13-15.6,8.13-11.12,0-13.86-4.9-13.86-13.61v-23l-3.24-2.08v-8.46h23.16v27.39c0,3.49.66,6.22,3.07,6.22,2.24,0,3.73-1.33,5.15-3.07V470.06l-4.4-2.24v-8.55H476v34.86l2.57,2.16v9H457.46v-7.05Z"/><path class="cls-2" d="M480.86,469.64L478,467.48v-8.22h26.23v8.22l-2.57,2.16,3.73,15.6,0.83,6.31,0.75-6.31,3.9-15.6-2.82-2.16v-8.22h25.4v8.22l-3.07,2.16-15.35,35.69H495.14Z"/><path class="cls-2" d="M571.33,478.69l-6.39,26.64h-21l-9.63-35.85-3.32-2v-8.22h25.4v8.22l-2.66,2.16,1.66,12.45,0.66,6.39,0.66-6.39,6.56-22.82h17.18l6,22.82,0.66,6.06,0.66-6.06,1.74-12.45h-0.08l-2.66-2.16v-8.22h25.06v8.22L609,469.56l-11.2,35.77h-21Z"/><path class="cls-2" d="M638.73,505.33H612.25v-9l3.24-2,14.52-12-13.36-11.87-3.57-2.08v-9h28.38v9l-3.4,2.16,5.48,5.06,5.23-5.06-3.4-2.16v-9h25.4v9l-3.57,2.08-12.62,11.87,13.78,12,3.24,2.08v9H643.21v-9l3.65-2.16-6.06-5.81-5.73,5.81,3.65,2.16v9Z"/><path class="cls-2" d="M677,519l2.32-11.29a25,25,0,0,0,12.95,3.15c9.21,0,12-3.07,12-8.38v-1.33a18.17,18.17,0,0,1-12,4.07c-11.37,0-16.6-5.39-16.6-17.84l-0.17-15.93-2.32-2V459.27h23.07V483.5c0,7.3.83,9.88,3.24,9.88a5.7,5.7,0,0,0,4.73-2.82V471.63L701,469.48V459.27h24v40.25c-0.08,15.27-10.29,24-27.89,24C685.7,523.5,679.56,520.35,677,519Z"/><path class="cls-2" d="M729.7,492.21L756,470.89H746L743,479h-13l0.83-19.75h43.49l0.5,14.94-24.23,19.5h10l3-7.8h12.45l-0.66,19.42H730.61Z"/></svg>