<svg id="Layer_12" data-name="Layer 12" xmlns="http://www.w3.org/2000/svg" viewBox="0 0 850 600"><defs><style>.cls-1{fill:#fff;}.cls-2{fill:#231f20;}</style></defs><title>term3-comparison-01</title><rect class="cls-1" width="850" height="600"/><path class="cls-2" d="M174.56,106.93H153.89V103l5.64-2.82,18.26-56.35h8.63l17.93,56.27,5.73,2.9v3.9H189.24V103l6.47-2.82-4.07-12.45H171.73l-3.82,12.37,6.64,2.9v3.9Zm-0.83-25.64h15.85l-7.22-22.66-0.91-5.73-0.75,5.64Z"/><path class="cls-2" d="M216,106.93v-3.32l5.56-2.9V51.07L215.81,49V44.68c6-.17,18.84-0.58,23.74-0.58,10.79,0,18.59,2.9,18.59,15.6,0,7.8-3.57,11.7-8.71,13.36,7.05,1.41,11,5.64,11,16.27,0,12-8.3,17.59-21.58,17.59H216ZM249.5,59.46c0-7.64-2.9-9.46-11-9.46a49.66,49.66,0,0,0-8.55.66V70.33c2.16,0.08,5,.17,8.71.17C245.68,70.49,249.5,68.25,249.5,59.46Zm2,30c0-10.21-4.15-12.78-13.61-12.78-1.74,0-5.31-.08-7.88.08v23.82l4.56,0.42C246.6,101,251.49,97.47,251.49,89.42Z"/><path class="cls-2" d="M290.34,108.26c-18.18,0-21-14.11-21-34.77S275.73,43,291.67,43c7.55,0,12.28,1.08,17.93,4.56L309.34,62h-5.56c-0.58-1.33-1.91-7.39-3.15-11.29a18.19,18.19,0,0,0-7.47-1.33c-12,0-14.77,9-14.94,24.48,0,16.1,1.83,27.39,14.19,27.39,8.55,0,12-3.49,14.19-5.56l3.57,4.9C307.93,103.11,303.78,108.26,290.34,108.26Z"/><path class="cls-2" d="M319.47,106.93v-3.32l5.56-2.9V50.91L319.31,49V44.68c6-.17,18.76-0.58,23.65-0.58,15.1,0,23.74,2.82,23.74,30.21,0,25-6.47,32.62-23.07,32.62H319.47ZM358,74.31c0-22.24-7.39-24.07-16-24.07a44,44,0,0,0-8.38.66V99.54a30.86,30.86,0,0,0,8.47.83C352.59,100.37,358,96.47,358,74.31Z"/><path class="cls-2" d="M375.08,106.93v-3.73l5.81-2.82V50.91l-5.81-2.49V44.68h37.68l1.16,13.69H409l-2.82-7.14H389.52V71.16h19.42v6.72H389.52v22.49h17l3.24-7.47h4.65l-1.33,14h-38Z"/><path class="cls-2" d="M421.89,106.93v-3.73l5.81-2.82V50.91l-5.81-2.49V44.68h36.85L459.9,58h-4.81l-2.82-6.72H436.33V73.07h19.09v6.64H436.33v20.67l9.38,2.49v4.07H421.89Z"/><path class="cls-2" d="M488.12,108.42c-17.76,0-21.83-12.78-21.83-34.94C466.3,52.9,473,43,489,43c7.55,0,13.44,1.08,19.09,4.56L507.79,62h-5.56c-0.5-1.25-1.83-7-3-10.87a20.69,20.69,0,0,0-8.8-1.74c-12,0-15.11,9-15.27,24.48,0,18,2.16,27.55,15,27.55a22.72,22.72,0,0,0,11-2.82V81.78H490.7V74.39h18.42V76h0.08V103C505.22,105.85,498.17,108.42,488.12,108.42Z"/><path class="cls-2" d="M540.91,106.93H520.16v-3.49L526,100.7V50.91l-5.81-2.32v-3.9h20.75v3.9l-6.64,2.32V72h24.65V50.91l-6.64-2.32v-3.9H573v3.9l-5.81,2.32v49.8l5.81,2.74v3.49H552.28v-3.49l6.64-2.74V78.46H534.27V100.7l6.64,2.74v3.49Z"/><path class="cls-2" d="M584.24,106.93v-3.4l6.22-2.9V50.91l-6.22-2.82v-3.4h20.91v3.4l-6.22,2.82v49.71l6.22,2.9v3.4H584.24Z"/><path class="cls-2" d="M611.8,117.63v-6.14c10.62-.17,11.87-8.47,11.87-15.85V50.91l-8.3-2.32v-3.9h22.57v3.9l-5.81,2.32V96.47C632.13,107.18,627.73,117.47,611.8,117.63Z"/><path class="cls-2" d="M646.32,106.93v-3.4l5.23-2.82V50.91l-5.81-2V44.68h21v4.23l-6.89,2h-0.08v23.9l19.59-23.9-4.23-2.16V44.68h19.34v4.56l-5.73,1.66L671.55,71.49l18.51,29.21,7,2.08v4.15H683.42L666.24,77.8l-6.47,7.8v15.1l6,2.82v3.4H646.32Z"/><path class="cls-2" d="M212.61,206.53h-36v-3.73L182.4,200V150.51l-5.73-2v-4.23h22.91v4.23l-8.55,2h-0.17V200h14.86l3.07-10.79h5Z"/><path class="cls-2" d="M239.25,206.53H219.33v-3.4l6.22-2.9h0.33l2.82-49.71-6.06-2.82v-3.4H239.5L256.43,193l16.76-48.72h16.27v3.4l-6.06,2.82,2.82,49.71h0.33l6.22,2.9v3.4h-21v-3.4l5.89-2.74-1.91-35.11,0.5-9.46L273.94,165l-14.36,39.84h-7.8L238,164.78l-2.32-9.13,0.17,9.54-2,35.44,5.39,2.49v3.4Z"/><path class="cls-2" d="M321.67,206.53H301.42v-3.4l6.22-2.9V150.51l-6.22-2.82v-3.4h14.52v0.5L344,192.83l-1.16-7.8V150.51l-6.22-2.82v-3.4h20.17v3.4l-6.22,2.82v55.94h-7.72v0.08l-28.72-48.22,1.33,8.71v33.2l6.22,2.9v3.4Z"/><path class="cls-2" d="M389.07,142.37c18.34,0,22.66,9.88,22.66,33s-5,32.7-22.66,32.7-22.74-9.46-22.74-32.53S370.72,142.37,389.07,142.37Zm-13.61,33.28c0,16.93,1.74,25.56,13.61,25.56s13.53-8.71,13.53-25.73-0.66-26.64-13.53-26.64S375.45,158.72,375.45,175.65Z"/><path class="cls-2" d="M443.1,206.53H421.85v-3.65l5.56-2.57V150.67l-5.73-2.07v-4.32c6-.17,16.68-0.58,21.58-0.58,13,0,20.5,2.66,20.5,18.42,0,14.52-5.81,22.08-17.68,22.08H435.79v15.93l7.05,2.74ZM435.79,150v27.47h8.71c8.8,0,11.12-4.32,11.12-15.35,0-8.47-3.24-12.28-11.29-12.28C441,149.84,438.12,149.93,435.79,150Z"/><path class="cls-2" d="M504,207.11a28,28,0,0,1-7.88,1c-17.68,0-22.82-10.12-22.82-32.53s4.48-33.2,22.82-33.2,23.15,10.54,22.74,33c-0.25,13.44-2.32,22.91-8.13,28.05l5.15,6.81L510,215ZM499.45,201l-3.24-4.4,6-4.32,4.15,5.39c3.24-3.82,3.57-11,3.57-22.24,0-17-.91-26.56-13.78-26.56s-13.86,9.79-13.86,26.72,2,25.56,13.86,25.56C497.38,201.22,498.46,201.13,499.45,201Z"/><path class="cls-2" d="M549.75,206.53H529.09v-3.65l5.56-2.57V150.67l-5.73-2.07v-4.32c6-.17,19.09-0.58,24-0.58,10.79,0,19,2.49,19,17.18,0,9.38-2.91,15.85-9.29,18.51l8.88,20.83,6.22,2.9v3.4H565L554.65,180.8H543.36v19.34l6.14,2.74ZM543.36,150v24.15h8.88c8.13,0,10.79-3.32,10.79-12.53s-3.07-11.79-11.12-11.79C548.59,149.84,545.69,149.93,543.36,150Z"/><path class="cls-2" d="M625.11,189.76c0,14.11-8,18-20.42,18-14.27,0-19.09-5-19.92-5.81V187.27h6.47l2.32,10.21c0.33,0.58,3.73,3.4,11.2,3.4,8.8,0,12-2.9,12-10.62,0-8.13-4.48-10-14.94-12.12-12.45-2.57-17-6.06-17-17.84s5.56-17.76,20.33-17.76c13.11,0,16.93,4.4,17.51,5.48v13.2h-6.22l-2.16-9.13c-0.91-1.16-4.15-2.82-9.54-2.82-10,0-12,4.48-12,10.46,0,6.39,1.74,8.55,12.37,11C617.65,173.66,625.11,175.57,625.11,189.76Z"/><path class="cls-2" d="M641.8,202.46l7.3-2.49v-49h-9.88l-2.49,12.53h-5.48V144.28h44.32v19.17H670.1l-2.49-12.53h-9.88v49l7.3,2.49v4.07H641.8v-4.07Z"/><path class="cls-2" d="M275.4,307.7c-16.18,0-20.67-10.29-20.67-21.16V250.11l-5.81-2.32v-3.9h21.16v3.9l-6.64,2.32v34.77c0,7.55,1,15.85,12,15.85s11.87-8.38,11.87-15.85V250.11l-6.64-2.32v-3.9h21.25v3.9l-5.81,2.32v36.43C296.06,297.33,291.58,307.7,275.4,307.7Z"/><path class="cls-2" d="M352.67,249.86l-18.34,56.27h-9l-16.68-56.27-4.56-2.07v-3.9h20.17v3.9L317.65,250h-0.08l12,41.33,0.91,5.73,0.75-5.64L344.12,250H344l-6.64-2.24v-3.9h19.92v3.9Z"/><path class="cls-2" d="M400.06,261.73l-14,44.4h-9.63l-13-56.19-4.48-2.16v-3.9h20.75v3.9L372.43,250l9,41.33,0.83,5.56,0.75-5.48,14.44-45.56h6.22l14.11,45.48,0.75,5.48,0.75-5.39L429.19,250l-7.39-2.24v-3.9h20v3.9L437.33,250l-14.19,56.1h-9.79Z"/><path class="cls-2" d="M443.47,302.06l5.64-2.16L464,273.1l-13.94-23h-0.08l-5.48-2V244h18.76v4.07l-3.15,2h-0.33l10.21,17.35,9.46-17.35h-0.08l-3.32-2V244h18.67v4.07l-6.39,2-13.78,24,15.6,25.81h0.33l5.48,2.16v4.07H476.75v-4.07l3.65-2.16h0.08L468.7,279.65,458.16,300l4,2.08v4.07H443.47v-4.07Z"/><path class="cls-2" d="M513.52,306.13v-3.4l6.22-2.9V286L503.4,250.11h-0.08l-5.73-2.32v-3.9h20.75v3.9l-5.81,2.32h-0.08l11.7,25.23,0.91,4.32,0.75-4.23,12.53-25.31h-0.08l-6.06-2.32v-3.9h20.42v3.9L546.89,250l-18,36h-0.08v13.78l6.22,2.9v3.4h-21.5Z"/><path class="cls-2" d="M557.26,300.48l30.38-49.38h-21l-2.24,9.79h-5.48v-17h38.84v6.39l-29.79,49h21.74l2.66-11.2H598l-0.17,18.09H557.43Z"/><path class="cls-2" d="M158.54,399.34c-3.15,3.15-9,7.55-16.68,7.55-9.71,0-13.53-6.64-13.53-14.28,0-10.87,10.54-13.36,18.51-13.36A83.78,83.78,0,0,1,158,380v-4.32c0-5.56-2.9-8.55-9.21-8.55-5.89,0-9.63,1.25-11.2,2.08L136.21,374h-5.56V364.9c3.82-2.16,9.88-4,18.84-4,11.45,0,16.6,4.48,16.6,14.61v24l5.31,2.32v3.9H158.54v-6.39ZM158,392.53v-6.14a75.3,75.3,0,0,0-10.62-.75c-7.05,0-10.54,2.07-10.54,7.14,0,4,1.83,7.14,6.06,7.14C147.5,399.92,154.47,395.77,158,392.53Z"/><path class="cls-2" d="M189.33,402.08l-2.82,3.57-4.56.08V346.3l-5.56-2.74v-4.23h13.69l-0.08,26c3.32-2.32,8.13-4.32,15.27-4.32,10,0,15.69,6.47,15.69,22.74s-5.56,23.32-17.76,23.32C196.13,407.06,192.15,404.73,189.33,402.08Zm23-18.84c0-11.45-2.49-15.27-9-15.27A22,22,0,0,0,190,373l-0.08,22.66c2,2.32,5.81,4.56,12,4.56C210.33,400.25,212.32,393.94,212.32,383.24Z"/><path class="cls-2" d="M261.21,375.35l-1.58-6.47c-1.41-1.25-3.57-1.91-6.56-1.91-9.54,0-13.28,6.31-13.28,16.85s3.07,16.68,12.86,16.68a18.07,18.07,0,0,0,12.28-4.32l2.9,6.06c-3.24,2.07-7.72,4.9-15.19,4.9-16.35,0-21.41-8.38-21.41-23.32s7.3-23.32,21.83-23.32A30.87,30.87,0,0,1,267,364.23v11.12h-5.81Z"/><path class="cls-2" d="M308.1,399.5c-2.66,4-7,7.55-15.6,7.55-10,0-16.18-8.05-16.18-23.16,0-15.35,4.56-23.65,17.93-23.65,6.47,0,10.62,1.33,13.44,3.15V346.47l-5.81-2.9v-4.23h13.86v59.09l5.06,3.4v3.82h-12Zm-0.42-7.88V370.21c-2.16-2-6-3.57-11.7-3.57-9.3,0-11,7.14-11,17.26,0,9.71,3.4,16.76,9.38,16.76C300.88,400.67,304.86,396.27,307.68,391.62Z"/><path class="cls-2" d="M348.69,407.06c-14.11,0-19.67-6.72-19.67-23.24,0-15.77,6-23.32,20.5-23.32,15.77,0,17,9.21,17.1,17.76a55.28,55.28,0,0,1-.5,7.47H337.57c0.25,10.79,2.9,14.69,12.12,14.69,7.14,0,10.87-2.24,12.95-4l2.9,6.22C362.3,404.73,356.9,407.06,348.69,407.06Zm-11-28h21.08a23.37,23.37,0,0,0,.17-3.32c0-4-1.91-8.8-10-8.8C341.47,367,338.4,369.88,337.73,379.09Z"/><path class="cls-2" d="M377.49,405.73v-4.07L381,399.5V367.38h-5.31v-5.15H381v-6.47c0-14.52,5.31-17.43,14.27-17.43,5.64,0,9.79,1.74,10.71,2.66v8.38h-4.32l-1.41-4.57a8.21,8.21,0,0,0-4.81-1.16c-5.06,0-6.22,3.49-6.22,12.7v5.89h10.46v5.15H389.19V399.5l9,2.16v4.07H377.49Z"/><path class="cls-2" d="M410.52,419.25l2.32-5.73a25,25,0,0,0,12.95,3.15c9.21,0,12-3.4,12-12.12v-1.83c-3.07,2.57-7.47,4.23-14.19,4.23-10.62,0-16.1-6.81-16.1-22.91,0-15.35,5.64-23.24,17.59-23.24,6.47,0,10.71,2.24,13.53,4.9l1.58-3.57H451v4.23l-5,2.49V405c0,13.61-8.38,18.18-18.84,18.18C417.83,423.16,412.43,420.58,410.52,419.25Zm27.3-24V372.2a16.33,16.33,0,0,0-11.62-4.9c-8,0-10.21,6.64-10.21,16.76,0,10.62,2.82,16.1,10.13,16.1C432.1,400.17,435.42,398,437.83,395.27Z"/><path class="cls-2" d="M460.49,401.66L464,399.5v-53l-6.72-2.9v-4.23h14.52V368c2.66-3.49,7.39-7,16-7,9.79,0,13.94,5,13.94,16.43v22h0.08l6.31,2.16v4.07H489.7v-4.07l3.74-2.08V380.91c0-10.12-1.83-12.86-8-12.86-7.55,0-11.7,5.56-13.28,9.71V399.5l8.3,2.16v4.07h-20v-4.07Z"/><path class="cls-2" d="M516.85,401.66l3.82-2.08V368.88l-5-2.49v-4.23h13.2V399.5H529l6.31,2.16v4.07H516.85v-4.07Zm7.22-61.75c4.48,0,5.06,1,5.06,6.39s-0.58,6.56-5.06,6.56S519,351.7,519,346.3,519.5,339.91,524.07,339.91Z"/><path class="cls-2" d="M539.26,416.52c4.73,0,9.29-3.65,9.29-12.45V369.29l-5.89-2.91v-4.23h13.86V405c0,14.77-9.54,17.51-17.26,17.51v-6Zm12.7-76.6c4.48,0,5.06,1,5.06,6.39s-0.58,6.56-5.06,6.56-5.06-1.16-5.06-6.56S547.39,339.91,552,339.91Z"/><path class="cls-2" d="M568.72,405.73v-4.07l3.9-2.16v-53l-5.89-2.9v-4.23h14.11v42.49L595.19,367l-4-.75v-4.07h17.43v4.07l-5.64,2-9.88,10,13.53,21.25,5.64,2.08v4.15H601.17L588,383.57l-7.14,7.3v8.63l6.31,2.16v4.07H568.72Z"/><path class="cls-2" d="M619.68,401.66l3.9-2.16V346.39l-5.64-2.82v-4.23h13.78V399.5h0.08l6.31,2.16v4.07H619.68v-4.07Z"/><path class="cls-2" d="M647.4,401.66l3.49-2.16V369.29L645,366.39v-4.23h12.62v7.47c2.49-4,8-8.55,17.26-8.55,5.31,0,9.54,1.41,11.12,7.14,2.66-3.65,8.46-7.14,16.35-7.05,11.54-.08,14.36,5.23,14.36,16.27V399.5h0.25l6.31,2.16v4.07H704.83v-4.07l3.57-2V380.33c0-8.71-1.66-12.28-8-12.28a13.24,13.24,0,0,0-12.62,9.13V399.5h0.17l8.3,2.16v4.07h-20v-4.07l3.24-2V380.42c0-8.88-1.58-12.37-7.88-12.37-6.64,0-11,5.23-12.45,9.63V399.5l8.3,2.16v4.07h-20v-4.07Z"/><path class="cls-2" d="M124.8,505.33h-20v-4.07l3.49-2.16V468.89L102.39,466v-4.23H115v6.47c2.41-3.73,7.64-7.3,15.77-7.3,12.12,0,15,4.48,15,16.1V499.1l6.22,2.16v4.07H133.6v-4.07l4-2.16V479.35c0-9.79-1.49-11.87-8.38-11.87-5.48,0-10.29,3.15-12.7,9.54V499.1l8.3,2.16v4.07Z"/><path class="cls-2" d="M159.91,483.58c0-15,4.48-24,19.92-24,15.1,0,19.92,8.38,19.92,23.15,0,15.19-4.48,24-19.92,24C164.72,506.74,159.91,498.52,159.91,483.58Zm31.21-.83c0-10.37-1.91-16.52-11.29-16.52-10,0-11.29,6.72-11.29,17.35s1.91,16.52,11.29,16.52C189.87,500.1,191.11,493.54,191.11,482.75Z"/><path class="cls-2" d="M209.71,521.93v-4.07l3.49-2.16V469l-5.64-3.4v-3.82H220l0.66,5.56a19.4,19.4,0,0,1,15.27-7c11.37,0,16.1,5.81,16.1,21.91,0,15.35-5.15,24.15-17.35,24.15-6.81,0-10.79-1.25-13.53-3v12l7.55,2.49v4.07h-19Zm33.78-39.67c0-10.87-2.57-15.19-9.29-15.19-6.06,0-10.21,3.49-13,7.14v22.41c2.16,1.58,5.89,3.32,12.28,3.32C241.83,499.93,243.49,492.38,243.49,482.26Z"/><path class="cls-2" d="M288.55,517.86l3.9-2.16h0.17V500.93a19.79,19.79,0,0,1-14.52,5.73c-11.62,0-16.1-7.39-16.1-23.49,0-13.86,4.23-22.91,17.1-22.91a20.27,20.27,0,0,1,14.19,5.81l0.5-4.32h12.45v3.82l-5.64,3.4V515.7h0.08l6.31,2.16v4.07H288.55v-4.07Zm4.07-24.32V473.13c-2.41-2.82-6.39-6.47-12.28-6.39-8.38-.08-9.79,7.64-9.79,16.43,0,10.62,1.74,16.68,8.8,16.68A17,17,0,0,0,292.62,493.54Z"/><path class="cls-2" d="M314.37,501.34l3.49-2.16V468.89L312,466v-4.23h12.61v8.13c3-4.73,8.71-9,14.44-9,4,0,7.22.75,7.88,1.66l-0.42,12h-5l-2.41-6.89c-5.39,0-11.29,5.39-13,10.37v21.08l8.3,2.16v4.07h-20v-4.07Z"/><path class="cls-2" d="M387.49,493c0,10-5,13.53-17.18,13.53-13.36,0-16.52-4.23-17.18-4.81V491.55h5l2.16,6.14c0.25,0.42,3.73,2.49,9.54,2.49,6.06,0,9.88-1.25,9.88-6.64,0-4.65-4.4-5.89-12.37-7.47-9.54-1.91-14-4.81-14-13.45s4.4-12.7,16.85-12.7c11.54,0,14.77,3.15,15.19,3.9v9.46h-4.81l-2-5.06c-0.66-.83-3.82-2.24-8.55-2.24-6.14,0-8.88,1.91-8.88,6.22,0,4.56,3.07,5.39,11.29,7.3C382.09,481.76,387.49,482.5,387.49,493Z"/><path class="cls-2" d="M399.11,490V467.57h-3.65v-5.81h3.65l2.74-8h5.23v8h12.61v5.81H407.08v21.5c0,7.22.58,11.37,7.3,11.37a12.44,12.44,0,0,0,6.14-1.58l1.58,4.81c-1.41,1.16-5.06,2.74-10.46,2.74C402.43,506.41,399.11,502.09,399.11,490Z"/><path class="cls-2" d="M463,497.2c-2.49,4.65-7.8,9.21-16.93,9.21-10.71,0-13.45-4.9-13.45-17.35V468.15l-5.64-2v-4.4h13.94v24.07c0,10.37,1.41,13.86,7.8,13.86,7.47,0,11.12-6.72,12.86-12.7V468.4l-6.89-2.24v-4.4h15.1v36.77l6.14,2.91v3.9h-13Z"/><path class="cls-2" d="M484.93,467.9l-5.31-2.08v-4.07h17.93v4.07L493.31,468l9.79,25.23,1,4.07,1.25-4.23L515,468h-0.17l-4.32-2.16v-4.07h17.93v4.07l-5.56,2.08-15.35,37.43h-8.3Z"/><path class="cls-2" d="M546.35,505.33l-11.29-37.51-5-2v-4.07H548v4.07L543.69,468h-0.42l7,25.23,0.91,3.9,1.08-3.9,10.62-31.45h8l10.54,31.45,1,4,1.16-4.07L591.08,468H591l-4.32-2.16v-4.07h17.59v4.07L599,467.9,586.1,505.33h-8.55l-10.79-32.2-11.87,32.2h-8.55Z"/><path class="cls-2" d="M606.77,501.26l5.39-2,12-16.76L612.67,467.9l-5.23-2.08v-4.07h17.93v4.07L622.21,468H622l8.13,10.54L637.9,468h-0.08l-3.32-2.16v-4.07h17.93v4.07l-6.22,2.08-11.54,15.52,12.95,15.77,5.23,2.08v4.07H634.49v-4.07l3.65-2.16h0.25l-9.46-11.7-8.3,11.7,4.07,2.16v4.07H606.77v-4.07Z"/><path class="cls-2" d="M664.29,518.86l2.32-5.73a25,25,0,0,0,12.95,3.15c9.21,0,12-3.4,12-12.12v-3.73c-2.74,3.15-7.05,6-14.11,6-10.79,0-14.61-4.9-14.61-17.35V468.15l-5.64-2v-4.4h13.94v25.06c0,9.54,2,12.62,8,12.62a14,14,0,0,0,12.45-7V468.31L685,466.16v-4.4h14.86v42.82c0,13.61-8.38,18.18-18.84,18.18C671.59,522.76,666.2,520.18,664.29,518.86Z"/><path class="cls-2" d="M710.44,499.68L736.5,468.4H719.15l-2.24,5.31h-4.65v-12h32.28l2,6.06-25.15,30.87h18.18l1.74-5.64h4.81L746,505.33H712.18Z"/></svg>