<?xml version="1.0" encoding="utf-8"?>
<!-- Generator: Adobe Illustrator 19.2.1, SVG Export Plug-In . SVG Version: 6.00 Build 0)  -->
<svg version="1.1" id="Layer_1" xmlns="http://www.w3.org/2000/svg" xmlns:xlink="http://www.w3.org/1999/xlink" x="0px" y="0px"
	 viewBox="0 0 850 600" style="enable-background:new 0 0 850 600;" xml:space="preserve">
<style type="text/css">
	.st0{fill:#FFFFFF;}
	.st1{clip-path:url(#SVGID_2_);}
</style>
<rect x="49.5" y="81" class="st0" width="751" height="442"/>
<g>
	<g>
		<defs>
			<rect id="SVGID_1_" x="-170.5" y="-56.9" width="1192" height="723.7"/>
		</defs>
		<clipPath id="SVGID_2_">
			<use xlink:href="#SVGID_1_"  style="overflow:visible;"/>
		</clipPath>
		<path class="st1" d="M692.6,149.3v20l17.1,7c3.3,1.2,4.8,3.7,4.8,6.5v215.3c0,22.1,10.2,40.4,35.6,37.1l35.1-4.1v-17.1
			c-14.3,0-27-3.7-27-20.8V159.5c0-4.1-1.7-10.2-8.6-10.2h-57.1V149.3z M568.9,149.3v20l17.1,7c3.3,1.2,4.8,3.7,4.8,6.5v215.3
			c0,22.1,10.2,37.1,35.6,37.1h32.3v-17.1c-14.3,0-24.1-7.8-24.1-25V159.5c0-4.1-1.7-10.2-8.6-10.2h-57.1V149.3z M471,190.2
			c0-17.1-8.6-25-22.8-25c-3.3,0-4.8-4.1-4.8-7.8c0-3.7,0.4-9.3,4.8-9.3h31.1c25.3,0,35.6,15.1,35.6,37.1l-1.9,208
			c0,17.1,8.6,25,22.8,25c3.3,0,4.8,4.1,4.8,7.8c0,3.7-0.4,9.3-4.8,9.3h-31.1c-25.3,0-35.6-15.1-35.6-37.1L471,190.2z M322.7,149.3
			v20l22.1,9v219.8c0,22.1,10.2,37.1,35.6,37.1h30.9c4.5,0,4.8-5.7,4.8-9.3c0-3.7-1.7-7.8-4.8-7.8c-14.3,0-22.8-7.8-22.8-25V149.3
			H322.7z M196.9,149.3v20l22.1,9v219.8c0,22.1,10.2,37.1,35.6,37.1h32.3v-17.1c-14.3,0-24.1-7.8-24.1-25V149.3H196.9z M74.3,149.3
			v20l22.1,9v247.5c0,5.7,4.5,9.8,9.3,9.3h62.1v-17.1c-15.1,0-27.8-7-27.8-19.2V149.3H74.3z"/>
	</g>
</g>
</svg>
