<svg id="Layer_12" data-name="Layer 12" xmlns="http://www.w3.org/2000/svg" viewBox="0 0 857.96 612"><defs><style>.cls-1{fill:#231f20;}</style></defs><title>term1-progress-05</title><path class="cls-1" d="M575.35,490.18a1.09,1.09,0,0,0-1,1.22v14c0,4.39,1.44,5.54,5.69,5.54s5.62-1.15,5.62-5.54c0-4.1-.43-5.83-5.69-5.83l1.15,2.45L581,491.26c0-.79-0.14-1.08-0.72-1.08h-5Zm14.4,0a1.09,1.09,0,0,0-1,1.22v14c0,4.39,1.44,5.54,5.69,5.54s5.62-1.15,5.62-5.54c0-4.1-.43-5.83-5.69-5.83l1.15,2.45-0.07-10.73c0-.79-0.14-1.08-0.72-1.08h-5Zm-24,20.74a1.09,1.09,0,0,0,1-1.22v-14c0-4.39-1.44-5.54-5.69-5.54s-5.62,1.15-5.62,5.54c0,4.1.43,5.83,5.69,5.83l-1.15-2.45L560,509.83c0,0.79.14,1.08,0.72,1.08h5Zm-14.4,0a1.09,1.09,0,0,0,1-1.22v-14c0-4.39-1.44-5.54-5.69-5.54s-5.62,1.15-5.62,5.54c0,4.1.43,5.83,5.69,5.83l-1.15-2.45,0.07,10.73c0,0.79.14,1.08,0.72,1.08h5Zm-22.17,36.72a1.09,1.09,0,0,0,1-1.22v-14c0-4.39-1.44-5.54-5.69-5.54s-5.62,1.15-5.62,5.54c0,4.1.43,5.83,5.69,5.83l-1.15-2.45,0.07,10.73c0,0.79.14,1.08,0.72,1.08h5Zm-4.54-28.87c4.1,0,5.54-1.22,5.54-5.69s-1.44-5.54-5.69-5.54-5.62,1.15-5.62,5.54,1.51,5.69,5.76,5.69m-26.21,0c4.1,0,5.54-1.22,5.54-5.69s-1.44-5.54-5.69-5.54-5.62,1.15-5.62,5.54,1.51,5.69,5.76,5.69m0,19.44c4.1,0,5.54-1.22,5.54-5.69s-1.44-5.54-5.69-5.54-5.62,1.15-5.62,5.54,1.51,5.69,5.76,5.69m-22.82,9.43a1.09,1.09,0,0,0,1-1.22v-14c0-4.39-1.44-5.54-5.69-5.54s-5.62,1.15-5.62,5.54c0,4.1.43,5.83,5.69,5.83l-1.15-2.45,0.07,10.73c0,0.79.14,1.08,0.72,1.08h5Zm-29.81-3.53c4.1,0,5.54-1.22,5.54-5.69s-1.44-5.54-5.69-5.54S440,534,440,538.42s1.51,5.69,5.76,5.69m-28.87-7.49a1,1,0,0,0-.86-1.22h-5c-0.58,0-.86.29-0.86,1.08v14.11c0,0.79.29,1.08,0.86,1.08h5a1,1,0,0,0,.86-1.22V536.62Zm0-49.61a1,1,0,0,0-.86-1.22h-5c-0.58,0-.86.29-0.86,1.08v14.54c0,0.79.29,1.08,0.86,1.08h5a1,1,0,0,0,.86-1.22V487ZM416.38,516c-2.66-.94-8.64-2.88-8.64-6.41,0-3,3.53-4.32,7.13-4.32,2.88,0,7.27,1,7.27,2.74l1.44,0.14,1.58-.14-0.58-6c0-.22-2.38-1.73-9.14-1.73-7.13,0-14.4,3.89-14.4,10,0,6.55,6.41,8.86,8.93,9.86s10.15,2.52,10.15,6.7c0,3.31-4.1,4.61-7.85,4.61-5.33,0-8.71-1.87-8.71-3.89l-1.87-.22-1.8.22L401,533c-0.29,0,3.74,3.89,12,3.89,7.63,0,13.68-4,13.68-10.8s-8.14-9.43-10.3-10.15m-57.24-7.78a1,1,0,0,0-1.22.86v5c0,0.58.29,0.86,1.08,0.86h34.7c0.79,0,1.08-.29,1.08-0.86v-5a1,1,0,0,0-1.22-.86H359.14Zm-1.44,15.91a1,1,0,0,0-1.22.86v5c0,0.58.29,0.86,1.08,0.86h34.7c0.79,0,1.08-.29,1.08-0.86v-5a1,1,0,0,0-1.22-.86H357.7Zm30.67-24.48a1,1,0,0,0-.79-1.3l-4.9-.43c-0.57-.07-0.94.22-1,1l-3.6,40.1a0.86,0.86,0,0,0,.79,1.15l4.9,0.43a1.06,1.06,0,0,0,1-1.15Zm-15.19,0a1,1,0,0,0-.79-1.3l-4.9-.43c-0.58-.07-0.94.22-1,1l-3.6,40.1a0.86,0.86,0,0,0,.79,1.15l4.9,0.43a1.06,1.06,0,0,0,1-1.15Zm-35.5,37.22c0.65,0,.94-0.29.94-1.22L338,522.43l-1.58.94,10.87,7.06a1.49,1.49,0,0,0,1.73-.14l2.81-4.9c0.29-.58.22-0.94-0.58-1.51l-11.74-6v1.8l11.74-6c0.72-.5.86-0.94,0.58-1.51l-2.88-4.75c-0.22-.36-0.79-0.72-1.73-0.14l-10.8,7.06L338,515.3l0.65-13.18c0-.79-0.29-1.22-0.94-1.22h-5.54c-0.5,0-.94.36-0.94,1.37l0.65,13.1,1.58-.94-11.16-7.2c-0.72-.43-1.15-0.36-1.51.22l-2.74,4.9c-0.22.43-.14,0.94,0.72,1.58l11.45,5.83V518l-11.52,5.83a1.37,1.37,0,0,0-.72,1.58l2.81,4.75a0.92,0.92,0,0,0,1.51.22l11.16-7.13-1.58-.94-0.65,13.18a1.26,1.26,0,0,0,.94,1.37h5.54Zm-30.1-8.42,1.51-36.22a1.88,1.88,0,0,0-2.16-1.94h-7.13a2.09,2.09,0,0,0-2,2.3l2.09,35.86a0.79,0.79,0,0,0,.94.65h5.69a1,1,0,0,0,1.08-.65m-3.67,17.14c4.1,0,5.54-1.22,5.54-5.69s-1.44-5.54-5.69-5.54-5.62,1.15-5.62,5.54,1.51,5.69,5.76,5.69m-30.53,0c4.1,0,5.54-1.22,5.54-5.69s-1.44-5.54-5.69-5.54-5.62,1.15-5.62,5.54,1.51,5.69,5.76,5.69m3.74-15.62v-4.39c0-6.26,12.82-10.37,12.82-20.59,0-9.94-5.4-15.26-16.2-15.26-9.79,0-15.41,5.83-15.41,6.62l1.66,9.22h6.26c0-3.53,1-8.71,6.91-8.71,5.18,0,6.91,3.38,6.91,8.21,0,6.19-10.44,9.58-10.44,19.44V530a0.76,0.76,0,0,0,.94.72h5.54c0.72,0,1-.29,1-0.79"/><path class="cls-1" d="M614.38,417l-20,31,3.6,4.54,20.23-30.38Zm-19.66,16.85c0-12.17,4.39-18.29,11.38-18.29,7.85,0,12,4.32,12,18.94,0,12.53-4.18,18.5-11.52,18.5-7,0-11.81-4.68-11.81-19.15m30.38,0.65c0-18.72-6.77-24.62-19.22-24.62-12,0-18.07,8-18.07,23.9,0,18.65,7.06,24.91,18.72,24.91,12.67,0,18.58-6.91,18.58-24.19m-70.7,19.8c0.07,1.37,4.46,4.61,5.76,4.61,9.94,0,20.81-12.6,20.81-29.09,0-10.8-4.25-20.45-18.43-20.45-9.94,0-17.42,6.62-17.42,18.65a16.72,16.72,0,0,0,16.49,16.7c7.56,0,13.32-6.62,13.32-9.79l-1.37,1.15c0,6.41-8,18.22-19.15,18.22m19.08-26.57a10.72,10.72,0,0,1-10.73,10.58A10.25,10.25,0,0,1,552.24,428c0.07-6.62,3.38-12.46,10.3-12.46s10.94,6.41,10.94,12.17m-53,6.77c6.41,0,10.73,3.89,10.73,8.86,0,5.18-4,9.22-10.8,9.22-6.26,0-10.58-4.1-10.58-9.22,0-4.82,4.1-8.86,10.66-8.86m-8.57-12.46c0-4.1,3.24-6.48,8.86-6.48,5.4,0,9.07,2.23,9.07,6.48,0,3.89-3.82,6.84-9.22,6.84s-8.71-2.88-8.71-6.84m8.5,36.72c11.81,0,18.58-7.2,18.58-15.41,0-6.7-6-12.38-11.38-12.38l0.07,1.22c5.4,0,9.29-4,9.29-10.58,0-5.69-5.54-11.74-16.06-11.74-11.38,0-16.34,5.9-16.34,11.74,0,6.19,3.82,10.51,9.22,10.51l0.07-1.44c-5.47,0-11.38,5.83-11.38,12.67,0,8.21,6.7,15.41,17.93,15.41m-35.64-7.7,13-32.9c0.36-.72.36-7.06-0.14-7.06h-25.7a10.17,10.17,0,0,1-3.46-.79,1.41,1.41,0,0,0-.94,1.15l-0.36,12.1a4.75,4.75,0,0,0,1.73.22,2.93,2.93,0,0,0,1.58-.22c0.29-.14,1.37-3.74,1.87-4.61a1.6,1.6,0,0,1,1.8-.94h17.06l-0.86-1-13.61,34.2a4.67,4.67,0,0,1-1.15,1.3c-1,.5-4,1.51-4.18,1.8a3.56,3.56,0,0,0-.22,1.73,5.22,5.22,0,0,0,.22,1.8h17.35A5.22,5.22,0,0,0,489,456a3.56,3.56,0,0,0-.22-1.73,20.91,20.91,0,0,0-3.1-1.8,1.35,1.35,0,0,1-.86-1.51v0.07Zm-35.06-36.14c-0.07-1.37-2.74-5.69-4-5.69-11.3,0-21,11.3-21,28.73,0,9.65,5.4,21,18.43,21,9.58,0,17.42-7,17.42-18.72,0-10.66-7.7-16.85-16.49-16.85-7.56,0-12.31,4.9-12.31,8.06l1.08-.43c0-5.26,5.76-16.06,16.92-16.06m-17.42,25.2A10.49,10.49,0,0,1,443,429.41c5.69,0,10.15,4.32,10.15,10.8-0.07,6.91-3.24,12.31-10.44,12.31s-10.44-6.34-10.44-12.38m-41.47-3.67a12.88,12.88,0,0,1,9.43-4.1c6.77,0,9.29,4.39,9.29,9.14s-3.17,10.22-9.5,10.22c-7.13,0-11.3-4.1-11.3-8.42,0-.29-0.94-0.43-1.73-0.43s-1.8.14-1.8,0.43v7.92c0,0.79,5.11,7.49,14.76,7.49,10.37,0,17.42-7.49,17.42-17.42,0-7.63-5.47-15.48-15.19-15.48-6.91,0-12,2.81-12,4.75l1.37,0.65c0-7.49.07-9.43,0.07-15.26l-2,2.38h16.27c3.31,0,6.19.86,6.19,2.88,0,0.36,1.15.5,1.87,0.5s2.16-.14,2.09-0.5l-2.3-10.08H385.35c0,11.45-.07,17.21-0.07,21.38a1.09,1.09,0,0,0,.36,1l4.18,2.81a0.8,0.8,0,0,0,1,.14m-27.5-20.09-0.43,34.85a1.28,1.28,0,0,1-.94,1.3c-1,.5-4,1.51-4.1,1.8a3.56,3.56,0,0,0-.22,1.73,5.22,5.22,0,0,0,.22,1.8h17.21a5.22,5.22,0,0,0,.22-1.8,3.56,3.56,0,0,0-.22-1.73c-0.14-.29-3.38-1.37-4.18-1.8A1.35,1.35,0,0,1,370,451l0.43-40.68h-6.62l-23.54,27.14a0.69,0.69,0,0,0-.14.72l1.58,6.12a0.71,0.71,0,0,0,.58.72h32.33a1.68,1.68,0,0,0,1.51-1.37l2.38-8c0-.58-0.94-0.86-1.94-0.86-1.44,0-2,.36-2,0.86-0.65,2.88-2.52,3-5.83,3h-21.6l0.22,0.94,17.93-22.25Zm-46.8,42.34a16.47,16.47,0,0,0,17-16.27c0-6.7-6.34-12.6-13-12.6-5,0-7.42,2.52-7.42,3.31l1.58-.58,17.21-13.68c0.5-.29-1.37-7.78-2.81-7.78H303.7c-0.43,0-1.15,11.16-1,11.3,0.36,0.36.86,0.22,1.8,0.22a3.56,3.56,0,0,0,1.73-.22c0.29-.14,1.22-2.81,1.66-3.6A1.21,1.21,0,0,1,309,418h12.6c0.58,0,1.08.65,0.72,1l-15,11.88a1.1,1.1,0,0,0-.29,1.3l3.17,4.82a1,1,0,0,0,1.44.5,9.61,9.61,0,0,1,6.62-2,7.17,7.17,0,0,1,7.42,7.34c0,3.82-3.38,8.93-10.22,8.93-7.2,0-9.79-5.26-10.22-7.34-0.14-.58-2,1.08-2.52,1.58a4.09,4.09,0,0,0-1,2.59c0,3.53,5,10.15,14.76,10.15M261,451.22l1.51,6.62H291l2.66-13.25c0-.36-1.08-0.79-2-0.79s-1.94.22-1.94,0.79c0,4.25-3.46,6.26-6.77,6.26H266.62l2.45,2.38c0-5.83,5-9,10.87-13.61,6.34-5,11.81-8.71,11.81-16.06,0-9.5-5.54-13.39-14.47-13.39s-14.62,5.83-14.62,6.62v7.92c0,0.29,1.15.43,1.66,0.43,0.72,0,1.87-.14,1.87-0.43,0-3.24,4.32-7.78,10.8-7.78,4.39,0,7.13,2.59,7.13,6.48,0,3.67-4.9,7.56-10.3,11.81-6.55,5.18-12.82,11.45-12.82,16m-12.67-38.16a1.88,1.88,0,0,0-2.16-1.94h-10.3a5.22,5.22,0,0,0-.22,1.8,2.37,2.37,0,0,0,.22,1.44,25.07,25.07,0,0,0,4.32,2,1.33,1.33,0,0,1,.79,1.22v33.62a1.28,1.28,0,0,1-.94,1.3c-1,.5-4,1.51-4.1,1.8a3.56,3.56,0,0,0-.22,1.73,5.22,5.22,0,0,0,.22,1.8h17.64a5.22,5.22,0,0,0,.22-1.8,3.56,3.56,0,0,0-.22-1.73c-0.14-.29-3.6-1.37-4.39-1.8a1.35,1.35,0,0,1-.86-1.51V413.06Z"/><path class="cls-1" d="M722.81,365.54a1.1,1.1,0,0,0,1.08-.86c0.43-1,1.8-4.25,2.09-4.32a4.79,4.79,0,0,1,1.94-.22,3.71,3.71,0,0,1,1.51.22l-1.94,11H697.9c-0.72,0-1.22-1.37-1.22-2.38a7.53,7.53,0,0,1,.51-2.81l22.46-28.87,0.29,0.79H705.24a1.72,1.72,0,0,0-1.66.79c-0.43.79-2.81,4.61-3,4.82a5,5,0,0,1-1.66.14,6.55,6.55,0,0,1-1.51-.14l1.94-10.87a1.36,1.36,0,0,1,.86-1h27c0.72,0,1.3,1.3,1.3,2,0,0.94,0,2.88-.5,3.31l-22.75,29.59-0.14-1.22h17.71Zm-63.14-31.75c-0.36-1.3-.86-1.94-2.16-1.94H647.28c-0.5,0-.65,1.37-0.65,2s0.36,1.8.79,1.87l5.47,1.51,12.74,33.91a94.44,94.44,0,0,1-7.78,12.38c-0.5.72-3.17,3.89-3.6,4.46a1.16,1.16,0,0,0-.22,1.3c0.43,0.36,7.27,1.3,8.06,1.3a1.54,1.54,0,0,0,1.37-.58c1.37-2.66,25.2-50.33,26.42-52.56a1.4,1.4,0,0,1,.65-0.65c0.36-.22,1.87-0.86,2.45-1.15,0.29-.14.36-1.15,0.36-2,0-.58-0.14-1.8-0.65-1.8H676.94c-0.29,0-.36,1.3-0.36,1.87a3.07,3.07,0,0,0,.36,1.73l4.9,1.44a0.41,0.41,0,0,1,.36.5l-13.61,29.23,3,0.29ZM612,366l10.22-11.38-2.81-.94,12.53,16.7a2.05,2.05,0,0,0,2.09,1h9a1.53,1.53,0,0,0,.65-1.51c0-1.15-.07-1.37-0.5-1.66s-4.1-1.51-4.75-1.87L624.1,348l1.15,3.31,13.68-15c0.94-.79,2.88-1.44,3-1.66a1.65,1.65,0,0,0,.36-1.3,2.8,2.8,0,0,0-.29-1.51H625.61a7.67,7.67,0,0,0-.22,1.51,4.28,4.28,0,0,0,.22,1.3c0.22,0.22,3.53.86,4.1,1.3a0.45,0.45,0,0,1,.14.5l-8.93,9.79,1.8,0.36-10.08-13.54a2.2,2.2,0,0,0-2.16-1.22H601.2c-0.22,0-.5.5-0.5,1.44,0,1.15.22,1.44,0.65,1.73s4.32,1.3,5,1.66l11.88,15.77-0.58-2.16-14.76,15.84c-0.58.43-3.17,1.58-3.38,1.8a8.54,8.54,0,0,0-.22,1.73,13.2,13.2,0,0,0,.22,1.8h17.64a4.29,4.29,0,0,0,.29-1.8,3,3,0,0,0-.36-1.73c-0.07-.22-3.24-0.29-4.18-0.72A1.23,1.23,0,0,1,612,366m-38.3,5.4h7.7L595.51,336a5.63,5.63,0,0,0,.36-2.3c0-.58-0.14-1.8-0.65-1.8H583.71c-0.29,0-.36,1.3-0.36,1.87a2.38,2.38,0,0,0,.5,1.58l4,1.44a0.41,0.41,0,0,1,.36.5L577.59,365.4h1.73l-10.22-28.87,2.45-1.51c0-.5.07-1,0.07-1.44s-0.14-1.8-.65-1.8H556.2c-0.29,0-.36,1.3-0.36,1.87a3.68,3.68,0,0,0,.36,1.87l4.68,1.66L550.23,365.4l1.58,0.07-9.07-29.59,2.23-1.15,0.29-1.58c-0.22-1.3-.14-1.3-1.44-1.3H530.64c-0.5,0-.65,1.37-0.65,2a1.85,1.85,0,0,0,.86,1.58l4.82,1.73,10.58,34.27h7.92l11.38-29.74-1.66-.07Zm-78.12-37.66a2,2,0,0,0-2.16-1.94H482.91c-0.5,0-.65,1.37-0.65,2s0.36,1.66.79,1.73l5.62,1.44a2,2,0,0,1,.72,1.22l11.23,32.26a1.57,1.57,0,0,0,1.15.94h5.62a1.86,1.86,0,0,0,1.22-1.08l15.19-32.9a1.4,1.4,0,0,1,.65-0.65c0.36-.22,1.87-0.86,2.45-1.15,0.29-.14.36-1.15,0.36-2,0-.58-0.14-1.8-0.65-1.8h-15c-0.29,0-.36,1.3-0.36,1.87a3.68,3.68,0,0,0,.36,1.87l5,1.51a0.41,0.41,0,0,1,.36.5l-12.6,27.5,1.58,0.14Zm-28.94,21a11.39,11.39,0,0,1-11,11.3c-5.18-.14-10.08-2.52-10.08-11V334c0-1.3-1.15-2.16-2.74-2.16H431.57c-0.36,0-.65,1.15-0.65,1.8a3.26,3.26,0,0,0,.65,1.94l5.9,1.73a0.85,0.85,0,0,1,.65.65v18.79c0,8.86,5.26,15.77,15.62,15.77,8.5,0,14.83-6.34,14.83-10.58l-1,.36,0.36,7.2a1.88,1.88,0,0,0,2.16,1.94h9.29c0.36,0,.65-1.3.65-2.16a3,3,0,0,0-.65-2.09l-4.46-1.8a1.88,1.88,0,0,1-.94-1.58V335.23c0-2.23-.94-3.38-2.52-3.38H459.87c-0.43,0-.72,1-0.72,1.8s0.14,1.73.72,2l6.41,1.94a0.54,0.54,0,0,1,.36.5c0.07,4.82,0,11.74,0,16.7M417,372.17c6.48,0,8.64-1.8,8.86-2.09l1.8-8.71a3.7,3.7,0,0,0-1.8-.29,5.43,5.43,0,0,0-2,.29c-1.08,3-2.16,4.82-6.48,4.82-5.76,0-6.41-4.68-6.41-10.51V337.25h13.25c0.29,0,.86-1.94.86-3.1,0-1.44-.58-2.3-0.94-2.3H410.91l-0.14-9.43a4.7,4.7,0,0,0-2.66-.58,5.51,5.51,0,0,0-2.74.72c0,8.57-6.12,10.73-7.63,10.73-0.5,0-.86,1.15-0.86,2.16a1.66,1.66,0,0,0,1.08,1.66h5.47v19.15c0,8.5,2.45,15.91,13.61,15.91M381,348.55c-2.66-1.08-9.07-3.24-9.07-7.27,0-3.38,3.53-4.82,7.13-4.82,4.46,0,7.63,2.3,7.63,4.32l1.44,0.14,1.58-.14-0.94-8.06c0-.29-2.38-2-9.14-2-7.13,0-15,4.39-15,11.38,0,7.42,6.84,10,9.36,11.16s10.3,2.81,10.3,7.56c0,3.74-4.1,5.26-7.85,5.26-5.33,0-8.93-2.88-8.93-6.41l-1.87-.22-1.8.22,1.37,8.28c-0.29,0,3.74,4.39,12,4.39,7.63,0,14.18-4.61,14.18-12.24s-8.21-10.66-10.37-11.52M335.09,364.9a1.28,1.28,0,0,1-.58,1.22c-0.58.43-2.16,1.58-2.38,1.8a8.53,8.53,0,0,0-.22,1.73,13.2,13.2,0,0,0,.22,1.8h16.27a2.9,2.9,0,0,0,.22-1.8,2.55,2.55,0,0,0-.22-1.73c-0.07-.22-4.25-1.3-5.11-1.8-0.58-.14-0.79-0.65-0.86-1.51,0-1.73-.07-12.74,0-16.78,0.07-6.41,2.88-10.8,8.71-10.8a6.73,6.73,0,0,1,4.39,1.94,3.34,3.34,0,0,0,2.38-.14c0.72-.72,1.22-6.12.79-6.48-1.51-1.22-4.46-1.58-6.41-1.58-4.18,0-7.92,2.88-11.59,6.77l0.65,1,0.58-4.82c-0.07-1.37-.36-1.87-1.66-1.87H329.91a5.22,5.22,0,0,0-.22,1.8,2.37,2.37,0,0,0,.22,1.44,27.62,27.62,0,0,0,4.46,2,1.17,1.17,0,0,1,.72,1.15V364.9ZM313.85,387.5a1.88,1.88,0,0,0,2.16,1.94h10.3c0.43,0,.72-0.94.72-1.8s-0.36-1.87-.72-1.87l-5.18-2.59v-51H318.6a1.56,1.56,0,0,0-1.44,1.08l-3.82,6.41,1.51-.14c0-3.6-6.91-8.5-13.32-8.5-10.15,0-19.87,7.78-19.87,21.74,0,10.94,6.77,20.09,18.79,20.09,8.42,0,14.47-5.54,14.47-9.5l-1.08.43V387.5Zm0.36-35.93c0,7.85-5.33,14.9-13,14.9-6.62,0-12.17-5-12.17-14.33,0-7.92,4.61-14.9,12.24-14.9s13,5.33,13,14.33m-79.49-13.32v44.57c0,0.65-.79.94-1.22,1.3s-1.8,1.58-2,1.8a8.53,8.53,0,0,0-.22,1.73,13.2,13.2,0,0,0,.22,1.8H248a4.29,4.29,0,0,0,.29-1.8,3,3,0,0,0-.36-1.73c-0.07-.22-4.25-1.37-5.18-1.8a1.23,1.23,0,0,1-.86-1.15V361.51l-1.15.94c0,3.74,6.41,9.72,14.26,9.72,11.45,0,20.16-9,20.16-20.59S267.27,331,255.82,331c-9.22,0-14.9,7.13-14.9,10.51l0.79,0.5-0.29-8.21a1.88,1.88,0,0,0-2.16-1.94h-9.79a5.22,5.22,0,0,0-.22,1.8,2.37,2.37,0,0,0,.22,1.44,27.62,27.62,0,0,0,4.46,2,1.23,1.23,0,0,1,.79,1.15m19.73,27.22c-6.84,0-12.53-5.4-12.53-13.82,0-8.21,6-14.11,13.32-14.11,8,0,12.6,6.34,12.6,14.11s-4.32,13.82-13.39,13.82m-64.3-13.75c0,7.63,5.11,14.62,13.39,14.62s13.32-7,13.32-14.62-5.26-14.9-13.25-14.9c-8.28,0-13.46,7.27-13.46,14.9m13.46-21.1a21.06,21.06,0,1,1-20.81,21.1,21,21,0,0,1,20.81-21.1M171.51,364.9a2.07,2.07,0,0,0,.79,1.15c0.65,0.36,4.9,1.66,5.33,1.94s0.5,0.5.5,1.66a2.58,2.58,0,0,1-.5,1.87H166.54c-1.58,0-2.52-1.15-2.52-3.38,0.07-5,.07-13.54.07-18.14,0-8.35-3.53-12.6-10.51-12.6s-11,4.68-11,12.67c0,5-.07,10.08,0,14.9a1.23,1.23,0,0,0,.86,1.15c0.94,0.43,4.9,1.58,5,1.8a3,3,0,0,1,.36,1.73c0,1-.22,1.8-0.5,1.8H131.48c-0.29,0-.5-0.79-0.58-1.8a8.53,8.53,0,0,1,.22-1.73c0.22-.22,2.81-1.37,3.38-1.8a1.51,1.51,0,0,0,.72-1.3V338.76a0.79,0.79,0,0,0-.43-0.72l-5.18-2.16c-0.36,0-.5-1.3-0.5-2.09s0.07-1.94.5-1.94h8.86c1.3,0,2.3.58,2.38,1.94l0.5,8.71-1.08-.29c0-5.11,6-11.45,14.9-11.45,10.51,0,16.34,4.75,16.34,19.37V364.9Z"/><path class="cls-1" d="M679.57,278.5v-16.7c0-8.5-5-10.87-10.3-10.87-4.82,0-9.07,3.82-9.07,11.81v15.48c0.07,0.86.29,1.37,0.86,1.51,0.86,0.5,4.32,1.66,4.61,1.8a3.07,3.07,0,0,1,.29,1.66c0,1-.22,1.87-0.5,1.87H650a3.16,3.16,0,0,1-.29-1.8,4.14,4.14,0,0,1,.29-1.73,20.06,20.06,0,0,1,2.38-1.8,1.28,1.28,0,0,0,.58-1.22V252.36a0.79,0.79,0,0,0-.43-0.72l-5.18-2.16c-0.36,0-.5-1.3-0.5-2.09s0.07-1.94.5-1.94H656c1.3,0,2.3.58,2.38,1.94v8.71l-0.58-.29c0-4.18,4.25-11.45,13.61-11.45,8.78,0,13.68,4.82,13.68,8.93h-1.3c0-4.18,6.48-8.86,13.9-8.86,10.66,0,14.76,6.7,14.76,15.7V278.5a2.07,2.07,0,0,0,.79,1.15c0.65,0.36,4.9,1.66,5.33,1.94s0.5,0.5.5,1.66a2.58,2.58,0,0,1-.5,1.87H707.65c-1.58,0-2.52-1.15-2.52-3.38V261.79c0-8.5-4.9-10.87-9.14-10.87-4.54,0-9.07,3.67-9.07,10.15v17.14c0.07,0.86.29,1.37,0.86,1.51,0.86,0.5,4.82,1.66,5.11,1.8a3.07,3.07,0,0,1,.29,1.66c0,1-.22,1.87-0.5,1.87H676.91a3.16,3.16,0,0,1-.29-1.8,4.14,4.14,0,0,1,.29-1.73,14.48,14.48,0,0,1,2.09-1.8,1.28,1.28,0,0,0,.58-1.22m-44.71-.72a2.07,2.07,0,0,0,.79,1.15c0.65,0.36,5.18,2.3,5.62,2.59s0.5,0.5.5,1.66a8.6,8.6,0,0,1-.36,1.87H629.75c-1.58,0-2.52-1.15-2.52-3.38l0.22-44.21a1.17,1.17,0,0,0-.72-1.15,27.62,27.62,0,0,1-4.46-2,2.37,2.37,0,0,1-.22-1.44,5.22,5.22,0,0,1,.22-1.8h10.66a1.88,1.88,0,0,1,2.16,1.94ZM586.55,233a1.88,1.88,0,0,0-2.16-1.94H573.95a5.22,5.22,0,0,0-.22,1.8,2.37,2.37,0,0,0,.22,1.44,27.62,27.62,0,0,0,4.46,2,1.17,1.17,0,0,1,.72,1.15v41a1.51,1.51,0,0,1-.72,1.3c-0.58.43-3.17,1.58-3.38,1.8a8.54,8.54,0,0,0-.22,1.73A13.2,13.2,0,0,0,575,285h17.42a4.29,4.29,0,0,0,.29-1.8,3,3,0,0,0-.36-1.73c-0.07-.22-4-1.37-5-1.8a1.23,1.23,0,0,1-.86-1.15V233Zm-1.66,39.53c6.19-4.18,20.3-19.44,21.17-20.3,3.38-3.38,6.12-3.1,6.34-3.6a5.82,5.82,0,0,0,.22-2.16,6.23,6.23,0,0,0-.22-1.94H596.12a5.22,5.22,0,0,0-.22,1.8,3.56,3.56,0,0,0,.22,1.73,17.31,17.31,0,0,0,2.52,1.44,1.14,1.14,0,0,1,.79,1.08c0,0.43-11.45,12.31-16.2,14.76ZM617.08,285a5.22,5.22,0,0,0,.22-1.8,3.56,3.56,0,0,0-.22-1.73c-0.14-.29-3.38-1.37-4.18-1.8a2.77,2.77,0,0,1-1.44-1.3L597,257.54,592.24,262l13.82,22.39a1.29,1.29,0,0,0,.86.65h10.15ZM560.49,241c3.24,0,4.68-.94,4.68-4.39s-1.44-4.25-4.68-4.25-4.46.86-4.46,4.25,1.37,4.39,4.46,4.39m-2.81,43.85V252.14a1.21,1.21,0,0,0-.86-1.15c-0.79-.43-4-1.73-4.18-2a3.56,3.56,0,0,1-.22-1.73,5.22,5.22,0,0,1,.22-1.8h11.59c0.79,0,1,.72,1,2.38v37.58c0,7.56-2.88,15.19-14.11,15.19-6.41,0-8.86-1.8-9.14-2.09l-1.8-8.71a4.08,4.08,0,0,1,1.8-.29,5,5,0,0,1,2,.29c1.15,1.58,2.52,4.61,6.77,4.61,5.83,0,6.91-3.74,6.91-9.58M526.36,241c3.24,0,4.68-.94,4.68-4.39s-1.44-4.25-4.68-4.25-4.46.86-4.46,4.25,1.37,4.39,4.46,4.39m4.18,36.79a2.07,2.07,0,0,0,.79,1.15c0.65,0.36,5.18,2.3,5.62,2.59s0.5,0.5.5,1.66a8.6,8.6,0,0,1-.36,1.87H525.28c-1.58,0-2.52-1.15-2.52-3.38l0.43-29.81a1.17,1.17,0,0,0-.72-1.15,27.62,27.62,0,0,1-4.46-2,2.37,2.37,0,0,1-.22-1.44,5.22,5.22,0,0,1,.22-1.8h10.8a1.88,1.88,0,0,1,2.16,1.94Zm-59.9.65a1.51,1.51,0,0,1-.72,1.3c-0.58.43-3.17,1.58-3.38,1.8a8.54,8.54,0,0,0-.22,1.73,13.21,13.21,0,0,0,.22,1.8H484a4.29,4.29,0,0,0,.29-1.8,3,3,0,0,0-.36-1.73c-0.07-.22-4-1.37-5-1.8a1.23,1.23,0,0,1-.86-1.15v-15.7c0-7.78,4.61-12.17,10.51-12.17,6.48,0,10.66,3.31,10.66,12.1,0,4.68.07,13.9,0,18.86,0,2.23.94,3.38,2.52,3.38h11.38c0.5,0,.72-0.94.72-1.87,0-1.15-.07-1.37-0.5-1.66s-5.18-2.23-5.83-2.59a2.07,2.07,0,0,1-.79-1.15V261.14c0-9.5-4.54-16.78-16.34-16.78-8.64,0-14,6.7-14,9.94l1.51-.14V233a1.88,1.88,0,0,0-2.16-1.94h-10.3a5.22,5.22,0,0,0-.22,1.8,2.37,2.37,0,0,0,.22,1.44,27.62,27.62,0,0,0,4.46,2,1.17,1.17,0,0,1,.72,1.15v41Zm-31,26.57c6.77,0,16.06-3,16.06-12.17,0-7-6.62-10-11.59-10l0.22,1.08c3.82,0,13.39-8.28,13.39-19,0-10.94-8.35-20.23-20.74-20.23-12.67,0-20.59,8.78-20.59,20.45,0,14.11,10.87,19.3,18.58,20.09,11.59,1.15,13.18,4,13.18,7.42,0,3.82-4,6.41-9.29,6.41-6,0-11.09-4-11.09-6.77,0-.72-1.66-0.36-2.88.29-0.94.5-2.3,1.3-2.3,2,0,3.53,6,10.44,17.06,10.44M437,251.06c8.28,0,13.1,6.41,13.1,14,0,8.42-5.26,14.69-13.1,14.69-7.42-.14-13-5.47-13.18-14.69,0-7.63,5.83-14,13.18-14m9.58-1.22,3.53,3.74c1.08-.72,3.89-3.67,5.76-3.67,0.72,0,2.52,1.8,2.52,2.09h2.16c1.15,0,2.45-7.27,1.73-7.27-1.15,0-6.41-.29-7.42.22a79.89,79.89,0,0,0-8.28,4.9M383,249.77h22.25c0.36,0,.94,1.3.94,2.74,0,1.15-.22,2.52-0.5,2.52H383c-0.22,0-.43-1.73-0.43-2.66s0.22-2.59.43-2.59m11.59-4.1v32.69a1.21,1.21,0,0,0,.86,1.15c0.79,0.43,6,1.73,6.19,2a3.56,3.56,0,0,1,.22,1.73,5.22,5.22,0,0,1-.22,1.8h-17.5a5.22,5.22,0,0,1-.22-1.8,3.56,3.56,0,0,1,.22-1.73,6.85,6.85,0,0,1,2.09-2,1.23,1.23,0,0,0,.79-1.15V245.09c0-7.56,2.88-15.19,14.11-15.19,6.41,0,8.86,1.8,9.14,2.09l1.8,8.71a4.08,4.08,0,0,1-1.8.29,5,5,0,0,1-2-.29c-1.15-3-2.52-4.61-6.77-4.61-5.83,0-6.91,3.74-6.91,9.58M377,278.06c-3.17,3.38-7.85,8-17.93,8-12.24,0-20.66-8.42-20.66-20.74a20.91,20.91,0,0,1,21.17-21.1c9.72,0,18,8.21,18,18.94,0,0.86-3,3-3.89,3H343.34l0.07-5.54h28.66L371,262.58c0-5-4.54-12.1-11.81-12.1-8.21,0-13.32,7.06-13.32,14.83,0,9.36,6.77,14.69,13.39,14.69s10.58-2.45,14.76-6c0.36-.36,1.44.43,2.16,1.37a4.48,4.48,0,0,1,.79,2.66M327,233a1.88,1.88,0,0,0-2.16-1.94H314.39c-0.43,0-.72.94-0.72,1.8s0.36,1.87.72,1.87l5.62,2v18.65h0.86c0-4.82-7.34-11-15.19-11-11.45,0-19.94,9.36-19.94,21s8.64,20.81,20.09,20.81c9.22,0,14.9-7.2,14.9-10.58h-0.79c0,3.6.94,9.5,2.74,9.5H333c0.36,0,.79-1.22.72-2.45s-0.22-2-.86-2.16L327,278.57c-0.36-6.19-.22-36.94,0-45.58M306.76,250.7c7.49,0,13,6.77,13,14.54s-5.11,14-13.18,14-13.18-6.26-13.18-14,5.47-14.54,13.32-14.54M273,252.79c-1.8-1.44-3.67-2.45-8.42-2.45-7.34,0-13.61,4.68-13.61,15.55,0,7.92,5.33,14.18,13.9,14.18,6.62,0,10.66-2.3,12.24-3.53,0.22-.22,1.08.86,1.66,1.87s1,2.59.79,2.74c-1.58,1.66-6.55,4.9-14.69,4.9-12,0-21.67-7.56-21.67-20.45,0-13.54,9.94-21.17,20.66-21.17,6.62,0,10.08.72,14.11,3.1,0.29,0,1.3,10.08,1.15,10.08a2.78,2.78,0,0,1-1.51.22,2.5,2.5,0,0,1-1.44-.22c-0.22-.07-2.81-4.25-3.17-4.82M204.45,233a1.88,1.88,0,0,0-2.16-1.94H192.07c-0.43,0-.72.94-0.72,1.8s0.36,1.87.72,1.87l5.18,2.59V285h2.66a1.56,1.56,0,0,0,1.44-1.08l3.82-5.9-1.3.14c0,3.31,7.7,8,13.1,8,10.15,0,19.87-7.78,19.87-21.74,0-10.94-6.77-20.09-18.43-20.09-8.21,0-14.9,6.19-14.9,9.36l1.08-.43Zm-0.29,32.33c0-7.85,5.47-14.76,12.46-14.76,7.34,0,12.89,5.11,12.89,14.47,0,7.92-4.61,14.18-12.24,14.18s-13.1-4.9-13.1-13.9M178.46,285h8.71c0.65,0,1-1.08,1-1.73s-0.07-1.58-.58-1.8c-1.3-.29-4.46-1.66-4.9-1.8a1.78,1.78,0,0,1-.86-1.3V251.5a0.92,0.92,0,0,1,.58-0.79l4.32-1.8c0.36-.14.58-0.79,0.58-1.94s-0.43-1.51-.79-1.51h-8.28c-1.58,0-2.23.29-2.3,2.52,0,0.58-.14,4.68-0.14,7.42l0.86-.22c0-4.9-7.34-10.8-15.19-10.8-11.45,0-19.73,9.36-19.73,21s8.42,20.81,19.87,20.81c9.22,0,14.9-7.2,14.9-10.58h-0.79c0,3.6,1.66,9.5,2.74,9.5m-16.2-34.34c7.49,0,12.53,6.77,12.53,14.54,0,7.34-5.76,14.62-12.74,14.62-8,0-12.46-6.84-12.46-14.62s4.82-14.54,12.67-14.54"/><path class="cls-1" d="M759.74,192a1.32,1.32,0,0,0,1.3-1.08c0.5-1.22,2.3-5.9,2.59-6a2.76,2.76,0,0,1,1.73-.29,4.85,4.85,0,0,1,1.8.29l-0.94,13.68H730.94a1.41,1.41,0,0,1-1.51-1.66c0-1.15-.07-4.32.29-4.9l28.58-38,0.29,1H738.94a1.79,1.79,0,0,0-1.94,1c-0.5.94-2.23,5.76-2.52,6a3.56,3.56,0,0,1-1.73.22,5.22,5.22,0,0,1-1.8-.22l0.94-12.53a1.49,1.49,0,0,1,1-1.22h32.69c0.65,0,.72,6,0.58,6.7l-27.94,38.66L738,192h21.74Zm-53.49-12.89L721.08,154a1.63,1.63,0,0,1,.58-0.79c0.22-.22,3.38-1.15,3.46-1.44a10.24,10.24,0,0,0,.22-1.8c0-.5-0.22-1.37-0.22-1.73H709.7a12.35,12.35,0,0,0-.29,1.73,4.67,4.67,0,0,0,.43,1.8,22.38,22.38,0,0,1,3.17,1.44,1.43,1.43,0,0,1,.07.79l-10.51,19.58h0.94l-10.73-19.66a1.22,1.22,0,0,1,0-.72c0.43-.29,3.1-1.37,3.31-1.44a4.67,4.67,0,0,0,.43-1.8,12.36,12.36,0,0,0-.29-1.73H680.33a11.3,11.3,0,0,0-.22,1.73,10.24,10.24,0,0,0,.22,1.8c0.07,0.29,3.24,1.22,3.46,1.44a2.26,2.26,0,0,1,.58.79l14.18,25.13V192a1.28,1.28,0,0,1-.94,1.3c-1,.5-4,1.51-4.1,1.8a3.56,3.56,0,0,0-.22,1.73,5.22,5.22,0,0,0,.22,1.8h17.78a5.22,5.22,0,0,0,.22-1.8,3.56,3.56,0,0,0-.22-1.73c-0.14-.29-3.38-1.37-4.18-1.8a1.35,1.35,0,0,1-.86-1.51v-12.6Zm-60.34,17.78a3.54,3.54,0,0,0-.43-1.87c-0.29-.14-3.17-1.51-3.89-1.94a1,1,0,0,1,0-1c0.36-.72,8.35-12,11.3-15.77l-2.81.22c2.88,3.74,11.45,15,11.74,15.48a1.33,1.33,0,0,1-.07,1.08c-0.86.58-3.46,1.8-3.74,1.94a3.54,3.54,0,0,0-.43,1.87,12.33,12.33,0,0,0,.22,1.8H677a11.1,11.1,0,0,0,.14-1.73A7.63,7.63,0,0,0,677,195c-0.07-.29-4.18-1.66-4.54-1.94a8.53,8.53,0,0,1-1.15-1.15c-0.36-.36-12.38-16.13-16.42-21.67l0.43,3.46c3.67-5.18,13.75-18.58,14.4-19.15a2.86,2.86,0,0,1,1.3-.79c0.36-.14,4.46-1.58,4.54-1.87a7.63,7.63,0,0,0,.14-1.94,11.11,11.11,0,0,0-.14-1.73H657.29a12.34,12.34,0,0,0-.22,1.8,3.54,3.54,0,0,0,.43,1.87c0.29,0.14,2.88,1.37,3.74,1.94a1.1,1.1,0,0,1,.07,1.08c-0.43.72-7.13,9.58-10.37,13.61h2.16c-2.52-3.38-9.94-13.18-10.22-13.61-0.43-.65-0.36-1-0.22-1.08,0.72-.43,3.46-1.8,3.74-1.94a3.54,3.54,0,0,0,.43-1.87,12.33,12.33,0,0,0-.22-1.8h-19a11.11,11.11,0,0,0-.14,1.73,7.63,7.63,0,0,0,.14,1.94c0.07,0.29,4.1,1.66,4.46,1.94a4,4,0,0,1,1,.94c0.29,0.43,10.94,14.26,14.69,19.22l0.07-2.66c-3.82,5.26-14.76,20-15.48,20.74-0.43.43-.65,0.79-0.94,1s-4.9,1.66-5,1.94a7.63,7.63,0,0,0-.14,1.94,11.1,11.1,0,0,0,.14,1.73H645.7a12.34,12.34,0,0,0,.22-1.8m-49.46,1.73H605l12.53-43.7a2.63,2.63,0,0,1,.79-1.08c0.36-.29,4.46-1.66,4.54-1.94A7.63,7.63,0,0,0,623,150a11.11,11.11,0,0,0-.14-1.73H604.15a12.34,12.34,0,0,0-.22,1.8,3.54,3.54,0,0,0,.43,1.87,47.39,47.39,0,0,1,4.61,1.94,1.33,1.33,0,0,1,.07,1.08l-9.29,39h3.17l-14.11-45.07H580L567.65,193.9h2.74l-9.72-39a1.23,1.23,0,0,1,0-1c0.72-.43,4-1.8,4.32-1.94a3.54,3.54,0,0,0,.43-1.87,12.34,12.34,0,0,0-.22-1.8H546.91a11.1,11.1,0,0,0-.14,1.73,7.63,7.63,0,0,0,.14,1.94c0.07,0.29,4.18,1.66,4.54,1.94a2.63,2.63,0,0,1,.79,1.08l12.17,43.7h8.93l12.17-46.3H582Zm-76.25,0,18-43.7a2.63,2.63,0,0,1,.79-1.08c0.36-.29,4.46-1.66,4.54-1.94a7.63,7.63,0,0,0,.14-1.94,11.1,11.1,0,0,0-.14-1.73H525.67a12.34,12.34,0,0,0-.22,1.8,3.54,3.54,0,0,0,.43,1.87c0.29,0.14,2.88,1.37,3.74,1.94a1.33,1.33,0,0,1,.07,1.08L516,192h1.87l-13.82-37.15a1.23,1.23,0,0,1,0-1c0.72-.43,3.6-1.8,3.89-1.94a3.54,3.54,0,0,0,.43-1.87,12.34,12.34,0,0,0-.22-1.8H490.32a11.1,11.1,0,0,0-.14,1.73,7.63,7.63,0,0,0,.14,1.94c0.07,0.29,4.18,1.66,4.54,1.94a2.63,2.63,0,0,1,.79,1.08c0.22,0.5,12.67,32.76,16.85,43.7h7.7Zm-45.94-43.7a1.21,1.21,0,0,0-.86-1.15c-1.22-.5-5-1.73-5.26-2a3.56,3.56,0,0,1-.22-1.73,5.22,5.22,0,0,1,.22-1.8h19.58a5.22,5.22,0,0,1,.22,1.8,3.56,3.56,0,0,1-.22,1.73c-0.22.29-3.74,1.58-4.68,2a1.28,1.28,0,0,0-.94,1.15v17.78c0,16.85-4.32,26.93-20.16,26.93-15.48,0-18.79-10.08-18.79-26.57V154.94a1.31,1.31,0,0,0-.86-1.15c-1.22-.65-4.54-1.73-4.68-2a2.76,2.76,0,0,1-.29-1.73,3.7,3.7,0,0,1,.29-1.8h19.51a5.22,5.22,0,0,1,.22,1.8,3.56,3.56,0,0,1-.22,1.73c-0.14.29-4.18,1.58-5.18,2a1.28,1.28,0,0,0-.94,1.15v18.5c0,11,1.37,19.44,11.09,19.44s12.17-8.35,12.17-19.3V154.94Zm-50.83,41.9a3.56,3.56,0,0,0-.22-1.73,41.62,41.62,0,0,0-4-2,1.21,1.21,0,0,1-.86-1.15V155.74a1.36,1.36,0,0,1,1-1.15h8.78a1,1,0,0,1,.86.86c0.29,0.86,1.3,4.46,1.51,4.61a5.38,5.38,0,0,0,2,.22c0.72,0,1.15.14,1.37-.22,0.14-.14-0.43-12-0.72-12H395.93c-0.36,0-.86,11.81-0.79,12,0.29,0.36.65,0.22,1.37,0.22a5.8,5.8,0,0,0,2.09-.22c0.22-.14,1.15-3.74,1.51-4.61a1,1,0,0,1,.86-0.86h8.5a1.36,1.36,0,0,1,1,1.15V192a1.21,1.21,0,0,1-.86,1.15c-0.72.43-3.6,1.58-4,1.94l-0.07.07a3.56,3.56,0,0,0-.22,1.73,5.22,5.22,0,0,0,.22,1.8h17.64a5.22,5.22,0,0,0,.22-1.8m-47.66-26.71c-3.1-1.3-11.09-3-11.09-9.14,0-4.18,5.11-7,9.29-7,6.91,0,8.5,3.89,8.5,6.55a2.76,2.76,0,0,0,1.73.43c0.86,0,1.8-.22,1.8-0.43v-10c0-.36-3.53-3-11.3-3-8.28,0-17.93,5.47-17.93,14.18,0,9.14,8,11.74,10.87,13.18s12.74,4.25,12.74,10.08c0,5.33-5.54,7.42-9.72,7.49-7.13,0-9.94-4-9.94-9a3.1,3.1,0,0,0-1.94-.43,3.41,3.41,0,0,0-2,.43v11.38c-0.36,0,5.11,4.25,14.54,4.25,8.78,0,16.7-5.76,16.7-14.62,0-10.08-9.79-13.18-12.24-14.33m-51.7,26.71a3.56,3.56,0,0,0-.22-1.73,35.27,35.27,0,0,0-3.67-1.8,1.5,1.5,0,0,1-1.08-1.51V178l-1.58,1.22c0.79,0.79,4.75.79,8.5,0.79,8.42,0,18.07-6.62,18.07-17.64,0-10.22-8-14.69-19.15-14.69-6,0-17.28.29-18.36,0.58a5.22,5.22,0,0,0-.22,1.8,3.56,3.56,0,0,0,.22,1.73c0.14,0.29,3.17,1.37,4.25,2a1.23,1.23,0,0,1,.79,1.15V192a1.28,1.28,0,0,1-.94,1.3c-1,.5-4,1.51-4.1,1.8a3.56,3.56,0,0,0-.22,1.73,5.22,5.22,0,0,0,.22,1.8h17.28a5.22,5.22,0,0,0,.22-1.8M325,173.59a51.59,51.59,0,0,1-6.84-.29l0.94,1.87L319,152.78l-1.15,1.66c1.66-.65,6-0.58,8.42-0.58,5.4,0,10.58,2.59,10.58,9,0,6.91-5.9,10.73-11.81,10.73m25.06,25.06a5.22,5.22,0,0,0,.22-1.8,2.18,2.18,0,0,0-.43-1.73,34.3,34.3,0,0,0-4.32-1.8,3.84,3.84,0,0,1-1.58-1.3c-0.65-.79-9.07-13.75-12.17-18.29l-6.34,4L338.69,198a1.28,1.28,0,0,0,.86.65h10.51Zm-39.38,4.75c-8.78-.29-25.49-3.24-28.73-6l-13,.72-1.8.29c1.73,0.5,24.34,8.93,31.46,11.16a6.2,6.2,0,0,0,2.3,0l9.65-2.59a1.93,1.93,0,0,0,.58-1.58c0-.94.07-1.94-0.5-2m-53-30.38c0-12.46,8.71-19,16.63-19S292,159.7,292,173.74c0,12.89-8.71,19.51-17.06,19.51-7.27,0-17.21-6.19-17.21-20.23m41.83,0.72c0-19.22-12.89-26.42-25.34-26.42-11.88,0-24.19,9.29-24.19,25.63,0,19.15,13.75,26.71,24.84,26.71,12.38,0,24.7-8.14,24.7-25.92m-83.23,8c0,0.36,2.16,1.08,6.26,1.08,8.28,0,20.74-5.11,20.74-19.73,0-11.16-8.64-15.26-19.8-15.26-6,0-16.78.58-18.36,0.86a5.22,5.22,0,0,0-.22,1.8,3.56,3.56,0,0,0,.22,1.73c0.14,0.29,3.17,1.37,4.25,2a1.23,1.23,0,0,1,.79,1.15v37.08a1.28,1.28,0,0,1-.94,1.3,22.16,22.16,0,0,0-3.38,1.8,3.56,3.56,0,0,0-.22,1.73,5.22,5.22,0,0,0,.22,1.8h17.21a5.22,5.22,0,0,0,.22-1.8,3.56,3.56,0,0,0-.22-1.73c-0.14-.29-3.53-1.37-4.32-1.8a1.5,1.5,0,0,1-1.08-1.51l-0.14-39.46-1.15,1.66a65.15,65.15,0,0,1,8.42-.5c5.4,0,10.44,3.46,10.44,10.22,0,8.57-7.49,12.31-13.39,12.31-3.1,0-5.54-.22-5.54-0.58v5.83ZM158,173c0-12.46,8.57-18.79,16.49-18.79S192,159.7,192,173.74c0,12.89-8.64,19.3-17,19.3-6.91,0-17-6-17-20m41.69,0.72c0-19.22-12.89-26.42-25.34-26.42-11.88,0-24.19,9.29-24.19,25.63,0,19.15,13.75,27,24.84,27,12.74,0,24.7-8.42,24.7-26.21m-69-18.79a1.28,1.28,0,0,0-.94-1.3c-1-.5-5-1.51-5.11-1.8a3.56,3.56,0,0,1-.22-1.73,5.22,5.22,0,0,1,.22-1.8h18.29a5.22,5.22,0,0,1,.22,1.8,3.56,3.56,0,0,1-.22,1.73c-0.14.29-3.67,1.44-4.46,1.8a1.32,1.32,0,0,0-.86,1.51v43.49h-6.41l-28.94-39.1,1-.14,0.22,32.4a1.32,1.32,0,0,0,.86,1.51c0.79,0.36,4.82,1.51,5,1.8a3.56,3.56,0,0,1,.22,1.73,5.22,5.22,0,0,1-.22,1.8h-18a5.22,5.22,0,0,1-.22-1.8,3.56,3.56,0,0,1,.22-1.73c0.14-.29,3.1-1.3,4.1-1.8a1.28,1.28,0,0,0,.94-1.3V155.09a1.39,1.39,0,0,0-.86-1.51c-0.79-.36-4.32-1.51-4.46-1.8A3.56,3.56,0,0,1,90.8,150a5.22,5.22,0,0,1,.22-1.8h13l28.73,39.82-2,.22V154.94Z"/><path class="cls-1" d="M726.23,68.69a1.39,1.39,0,0,1,.86-1.51c0.79-.36,4.32-1.51,4.46-1.8a3.56,3.56,0,0,0,.22-1.73,5.22,5.22,0,0,0-.22-1.8H718.09l-16.85,40.9,1.66-.07L685.19,61.85H671.94a5.22,5.22,0,0,0-.22,1.8,3.56,3.56,0,0,0,.22,1.73c0.14,0.29,3.67,1.44,4.46,1.8a1.39,1.39,0,0,1,.86,1.51l-4,36.94a1.28,1.28,0,0,1-.94,1.3c-1,.5-4,1.51-4.1,1.8a3.56,3.56,0,0,0-.22,1.73,5.22,5.22,0,0,0,.22,1.8h17.64a5.22,5.22,0,0,0,.22-1.8,3.56,3.56,0,0,0-.22-1.73c-0.14-.29-3.67-1.44-4.46-1.8a1.32,1.32,0,0,1-.86-1.51l2.74-32.18-1.15.14,16.49,38.38h5.69l16.34-38.3-1-.14,2.88,32.11a1.39,1.39,0,0,1-.86,1.51c-0.79.36-4.32,1.51-4.46,1.8a3.56,3.56,0,0,0-.22,1.73,5.22,5.22,0,0,0,.22,1.8h17.78a5.22,5.22,0,0,0,.22-1.8,3.56,3.56,0,0,0-.22-1.73c-0.14-.29-3.1-1.3-4.1-1.8a1.28,1.28,0,0,1-.94-1.3Zm-84.74-.14a1.21,1.21,0,0,1,.86-1.15,41.6,41.6,0,0,0,4-2,3.56,3.56,0,0,0,.22-1.73,5.22,5.22,0,0,0-.22-1.8H628.74a5.22,5.22,0,0,0-.22,1.8,3.56,3.56,0,0,0,.22,1.73c0.14,0.29,3.17,1.37,4.25,2a1.23,1.23,0,0,1,.79,1.15v37.08a1.28,1.28,0,0,1-.94,1.3c-1,.5-4,1.51-4.1,1.8a3.56,3.56,0,0,0-.22,1.73,5.22,5.22,0,0,0,.22,1.8H662c0.43,0,1.15-11.16,1-11.3-0.36-.36-0.86-0.22-1.8-0.22a3.56,3.56,0,0,0-1.73.22c-0.29.14-1.58,3.6-2,4.39a1.21,1.21,0,0,1-1.15.86h-14a1.36,1.36,0,0,1-1-1.15ZM590.65,97.63c6.48-6.84,22.9-27.22,23.76-28.08,3.38-3.38,6.12-3.1,6.34-3.6a5.81,5.81,0,0,0,.22-2.16,6.23,6.23,0,0,0-.22-1.94H604.48a5.22,5.22,0,0,0-.22,1.8,3.56,3.56,0,0,0,.22,1.73A17.31,17.31,0,0,0,607,66.82a1.14,1.14,0,0,1,.79,1.08c0,0.43-13.82,17.35-18.86,22.46Zm32.69,14.62a5.22,5.22,0,0,0,.22-1.8,3.56,3.56,0,0,0-.22-1.73c-0.14-.29-3.38-1.37-4.18-1.8a2.77,2.77,0,0,1-1.44-1.3l-15-24-5.18,4.9L612,111.6a1.28,1.28,0,0,0,.86.65h10.51Zm-26.78,0a5.22,5.22,0,0,0,.22-1.8,3.56,3.56,0,0,0-.22-1.73c-0.14-.29-3.38-1.37-4.18-1.8a1.35,1.35,0,0,1-.86-1.51V68.54a1.21,1.21,0,0,1,.86-1.15,41.6,41.6,0,0,0,4-2,3.56,3.56,0,0,0,.22-1.73,5.22,5.22,0,0,0-.22-1.8H578.77a5.22,5.22,0,0,0-.22,1.8,3.56,3.56,0,0,0,.22,1.73c0.14,0.29,3.17,1.37,4.25,2a1.23,1.23,0,0,1,.79,1.15v37.08a1.28,1.28,0,0,1-.94,1.3c-1,.5-4,1.51-4.1,1.8a3.56,3.56,0,0,0-.22,1.73,5.22,5.22,0,0,0,.22,1.8h17.78Zm-38.45-43.7v37.08c0,8.71-6.7,12.67-12.31,12.67v5c9.22,0,19.87-6,19.87-18.29V68.54a1.23,1.23,0,0,1,.79-1.15c1.08-.65,4.82-1.73,5-2a3.56,3.56,0,0,0,.22-1.73,5.22,5.22,0,0,0-.22-1.8H552.35a5.22,5.22,0,0,0-.22,1.8,3.56,3.56,0,0,0,.22,1.73c0.14,0.29,4.1,1.58,4.9,2a1.21,1.21,0,0,1,.86,1.15m-19.44,43.7a5.22,5.22,0,0,0,.22-1.8,3.56,3.56,0,0,0-.22-1.73c-0.14-.29-3.38-1.37-4.18-1.8a1.35,1.35,0,0,1-.86-1.51V68.54a1.21,1.21,0,0,1,.86-1.15,41.6,41.6,0,0,0,4-2,3.56,3.56,0,0,0,.22-1.73,5.22,5.22,0,0,0-.22-1.8H520.89a5.22,5.22,0,0,0-.22,1.8,3.56,3.56,0,0,0,.22,1.73c0.14,0.29,3.17,1.37,4.25,2a1.23,1.23,0,0,1,.79,1.15v37.08a1.28,1.28,0,0,1-.94,1.3c-1,.5-4,1.51-4.1,1.8a3.56,3.56,0,0,0-.22,1.73,5.22,5.22,0,0,0,.22,1.8h17.78Zm-27.07,0a5.22,5.22,0,0,0,.22-1.8,3.56,3.56,0,0,0-.22-1.73c-0.14-.29-3.38-1.37-4.18-1.8a1.35,1.35,0,0,1-.86-1.51V68.54a1.21,1.21,0,0,1,.86-1.15c0.79-.43,4-1.73,4.18-2a3.56,3.56,0,0,0,.22-1.73,5.22,5.22,0,0,0-.22-1.8h-18a5.22,5.22,0,0,0-.22,1.8,3.56,3.56,0,0,0,.22,1.73c0.14,0.29,3.46,1.51,4.46,2a1.23,1.23,0,0,1,.79,1.15v37.08a1.22,1.22,0,0,1-.94,1.3,27,27,0,0,0-4.32,1.8,3.56,3.56,0,0,0-.22,1.73,5.22,5.22,0,0,0,.22,1.8h18Zm-30.17,0a5.22,5.22,0,0,0,.22-1.8,3.56,3.56,0,0,0-.22-1.73c-0.14-.29-3.6-1.37-4.39-1.8a1.35,1.35,0,0,1-.86-1.51V68.54a1.21,1.21,0,0,1,.86-1.15c0.79-.43,4.25-1.73,4.39-2a3.56,3.56,0,0,0,.22-1.73,5.22,5.22,0,0,0-.22-1.8h-18a5.22,5.22,0,0,0-.22,1.8,3.56,3.56,0,0,0,.22,1.73c0.14,0.29,3.17,1.37,4.25,2a1.23,1.23,0,0,1,.79,1.15v37.08a1.28,1.28,0,0,1-.94,1.3c-1,.5-4,1.51-4.1,1.8a3.56,3.56,0,0,0-.22,1.73,5.22,5.22,0,0,0,.22,1.8h18Zm-9.79-24H503.1v-6.7H471.64v6.7ZM447.59,70c-1.66-1.44-5.4-3.1-11.52-3.1-8.06.07-17.93,6.62-17.93,21.67a18.78,18.78,0,0,0,18.5,18.29c6.41,0,9.58-1.44,11.45-3.24v-8A2,2,0,0,0,447.3,94c-1-.5-8.64-1.73-8.78-2a5,5,0,0,1-.22-2,9.18,9.18,0,0,1,.22-2.3h16.92l-0.36,20.3c-1.94,2.16-7.92,5.62-18.43,5.62-15,0-26.21-9.86-26.21-25.42,0-18.36,13.61-27.72,24.48-27.79,9.65,0,13.75,1.3,18.79,4.46,0.36,0,0,12.46-.22,12.53a5.4,5.4,0,0,1-2.09.22,5,5,0,0,1-2-.22c-0.29-.14-1.37-6.55-1.8-7.34M383.3,105.55L383.15,69a1.36,1.36,0,0,1,1-1.15h14a1.21,1.21,0,0,1,1.15.86c0.43,0.79,1.73,4.25,2,4.39a3.56,3.56,0,0,0,1.73.22c0.94,0,1.44.14,1.8-.22,0.14-.14-0.58-11.3-1-11.3H370.55a5.22,5.22,0,0,0-.22,1.8,3.56,3.56,0,0,0,.22,1.73c0.14,0.29,3.1,1.3,4.1,1.8a1.28,1.28,0,0,1,.94,1.3v37.08a1.23,1.23,0,0,1-.79,1.15c-1.08.65-3.6,1.73-3.74,2a3.56,3.56,0,0,0-.22,1.73,5.22,5.22,0,0,0,.22,1.8h17.5a5.22,5.22,0,0,0,.22-1.8,3.56,3.56,0,0,0-.22-1.73c-0.14-.29-3.6-1.58-4.39-2a1.21,1.21,0,0,1-.86-1.15m16.42-10.3a5.58,5.58,0,0,0,1.37-.14V81.86a5.58,5.58,0,0,0-1.37-.14,3.4,3.4,0,0,0-1.37.14c-0.22.14-1.15,2.23-1.51,2.81a0.92,0.92,0,0,1-.36.5H379.12v6.26h17.42a0.72,0.72,0,0,1,.29.36c0.5,0.86,1.3,3.17,1.51,3.31a3.4,3.4,0,0,0,1.37.14M358.38,93.1a5.58,5.58,0,0,0,1.37-.14V79.7a5.58,5.58,0,0,0-1.37-.14,3.4,3.4,0,0,0-1.37.14c-0.22.14-1.15,2.23-1.51,2.81a0.92,0.92,0,0,1-.36.5h-17.5v6.26h17.57a0.72,0.72,0,0,1,.29.36C356,90.5,356.8,92.81,357,93a3.4,3.4,0,0,0,1.37.14M342,69.48a1.36,1.36,0,0,1,1-1.15h13.39a1.21,1.21,0,0,1,1.15.86c0.43,0.79,1.73,4.25,2,4.39a3.56,3.56,0,0,0,1.73.22,3.89,3.89,0,0,0,1.8-.22c0.22-.07-0.22-11.74-0.58-11.74H329.44a5.22,5.22,0,0,0-.22,1.8,3.56,3.56,0,0,0,.22,1.73c0.14,0.29,3.17,1.37,4.25,2a1.23,1.23,0,0,1,.79,1.15v37.08a1.28,1.28,0,0,1-.94,1.3c-1,.5-4,1.51-4.1,1.8a3.56,3.56,0,0,0-.22,1.73,5.22,5.22,0,0,0,.22,1.8h33.41c0.43,0,1.15-11.16,1-11.3-0.36-.36-0.86-0.22-1.8-0.22a3.56,3.56,0,0,0-1.73.22c-0.29.14-1.58,3.6-2,4.39a1.21,1.21,0,0,1-1.15.86H343a1.36,1.36,0,0,1-1-1.15V69.48Zm-54.29,37.08a1.35,1.35,0,0,1-.86-1.51V68.47c0-.86,3.67-1.3,9.94-1.3,11.38,0,18.07,7.27,18.07,18.58,0,14.69-9.79,21.24-19,21.24-3.46,0-7.2.07-8.14-.43m9.07,6.41c12,0,26.57-8.78,26.57-26.78,0-15.91-11.88-25.2-26.57-25.2-7.49,0-19.94.86-22.68,0.86a5.22,5.22,0,0,0-.22,1.8,3.56,3.56,0,0,0,.22,1.73c0.14,0.29,3.17,1.37,4.25,2a1.23,1.23,0,0,1,.79,1.15v37.08a1.28,1.28,0,0,1-.94,1.3c-1,.5-4,1.51-4.1,1.8a3.56,3.56,0,0,0-.22,1.73,5.22,5.22,0,0,0,.22,1.8c13.82,0,17.35.72,22.68,0.72m-35.14-43.2c-2.16-1.8-4.54-2.45-8.86-2.45-11,0-21.46,6.19-21.46,20.88,0,9.58,8.57,18.43,19.08,18.43,6.41,0,12.53-2.16,14.4-4l3.1,4.25c-1.94,2.16-7,6.62-17.5,6.62-15,0-26.93-9.86-26.93-25.78,0-18,14.33-27.36,28.15-27.36,6.55,0,10.66.94,15.55,4,0.36,0,0,12.46-.22,12.53a3.89,3.89,0,0,1-1.8.22,3.56,3.56,0,0,1-1.73-.22c-0.29-.14-1.37-6.34-1.8-7.13m-62.42,42.48c9.65,0,16.2-7,16.2-15.77,0-7.85-6.7-12-14-12l0.07,1.37c6.19,0,12.24-6.7,12.24-11.45,0-8.57-5.11-13.1-15-13.1-6,0-17.93.29-19,.58a5.22,5.22,0,0,0-.22,1.8,3.56,3.56,0,0,0,.22,1.73c0.14,0.29,3.17,1.37,4.25,2a1.23,1.23,0,0,1,.79,1.15v37.08a1.28,1.28,0,0,1-.94,1.3c-1,.5-4,1.51-4.1,1.8a3.56,3.56,0,0,0-.22,1.73,5.22,5.22,0,0,0,.22,1.8h19.51Zm-2.88-5.9c-2.81,0-4-.22-4-1l-0.14-18.86-1.73,2.09a32,32,0,0,1,6.62-.36c5.54,0,10.87,2.66,10.87,8.57s-4.25,9.58-11.66,9.58m0.29-23.69c-1.87,0-3.38-.07-6.55-0.29l2.16,2.3-0.14-19.08-2.09,2.59a23.72,23.72,0,0,1,7.63-1.37c5.76,0,9,3,9,7.78,0,4.18-4,8.06-10,8.06M133.6,97.49h27.86V90.94H133.6v6.55ZM143,61.85l-16.56,43.7a2.63,2.63,0,0,1-.79,1.08c-0.36.29-4.46,1.66-4.54,1.94a7.63,7.63,0,0,0-.14,1.94,11.1,11.1,0,0,0,.14,1.73h17.71a12.34,12.34,0,0,0,.22-1.8,3.54,3.54,0,0,0-.43-1.87c-0.29-.14-2.88-1.37-3.74-1.94a1.33,1.33,0,0,1-.07-1.08l12.38-37.08h-1.66L161,105.62a1.23,1.23,0,0,1,0,1c-0.72.43-3.6,1.8-3.89,1.94a3.54,3.54,0,0,0-.43,1.87,12.34,12.34,0,0,0,.22,1.8h17.42a11.1,11.1,0,0,0,.14-1.73,7.63,7.63,0,0,0-.14-1.94c-0.07-.29-4.18-1.66-4.54-1.94a2.63,2.63,0,0,1-.79-1.08l-18.29-43.7H143Z"/></svg>