<svg id="Layer_12" data-name="Layer 12" xmlns="http://www.w3.org/2000/svg" viewBox="0 0 857.96 612"><defs><style>.cls-1{fill:#231f20;}</style></defs><title>term1-progress-01-02</title><path class="cls-1" d="M648,89.72l37.3,54h1.51l-37.15-54H648Zm37.3,0,0.14,54h1.37v-54h-1.51Zm-37.3,0v54h1.51l-0.14-54H648Zm-44.93,30.1h24.48l0.65,1.44H602.63Zm36.43,23.9h-1.66l-24.26-54h1.66Zm-46.58,0,20.66-54h1.58l-20.66,54h-1.58Zm-13.82-54h1.51l6.34,54.07h-1.51Zm-46.51,0-6.34,54.07h-1.51l6.34-54.07h1.51Zm48.17,0-23.9,54.07h-1.66l23.9-54.07h1.66Zm-49.54,0h1.66l23.9,54.07h-1.66Zm-51.77,32.69c0,14.18,4.54,21.89,18.43,21.89,13.18,0,18.43-6.84,18.43-21.89h-1.44c0,14-5,20.52-17,20.52S481,136.16,481,122.41h-1.51Zm35.5-32.69-0.07,32.76h1.44l0.07-32.76h-1.44Zm-35.57,0,0.07,32.76H481l-0.07-32.76h-1.51Zm-11.74,54h1.58v-54h-1.58v54Zm-32.4-28.8h32.9v-1.66h-32.9v1.66ZM434,143.72h1.58v-54H434v54Zm-39.1,1.3c14.62,0,28.44-8.86,28.44-28.08,0-20.81-15-28.3-29.16-28.3L394.12,90c13,0,27.79,7.27,27.79,26.93,0,18.22-13.46,26.57-27,26.57V145Zm-0.29-56.38c-14.54,0-27.86,9-27.86,27.43,0,20.74,16.06,28.94,28.58,28.94v-1.51c-11.23,0-27-7.85-27-27.43,0-17.64,13.32-26.06,26.28-26.06V88.64Zm-37.44,54.14h1.51V119.68h-1.51v23.11Zm1.51-49.68c0-.79-4.68-4.1-16.42-4.1-15.19,0-29.16,8-29.16,27.5,0,21.17,17.86,28.08,31,28.08,9.86,0,14.54-1.22,14.54-1.66V140.7c0,1.22-6.91,2.45-14.4,2.45-11.45,0-29.59-6.41-29.59-26.64,0-19,14.33-26.21,27.58-26.21,9.65,0,16.42,3.46,16.42,4.61v-1.8Zm-77,45c0,2,3.74,6.12,10.73,6.12,7.63,0,14.18-4.68,14.18-13.82,0-10.37-9.5-13.46-12.82-14.76l-0.07,1.58c3.24,1.3,11.3,4,11.3,13.18,0,8.14-6.12,12.46-12.6,12.46-5.18,0-10.73-4.39-10.73-6.26v1.51Zm23.4-45.65c0-.86-2.52-3.1-9.22-3.1-7.49,0-14,4.61-14,13.25,0,10.37,8.57,13.32,11.88,14.62l0.07-1.58c-3.17-1.37-10.37-3.82-10.37-13,0-7.63,6.12-11.88,12.46-11.88,5.47,0,9.22,2.3,9.22,3.24V92.46ZM248.47,114.2l-0.14,1.3s3.31-.07,6.34-0.07c5.33,0,17,1.08,17,12,0,12.1-12.46,14.9-17.06,14.9s-6.12-.14-6.12-0.14v1.51a57.59,57.59,0,0,0,5.76.14c6.12,0,18.94-3,18.94-16.49,0-12.1-11.74-13.25-18.58-13.25-4.32,0-6.12.14-6.12,0.14m-0.14-24.48v1.51s4-.36,6.55-0.36c5.83,0,13.32,1.22,13.32,10.22C268.2,111.25,258,114,251.64,114c-2,0-3.31-.07-3.31-0.07v1s3.24-.07,4.32-0.07c5.9,0,17.21-2.66,17.21-13.9,0-10.08-8.86-11.66-15-11.59-3,0-6.48.36-6.48,0.36m-0.43,54h1.44v-54h-1.44v54Zm-24.12-25.56,12.53,25.56h2.16l-13-25.56h-1.73ZM209.95,89.72v1.22s4.61-.43,7.63-0.43c6.84,0,15.55,2,15.55,12.31s-6.91,15.41-14,15.41H211v1.51h8.28c8.21,0,15.41-5.33,15.41-17.14,0-11.59-9.86-13.46-17.14-13.39a73.6,73.6,0,0,0-7.56.5m0,54h1.58v-54h-1.58v54Zm-34.56,0h24.84v-1.51H175.39v1.51Zm0-27.72h22.54v-1.51H175.39V116Zm0-24.77h24.48V89.72H175.39v1.51Zm-0.29,52.49h1.58v-54H175.1v54Zm-5.62-54L144.72,143.8h-1.66l24.77-54.07h1.66Zm-51.26,0h1.66l24.77,54.07H143Z"/><path class="cls-1" d="M699.69,314.6l8.35,17h1.44l-8.64-17h-1.15Zm-9.22-19v0.82s3.07-.29,5.09-0.29c4.56,0,10.37,1.34,10.37,8.21s-4.61,10.27-9.31,10.27h-5.47v1h5.52c5.47,0,10.27-3.55,10.27-11.42s-6.58-9-11.42-8.93a49.09,49.09,0,0,0-5,.34m0,36h1.06v-36h-1.06v36Zm-23,0H684v-1H667.43v1Zm0-18.48h15v-1h-15v1Zm0-16.51h16.32v-1H667.43v1Zm-0.19,35h1.06v-36h-1.06v36Zm-22.56-36v0.82s3.07-.29,5.09-0.29c4.56,0,10.85,2.06,10.85,9a10.13,10.13,0,0,1-10.32,10.46c-2.83,0-3.12-.58-3.12-0.58v1s0.24,0.58,3.17.58c5.57,0,11.28-3.65,11.28-11.62s-7.05-9.79-11.9-9.74a49,49,0,0,0-5,.34m0,36h1.06v-36h-1.06v36Zm-23.42-36v0.82s3.07-.29,5.09-0.29c4.56,0,10.85,2.06,10.85,9a10.13,10.13,0,0,1-10.32,10.46c-2.83,0-3.12-.58-3.12-0.58v1s0.24,0.58,3.17.58c5.57,0,11.28-3.65,11.28-11.62s-7.06-9.79-11.9-9.74a49.06,49.06,0,0,0-5,.34m0,36h1.06v-36h-1.06v36Zm-25.34.86c9.74,0,19-5.9,19-18.72,0-13.87-10-18.86-19.44-18.86l0,0.91c8.69,0,18.53,4.85,18.53,18,0,12.14-9,17.71-18,17.71v1Zm-0.19-37.58c-9.7,0-18.58,6-18.58,18.29,0,13.82,10.7,19.3,19.06,19.3v-1c-7.49,0-18-5.23-18-18.29,0-11.76,8.88-17.38,17.52-17.38v-0.91Zm-40.85,36.72h16.56v-1H554.87v1Zm-0.14,0h1.06v-36h-1.06v36ZM524.87,331h1V315.61h-1V331Zm1-33.12c0-.53-3.12-2.74-10.94-2.74-10.13,0-19.44,5.33-19.44,18.34,0,14.11,11.9,18.72,20.69,18.72,6.58,0,9.7-.82,9.7-1.1v-1.49c0,0.82-4.61,1.63-9.6,1.63-7.63,0-19.73-4.27-19.73-17.76,0-12.67,9.55-17.47,18.38-17.47,6.43,0,10.94,2.3,10.94,3.07v-1.2Zm-61.77-2.26,24.86,36h1l-24.77-36h-1.1Zm24.86,0,0.1,36H490v-36h-1Zm-24.86,0v36h1l-0.1-36h-0.91Zm-9.6,36h1.06v-36h-1.06v36Zm-6.14-36-16.51,36h-1.1l16.51-36h1.1Zm-34.18,0h1.1l16.51,36h-1.1Zm-23.47,36.86c9.74,0,19-5.9,19-18.72,0-13.87-10-18.86-19.44-18.86l0,0.91c8.69,0,18.53,4.85,18.53,18,0,12.14-9,17.71-18,17.71v1Zm-0.19-37.58c-9.7,0-18.58,6-18.58,18.29,0,13.82,10.7,19.3,19.06,19.3v-1c-7.49,0-18-5.23-18-18.29,0-11.76,8.88-17.38,17.52-17.38v-0.91ZM356.64,314.6l8.35,17h1.44l-8.64-17h-1.15Zm-9.22-19v0.82s3.07-.29,5.09-0.29c4.56,0,10.37,1.34,10.37,8.21s-4.61,10.27-9.31,10.27h-5.47v1h5.52c5.47,0,10.27-3.55,10.27-11.42s-6.58-9-11.42-8.93a49.06,49.06,0,0,0-5,.34m0,36h1.06v-36h-1.06v36ZM316.84,331h1V315.61h-1V331Zm1-33.12c0-.53-3.12-2.74-10.94-2.74-10.13,0-19.44,5.33-19.44,18.34,0,14.11,11.9,18.72,20.69,18.72,6.58,0,9.7-.82,9.7-1.1v-1.49c0,0.82-4.61,1.63-9.6,1.63-7.63,0-19.73-4.27-19.73-17.76,0-12.67,9.55-17.47,18.38-17.47,6.43,0,10.94,2.3,10.94,3.07v-1.2Zm-61.77-2.26,24.86,36h1l-24.77-36h-1.1Zm24.86,0,0.1,36h0.91v-36h-1Zm-24.86,0v36h1l-0.1-36h-0.91Zm-9.6,36h1.06v-36h-1.06v36Zm-24-3.74c0,1.34,2.5,4.08,7.15,4.08,5.09,0,9.46-3.12,9.46-9.22,0-6.91-6.34-9-8.54-9.84l0,1.06c2.16,0.86,7.54,2.64,7.54,8.78,0,5.42-4.08,8.3-8.4,8.3-3.46,0-7.15-2.93-7.15-4.18v1Zm15.6-30.43c0-.58-1.68-2.06-6.14-2.06-5,0-9.36,3.07-9.36,8.83,0,6.91,5.71,8.88,7.92,9.74l0-1.06c-2.11-.91-6.91-2.54-6.91-8.69,0-5.09,4.08-7.92,8.3-7.92,3.65,0,6.14,1.54,6.14,2.16v-1Zm-40.37,35c9.74,0,19-5.9,19-18.72,0-13.87-10-18.86-19.44-18.86l0,0.91c8.69,0,18.53,4.85,18.53,18,0,12.14-9,17.71-18,17.71v1Zm-0.19-37.58c-9.7,0-18.58,6-18.58,18.29,0,13.82,10.7,19.3,19.06,19.3v-1c-7.49,0-18-5.23-18-18.29,0-11.76,8.88-17.38,17.52-17.38v-0.91Zm-40.85,36.72h16.56v-1H156.72v1Zm-0.14,0h1.06v-36h-1.06v36ZM151,297.9c0-.53-3.12-2.74-11.57-2.74-9.31,0-19.06,5.14-19.06,18.34,0,14.11,11.38,18.72,19.3,18.72s11.81-2.35,11.81-2.64v-1.49c0,0.82-4.85,3.17-11.71,3.17S121.44,327,121.44,313.5c0-12.62,9.94-17.47,17.71-17.47,7.34,0,11.86,2.3,11.86,3.07v-1.2Z"/><path class="cls-1" d="M632.92,270.3c0,1.34,2.5,4.08,7.15,4.08,5.09,0,9.46-3.12,9.46-9.22,0-6.91-6.34-9-8.54-9.84l0,1.06c2.16,0.86,7.54,2.64,7.54,8.78,0,5.42-4.08,8.3-8.4,8.3-3.46,0-7.15-2.93-7.15-4.18v1Zm15.6-30.43c0-.58-1.68-2.06-6.14-2.06-5,0-9.36,3.07-9.36,8.83,0,6.91,5.71,8.88,7.92,9.74l0-1.06c-2.11-.91-6.91-2.54-6.91-8.69,0-5.09,4.08-7.92,8.3-7.92,3.65,0,6.14,1.54,6.14,2.16v-1Zm-21.7,33.55h1V258h-1v15.41Zm1-33.12c0-.53-3.12-2.74-10.94-2.74-10.13,0-19.44,5.33-19.44,18.34,0,14.11,11.9,18.72,20.69,18.72,6.58,0,9.7-.82,9.7-1.1V272c0,0.82-4.61,1.63-9.6,1.63-7.63,0-19.73-4.27-19.73-17.76,0-12.67,9.55-17.47,18.38-17.47,6.43,0,10.94,2.3,10.94,3.07v-1.2ZM566.06,238l24.86,36h1l-24.77-36h-1.1Zm24.86,0,0.1,36h0.91V238h-1Zm-24.86,0v36h1L567,238h-0.91Zm-9.6,36h1.06V238h-1.06v36ZM522,238l24.86,36h1l-24.77-36H522Zm24.86,0,0.1,36h0.91V238h-1ZM522,238v36h1L523,238H522Zm-33.45,0,24.86,36h1l-24.77-36h-1.1Zm24.86,0,0.1,36h0.91V238h-1Zm-24.86,0v36h1l-0.1-36h-0.91Zm-30,20.06H475l0.43,1h-17ZM482.92,274h-1.1l-16.18-36h1.1Zm-31.06,0,13.78-36h1.06l-13.78,36h-1.06Zm-9.21-36h1l4.22,36h-1Zm-31,0-4.22,36h-1l4.22-36h1Zm32.11,0-15.94,36h-1.1l15.94-36h1.1Zm-33,0h1.1l15.94,36h-1.1ZM350,238l24.86,36h1l-24.77-36H350Zm24.86,0,0.1,36h0.91V238h-1ZM350,238v36h1l-0.1-36H350Zm-30,20.06h16.32l0.43,1h-17ZM344.35,274h-1.1l-16.18-36h1.1Zm-31.06,0,13.78-36h1.06l-13.78,36h-1.06Zm-9.21-36h1l4.22,36h-1Zm-31,0-4.22,36h-1l4.22-36h1Zm32.11,0-15.94,36h-1.1l15.94-36h1.1Zm-33,0h1.1l15.94,36h-1.1ZM245.9,270.3c0,1.34,2.5,4.08,7.15,4.08,5.09,0,9.46-3.12,9.46-9.22,0-6.91-6.34-9-8.54-9.84l0,1.06c2.16,0.86,7.54,2.64,7.54,8.78,0,5.42-4.08,8.3-8.4,8.3-3.46,0-7.15-2.93-7.15-4.18v1Zm15.6-30.43c0-.58-1.68-2.06-6.14-2.06-5,0-9.36,3.07-9.36,8.83,0,6.91,5.71,8.88,7.92,9.74l0-1.06c-2.11-.91-6.91-2.54-6.91-8.69,0-5.09,4.08-7.92,8.3-7.92,3.65,0,6.14,1.54,6.14,2.16v-1ZM224.06,270.3c0,1.34,2.5,4.08,7.15,4.08,5.09,0,9.46-3.12,9.46-9.22,0-6.91-6.34-9-8.54-9.84l0,1.06c2.16,0.86,7.54,2.64,7.54,8.78,0,5.42-4.08,8.3-8.4,8.3-3.46,0-7.15-2.93-7.15-4.18v1Zm15.6-30.43c0-.58-1.68-2.06-6.14-2.06-5,0-9.36,3.07-9.36,8.83,0,6.91,5.71,8.88,7.92,9.74l0-1.06c-2.11-.91-6.91-2.54-6.91-8.69,0-5.09,4.08-7.92,8.3-7.92,3.65,0,6.14,1.54,6.14,2.16v-1Zm-40.37,35c9.74,0,19-5.9,19-18.72,0-13.87-10-18.86-19.44-18.86l0,0.91c8.69,0,18.53,4.85,18.53,18,0,12.14-9,17.71-18,17.71v1Zm-0.19-37.58c-9.7,0-18.58,6-18.58,18.29,0,13.82,10.7,19.3,19.06,19.3v-1c-7.49,0-18-5.23-18-18.29,0-11.76,8.88-17.38,17.52-17.38v-0.91ZM165.21,257l8.35,17H175l-8.64-17h-1.15ZM156,238v0.82s3.07-.29,5.09-0.29c4.56,0,10.37,1.34,10.37,8.21s-4.61,10.27-9.31,10.27h-5.47v1h5.52c5.47,0,10.27-3.55,10.27-11.42s-6.58-9-11.42-8.93a49.06,49.06,0,0,0-5,.34m0,36h1.06V238H156v36Zm-6.58-.62h1V258h-1v15.41Zm1-33.12c0-.53-3.12-2.74-10.94-2.74-10.13,0-19.44,5.33-19.44,18.34,0,14.11,11.9,18.72,20.69,18.72,6.58,0,9.7-.82,9.7-1.1V272c0,0.82-4.61,1.63-9.6,1.63-7.63,0-19.73-4.27-19.73-17.76,0-12.67,9.55-17.47,18.38-17.47,6.43,0,10.94,2.3,10.94,3.07v-1.2Z"/><path class="cls-1" d="M714,215.82h1V200.41h-1v15.41Zm1-33.12c0-.53-3.12-2.74-10.94-2.74-10.13,0-19.44,5.33-19.44,18.34,0,14.11,11.9,18.72,20.69,18.72,6.58,0,9.7-.82,9.7-1.1v-1.49c0,0.82-4.61,1.63-9.6,1.63-7.63,0-19.73-4.27-19.73-17.76,0-12.67,9.55-17.47,18.38-17.47,6.43,0,10.94,2.3,10.94,3.07v-1.2Zm-61.78-2.26,24.86,36h1l-24.77-36h-1.1Zm24.86,0,0.1,36h0.91v-36h-1Zm-24.86,0v36h1l-0.1-36h-0.91Zm-9.6,36h1.06v-36h-1.06v36Zm-8.21-.62h1V200.41h-1v15.41Zm1-33.12c0-.53-3.12-2.74-10.94-2.74C615.35,180,606,185.29,606,198.3c0,14.11,11.9,18.72,20.69,18.72,6.58,0,9.7-.82,9.7-1.1v-1.49c0,0.82-4.61,1.63-9.6,1.63-7.63,0-19.73-4.27-19.73-17.76,0-12.67,9.55-17.47,18.38-17.47,6.43,0,10.94,2.3,10.94,3.07v-1.2Zm-35.57,33.12h1V200.41h-1v15.41Zm1-33.12c0-.53-3.12-2.74-10.94-2.74-10.13,0-19.44,5.33-19.44,18.34,0,14.11,11.9,18.72,20.69,18.72,6.58,0,9.7-.82,9.7-1.1v-1.49c0,0.82-4.61,1.63-9.6,1.63-7.63,0-19.73-4.27-19.73-17.76,0-12.67,9.55-17.47,18.38-17.47,6.43,0,10.94,2.3,10.94,3.07v-1.2Zm-58.27,17.81h16.32l0.43,1h-17Zm24.29,15.94h-1.1l-16.18-36h1.1Zm-31.06,0,13.78-36h1.06l-13.78,36h-1.06Zm-21.26-19.68-0.1.86s2.21,0,4.22,0c3.55,0,11.33.72,11.33,8,0,8.06-8.3,9.94-11.38,9.94s-4.08-.1-4.08-0.1v1a38.41,38.41,0,0,0,3.84.1c4.08,0,12.62-2,12.62-11,0-8.06-7.82-8.83-12.38-8.83-2.88,0-4.08.1-4.08,0.1m-0.1-16.32v1s2.64-.24,4.37-0.24c3.89,0,8.88.82,8.88,6.82,0,6.77-6.77,8.59-11,8.59-1.34,0-2.21,0-2.21,0v0.67s2.16,0,2.88,0c3.94,0,11.47-1.78,11.47-9.26,0-6.72-5.9-7.78-10-7.73-2,0-4.32.24-4.32,0.24m-0.29,36h1v-36h-1v36Zm-46.89-3.74c0,1.34,2.5,4.08,7.15,4.08,5.09,0,9.46-3.12,9.46-9.22,0-6.91-6.34-9-8.54-9.84l0,1.06c2.16,0.86,7.54,2.64,7.54,8.78,0,5.42-4.08,8.3-8.4,8.3-3.46,0-7.15-2.93-7.15-4.18v1Zm15.6-30.43c0-.58-1.68-2.06-6.14-2.06-5,0-9.36,3.07-9.36,8.83,0,6.91,5.71,8.88,7.92,9.74l0-1.06c-2.11-.91-6.91-2.54-6.91-8.69,0-5.09,4.08-7.92,8.3-7.92,3.65,0,6.14,1.54,6.14,2.16v-1ZM443,181.5H465v-1.06H443v1.06Zm10.42,34.94h1.06v-36h-1.06v36Zm-33,.86c9.74,0,19-5.9,19-18.72,0-13.87-10-18.86-19.44-18.86l0,0.91c8.69,0,18.53,4.85,18.53,18,0,12.14-9,17.71-18,17.71v1Zm-0.19-37.58c-9.7,0-18.58,6-18.58,18.29,0,13.82,10.7,19.3,19.06,19.3v-1c-7.49,0-18-5.23-18-18.29,0-11.76,8.88-17.38,17.52-17.38v-0.91Zm-41,17-0.1.86s2.21,0,4.22,0c3.55,0,11.33.72,11.33,8,0,8.06-8.3,9.94-11.38,9.94s-4.08-.1-4.08-0.1v1a38.41,38.41,0,0,0,3.84.1c4.08,0,12.62-2,12.62-11,0-8.06-7.82-8.83-12.38-8.83-2.88,0-4.08.1-4.08,0.1m-0.1-16.32v1s2.64-.24,4.37-0.24c3.89,0,8.88.82,8.88,6.82,0,6.77-6.77,8.59-11,8.59-1.34,0-2.21,0-2.21,0v0.67s2.16,0,2.88,0c3.94,0,11.47-1.78,11.47-9.26,0-6.72-5.9-7.78-10-7.73-2,0-4.32.24-4.32,0.24m-0.29,36h1v-36h-1v36Zm-25.82.86c9.74,0,19-5.9,19-18.72,0-13.87-10-18.86-19.44-18.86l0,0.91c8.69,0,18.53,4.85,18.53,18,0,12.14-9,17.71-18,17.71v1Zm-0.19-37.58c-9.7,0-18.58,6-18.58,18.29,0,13.82,10.7,19.3,19.06,19.3v-1c-7.49,0-18-5.23-18-18.29,0-11.76,8.88-17.38,17.52-17.38v-0.91ZM319,199.4l8.35,17h1.44l-8.64-17H319Zm-9.22-19v0.82s3.07-.29,5.09-0.29c4.56,0,10.37,1.34,10.37,8.21s-4.61,10.27-9.31,10.27h-5.47v1h5.52c5.47,0,10.27-3.55,10.27-11.42s-6.58-9-11.42-8.93a49.06,49.06,0,0,0-5,.34m0,36h1.06v-36h-1.06v36Zm-39.5-17,8.35,17H280l-8.64-17h-1.15Zm-9.22-19v0.82s3.07-.29,5.09-0.29c4.56,0,10.37,1.34,10.37,8.21s-4.61,10.27-9.31,10.27h-5.47v1h5.52c5.47,0,10.27-3.55,10.27-11.42s-6.58-9-11.42-8.93a49.06,49.06,0,0,0-5,.34m0,36h1.06v-36H261v36Zm-23,0h16.56v-1H238v1ZM238,198h15v-1H238v1Zm0-16.51H254.3v-1H238v1Zm-0.19,35h1.06v-36h-1.06v36Zm-3.74-36-16.51,36h-1.1l16.51-36H234Zm-34.18,0H201l16.51,36h-1.1Zm-21.26,36h16.56v-1H178.61v1Zm0-18.48h15v-1h-15v1Zm0-16.51h16.32v-1H178.61v1Zm-0.19,35h1.06v-36h-1.06v36Zm-21.69,0h16.56v-1H156.72v1Zm-0.14,0h1.06v-36h-1.06v36ZM151,182.7c0-.53-3.12-2.74-11.57-2.74-9.31,0-19.06,5.14-19.06,18.34,0,14.11,11.38,18.72,19.3,18.72s11.81-2.35,11.81-2.64v-1.49c0,0.82-4.85,3.17-11.71,3.17s-18.34-4.27-18.34-17.76c0-12.62,9.94-17.47,17.71-17.47,7.34,0,11.86,2.3,11.86,3.07v-1.2Z"/><path class="cls-1" d="M687.85,426.2l4.18,8.52h0.72l-4.32-8.52h-0.58Zm-4.61-9.48v0.41s1.54-.14,2.54-0.14c2.28,0,5.18.67,5.18,4.1s-2.3,5.14-4.66,5.14h-2.74v0.5h2.76c2.74,0,5.14-1.78,5.14-5.71s-3.29-4.49-5.71-4.46a24.53,24.53,0,0,0-2.52.17m0,18h0.53v-18h-0.53v18Zm-11.52,0H680v-0.5h-8.28v0.5Zm0-9.24h7.51V425h-7.51v0.5Zm0-8.26h8.16v-0.5h-8.16v0.5Zm-0.1,17.5h0.53v-18h-0.53v18Zm-11.28-18v0.41s1.54-.14,2.54-0.14c2.28,0,5.42,1,5.42,4.51a5.06,5.06,0,0,1-5.16,5.23c-1.42,0-1.56-.29-1.56-0.29v0.5s0.12,0.29,1.58.29a5.45,5.45,0,0,0,5.64-5.81c0-3.91-3.53-4.9-6-4.87a24.53,24.53,0,0,0-2.52.17m0,18h0.53v-18h-0.53v18Zm-11.71-18v0.41s1.54-.14,2.54-0.14c2.28,0,5.42,1,5.42,4.51a5.06,5.06,0,0,1-5.16,5.23c-1.42,0-1.56-.29-1.56-0.29v0.5s0.12,0.29,1.58.29a5.45,5.45,0,0,0,5.64-5.81c0-3.91-3.53-4.9-6-4.87a24.53,24.53,0,0,0-2.52.17m0,18h0.53v-18h-0.53v18Zm-12.67.43c4.87,0,9.48-3,9.48-9.36,0-6.94-5-9.43-9.72-9.43l0,0.46c4.34,0,9.26,2.42,9.26,9,0,6.07-4.49,8.86-9,8.86v0.5Zm-0.1-18.79c-4.85,0-9.29,3-9.29,9.14,0,6.91,5.35,9.65,9.53,9.65v-0.5a8.86,8.86,0,0,1-9-9.14c0-5.88,4.44-8.69,8.76-8.69v-0.46Zm-20.42,18.36h8.28v-0.5h-8.28v0.5Zm-0.07,0h0.53v-18h-0.53v18Zm-14.93-.31H601v-7.7h-0.5v7.7Zm0.5-16.56c0-.26-1.56-1.37-5.47-1.37-5.06,0-9.72,2.66-9.72,9.17,0,7.06,6,9.36,10.34,9.36,3.29,0,4.85-.41,4.85-0.55v-0.74c0,0.41-2.3.82-4.8,0.82-3.82,0-9.86-2.14-9.86-8.88,0-6.34,4.78-8.74,9.19-8.74,3.22,0,5.47,1.15,5.47,1.54v-0.6Zm-30.89-1.13,12.43,18H583l-12.38-18h-0.55Zm12.43,0,0,18H583v-18h-0.5Zm-12.43,0v18h0.5l0-18h-0.46Zm-4.8,18h0.53v-18h-0.53v18Zm-3.07-18-8.26,18h-0.55l8.26-18h0.55Zm-17.09,0h0.55l8.26,18h-0.55Zm-11.74,18.43c4.87,0,9.48-3,9.48-9.36,0-6.94-5-9.43-9.72-9.43l0,0.46c4.34,0,9.26,2.42,9.26,9,0,6.07-4.49,8.86-9,8.86v0.5Zm-0.1-18.79c-4.85,0-9.29,3-9.29,9.14,0,6.91,5.35,9.65,9.53,9.65v-0.5a8.86,8.86,0,0,1-9-9.14c0-5.88,4.44-8.69,8.76-8.69v-0.46Zm-16.94,9.84,4.18,8.52h0.72l-4.32-8.52h-0.58Zm-4.61-9.48v0.41s1.54-.14,2.54-0.14c2.28,0,5.18.67,5.18,4.1s-2.3,5.14-4.66,5.14h-2.74v0.5h2.76c2.74,0,5.14-1.78,5.14-5.71s-3.29-4.49-5.71-4.46a24.53,24.53,0,0,0-2.52.17m0,18h0.53v-18h-0.53v18Zm-15.29-.31h0.5v-7.7h-0.5v7.7Zm0.5-16.56c0-.26-1.56-1.37-5.47-1.37-5.06,0-9.72,2.66-9.72,9.17,0,7.06,6,9.36,10.34,9.36,3.29,0,4.85-.41,4.85-0.55v-0.74c0,0.41-2.3.82-4.8,0.82-3.82,0-9.86-2.14-9.86-8.88,0-6.34,4.78-8.74,9.19-8.74,3.22,0,5.47,1.15,5.47,1.54v-0.6ZM466,416.72l12.43,18H479l-12.38-18H466Zm12.43,0,0,18H479v-18h-0.5Zm-12.43,0v18h0.5l0-18H466Zm-4.8,18h0.53v-18h-0.53v18Zm-12-1.87c0,0.67,1.25,2,3.58,2a4.41,4.41,0,0,0,4.73-4.61c0-3.46-3.17-4.49-4.27-4.92l0,0.53c1.08,0.43,3.77,1.32,3.77,4.39a4,4,0,0,1-4.2,4.15c-1.73,0-3.58-1.46-3.58-2.09v0.5Zm7.8-15.22c0-.29-0.84-1-3.07-1-2.5,0-4.68,1.54-4.68,4.42,0,3.46,2.86,4.44,4,4.87l0-.53c-1.06-.46-3.46-1.27-3.46-4.34a3.94,3.94,0,0,1,4.15-4c1.82,0,3.07.77,3.07,1.08v-0.5Zm-20.18,17.52c4.87,0,9.48-3,9.48-9.36,0-6.94-5-9.43-9.72-9.43l0,0.46c4.34,0,9.26,2.42,9.26,9,0,6.07-4.49,8.86-9,8.86v0.5Zm-0.1-18.79c-4.85,0-9.29,3-9.29,9.14,0,6.91,5.35,9.65,9.53,9.65v-0.5a8.86,8.86,0,0,1-9-9.14c0-5.88,4.44-8.69,8.76-8.69v-0.46Zm-20.42,18.36h8.28v-0.5h-8.28v0.5Zm-0.07,0h0.53v-18H416.3v18Zm-2.78-16.87c0-.26-1.56-1.37-5.78-1.37-4.66,0-9.53,2.57-9.53,9.17,0,7.06,5.69,9.36,9.65,9.36s5.9-1.18,5.9-1.32v-0.74c0,0.41-2.42,1.58-5.86,1.58s-9.17-2.14-9.17-8.88c0-6.31,5-8.74,8.86-8.74,3.67,0,5.93,1.15,5.93,1.54v-0.6Zm-37.94,15c0,0.67,1.25,2,3.58,2a4.41,4.41,0,0,0,4.73-4.61c0-3.46-3.17-4.49-4.27-4.92l0,0.53c1.08,0.43,3.77,1.32,3.77,4.39a4,4,0,0,1-4.2,4.15c-1.73,0-3.58-1.46-3.58-2.09v0.5Zm7.8-15.22c0-.29-0.84-1-3.07-1-2.5,0-4.68,1.54-4.68,4.42,0,3.46,2.86,4.44,4,4.87l0-.53c-1.06-.46-3.46-1.27-3.46-4.34a3.94,3.94,0,0,1,4.15-4c1.82,0,3.07.77,3.07,1.08v-0.5Zm-10.85,16.78H373v-7.7h-0.5v7.7Zm0.5-16.56c0-.26-1.56-1.37-5.47-1.37-5.06,0-9.72,2.66-9.72,9.17,0,7.06,6,9.36,10.34,9.36,3.29,0,4.85-.41,4.85-0.55v-0.74c0,0.41-2.3.82-4.8,0.82-3.82,0-9.86-2.14-9.86-8.88,0-6.34,4.78-8.74,9.19-8.74,3.22,0,5.47,1.15,5.47,1.54v-0.6Zm-30.89-1.13,12.43,18h0.5l-12.38-18h-0.55Zm12.43,0,0,18h0.46v-18h-0.5Zm-12.43,0v18h0.5l0-18h-0.46Zm-4.8,18h0.53v-18h-0.53v18Zm-17.21-18,12.43,18h0.5l-12.38-18h-0.55Zm12.43,0,0,18h0.46v-18h-0.5Zm-12.43,0v18h0.5l0-18h-0.46Zm-16.73,0,12.43,18h0.5l-12.38-18H303.4Zm12.43,0,0,18h0.46v-18h-0.5Zm-12.43,0v18h0.5l0-18H303.4Zm-15,10h8.16l0.22,0.48h-8.52Zm12.14,8H300l-8.09-18h0.55Zm-15.53,0,6.89-18h0.53l-6.89,18H285Zm-4.61-18h0.5l2.11,18h-0.5Zm-15.5,0-2.11,18h-0.5l2.11-18h0.5Zm16.06,0-8,18h-0.55l8-18H281Zm-16.51,0H265l8,18h-0.55Zm-30.36,0,12.43,18h0.5l-12.38-18h-0.55Zm12.43,0,0,18h0.46v-18h-0.5Zm-12.43,0v18h0.5l0-18h-0.46Zm-15,10h8.16l0.22,0.48H219Zm12.14,8h-0.55l-8.09-18h0.55Zm-15.53,0,6.89-18h0.53l-6.89,18h-0.53Zm-4.61-18h0.5l2.11,18h-0.5Zm-15.5,0-2.11,18H193l2.11-18h0.5Zm16.06,0-8,18h-0.55l8-18h0.55Zm-16.51,0h0.55l8,18h-0.55Zm-13.13,16.13c0,0.67,1.25,2,3.58,2a4.41,4.41,0,0,0,4.73-4.61c0-3.46-3.17-4.49-4.27-4.92l0,0.53c1.08,0.43,3.77,1.32,3.77,4.39a4,4,0,0,1-4.2,4.15c-1.73,0-3.58-1.46-3.58-2.09v0.5Zm7.8-15.22c0-.29-0.84-1-3.07-1-2.5,0-4.68,1.54-4.68,4.42,0,3.46,2.86,4.44,4,4.87l0-.53c-1.06-.46-3.46-1.27-3.46-4.34a3.94,3.94,0,0,1,4.15-4c1.82,0,3.07.77,3.07,1.08v-0.5Zm-18.72,15.22c0,0.67,1.25,2,3.58,2a4.41,4.41,0,0,0,4.73-4.61c0-3.46-3.17-4.49-4.27-4.92l0,0.53c1.08,0.43,3.77,1.32,3.77,4.39a4,4,0,0,1-4.2,4.15c-1.73,0-3.58-1.46-3.58-2.09v0.5Zm7.8-15.22c0-.29-0.84-1-3.07-1-2.5,0-4.68,1.54-4.68,4.42,0,3.46,2.86,4.44,4,4.87l0-.53c-1.06-.46-3.46-1.27-3.46-4.34a3.94,3.94,0,0,1,4.15-4c1.82,0,3.07.77,3.07,1.08v-0.5Zm-20.18,17.52c4.87,0,9.48-3,9.48-9.36,0-6.94-5-9.43-9.72-9.43l0,0.46c4.34,0,9.26,2.42,9.26,9,0,6.07-4.49,8.86-9,8.86v0.5Zm-0.1-18.79c-4.85,0-9.29,3-9.29,9.14,0,6.91,5.35,9.65,9.53,9.65v-0.5a8.86,8.86,0,0,1-9-9.14c0-5.88,4.44-8.69,8.76-8.69v-0.46Zm-16.94,9.84,4.18,8.52h0.72l-4.32-8.52h-0.58Zm-4.61-9.48v0.41s1.54-.14,2.54-0.14c2.28,0,5.18.67,5.18,4.1s-2.3,5.14-4.66,5.14h-2.74v0.5h2.76c2.74,0,5.14-1.78,5.14-5.71s-3.29-4.49-5.71-4.46a24.53,24.53,0,0,0-2.52.17m0,18h0.53v-18h-0.53v18Zm-3.29-.31h0.5v-7.7h-0.5v7.7Zm0.5-16.56c0-.26-1.56-1.37-5.47-1.37-5.06,0-9.72,2.66-9.72,9.17,0,7.06,6,9.36,10.34,9.36,3.29,0,4.85-.41,4.85-0.55v-0.74c0,0.41-2.3.82-4.8,0.82-3.82,0-9.86-2.14-9.86-8.88,0-6.34,4.78-8.74,9.19-8.74,3.22,0,5.47,1.15,5.47,1.54v-0.6Z"/><path class="cls-1" d="M725,407.41h0.5v-7.7H725v7.7Zm0.5-16.56c0-.26-1.56-1.37-5.47-1.37-5.06,0-9.72,2.66-9.72,9.17,0,7.06,6,9.36,10.34,9.36,3.29,0,4.85-.41,4.85-0.55v-0.74c0,0.41-2.3.82-4.8,0.82-3.82,0-9.86-2.14-9.86-8.88,0-6.34,4.78-8.74,9.19-8.74,3.22,0,5.47,1.15,5.47,1.54v-0.6Zm-30.89-1.13,12.43,18h0.5l-12.38-18H694.6Zm12.43,0,0,18h0.46v-18H707Zm-12.43,0v18h0.5l0-18H694.6Zm-4.8,18h0.53v-18H689.8v18Zm-4.1-.31h0.5v-7.7h-0.5v7.7Zm0.5-16.56c0-.26-1.56-1.37-5.47-1.37-5.06,0-9.72,2.66-9.72,9.17,0,7.06,6,9.36,10.34,9.36,3.29,0,4.85-.41,4.85-0.55v-0.74c0,0.41-2.3.82-4.8,0.82-3.82,0-9.86-2.14-9.86-8.88,0-6.34,4.78-8.74,9.19-8.74,3.22,0,5.47,1.15,5.47,1.54v-0.6Zm-17.78,16.56h0.5v-7.7h-0.5v7.7Zm0.5-16.56c0-.26-1.56-1.37-5.47-1.37-5.06,0-9.72,2.66-9.72,9.17,0,7.06,6,9.36,10.34,9.36,3.29,0,4.85-.41,4.85-0.55v-0.74c0,0.41-2.3.82-4.8,0.82-3.82,0-9.86-2.14-9.86-8.88,0-6.34,4.78-8.74,9.19-8.74,3.22,0,5.47,1.15,5.47,1.54v-0.6Zm-29.14,8.9h8.16l0.22,0.48h-8.52Zm12.14,8h-0.55l-8.09-18h0.55Zm-15.53,0,6.89-18h0.53l-6.89,18H636.4Zm-10.63-9.84,0,0.43s1.1,0,2.11,0c1.78,0,5.66.36,5.66,4,0,4-4.15,5-5.69,5s-2,0-2,0v0.5a19.2,19.2,0,0,0,1.92,0c2,0,6.31-1,6.31-5.5,0-4-3.91-4.42-6.19-4.42-1.44,0-2,0-2,0m0-8.16v0.5s1.32-.12,2.18-0.12c1.94,0,4.44.41,4.44,3.41,0,3.38-3.38,4.3-5.52,4.3-0.67,0-1.1,0-1.1,0v0.34l1.44,0c2,0,5.74-.89,5.74-4.63,0-3.36-3-3.89-5-3.86-1,0-2.16.12-2.16,0.12m-0.14,18h0.48v-18h-0.48v18Zm-23.45-1.87c0,0.67,1.25,2,3.58,2a4.41,4.41,0,0,0,4.73-4.61c0-3.46-3.17-4.49-4.27-4.92l0,0.53c1.08,0.43,3.77,1.32,3.77,4.39a4,4,0,0,1-4.2,4.15c-1.73,0-3.58-1.46-3.58-2.09v0.5Zm7.8-15.22c0-.29-0.84-1-3.07-1-2.5,0-4.68,1.54-4.68,4.42,0,3.46,2.86,4.44,4,4.87l0-.53c-1.06-.46-3.46-1.27-3.46-4.34a3.94,3.94,0,0,1,4.15-4c1.82,0,3.07.77,3.07,1.08v-0.5Zm-20.42-.38h11v-0.53h-11v0.53Zm5.21,17.47h0.53v-18h-0.53v18Zm-16.49.43c4.87,0,9.48-3,9.48-9.36,0-6.94-5-9.43-9.72-9.43l0,0.46c4.34,0,9.26,2.42,9.26,9,0,6.07-4.49,8.86-9,8.86v0.5Zm-0.1-18.79c-4.85,0-9.29,3-9.29,9.14,0,6.91,5.35,9.65,9.53,9.65v-0.5a8.86,8.86,0,0,1-9-9.14c0-5.88,4.44-8.69,8.76-8.69v-0.46Zm-20.52,8.52,0,0.43s1.1,0,2.11,0c1.78,0,5.66.36,5.66,4,0,4-4.15,5-5.69,5s-2,0-2,0v0.5a19.2,19.2,0,0,0,1.92,0c2,0,6.31-1,6.31-5.5,0-4-3.91-4.42-6.19-4.42-1.44,0-2,0-2,0m0-8.16v0.5s1.32-.12,2.18-0.12c1.94,0,4.44.41,4.44,3.41,0,3.38-3.38,4.3-5.52,4.3-0.67,0-1.1,0-1.1,0v0.34l1.44,0c2,0,5.74-.89,5.74-4.63,0-3.36-3-3.89-5-3.86-1,0-2.16.12-2.16,0.12m-0.14,18h0.48v-18h-0.48v18Zm-12.91.43c4.87,0,9.48-3,9.48-9.36,0-6.94-5-9.43-9.72-9.43l0,0.46c4.34,0,9.26,2.42,9.26,9,0,6.07-4.49,8.86-9,8.86v0.5Zm-0.1-18.79c-4.85,0-9.29,3-9.29,9.14,0,6.91,5.35,9.65,9.53,9.65v-0.5a8.86,8.86,0,0,1-9-9.14c0-5.88,4.44-8.69,8.76-8.69v-0.46Zm-16.94,9.84,4.18,8.52h0.72L528,399.2h-0.58Zm-4.61-9.48v0.41s1.54-.14,2.54-0.14c2.28,0,5.18.67,5.18,4.1s-2.3,5.14-4.66,5.14h-2.74v0.5H526c2.74,0,5.14-1.78,5.14-5.71s-3.29-4.49-5.71-4.46a24.53,24.53,0,0,0-2.52.17m0,18h0.53v-18h-0.53v18Zm-19.75-8.52,4.18,8.52H508l-4.32-8.52h-0.58Zm-4.61-9.48v0.41S500,390,501,390c2.28,0,5.18.67,5.18,4.1s-2.3,5.14-4.66,5.14h-2.74v0.5h2.76c2.74,0,5.14-1.78,5.14-5.71s-3.29-4.49-5.71-4.46a24.53,24.53,0,0,0-2.52.17m0,18H499v-18H498.5v18Zm-11.52,0h8.28v-0.5H487v0.5Zm0-9.24h7.51V398H487v0.5Zm0-8.26h8.16v-0.5H487v0.5Zm-0.1,17.5h0.53v-18h-0.53v18Zm-1.87-18-8.26,18H476.2l8.26-18H485Zm-17.09,0h0.55l8.26,18h-0.55Zm-10.63,18h8.28v-0.5h-8.28v0.5Zm0-9.24h7.51V398h-7.51v0.5Zm0-8.26h8.16v-0.5h-8.16v0.5Zm-0.1,17.5h0.53v-18h-0.53v18Zm-10.85,0h8.28v-0.5h-8.28v0.5Zm-0.07,0h0.53v-18h-0.53v18Zm-2.78-16.87c0-.26-1.56-1.37-5.78-1.37-4.66,0-9.53,2.57-9.53,9.17,0,7.06,5.69,9.36,9.65,9.36s5.9-1.18,5.9-1.32v-0.74c0,0.41-2.42,1.58-5.86,1.58s-9.17-2.14-9.17-8.88c0-6.31,5-8.74,8.86-8.74,3.67,0,5.93,1.15,5.93,1.54v-0.6ZM409,399.2l4.18,8.52h0.72l-4.32-8.52H409Zm-4.61-9.48v0.41s1.54-.14,2.54-0.14c2.28,0,5.18.67,5.18,4.1s-2.3,5.14-4.66,5.14h-2.74v0.5h2.76c2.74,0,5.14-1.78,5.14-5.71s-3.29-4.49-5.71-4.46a24.53,24.53,0,0,0-2.52.17m0,18h0.53v-18h-0.53v18Zm-11.52,0h8.28v-0.5h-8.28v0.5Zm0-9.24h7.51V398h-7.51v0.5Zm0-8.26H401v-0.5h-8.16v0.5Zm-0.1,17.5h0.53v-18h-0.53v18Zm-11.28-18v0.41S383,390,384,390c2.28,0,5.42,1,5.42,4.51a5.06,5.06,0,0,1-5.16,5.23c-1.42,0-1.56-.29-1.56-0.29v0.5s0.12,0.29,1.58.29a5.45,5.45,0,0,0,5.64-5.81c0-3.91-3.53-4.9-6-4.87a24.53,24.53,0,0,0-2.52.17m0,18H382v-18h-0.53v18Zm-11.71-18v0.41s1.54-.14,2.54-0.14c2.28,0,5.42,1,5.42,4.51a5.06,5.06,0,0,1-5.16,5.23c-1.42,0-1.56-.29-1.56-0.29v0.5s0.12,0.29,1.58.29a5.45,5.45,0,0,0,5.64-5.81c0-3.91-3.53-4.9-6-4.87a24.53,24.53,0,0,0-2.52.17m0,18h0.53v-18h-0.53v18Zm-12.67.43c4.87,0,9.48-3,9.48-9.36,0-6.94-5-9.43-9.72-9.43l0,0.46c4.34,0,9.26,2.42,9.26,9,0,6.07-4.49,8.86-9,8.86v0.5ZM357,389.36c-4.85,0-9.29,3-9.29,9.14,0,6.91,5.35,9.65,9.53,9.65v-0.5a8.86,8.86,0,0,1-9-9.14c0-5.88,4.44-8.69,8.76-8.69v-0.46Zm-20.42,18.36h8.28v-0.5h-8.28v0.5Zm-0.07,0H337v-18h-0.53v18Zm-14.93-.31h0.5v-7.7h-0.5v7.7Zm0.5-16.56c0-.26-1.56-1.37-5.47-1.37-5.06,0-9.72,2.66-9.72,9.17,0,7.06,6,9.36,10.34,9.36,3.29,0,4.85-.41,4.85-0.55v-0.74c0,0.41-2.3.82-4.8,0.82-3.82,0-9.86-2.14-9.86-8.88,0-6.34,4.78-8.74,9.19-8.74,3.22,0,5.47,1.15,5.47,1.54v-0.6Zm-30.89-1.13,12.43,18h0.5l-12.38-18h-0.55Zm12.43,0,0,18h0.46v-18h-0.5Zm-12.43,0v18h0.5l0-18h-0.46Zm-4.8,18h0.53v-18h-0.53v18Zm-3.07-18-8.26,18h-0.55l8.26-18h0.55Zm-17.09,0h0.55l8.26,18h-0.55Zm-11.74,18.43c4.87,0,9.48-3,9.48-9.36,0-6.94-5-9.43-9.72-9.43l0,0.46c4.34,0,9.26,2.42,9.26,9,0,6.07-4.49,8.86-9,8.86v0.5Zm-0.1-18.79c-4.85,0-9.29,3-9.29,9.14,0,6.91,5.35,9.65,9.53,9.65v-0.5a8.86,8.86,0,0,1-9-9.14c0-5.88,4.44-8.69,8.76-8.69v-0.46Zm-16.94,9.84,4.18,8.52h0.72L238,399.2h-0.58Zm-4.61-9.48v0.41s1.54-.14,2.54-0.14c2.28,0,5.18.67,5.18,4.1s-2.3,5.14-4.66,5.14h-2.74v0.5h2.76c2.74,0,5.14-1.78,5.14-5.71s-3.29-4.49-5.71-4.46a24.53,24.53,0,0,0-2.52.17m0,18h0.53v-18h-0.53v18Zm-15.29-.31H218v-7.7h-0.5v7.7Zm0.5-16.56c0-.26-1.56-1.37-5.47-1.37-5.06,0-9.72,2.66-9.72,9.17,0,7.06,6,9.36,10.34,9.36,3.29,0,4.85-.41,4.85-0.55v-0.74c0,0.41-2.3.82-4.8,0.82-3.82,0-9.86-2.14-9.86-8.88,0-6.34,4.78-8.74,9.19-8.74,3.22,0,5.47,1.15,5.47,1.54v-0.6Zm-30.89-1.13,12.43,18h0.5l-12.38-18h-0.55Zm12.43,0,0,18h0.46v-18h-0.5Zm-12.43,0v18h0.5l0-18h-0.46Zm-4.8,18h0.53v-18h-0.53v18Zm-12-1.87c0,0.67,1.25,2,3.58,2a4.41,4.41,0,0,0,4.73-4.61c0-3.46-3.17-4.49-4.27-4.92l0,0.53c1.08,0.43,3.77,1.32,3.77,4.39a4,4,0,0,1-4.2,4.15c-1.73,0-3.58-1.46-3.58-2.09v0.5Zm7.8-15.22c0-.29-0.84-1-3.07-1-2.5,0-4.68,1.54-4.68,4.42,0,3.46,2.86,4.44,4,4.87l0-.53c-1.06-.46-3.46-1.27-3.46-4.34a3.94,3.94,0,0,1,4.15-4c1.82,0,3.07.77,3.07,1.08v-0.5ZM158,408.16c4.87,0,9.48-3,9.48-9.36,0-6.94-5-9.43-9.72-9.43l0,0.46c4.34,0,9.26,2.42,9.26,9,0,6.07-4.49,8.86-9,8.86v0.5Zm-0.1-18.79c-4.85,0-9.29,3-9.29,9.14,0,6.91,5.35,9.65,9.53,9.65v-0.5a8.86,8.86,0,0,1-9-9.14c0-5.88,4.44-8.69,8.76-8.69v-0.46Zm-20.42,18.36h8.28v-0.5h-8.28v0.5Zm-0.07,0h0.53v-18H137.4v18Zm-2.78-16.87c0-.26-1.56-1.37-5.78-1.37-4.66,0-9.53,2.57-9.53,9.17,0,7.06,5.69,9.36,9.65,9.36s5.9-1.18,5.9-1.32v-0.74c0,0.41-2.42,1.58-5.86,1.58s-9.17-2.14-9.17-8.88c0-6.31,5-8.74,8.86-8.74,3.67,0,5.93,1.15,5.93,1.54v-0.6Z"/><path class="cls-1" d="M687.13,378.85c0,0.67,1.25,2,3.58,2a4.41,4.41,0,0,0,4.73-4.61c0-3.46-3.17-4.49-4.27-4.92l0,0.53c1.08,0.43,3.77,1.32,3.77,4.39a4,4,0,0,1-4.2,4.15c-1.73,0-3.58-1.46-3.58-2.09v0.5Zm7.8-15.22c0-.29-0.84-1-3.07-1-2.5,0-4.68,1.54-4.68,4.42,0,3.46,2.86,4.44,4,4.87l0-.53c-1.06-.46-3.46-1.27-3.46-4.34a3.94,3.94,0,0,1,4.15-4c1.82,0,3.07.77,3.07,1.08v-0.5Zm-10.85,16.78h0.5v-7.7h-0.5v7.7Zm0.5-16.56c0-.26-1.56-1.37-5.47-1.37-5.06,0-9.72,2.66-9.72,9.17,0,7.06,6,9.36,10.34,9.36,3.29,0,4.85-.41,4.85-0.55v-0.74c0,0.41-2.3.82-4.8,0.82-3.82,0-9.86-2.14-9.86-8.88,0-6.34,4.78-8.74,9.19-8.74,3.22,0,5.47,1.15,5.47,1.54v-0.6Zm-30.89-1.13,12.43,18h0.5l-12.38-18H653.7Zm12.43,0,0,18h0.46v-18h-0.5Zm-12.43,0v18h0.5l0-18H653.7Zm-4.8,18h0.53v-18H648.9v18Zm-17.21-18,12.43,18h0.5l-12.38-18H631.7Zm12.43,0,0,18h0.46v-18h-0.5Zm-12.43,0v18h0.5l0-18H631.7Zm-16.73,0,12.43,18h0.5l-12.38-18H615Zm12.43,0,0,18h0.46v-18h-0.5Zm-12.43,0v18h0.5l0-18H615Zm-15,10h8.16l0.22,0.48h-8.52Zm12.14,8h-0.55l-8.09-18H604Zm-15.53,0,6.89-18H604l-6.89,18h-0.53Zm-4.61-18h0.5l2.11,18h-0.5Zm-15.5,0-2.11,18h-0.5l2.11-18h0.5Zm16.06,0-8,18H584l8-18h0.55Zm-16.51,0h0.55l8,18H584Zm-30.36,0,12.43,18h0.5l-12.38-18h-0.55Zm12.43,0,0,18h0.46v-18h-0.5Zm-12.43,0v18h0.5l0-18h-0.46Zm-15,10h8.16l0.22,0.48h-8.52Zm12.14,8H542.3l-8.09-18h0.55Zm-15.53,0,6.89-18h0.53l-6.89,18h-0.53Zm-4.61-18h0.5l2.11,18h-0.5Zm-15.5,0-2.11,18h-0.5l2.11-18h0.5Zm16.06,0-8,18h-0.55l8-18h0.55Zm-16.51,0h0.55l8,18h-0.55Zm-13.13,16.13c0,0.67,1.25,2,3.58,2a4.41,4.41,0,0,0,4.73-4.61c0-3.46-3.17-4.49-4.27-4.92l0,0.53c1.08,0.43,3.77,1.32,3.77,4.39a4,4,0,0,1-4.2,4.15c-1.73,0-3.58-1.46-3.58-2.09v0.5Zm7.8-15.22c0-.29-0.84-1-3.07-1-2.5,0-4.68,1.54-4.68,4.42,0,3.46,2.86,4.44,4,4.87l0-.53c-1.06-.46-3.46-1.27-3.46-4.34a3.94,3.94,0,0,1,4.15-4c1.82,0,3.07.77,3.07,1.08v-0.5Zm-18.72,15.22c0,0.67,1.25,2,3.58,2a4.41,4.41,0,0,0,4.73-4.61c0-3.46-3.17-4.49-4.27-4.92l0,0.53c1.08,0.43,3.77,1.32,3.77,4.39a4,4,0,0,1-4.2,4.15c-1.73,0-3.58-1.46-3.58-2.09v0.5Zm7.8-15.22c0-.29-0.84-1-3.07-1-2.5,0-4.68,1.54-4.68,4.42,0,3.46,2.86,4.44,4,4.87l0-.53c-1.06-.46-3.46-1.27-3.46-4.34a3.94,3.94,0,0,1,4.15-4c1.82,0,3.07.77,3.07,1.08v-0.5Zm-20.18,17.52c4.87,0,9.48-3,9.48-9.36,0-6.94-5-9.43-9.72-9.43l0,0.46c4.35,0,9.26,2.42,9.26,9,0,6.07-4.49,8.86-9,8.86v0.5Zm-0.1-18.79c-4.85,0-9.29,3-9.29,9.14,0,6.91,5.35,9.65,9.53,9.65v-0.5a8.86,8.86,0,0,1-9-9.14c0-5.88,4.44-8.69,8.76-8.69v-0.46Zm-16.94,9.84,4.18,8.52h0.72l-4.32-8.52h-0.58Zm-4.61-9.48v0.41s1.54-.14,2.54-0.14c2.28,0,5.18.67,5.18,4.1s-2.3,5.14-4.66,5.14H449v0.5h2.76c2.74,0,5.14-1.78,5.14-5.71s-3.29-4.49-5.71-4.46a24.53,24.53,0,0,0-2.52.17m0,18h0.53v-18h-0.53v18Zm-3.29-.31h0.5v-7.7h-0.5v7.7Zm0.5-16.56c0-.26-1.56-1.37-5.47-1.37-5.06,0-9.72,2.66-9.72,9.17,0,7.06,6,9.36,10.34,9.36,3.29,0,4.85-.41,4.85-0.55v-0.74c0,0.41-2.3.82-4.8,0.82-3.82,0-9.86-2.14-9.86-8.88,0-6.34,4.78-8.74,9.19-8.74,3.22,0,5.47,1.15,5.47,1.54v-0.6Zm-29.78,16.56h0.5v-7.7h-0.5v7.7Zm0.5-16.56c0-.26-1.56-1.37-5.47-1.37-5.06,0-9.72,2.66-9.72,9.17,0,7.06,6,9.36,10.34,9.36,3.29,0,4.85-.41,4.85-0.55v-0.74c0,0.41-2.3.82-4.8,0.82-3.82,0-9.86-2.14-9.86-8.88,0-6.34,4.78-8.74,9.19-8.74,3.22,0,5.47,1.15,5.47,1.54v-0.6Zm-30.89-1.13,12.43,18h0.5l-12.38-18h-0.55Zm12.43,0,0,18h0.46v-18h-0.5Zm-12.43,0v18h0.5l0-18h-0.46Zm-4.8,18h0.53v-18h-0.53v18Zm-4.1-.31h0.5v-7.7h-0.5v7.7Zm0.5-16.56c0-.26-1.56-1.37-5.47-1.37-5.06,0-9.72,2.66-9.72,9.17,0,7.06,6,9.36,10.34,9.36,3.29,0,4.85-.41,4.85-0.55v-0.74c0,0.41-2.3.82-4.8,0.82-3.82,0-9.86-2.14-9.86-8.88,0-6.34,4.78-8.74,9.19-8.74,3.22,0,5.47,1.15,5.47,1.54v-0.6Zm-17.78,16.56H360v-7.7h-0.5v7.7Zm0.5-16.56c0-.26-1.56-1.37-5.47-1.37-5.06,0-9.72,2.66-9.72,9.17,0,7.06,6,9.36,10.34,9.36,3.29,0,4.85-.41,4.85-0.55v-0.74c0,0.41-2.3.82-4.8,0.82-3.82,0-9.86-2.14-9.86-8.88,0-6.34,4.78-8.74,9.19-8.74,3.22,0,5.47,1.15,5.47,1.54v-0.6Zm-29.14,8.9h8.16l0.22,0.48h-8.52Zm12.14,8H342.5l-8.09-18H335Zm-15.53,0,6.89-18h0.53l-6.89,18h-0.53Zm-10.63-9.84,0,0.43s1.1,0,2.11,0c1.78,0,5.66.36,5.66,4,0,4-4.15,5-5.69,5s-2,0-2,0v0.5a19.2,19.2,0,0,0,1.92,0c2,0,6.31-1,6.31-5.5,0-4-3.91-4.42-6.19-4.42-1.44,0-2,0-2,0m0-8.16v0.5s1.32-.12,2.18-0.12c1.94,0,4.44.41,4.44,3.41,0,3.38-3.38,4.3-5.52,4.3-0.67,0-1.1,0-1.1,0v0.34l1.44,0c2,0,5.74-.89,5.74-4.63,0-3.36-3-3.89-5-3.86-1,0-2.16.12-2.16,0.12m-0.14,18h0.48v-18H316.7v18Zm-23.45-1.87c0,0.67,1.25,2,3.58,2a4.41,4.41,0,0,0,4.73-4.61c0-3.46-3.17-4.49-4.27-4.92l0,0.53c1.08,0.43,3.77,1.32,3.77,4.39a4,4,0,0,1-4.2,4.15c-1.73,0-3.58-1.46-3.58-2.09v0.5Zm7.8-15.22c0-.29-0.84-1-3.07-1-2.5,0-4.68,1.54-4.68,4.42,0,3.46,2.86,4.44,4,4.87l0-.53c-1.06-.46-3.46-1.27-3.46-4.34a3.94,3.94,0,0,1,4.15-4c1.82,0,3.07.77,3.07,1.08v-0.5Zm-20.42-.38h11v-0.53h-11v0.53Zm5.21,17.47h0.53v-18h-0.53v18Zm-16.49.43c4.87,0,9.48-3,9.48-9.36,0-6.94-5-9.43-9.72-9.43l0,0.46c4.34,0,9.26,2.42,9.26,9,0,6.07-4.49,8.86-9,8.86v0.5Zm-0.1-18.79c-4.85,0-9.29,3-9.29,9.14,0,6.91,5.35,9.65,9.53,9.65v-0.5a8.86,8.86,0,0,1-9-9.14c0-5.88,4.44-8.69,8.76-8.69v-0.46Zm-20.52,8.52,0,0.43s1.1,0,2.11,0c1.78,0,5.66.36,5.66,4,0,4-4.15,5-5.69,5s-2,0-2,0v0.5a19.2,19.2,0,0,0,1.92,0c2,0,6.31-1,6.31-5.5,0-4-3.91-4.42-6.19-4.42-1.44,0-2,0-2,0m0-8.16v0.5s1.32-.12,2.18-0.12c1.94,0,4.44.41,4.44,3.41,0,3.38-3.38,4.3-5.52,4.3-0.67,0-1.1,0-1.1,0v0.34l1.44,0c2,0,5.74-.89,5.74-4.63,0-3.36-3-3.89-5-3.86-1,0-2.16.12-2.16,0.12m-0.14,18H249v-18h-0.48v18Zm-12.91.43c4.87,0,9.48-3,9.48-9.36,0-6.94-5-9.43-9.72-9.43l0,0.46c4.34,0,9.26,2.42,9.26,9,0,6.07-4.49,8.86-9,8.86v0.5Zm-0.1-18.79c-4.85,0-9.29,3-9.29,9.14,0,6.91,5.35,9.65,9.53,9.65v-0.5a8.86,8.86,0,0,1-9-9.14c0-5.88,4.44-8.69,8.76-8.69v-0.46Zm-16.94,9.84,4.18,8.52h0.72l-4.32-8.52h-0.58ZM214,362.72v0.41s1.54-.14,2.54-0.14c2.28,0,5.18.67,5.18,4.1s-2.3,5.14-4.66,5.14h-2.74v0.5h2.76c2.74,0,5.14-1.78,5.14-5.71s-3.29-4.49-5.71-4.46a24.53,24.53,0,0,0-2.52.17m0,18h0.53v-18H214v18Zm-19.75-8.52,4.18,8.52h0.72l-4.32-8.52h-0.58Zm-4.61-9.48v0.41s1.54-.14,2.54-0.14c2.28,0,5.18.67,5.18,4.1s-2.3,5.14-4.66,5.14H190v0.5h2.76c2.74,0,5.14-1.78,5.14-5.71s-3.29-4.49-5.71-4.46a24.53,24.53,0,0,0-2.52.17m0,18h0.53v-18h-0.53v18Zm-11.52,0h8.28v-0.5H178.1v0.5Zm0-9.24h7.51V371H178.1v0.5Zm0-8.26h8.16v-0.5H178.1v0.5Zm-0.1,17.5h0.53v-18H178v18Zm-1.87-18-8.26,18h-0.55l8.26-18h0.55Zm-17.09,0h0.55l8.26,18H167.3Zm-10.63,18h8.28v-0.5h-8.28v0.5Zm0-9.24h7.51V371h-7.51v0.5Zm0-8.26h8.16v-0.5h-8.16v0.5Zm-0.1,17.5h0.53v-18h-0.53v18Zm-10.85,0h8.28v-0.5h-8.28v0.5Zm-0.07,0h0.53v-18H137.4v18Zm-2.78-16.87c0-.26-1.56-1.37-5.78-1.37-4.66,0-9.53,2.57-9.53,9.17,0,7.06,5.69,9.36,9.65,9.36s5.9-1.18,5.9-1.32v-0.74c0,0.41-2.42,1.58-5.86,1.58s-9.17-2.14-9.17-8.88c0-6.31,5-8.74,8.86-8.74,3.67,0,5.93,1.15,5.93,1.54v-0.6Z"/><path class="cls-1" d="M761.44,526.6h0.29v-4.49h-0.29v4.49Zm0.29-9.66c0-.15-0.91-0.8-3.19-0.8-3,0-5.67,1.55-5.67,5.35,0,4.12,3.47,5.46,6,5.46a6.84,6.84,0,0,0,2.83-.32V526.2c0,0.24-1.34.48-2.8,0.48-2.23,0-5.75-1.25-5.75-5.18,0-3.7,2.79-5.1,5.36-5.1,1.88,0,3.19.67,3.19,0.9v-0.35Zm-18-.66,7.25,10.5h0.29L744,516.28h-0.32Zm7.25,0,0,10.5h0.27v-10.5H751Zm-7.25,0v10.5H744l0-10.5h-0.27Zm-2.8,10.5h0.31v-10.5h-0.31v10.5Zm-1.79-10.5-4.82,10.51H734l4.82-10.51h0.32Zm-10,0h0.32l4.82,10.51H734ZM722.31,527a5.19,5.19,0,0,0,5.53-5.46c0-4-2.91-5.5-5.67-5.5v0.27c2.53,0,5.4,1.41,5.4,5.24a5,5,0,0,1-5.25,5.17V527Zm-0.06-11a5.09,5.09,0,0,0-5.42,5.33A5.39,5.39,0,0,0,722.4,527v-0.29a5.17,5.17,0,0,1-5.25-5.33,4.88,4.88,0,0,1,5.11-5.07v-0.27Zm-9.88,5.74,2.44,5h0.42l-2.52-5h-0.34Zm-2.69-5.53v0.24s0.9-.08,1.48-0.08c1.33,0,3,.39,3,2.39a2.72,2.72,0,0,1-2.72,3h-1.6v0.29h1.61c1.6,0,3-1,3-3.33s-1.92-2.62-3.33-2.6a14.31,14.31,0,0,0-1.47.1m0,10.5H710v-10.5h-0.31v10.5Zm-8.92-.18h0.29v-4.49h-0.29v4.49Zm0.29-9.66c0-.15-0.91-0.8-3.19-0.8-3,0-5.67,1.55-5.67,5.35,0,4.12,3.47,5.46,6,5.46a6.84,6.84,0,0,0,2.83-.32V526.2c0,0.24-1.34.48-2.8,0.48-2.23,0-5.75-1.25-5.75-5.18,0-3.7,2.79-5.1,5.36-5.1,1.88,0,3.19.67,3.19,0.9v-0.35Zm-18-.66,7.25,10.5h0.29l-7.22-10.5H683Zm7.25,0,0,10.5h0.27v-10.5H690.3Zm-7.25,0v10.5h0.29l0-10.5H683Zm-2.8,10.5h0.31v-10.5h-0.31v10.5Zm-7-1.09c0,0.39.73,1.19,2.09,1.19a2.57,2.57,0,0,0,2.76-2.69c0-2-1.85-2.62-2.49-2.87v0.31a2.78,2.78,0,0,1,2.2,2.56,2.34,2.34,0,0,1-2.45,2.42,2.42,2.42,0,0,1-2.09-1.22v0.29Zm4.55-8.88c0-.17-0.49-0.6-1.79-0.6a2.53,2.53,0,0,0-2.73,2.58,3,3,0,0,0,2.31,2.84v-0.31a2.64,2.64,0,0,1-2-2.53,2.3,2.3,0,0,1,2.42-2.31,2.1,2.1,0,0,1,1.79.63v-0.29ZM666,527a5.19,5.19,0,0,0,5.53-5.46c0-4-2.91-5.5-5.67-5.5v0.27c2.53,0,5.4,1.41,5.4,5.24a5,5,0,0,1-5.25,5.17V527Zm-0.06-11a5.09,5.09,0,0,0-5.42,5.33,5.39,5.39,0,0,0,5.56,5.63v-0.29a5.17,5.17,0,0,1-5.25-5.33,4.88,4.88,0,0,1,5.11-5.07v-0.27Zm-11.91,10.71h4.83v-0.29h-4.83v0.29Zm0,0h0.31v-10.5H654v10.5Zm-1.62-9.84c0-.15-0.91-0.8-3.37-0.8-2.72,0-5.56,1.5-5.56,5.35,0,4.12,3.32,5.46,5.63,5.46s3.44-.69,3.44-0.77v-0.43c0,0.24-1.41.92-3.42,0.92a5.13,5.13,0,0,1-5.35-5.18,4.93,4.93,0,0,1,5.17-5.1c2.14,0,3.46.67,3.46,0.9v-0.35Zm-22.13,8.75c0,0.39.73,1.19,2.09,1.19a2.57,2.57,0,0,0,2.76-2.69c0-2-1.85-2.62-2.49-2.87v0.31a2.78,2.78,0,0,1,2.2,2.56,2.34,2.34,0,0,1-2.45,2.42,2.42,2.42,0,0,1-2.09-1.22v0.29Zm4.55-8.88c0-.17-0.49-0.6-1.79-0.6a2.53,2.53,0,0,0-2.73,2.58,3,3,0,0,0,2.31,2.84v-0.31a2.64,2.64,0,0,1-2-2.53,2.3,2.3,0,0,1,2.42-2.31,2.1,2.1,0,0,1,1.79.63v-0.29Zm-6.33,9.79h0.29v-4.49h-0.29v4.49Zm0.29-9.66c0-.15-0.91-0.8-3.19-0.8-3,0-5.67,1.55-5.67,5.35,0,4.12,3.47,5.46,6,5.46a6.84,6.84,0,0,0,2.83-.32V526.2c0,0.24-1.34.48-2.8,0.48-2.23,0-5.75-1.25-5.75-5.18,0-3.7,2.79-5.1,5.36-5.1,1.88,0,3.19.67,3.19,0.9v-0.35Zm-18-.66,7.25,10.5h0.29l-7.22-10.5h-0.32Zm7.25,0,0,10.5h0.27v-10.5H618Zm-7.25,0v10.5h0.29l0-10.5h-0.27Zm-2.8,10.5h0.31v-10.5H608v10.5Zm-10-10.5,7.25,10.5h0.29l-7.22-10.5h-0.32Zm7.25,0,0,10.5h0.27v-10.5h-0.29Zm-7.25,0v10.5h0.29l0-10.5h-0.27Zm-9.76,0,7.25,10.5h0.29l-7.22-10.5h-0.32Zm7.25,0,0,10.5h0.27v-10.5h-0.29Zm-7.25,0v10.5h0.29l0-10.5h-0.27Zm-8.74,5.85h4.76l0.13,0.28h-5Zm7.08,4.65h-0.32l-4.72-10.5h0.32Zm-9.06,0,4-10.5h0.31l-4,10.5h-0.31Zm-2.69-10.5h0.29l1.23,10.51H576Zm-9,0-1.23,10.51H564.2l1.23-10.51h0.29Zm9.37,0-4.65,10.51h-0.32l4.65-10.51h0.32Zm-9.63,0h0.32l4.65,10.51h-0.32Zm-17.71,0,7.25,10.5h0.29l-7.22-10.5h-0.32Zm7.25,0,0,10.5h0.27v-10.5H555Zm-7.25,0v10.5H548l0-10.5h-0.27ZM539,522.14h4.76l0.13,0.28h-5Zm7.08,4.65h-0.32l-4.72-10.5h0.32Zm-9.06,0,4-10.5h0.31l-4,10.5H537Zm-2.69-10.5h0.29l1.23,10.51h-0.29Zm-9,0-1.23,10.51h-0.29L525,516.28h0.29Zm9.37,0L530,526.8h-0.32l4.65-10.51h0.32Zm-9.63,0h0.32L530,526.8h-0.32Zm-7.66,9.41c0,0.39.73,1.19,2.09,1.19a2.57,2.57,0,0,0,2.76-2.69c0-2-1.85-2.62-2.49-2.87v0.31a2.78,2.78,0,0,1,2.2,2.56,2.34,2.34,0,0,1-2.45,2.42,2.42,2.42,0,0,1-2.09-1.22v0.29Zm4.55-8.88c0-.17-0.49-0.6-1.79-0.6a2.53,2.53,0,0,0-2.73,2.58,3,3,0,0,0,2.31,2.84v-0.31a2.64,2.64,0,0,1-2-2.53,2.3,2.3,0,0,1,2.42-2.31,2.1,2.1,0,0,1,1.79.63v-0.29ZM511,525.69c0,0.39.73,1.19,2.09,1.19a2.57,2.57,0,0,0,2.76-2.69c0-2-1.85-2.62-2.49-2.87v0.31a2.78,2.78,0,0,1,2.2,2.56,2.34,2.34,0,0,1-2.45,2.42A2.42,2.42,0,0,1,511,525.4v0.29Zm4.55-8.88c0-.17-0.49-0.6-1.79-0.6a2.53,2.53,0,0,0-2.73,2.58,3,3,0,0,0,2.31,2.84v-0.31a2.64,2.64,0,0,1-2-2.53,2.3,2.3,0,0,1,2.42-2.31,2.1,2.1,0,0,1,1.79.63v-0.29ZM503.79,527a5.19,5.19,0,0,0,5.53-5.46c0-4-2.91-5.5-5.67-5.5v0.27c2.53,0,5.4,1.41,5.4,5.24a5,5,0,0,1-5.25,5.17V527Zm-0.06-11a5.09,5.09,0,0,0-5.42,5.33,5.39,5.39,0,0,0,5.56,5.63v-0.29a5.17,5.17,0,0,1-5.25-5.33,4.88,4.88,0,0,1,5.11-5.07v-0.27Zm-9.88,5.74,2.44,5h0.42l-2.52-5h-0.34Zm-2.69-5.53v0.24s0.9-.08,1.48-0.08c1.33,0,3,.39,3,2.39a2.72,2.72,0,0,1-2.72,3h-1.6v0.29H493c1.6,0,3-1,3-3.33s-1.92-2.62-3.33-2.6a14.31,14.31,0,0,0-1.47.1m0,10.5h0.31v-10.5h-0.31v10.5Zm-1.92-.18h0.29v-4.49h-0.29v4.49Zm0.29-9.66c0-.15-0.91-0.8-3.19-0.8-3,0-5.67,1.55-5.67,5.35,0,4.12,3.47,5.46,6,5.46a6.84,6.84,0,0,0,2.83-.32V526.2c0,0.24-1.34.48-2.8,0.48-2.23,0-5.75-1.25-5.75-5.18,0-3.7,2.79-5.1,5.36-5.1,1.88,0,3.19.67,3.19,0.9v-0.35Zm-17.37,9.66h0.29v-4.49h-0.29v4.49Zm0.29-9.66c0-.15-0.91-0.8-3.19-0.8-3,0-5.67,1.55-5.67,5.35,0,4.12,3.47,5.46,6,5.46a6.84,6.84,0,0,0,2.83-.32V526.2c0,0.24-1.34.48-2.8,0.48-2.23,0-5.75-1.25-5.75-5.18,0-3.7,2.79-5.1,5.36-5.1,1.88,0,3.19.67,3.19,0.9v-0.35Zm-18-.66,7.25,10.5H462l-7.22-10.5h-0.32Zm7.25,0,0,10.5H462v-10.5h-0.29Zm-7.25,0v10.5h0.29l0-10.5h-0.27Zm-2.8,10.5H452v-10.5h-0.31v10.5Zm-2.39-.18h0.29v-4.49h-0.29v4.49Zm0.29-9.66c0-.15-0.91-0.8-3.19-0.8-3,0-5.67,1.55-5.67,5.35,0,4.12,3.47,5.46,6,5.46a6.84,6.84,0,0,0,2.83-.32V526.2c0,0.24-1.34.48-2.8,0.48-2.23,0-5.75-1.25-5.75-5.18,0-3.7,2.79-5.1,5.36-5.1,1.88,0,3.19.67,3.19,0.9v-0.35Zm-10.37,9.66h0.29v-4.49h-0.29v4.49Zm0.29-9.66c0-.15-0.91-0.8-3.19-0.8-3,0-5.67,1.55-5.67,5.35,0,4.12,3.47,5.46,6,5.46a6.84,6.84,0,0,0,2.83-.32V526.2c0,0.24-1.34.48-2.8,0.48-2.23,0-5.75-1.25-5.75-5.18,0-3.7,2.79-5.1,5.36-5.1,1.88,0,3.19.67,3.19,0.9v-0.35Zm-17,5.19h4.76l0.13,0.28h-5Zm7.08,4.65h-0.32l-4.72-10.5h0.32Zm-9.06,0,4-10.5h0.31l-4,10.5h-0.31Zm-6.2-5.74,0,0.25h1.23c1,0,3.3.21,3.3,2.32,0,2.35-2.42,2.9-3.32,2.9s-1.19,0-1.19,0v0.29a11.2,11.2,0,0,0,1.12,0c1.19,0,3.68-.59,3.68-3.21,0-2.35-2.28-2.58-3.61-2.58-0.84,0-1.19,0-1.19,0m0-4.76v0.29s0.77-.07,1.27-0.07c1.13,0,2.59.24,2.59,2,0,2-2,2.51-3.22,2.51h-0.64v0.2h0.84c1.15,0,3.35-.52,3.35-2.7,0-2-1.72-2.27-2.93-2.25-0.57,0-1.26.07-1.26,0.07m-0.08,10.5h0.28v-10.5h-0.28v10.5Zm-13.68-1.09c0,0.39.73,1.19,2.09,1.19a2.57,2.57,0,0,0,2.76-2.69c0-2-1.85-2.62-2.49-2.87v0.31a2.78,2.78,0,0,1,2.2,2.56,2.34,2.34,0,0,1-2.45,2.42,2.42,2.42,0,0,1-2.09-1.22v0.29Zm4.55-8.88c0-.17-0.49-0.6-1.79-0.6a2.53,2.53,0,0,0-2.73,2.58,3,3,0,0,0,2.31,2.84v-0.31a2.64,2.64,0,0,1-2-2.53,2.3,2.3,0,0,1,2.42-2.31,2.1,2.1,0,0,1,1.79.63v-0.29Zm-11.91-.22h6.4v-0.31h-6.4v0.31Zm3,10.19h0.31v-10.5h-0.31v10.5Zm-9.62.25a5.19,5.19,0,0,0,5.53-5.46c0-4-2.91-5.5-5.67-5.5v0.27c2.53,0,5.4,1.41,5.4,5.24a5,5,0,0,1-5.25,5.17V527Zm-0.06-11a5.09,5.09,0,0,0-5.42,5.33,5.39,5.39,0,0,0,5.56,5.63v-0.29a5.17,5.17,0,0,1-5.25-5.33,4.88,4.88,0,0,1,5.11-5.07v-0.27Zm-12,5,0,0.25h1.23c1,0,3.3.21,3.3,2.32,0,2.35-2.42,2.9-3.32,2.9s-1.19,0-1.19,0v0.29a11.2,11.2,0,0,0,1.12,0c1.19,0,3.68-.59,3.68-3.21,0-2.35-2.28-2.58-3.61-2.58-0.84,0-1.19,0-1.19,0m0-4.76v0.29s0.77-.07,1.27-0.07c1.13,0,2.59.24,2.59,2,0,2-2,2.51-3.22,2.51H374.5v0.2h0.84c1.15,0,3.35-.52,3.35-2.7,0-2-1.72-2.27-2.93-2.25-0.57,0-1.26.07-1.26,0.07m-0.08,10.5h0.28v-10.5h-0.28v10.5Zm-7.53.25a5.19,5.19,0,0,0,5.53-5.46c0-4-2.91-5.5-5.67-5.5v0.27c2.53,0,5.4,1.41,5.4,5.24a5,5,0,0,1-5.25,5.17V527Zm-0.06-11a5.09,5.09,0,0,0-5.42,5.33A5.39,5.39,0,0,0,367,527v-0.29a5.17,5.17,0,0,1-5.25-5.33,4.88,4.88,0,0,1,5.11-5.07v-0.27Zm-9.88,5.74,2.44,5h0.42l-2.52-5h-0.34Zm-2.69-5.53v0.24s0.9-.08,1.48-0.08c1.33,0,3,.39,3,2.39a2.72,2.72,0,0,1-2.72,3h-1.6v0.29h1.61c1.6,0,3-1,3-3.33s-1.92-2.62-3.33-2.6a14.31,14.31,0,0,0-1.47.1m0,10.5h0.31v-10.5h-0.31v10.5Zm-11.52-5,2.44,5h0.42l-2.52-5h-0.34ZM340,516.28v0.24s0.9-.08,1.48-0.08c1.33,0,3,.39,3,2.39a2.72,2.72,0,0,1-2.72,3h-1.6v0.29h1.61c1.6,0,3-1,3-3.33s-1.92-2.62-3.33-2.6a14.31,14.31,0,0,0-1.47.1m0,10.5h0.31v-10.5H340v10.5Zm-6.72,0h4.83v-0.29h-4.83v0.29Zm0-5.39h4.38V521.1h-4.38v0.29Zm0-4.82h4.76v-0.29h-4.76v0.29Zm-0.06,10.21h0.31v-10.5h-0.31v10.5Zm-1.09-10.5-4.82,10.51H327l4.82-10.51h0.32Zm-10,0h0.32l4.82,10.51H327Zm-6.2,10.5h4.83v-0.29H316v0.29Zm0-5.39h4.38V521.1H316v0.29Zm0-4.82h4.76v-0.29H316v0.29ZM316,526.78h0.31v-10.5H316v10.5Zm-6.33,0h4.83v-0.29h-4.83v0.29Zm0,0h0.31v-10.5h-0.31v10.5ZM308,516.94c0-.15-0.91-0.8-3.37-0.8-2.72,0-5.56,1.5-5.56,5.35,0,4.12,3.32,5.46,5.63,5.46s3.44-.69,3.44-0.77v-0.43c0,0.24-1.41.92-3.42,0.92a5.13,5.13,0,0,1-5.35-5.18,4.93,4.93,0,0,1,5.17-5.1c2.14,0,3.46.67,3.46,0.9v-0.35Zm-20.15,4.87,2.44,5h0.42l-2.52-5h-0.34Zm-2.69-5.53v0.24s0.9-.08,1.48-0.08c1.33,0,3,.39,3,2.39a2.72,2.72,0,0,1-2.72,3h-1.6v0.29h1.61c1.6,0,3-1,3-3.33s-1.92-2.62-3.33-2.6a14.31,14.31,0,0,0-1.47.1m0,10.5h0.31v-10.5h-0.31v10.5Zm-6.72,0h4.83v-0.29h-4.83v0.29Zm0-5.39h4.38V521.1h-4.38v0.29Zm0-4.82h4.76v-0.29h-4.76v0.29Zm-0.06,10.21h0.31v-10.5h-0.31v10.5Zm-6.58-10.5v0.24s0.9-.08,1.48-0.08c1.33,0,3.16.6,3.16,2.63a3,3,0,0,1-3,3.05,1.15,1.15,0,0,1-.91-0.17v0.29a1.13,1.13,0,0,0,.92.17,3.18,3.18,0,0,0,3.29-3.39c0-2.28-2.06-2.86-3.47-2.84a14.31,14.31,0,0,0-1.47.1m0,10.5h0.31v-10.5h-0.31v10.5Zm-6.83-10.5v0.24s0.9-.08,1.48-0.08c1.33,0,3.16.6,3.16,2.63a3,3,0,0,1-3,3.05,1.15,1.15,0,0,1-.91-0.17v0.29a1.13,1.13,0,0,0,.92.17,3.18,3.18,0,0,0,3.29-3.39c0-2.28-2.06-2.86-3.47-2.84a14.31,14.31,0,0,0-1.47.1m0,10.5h0.31v-10.5h-0.31v10.5Zm-7.39.25a5.19,5.19,0,0,0,5.53-5.46c0-4-2.91-5.5-5.67-5.5v0.27c2.53,0,5.4,1.41,5.4,5.24a5,5,0,0,1-5.25,5.17V527Zm-0.06-11a5.09,5.09,0,0,0-5.42,5.33,5.39,5.39,0,0,0,5.56,5.63v-0.29a5.17,5.17,0,0,1-5.25-5.33,4.88,4.88,0,0,1,5.11-5.07v-0.27Zm-11.91,10.71h4.83v-0.29h-4.83v0.29Zm0,0h0.31v-10.5h-0.31v10.5Zm-8.71-.18h0.29v-4.49h-0.29v4.49Zm0.29-9.66c0-.15-0.91-0.8-3.19-0.8-3,0-5.67,1.55-5.67,5.35,0,4.12,3.47,5.46,6,5.46a6.84,6.84,0,0,0,2.83-.32V526.2c0,0.24-1.34.48-2.8,0.48-2.23,0-5.75-1.25-5.75-5.18,0-3.7,2.79-5.1,5.36-5.1,1.88,0,3.19.67,3.19,0.9v-0.35Zm-18-.66,7.25,10.5h0.29l-7.22-10.5h-0.32Zm7.25,0,0,10.5h0.27v-10.5h-0.29Zm-7.25,0v10.5h0.29l0-10.5h-0.27Zm-2.8,10.5h0.31v-10.5h-0.31v10.5Zm-1.79-10.5L209.7,526.8h-0.32l4.82-10.51h0.32Zm-10,0h0.32l4.82,10.51h-0.32ZM197.7,527a5.19,5.19,0,0,0,5.53-5.46c0-4-2.91-5.5-5.67-5.5v0.27c2.53,0,5.4,1.41,5.4,5.24a5,5,0,0,1-5.25,5.17V527Zm-0.06-11a5.09,5.09,0,0,0-5.42,5.33,5.39,5.39,0,0,0,5.56,5.63v-0.29a5.17,5.17,0,0,1-5.25-5.33,4.88,4.88,0,0,1,5.11-5.07v-0.27Zm-9.88,5.74,2.44,5h0.42l-2.52-5h-0.34Zm-2.69-5.53v0.24s0.9-.08,1.48-0.08c1.33,0,3,.39,3,2.39a2.72,2.72,0,0,1-2.72,3h-1.6v0.29h1.61c1.6,0,3-1,3-3.33s-1.92-2.62-3.33-2.6a14.31,14.31,0,0,0-1.47.1m0,10.5h0.31v-10.5h-0.31v10.5Zm-8.92-.18h0.29v-4.49h-0.29v4.49Zm0.29-9.66c0-.15-0.91-0.8-3.19-0.8-3,0-5.67,1.55-5.67,5.35,0,4.12,3.47,5.46,6,5.46a6.84,6.84,0,0,0,2.83-.32V526.2c0,0.24-1.34.48-2.8,0.48-2.23,0-5.75-1.25-5.75-5.18,0-3.7,2.79-5.1,5.36-5.1,1.88,0,3.19.67,3.19,0.9v-0.35Zm-18-.66,7.25,10.5H166l-7.22-10.5h-0.32Zm7.25,0,0,10.5H166v-10.5h-0.29Zm-7.25,0v10.5h0.29l0-10.5h-0.27Zm-2.8,10.5h0.31v-10.5h-0.31v10.5Zm-7-1.09c0,0.39.73,1.19,2.09,1.19a2.57,2.57,0,0,0,2.76-2.69c0-2-1.85-2.62-2.49-2.87v0.31a2.78,2.78,0,0,1,2.2,2.56,2.34,2.34,0,0,1-2.45,2.42,2.42,2.42,0,0,1-2.09-1.22v0.29Zm4.55-8.88c0-.17-0.49-0.6-1.79-0.6a2.53,2.53,0,0,0-2.73,2.58,3,3,0,0,0,2.31,2.84v-0.31a2.64,2.64,0,0,1-2-2.53,2.3,2.3,0,0,1,2.42-2.31,2.1,2.1,0,0,1,1.79.63v-0.29ZM141.42,527a5.19,5.19,0,0,0,5.53-5.46c0-4-2.91-5.5-5.67-5.5v0.27c2.53,0,5.4,1.41,5.4,5.24a5,5,0,0,1-5.25,5.17V527Zm-0.06-11a5.09,5.09,0,0,0-5.42,5.33A5.39,5.39,0,0,0,141.5,527v-0.29a5.17,5.17,0,0,1-5.25-5.33,4.88,4.88,0,0,1,5.11-5.07v-0.27Zm-11.91,10.71h4.83v-0.29h-4.83v0.29Zm0,0h0.31v-10.5h-0.31v10.5Zm-1.62-9.84c0-.15-0.91-0.8-3.37-0.8-2.72,0-5.56,1.5-5.56,5.35,0,4.12,3.32,5.46,5.63,5.46s3.44-.69,3.44-0.77v-0.43c0,0.24-1.41.92-3.42,0.92a5.13,5.13,0,0,1-5.35-5.18,4.93,4.93,0,0,1,5.17-5.1c2.14,0,3.46.67,3.46,0.9v-0.35Z"/><path class="cls-1" d="M709.73,511.69c0,0.39.73,1.19,2.09,1.19a2.57,2.57,0,0,0,2.76-2.69c0-2-1.85-2.62-2.49-2.87v0.31a2.78,2.78,0,0,1,2.2,2.56,2.34,2.34,0,0,1-2.45,2.42,2.42,2.42,0,0,1-2.09-1.22v0.29Zm4.55-8.88c0-.17-0.49-0.6-1.79-0.6a2.53,2.53,0,0,0-2.73,2.58,3,3,0,0,0,2.31,2.84v-0.31a2.64,2.64,0,0,1-2-2.53,2.3,2.3,0,0,1,2.42-2.31,2.1,2.1,0,0,1,1.79.63v-0.29ZM708,512.6h0.29v-4.49H708v4.49Zm0.29-9.66c0-.15-0.91-0.8-3.19-0.8-3,0-5.67,1.55-5.67,5.35,0,4.12,3.47,5.46,6,5.46a6.84,6.84,0,0,0,2.83-.32V512.2c0,0.24-1.34.48-2.8,0.48-2.23,0-5.75-1.25-5.75-5.18,0-3.7,2.79-5.1,5.36-5.1,1.88,0,3.19.67,3.19,0.9v-0.35Zm-18-.66,7.25,10.5h0.29l-7.22-10.5h-0.32Zm7.25,0,0,10.5h0.27v-10.5h-0.29Zm-7.25,0v10.5h0.29l0-10.5h-0.27Zm-2.8,10.5h0.31v-10.5h-0.31v10.5Zm-10-10.5,7.25,10.5h0.29l-7.22-10.5h-0.32Zm7.25,0,0,10.5h0.27v-10.5h-0.29Zm-7.25,0v10.5h0.29l0-10.5h-0.27Zm-9.76,0,7.25,10.5h0.29L668,502.28h-0.32Zm7.25,0,0,10.5h0.27v-10.5h-0.29Zm-7.25,0v10.5h0.29l0-10.5h-0.27Zm-8.74,5.85h4.76l0.13,0.28h-5Zm7.08,4.65h-0.32l-4.72-10.5h0.32Zm-9.06,0,4-10.5h0.31l-4,10.5h-0.31Zm-2.69-10.5h0.29l1.23,10.51h-0.29Zm-9,0L644,512.8h-0.29l1.23-10.51h0.29Zm9.37,0-4.65,10.51h-0.32l4.65-10.51h0.32Zm-9.63,0h0.32l4.65,10.51h-0.32Zm-17.71,0,7.25,10.5h0.29l-7.22-10.5h-0.32Zm7.25,0,0,10.5h0.27v-10.5h-0.29Zm-7.25,0v10.5h0.29l0-10.5h-0.27Zm-8.74,5.85h4.76l0.13,0.28h-5Zm7.08,4.65h-0.32l-4.72-10.5h0.32Zm-9.06,0,4-10.5h0.31l-4,10.5H616.5Zm-2.69-10.5h0.29l1.23,10.51H615Zm-9,0-1.23,10.51h-0.29l1.23-10.51h0.29Zm9.37,0-4.65,10.51h-0.32l4.65-10.51h0.32Zm-9.63,0h0.32l4.65,10.51h-0.32Zm-7.66,9.41c0,0.39.73,1.19,2.09,1.19a2.57,2.57,0,0,0,2.76-2.69c0-2-1.85-2.62-2.49-2.87v0.31a2.78,2.78,0,0,1,2.2,2.56,2.34,2.34,0,0,1-2.45,2.42,2.42,2.42,0,0,1-2.09-1.22v0.29Zm4.55-8.88c0-.17-0.49-0.6-1.79-0.6a2.53,2.53,0,0,0-2.73,2.58,3,3,0,0,0,2.31,2.84v-0.31a2.64,2.64,0,0,1-2-2.53,2.3,2.3,0,0,1,2.42-2.31,2.1,2.1,0,0,1,1.79.63v-0.29Zm-10.92,8.88c0,0.39.73,1.19,2.09,1.19a2.57,2.57,0,0,0,2.76-2.69c0-2-1.85-2.62-2.49-2.87v0.31a2.78,2.78,0,0,1,2.2,2.56,2.34,2.34,0,0,1-2.45,2.42,2.42,2.42,0,0,1-2.09-1.22v0.29Zm4.55-8.88c0-.17-0.49-0.6-1.79-0.6a2.53,2.53,0,0,0-2.73,2.58,3,3,0,0,0,2.31,2.84v-0.31a2.64,2.64,0,0,1-2-2.53,2.3,2.3,0,0,1,2.42-2.31,2.1,2.1,0,0,1,1.79.63v-0.29ZM583.25,513a5.19,5.19,0,0,0,5.53-5.46c0-4-2.91-5.5-5.67-5.5v0.27c2.53,0,5.4,1.41,5.4,5.24a5,5,0,0,1-5.25,5.17V513Zm-0.06-11a5.09,5.09,0,0,0-5.42,5.33,5.39,5.39,0,0,0,5.56,5.63v-0.29a5.17,5.17,0,0,1-5.25-5.33,4.88,4.88,0,0,1,5.11-5.07v-0.27Zm-9.88,5.74,2.44,5h0.42l-2.52-5h-0.34Zm-2.69-5.53v0.24s0.9-.08,1.48-0.08c1.33,0,3,.39,3,2.39a2.72,2.72,0,0,1-2.72,3h-1.6v0.29h1.61c1.6,0,3-1,3-3.33s-1.92-2.62-3.33-2.6a14.31,14.31,0,0,0-1.47.1m0,10.5h0.31v-10.5h-0.31v10.5Zm-1.92-.18H569v-4.49h-0.29v4.49Zm0.29-9.66c0-.15-0.91-0.8-3.19-0.8-3,0-5.67,1.55-5.67,5.35,0,4.12,3.47,5.46,6,5.46a6.84,6.84,0,0,0,2.83-.32V512.2c0,0.24-1.34.48-2.8,0.48-2.23,0-5.75-1.25-5.75-5.18,0-3.7,2.79-5.1,5.36-5.1,1.88,0,3.19.67,3.19,0.9v-0.35Zm-17.37,9.66h0.29v-4.49h-0.29v4.49Zm0.29-9.66c0-.15-0.91-0.8-3.19-0.8-3,0-5.67,1.55-5.67,5.35,0,4.12,3.47,5.46,6,5.46a6.84,6.84,0,0,0,2.83-.32V512.2c0,0.24-1.34.48-2.8,0.48-2.23,0-5.75-1.25-5.75-5.18,0-3.7,2.79-5.1,5.36-5.1,1.88,0,3.19.67,3.19,0.9v-0.35Zm-18-.66,7.25,10.5h0.29l-7.22-10.5H533.9Zm7.25,0,0,10.5h0.27v-10.5h-0.29Zm-7.25,0v10.5h0.29l0-10.5H533.9Zm-2.8,10.5h0.31v-10.5h-0.31v10.5Zm-2.39-.18H529v-4.49h-0.29v4.49Zm0.29-9.66c0-.15-0.91-0.8-3.19-0.8-3,0-5.67,1.55-5.67,5.35,0,4.12,3.47,5.46,6,5.46a6.84,6.84,0,0,0,2.83-.32V512.2c0,0.24-1.34.48-2.8,0.48-2.23,0-5.75-1.25-5.75-5.18,0-3.7,2.79-5.1,5.36-5.1,1.88,0,3.19.67,3.19,0.9v-0.35Zm-10.37,9.66h0.29v-4.49h-0.29v4.49Zm0.29-9.66c0-.15-0.91-0.8-3.19-0.8-3,0-5.67,1.55-5.67,5.35,0,4.12,3.47,5.46,6,5.46a6.84,6.84,0,0,0,2.83-.32V512.2c0,0.24-1.34.48-2.8,0.48-2.23,0-5.75-1.25-5.75-5.18,0-3.7,2.79-5.1,5.36-5.1,1.88,0,3.19.67,3.19,0.9v-0.35Zm-17,5.19h4.76l0.13,0.28h-5Zm7.08,4.65h-0.32L504,502.28h0.32Zm-9.06,0,4-10.5h0.31l-4,10.5H500Zm-6.2-5.74,0,0.25H495c1,0,3.3.21,3.3,2.32,0,2.35-2.42,2.9-3.32,2.9s-1.19,0-1.19,0v0.29a11.2,11.2,0,0,0,1.12,0c1.19,0,3.68-.59,3.68-3.21,0-2.35-2.28-2.58-3.61-2.58-0.84,0-1.19,0-1.19,0m0-4.76v0.29s0.77-.07,1.27-0.07c1.13,0,2.59.24,2.59,2,0,2-2,2.51-3.22,2.51h-0.64v0.2h0.84c1.15,0,3.35-.52,3.35-2.7,0-2-1.72-2.27-2.93-2.25-0.57,0-1.26.07-1.26,0.07m-0.08,10.5h0.28v-10.5h-0.28v10.5ZM480,511.69c0,0.39.73,1.19,2.09,1.19a2.57,2.57,0,0,0,2.76-2.69c0-2-1.85-2.62-2.49-2.87v0.31a2.78,2.78,0,0,1,2.2,2.56,2.34,2.34,0,0,1-2.45,2.42A2.42,2.42,0,0,1,480,511.4v0.29Zm4.55-8.88c0-.17-0.49-0.6-1.79-0.6a2.53,2.53,0,0,0-2.73,2.58,3,3,0,0,0,2.31,2.84v-0.31a2.64,2.64,0,0,1-2-2.53,2.3,2.3,0,0,1,2.42-2.31,2.1,2.1,0,0,1,1.79.63v-0.29Zm-11.91-.22H479v-0.31h-6.4v0.31Zm3,10.19h0.31v-10.5h-0.31v10.5ZM466,513a5.19,5.19,0,0,0,5.53-5.46c0-4-2.91-5.5-5.67-5.5v0.27c2.53,0,5.4,1.41,5.4,5.24a5,5,0,0,1-5.25,5.17V513Zm-0.06-11a5.09,5.09,0,0,0-5.42,5.33A5.39,5.39,0,0,0,466.1,513v-0.29a5.17,5.17,0,0,1-5.25-5.33,4.88,4.88,0,0,1,5.11-5.07v-0.27Zm-12,5,0,0.25h1.23c1,0,3.3.21,3.3,2.32,0,2.35-2.42,2.9-3.32,2.9s-1.19,0-1.19,0v0.29a11.2,11.2,0,0,0,1.12,0c1.19,0,3.68-.59,3.68-3.21,0-2.35-2.28-2.58-3.61-2.58-0.84,0-1.19,0-1.19,0m0-4.76v0.29s0.77-.07,1.27-0.07c1.13,0,2.59.24,2.59,2,0,2-2,2.51-3.22,2.51H454v0.2h0.84c1.15,0,3.35-.52,3.35-2.7,0-2-1.72-2.27-2.93-2.25-0.57,0-1.26.07-1.26,0.07m-0.08,10.5h0.28v-10.5h-0.28v10.5Zm-7.53.25a5.19,5.19,0,0,0,5.53-5.46c0-4-2.91-5.5-5.67-5.5v0.27c2.53,0,5.4,1.41,5.4,5.24a5,5,0,0,1-5.25,5.17V513Zm-0.06-11a5.09,5.09,0,0,0-5.42,5.33,5.39,5.39,0,0,0,5.56,5.63v-0.29a5.17,5.17,0,0,1-5.25-5.33,4.88,4.88,0,0,1,5.11-5.07v-0.27Zm-9.88,5.74,2.44,5h0.42l-2.52-5h-0.34Zm-2.69-5.53v0.24s0.9-.08,1.48-0.08c1.33,0,3,.39,3,2.39a2.72,2.72,0,0,1-2.72,3h-1.6v0.29h1.61c1.6,0,3-1,3-3.33s-1.92-2.62-3.33-2.6a14.31,14.31,0,0,0-1.47.1m0,10.5H434v-10.5h-0.31v10.5Zm-11.52-5,2.44,5h0.42l-2.52-5H422.2Zm-2.69-5.53v0.24s0.9-.08,1.48-0.08c1.33,0,3,.39,3,2.39a2.72,2.72,0,0,1-2.72,3h-1.6v0.29h1.61c1.6,0,3-1,3-3.33s-1.92-2.62-3.33-2.6a14.31,14.31,0,0,0-1.47.1m0,10.5h0.31v-10.5h-0.31v10.5Zm-6.72,0h4.83v-0.29h-4.83v0.29Zm0-5.39h4.38V507.1h-4.38v0.29Zm0-4.82h4.76v-0.29h-4.76v0.29Zm-0.06,10.21H413v-10.5h-0.31v10.5Zm-1.09-10.5-4.82,10.51h-0.32l4.82-10.51h0.32Zm-10,0H402l4.82,10.51h-0.32Zm-6.2,10.5h4.83v-0.29h-4.83v0.29Zm0-5.39h4.38V507.1h-4.38v0.29Zm0-4.82h4.76v-0.29h-4.76v0.29Zm-0.06,10.21h0.31v-10.5h-0.31v10.5Zm-6.33,0h4.83v-0.29h-4.83v0.29Zm0,0h0.31v-10.5H389v10.5Zm-1.62-9.84c0-.15-0.91-0.8-3.37-0.8-2.72,0-5.56,1.5-5.56,5.35,0,4.12,3.32,5.46,5.63,5.46s3.44-.69,3.44-0.77v-0.43c0,0.24-1.41.92-3.42,0.92a5.13,5.13,0,0,1-5.35-5.18,4.93,4.93,0,0,1,5.17-5.1c2.14,0,3.46.67,3.46,0.9v-0.35Zm-20.15,4.87,2.44,5h0.42l-2.52-5h-0.34Zm-2.69-5.53v0.24s0.9-.08,1.48-0.08c1.33,0,3,.39,3,2.39a2.72,2.72,0,0,1-2.72,3h-1.6v0.29h1.61c1.6,0,3-1,3-3.33s-1.92-2.62-3.33-2.6a14.31,14.31,0,0,0-1.47.1m0,10.5h0.31v-10.5h-0.31v10.5Zm-6.72,0h4.83v-0.29h-4.83v0.29Zm0-5.39h4.38V507.1h-4.38v0.29Zm0-4.82h4.76v-0.29h-4.76v0.29Zm-0.06,10.21h0.31v-10.5h-0.31v10.5Zm-6.58-10.5v0.24s0.9-.08,1.48-0.08c1.33,0,3.16.6,3.16,2.63a3,3,0,0,1-3,3.05A1.15,1.15,0,0,1,352,508v0.29a1.13,1.13,0,0,0,.92.17,3.18,3.18,0,0,0,3.29-3.39c0-2.28-2.06-2.86-3.47-2.84a14.31,14.31,0,0,0-1.47.1m0,10.5h0.31v-10.5h-0.31v10.5Zm-6.83-10.5v0.24s0.9-.08,1.48-0.08c1.33,0,3.16.6,3.16,2.63a3,3,0,0,1-3,3.05,1.15,1.15,0,0,1-.91-0.17v0.29a1.13,1.13,0,0,0,.92.17,3.18,3.18,0,0,0,3.29-3.39c0-2.28-2.06-2.86-3.47-2.84a14.31,14.31,0,0,0-1.47.1m0,10.5h0.31v-10.5H344.4v10.5ZM337,513a5.19,5.19,0,0,0,5.53-5.46c0-4-2.91-5.5-5.67-5.5v0.27c2.53,0,5.4,1.41,5.4,5.24a5,5,0,0,1-5.25,5.17V513Zm-0.06-11a5.09,5.09,0,0,0-5.42,5.33A5.39,5.39,0,0,0,337.1,513v-0.29a5.17,5.17,0,0,1-5.25-5.33,4.88,4.88,0,0,1,5.11-5.07v-0.27ZM325,512.78h4.83v-0.29H325v0.29Zm0,0h0.31v-10.5H325v10.5Zm-8.71-.18h0.29v-4.49h-0.29v4.49Zm0.29-9.66c0-.15-0.91-0.8-3.19-0.8-3,0-5.67,1.55-5.67,5.35,0,4.12,3.47,5.46,6,5.46a6.84,6.84,0,0,0,2.83-.32V512.2c0,0.24-1.34.48-2.8,0.48-2.23,0-5.75-1.25-5.75-5.18,0-3.7,2.79-5.1,5.36-5.1,1.88,0,3.19.67,3.19,0.9v-0.35Zm-18-.66,7.25,10.5h0.29l-7.22-10.5h-0.32Zm7.25,0,0,10.5h0.27v-10.5h-0.29Zm-7.25,0v10.5h0.29l0-10.5h-0.27Zm-2.8,10.5h0.31v-10.5h-0.31v10.5ZM294,502.28l-4.82,10.51h-0.32l4.82-10.51H294Zm-10,0h0.32l4.82,10.51h-0.32ZM277.16,513a5.19,5.19,0,0,0,5.53-5.46c0-4-2.91-5.5-5.67-5.5v0.27c2.53,0,5.4,1.41,5.4,5.24a5,5,0,0,1-5.25,5.17V513Zm-0.06-11a5.09,5.09,0,0,0-5.42,5.33,5.39,5.39,0,0,0,5.56,5.63v-0.29a5.17,5.17,0,0,1-5.25-5.33,4.88,4.88,0,0,1,5.11-5.07v-0.27Zm-9.88,5.74,2.44,5h0.42l-2.52-5h-0.34Zm-2.69-5.53v0.24s0.9-.08,1.48-0.08c1.33,0,3,.39,3,2.39a2.72,2.72,0,0,1-2.72,3h-1.6v0.29h1.61c1.6,0,3-1,3-3.33s-1.92-2.62-3.33-2.6a14.31,14.31,0,0,0-1.47.1m0,10.5h0.31v-10.5h-0.31v10.5Zm-8.92-.18h0.29v-4.49h-0.29v4.49Zm0.29-9.66c0-.15-0.91-0.8-3.19-0.8-3,0-5.67,1.55-5.67,5.35,0,4.12,3.47,5.46,6,5.46a6.84,6.84,0,0,0,2.83-.32V512.2c0,0.24-1.34.48-2.8,0.48-2.23,0-5.75-1.25-5.75-5.18,0-3.7,2.79-5.1,5.36-5.1,1.88,0,3.19.67,3.19,0.9v-0.35Zm-18-.66,7.25,10.5h0.29l-7.22-10.5h-0.32Zm7.25,0,0,10.5h0.27v-10.5h-0.29Zm-7.25,0v10.5h0.29l0-10.5h-0.27Zm-2.8,10.5h0.31v-10.5h-0.31v10.5Zm-7-1.09c0,0.39.73,1.19,2.09,1.19a2.57,2.57,0,0,0,2.76-2.69c0-2-1.85-2.62-2.49-2.87v0.31a2.78,2.78,0,0,1,2.2,2.56,2.34,2.34,0,0,1-2.45,2.42,2.42,2.42,0,0,1-2.09-1.22v0.29Zm4.55-8.88c0-.17-0.49-0.6-1.79-0.6a2.53,2.53,0,0,0-2.73,2.58,3,3,0,0,0,2.31,2.84v-0.31a2.64,2.64,0,0,1-2-2.53,2.3,2.3,0,0,1,2.42-2.31,2.1,2.1,0,0,1,1.79.63v-0.29ZM220.88,513a5.19,5.19,0,0,0,5.53-5.46c0-4-2.91-5.5-5.67-5.5v0.27c2.53,0,5.4,1.41,5.4,5.24a5,5,0,0,1-5.25,5.17V513Zm-0.06-11a5.09,5.09,0,0,0-5.42,5.33A5.39,5.39,0,0,0,221,513v-0.29a5.17,5.17,0,0,1-5.25-5.33,4.88,4.88,0,0,1,5.11-5.07v-0.27Zm-11.91,10.71h4.83v-0.29h-4.83v0.29Zm0,0h0.31v-10.5h-0.31v10.5Zm-1.62-9.84c0-.15-0.91-0.8-3.37-0.8-2.72,0-5.56,1.5-5.56,5.35,0,4.12,3.32,5.46,5.63,5.46s3.44-.69,3.44-0.77v-0.43c0,0.24-1.41.92-3.42,0.92a5.13,5.13,0,0,1-5.35-5.18,4.93,4.93,0,0,1,5.17-5.1c2.14,0,3.46.67,3.46,0.9v-0.35Zm-22.13,8.75c0,0.39.73,1.19,2.09,1.19a2.57,2.57,0,0,0,2.76-2.69c0-2-1.85-2.62-2.49-2.87v0.31a2.78,2.78,0,0,1,2.2,2.56,2.34,2.34,0,0,1-2.45,2.42,2.42,2.42,0,0,1-2.09-1.22v0.29Zm4.55-8.88c0-.17-0.49-0.6-1.79-0.6a2.53,2.53,0,0,0-2.73,2.58,3,3,0,0,0,2.31,2.84v-0.31a2.64,2.64,0,0,1-2-2.53,2.3,2.3,0,0,1,2.42-2.31,2.1,2.1,0,0,1,1.79.63v-0.29Zm-6.33,9.79h0.29v-4.49h-0.29v4.49Zm0.29-9.66c0-.15-0.91-0.8-3.19-0.8-3,0-5.67,1.55-5.67,5.35,0,4.12,3.47,5.46,6,5.46a6.84,6.84,0,0,0,2.83-.32V512.2c0,0.24-1.34.48-2.8,0.48-2.23,0-5.75-1.25-5.75-5.18,0-3.7,2.79-5.1,5.36-5.1,1.88,0,3.19.67,3.19,0.9v-0.35Zm-18-.66,7.25,10.5h0.29l-7.22-10.5h-0.32Zm7.25,0,0,10.5h0.27v-10.5h-0.29Zm-7.25,0v10.5h0.29l0-10.5h-0.27Zm-2.8,10.5h0.31v-10.5h-0.31v10.5Zm-10-10.5,7.25,10.5h0.29l-7.22-10.5h-0.32Zm7.25,0,0,10.5h0.27v-10.5H160Zm-7.25,0v10.5h0.29l0-10.5h-0.27Zm-9.76,0,7.25,10.5h0.29l-7.22-10.5H143Zm7.25,0,0,10.5h0.27v-10.5h-0.29Zm-7.25,0v10.5h0.29l0-10.5H143Zm-8.74,5.85H139l0.13,0.28h-5Zm7.08,4.65H141l-4.72-10.5h0.32Zm-9.06,0,4-10.5h0.31l-4,10.5h-0.31Zm-2.69-10.5h0.29l1.23,10.51h-0.29Zm-9,0-1.23,10.51H119l1.23-10.51h0.29Zm9.37,0-4.65,10.51H125l4.65-10.51h0.32Zm-9.63,0h0.32l4.65,10.51H125Z"/><path class="cls-1" d="M710.44,488.28l7.25,10.5H718l-7.22-10.5h-0.32Zm7.25,0,0,10.5H718v-10.5h-0.29Zm-7.25,0v10.5h0.29l0-10.5h-0.27Zm-8.74,5.85h4.76l0.13,0.28h-5Zm7.08,4.65h-0.32l-4.72-10.5h0.32Zm-9.06,0,4-10.5h0.31l-4,10.5h-0.31ZM697,488.28h0.29l1.23,10.51h-0.29Zm-9,0-1.23,10.51h-0.29l1.23-10.51H688Zm9.37,0-4.65,10.51H692.4L697,488.28h0.32Zm-9.63,0h0.32l4.65,10.51h-0.32Zm-7.66,9.41c0,0.39.73,1.19,2.09,1.19a2.57,2.57,0,0,0,2.76-2.69c0-2-1.85-2.62-2.49-2.87v0.31a2.78,2.78,0,0,1,2.2,2.56,2.34,2.34,0,0,1-2.45,2.42,2.42,2.42,0,0,1-2.09-1.22v0.29Zm4.55-8.88c0-.17-0.49-0.6-1.79-0.6a2.53,2.53,0,0,0-2.73,2.58,3,3,0,0,0,2.31,2.84v-0.31a2.64,2.64,0,0,1-2-2.53,2.3,2.3,0,0,1,2.42-2.31,2.1,2.1,0,0,1,1.79.63v-0.29Zm-10.92,8.88c0,0.39.73,1.19,2.09,1.19a2.57,2.57,0,0,0,2.76-2.69c0-2-1.85-2.62-2.49-2.87v0.31a2.78,2.78,0,0,1,2.2,2.56,2.34,2.34,0,0,1-2.45,2.42,2.42,2.42,0,0,1-2.09-1.22v0.29Zm4.55-8.88c0-.17-0.49-0.6-1.79-0.6a2.53,2.53,0,0,0-2.73,2.58,3,3,0,0,0,2.31,2.84v-0.31a2.64,2.64,0,0,1-2-2.53,2.3,2.3,0,0,1,2.42-2.31,2.1,2.1,0,0,1,1.79.63v-0.29ZM666.48,499a5.19,5.19,0,0,0,5.53-5.46c0-4-2.91-5.5-5.67-5.5v0.27c2.53,0,5.4,1.41,5.4,5.24a5,5,0,0,1-5.25,5.17V499Zm-0.06-11a5.09,5.09,0,0,0-5.42,5.33,5.39,5.39,0,0,0,5.56,5.63v-0.29a5.17,5.17,0,0,1-5.25-5.33,4.88,4.88,0,0,1,5.11-5.07v-0.27Zm-9.88,5.74,2.44,5h0.42l-2.52-5h-0.34Zm-2.69-5.53v0.24s0.9-.08,1.48-0.08c1.33,0,3,.39,3,2.39a2.72,2.72,0,0,1-2.72,3h-1.6v0.29h1.61c1.6,0,3-1,3-3.33s-1.92-2.62-3.33-2.6a14.31,14.31,0,0,0-1.47.1m0,10.5h0.31v-10.5h-0.31v10.5Zm-1.92-.18h0.29v-4.49h-0.29v4.49Zm0.29-9.66c0-.15-0.91-0.8-3.19-0.8-3,0-5.67,1.55-5.67,5.35,0,4.12,3.47,5.46,6,5.46a6.84,6.84,0,0,0,2.83-.32V498.2c0,0.24-1.34.48-2.8,0.48-2.23,0-5.75-1.25-5.75-5.18,0-3.7,2.79-5.1,5.36-5.1,1.88,0,3.19.67,3.19,0.9v-0.35Zm-17.37,9.66h0.29v-4.49h-0.29v4.49Zm0.29-9.66c0-.15-0.91-0.8-3.19-0.8-3,0-5.67,1.55-5.67,5.35,0,4.12,3.47,5.46,6,5.46a6.84,6.84,0,0,0,2.83-.32V498.2c0,0.24-1.34.48-2.8,0.48-2.23,0-5.75-1.25-5.75-5.18,0-3.7,2.79-5.1,5.36-5.1,1.88,0,3.19.67,3.19,0.9v-0.35Zm-18-.66,7.25,10.5h0.29l-7.22-10.5h-0.32Zm7.25,0,0,10.5h0.27v-10.5h-0.29Zm-7.25,0v10.5h0.29l0-10.5h-0.27Zm-2.8,10.5h0.31v-10.5h-0.31v10.5Zm-2.39-.18h0.29v-4.49h-0.29v4.49Zm0.29-9.66c0-.15-0.91-0.8-3.19-0.8-3,0-5.67,1.55-5.67,5.35,0,4.12,3.47,5.46,6,5.46a6.84,6.84,0,0,0,2.83-.32V498.2c0,0.24-1.34.48-2.8,0.48-2.23,0-5.75-1.25-5.75-5.18,0-3.7,2.79-5.1,5.36-5.1,1.88,0,3.19.67,3.19,0.9v-0.35Zm-10.37,9.66h0.29v-4.49h-0.29v4.49Zm0.29-9.66c0-.15-0.91-0.8-3.19-0.8-3,0-5.67,1.55-5.67,5.35,0,4.12,3.47,5.46,6,5.46a6.84,6.84,0,0,0,2.83-.32V498.2c0,0.24-1.34.48-2.8,0.48-2.23,0-5.75-1.25-5.75-5.18,0-3.7,2.79-5.1,5.36-5.1,1.88,0,3.19.67,3.19,0.9v-0.35Zm-17,5.19h4.76l0.13,0.28h-5Zm7.08,4.65h-0.32l-4.72-10.5h0.32Zm-9.06,0,4-10.5h0.31l-4,10.5h-0.31ZM577,493l0,0.25h1.23c1,0,3.3.21,3.3,2.32,0,2.35-2.42,2.9-3.32,2.9s-1.19,0-1.19,0v0.29a11.2,11.2,0,0,0,1.12,0c1.19,0,3.68-.59,3.68-3.21,0-2.35-2.28-2.58-3.61-2.58-0.84,0-1.19,0-1.19,0m0-4.76v0.29s0.77-.07,1.27-0.07c1.13,0,2.59.24,2.59,2,0,2-2,2.51-3.22,2.51H577v0.2h0.84c1.15,0,3.35-.52,3.35-2.7,0-2-1.72-2.27-2.93-2.25-0.57,0-1.26.07-1.26,0.07m-0.08,10.5h0.28v-10.5h-0.28v10.5Zm-13.68-1.09c0,0.39.73,1.19,2.09,1.19a2.57,2.57,0,0,0,2.76-2.69c0-2-1.85-2.62-2.49-2.87v0.31a2.78,2.78,0,0,1,2.2,2.56,2.34,2.34,0,0,1-2.45,2.42,2.42,2.42,0,0,1-2.09-1.22v0.29Zm4.55-8.88c0-.17-0.49-0.6-1.79-0.6a2.53,2.53,0,0,0-2.73,2.58,3,3,0,0,0,2.31,2.84v-0.31a2.64,2.64,0,0,1-2-2.53,2.3,2.3,0,0,1,2.42-2.31,2.1,2.1,0,0,1,1.79.63v-0.29Zm-11.91-.22h6.4v-0.31h-6.4v0.31Zm3,10.19h0.31v-10.5h-0.31v10.5Zm-9.62.25a5.19,5.19,0,0,0,5.53-5.46c0-4-2.91-5.5-5.67-5.5v0.27c2.53,0,5.4,1.41,5.4,5.24a5,5,0,0,1-5.25,5.17V499Zm-0.06-11a5.09,5.09,0,0,0-5.42,5.33,5.39,5.39,0,0,0,5.56,5.63v-0.29a5.17,5.17,0,0,1-5.25-5.33,4.88,4.88,0,0,1,5.11-5.07v-0.27Zm-12,5,0,0.25h1.23c1,0,3.3.21,3.3,2.32,0,2.35-2.42,2.9-3.32,2.9s-1.19,0-1.19,0v0.29a11.2,11.2,0,0,0,1.12,0c1.19,0,3.68-.59,3.68-3.21,0-2.35-2.28-2.58-3.61-2.58-0.84,0-1.19,0-1.19,0m0-4.76v0.29s0.77-.07,1.27-0.07c1.13,0,2.59.24,2.59,2,0,2-2,2.51-3.22,2.51H537.2v0.2H538c1.15,0,3.35-.52,3.35-2.7,0-2-1.72-2.27-2.93-2.25-0.57,0-1.26.07-1.26,0.07m-0.08,10.5h0.28v-10.5h-0.28v10.5Zm-7.53.25a5.19,5.19,0,0,0,5.53-5.46c0-4-2.91-5.5-5.67-5.5v0.27c2.53,0,5.4,1.41,5.4,5.24a5,5,0,0,1-5.25,5.17V499Zm-0.06-11a5.09,5.09,0,0,0-5.42,5.33,5.39,5.39,0,0,0,5.56,5.63v-0.29a5.17,5.17,0,0,1-5.25-5.33,4.88,4.88,0,0,1,5.11-5.07v-0.27Zm-9.88,5.74,2.44,5h0.42l-2.52-5h-0.34ZM517,488.28v0.24s0.9-.08,1.48-0.08c1.33,0,3,.39,3,2.39a2.72,2.72,0,0,1-2.72,3h-1.6v0.29h1.61c1.6,0,3-1,3-3.33s-1.92-2.62-3.33-2.6a14.31,14.31,0,0,0-1.47.1m0,10.5h0.31v-10.5H517v10.5Zm-11.52-5,2.44,5h0.42l-2.52-5h-0.34Zm-2.69-5.53v0.24s0.9-.08,1.48-0.08c1.33,0,3,.39,3,2.39a2.72,2.72,0,0,1-2.72,3h-1.6v0.29h1.61c1.6,0,3-1,3-3.33s-1.92-2.62-3.33-2.6a14.31,14.31,0,0,0-1.47.1m0,10.5H503v-10.5h-0.31v10.5Zm-6.72,0h4.83v-0.29H496v0.29Zm0-5.39h4.38V493.1H496v0.29Zm0-4.82h4.76v-0.29H496v0.29ZM496,498.78h0.31v-10.5H496v10.5Zm-1.09-10.5-4.82,10.51h-0.32l4.82-10.51h0.32Zm-10,0h0.32L490,498.8h-0.32Zm-6.2,10.5h4.83v-0.29H478.7v0.29Zm0-5.39h4.38V493.1H478.7v0.29Zm0-4.82h4.76v-0.29H478.7v0.29Zm-0.06,10.21H479v-10.5h-0.31v10.5Zm-6.33,0h4.83v-0.29h-4.83v0.29Zm0,0h0.31v-10.5h-0.31v10.5Zm-1.62-9.84c0-.15-0.91-0.8-3.37-0.8-2.72,0-5.56,1.5-5.56,5.35,0,4.12,3.32,5.46,5.63,5.46s3.44-.69,3.44-0.77v-0.43c0,0.24-1.41.92-3.42,0.92a5.13,5.13,0,0,1-5.35-5.18,4.93,4.93,0,0,1,5.17-5.1c2.14,0,3.46.67,3.46,0.9v-0.35Zm-20.15,4.87,2.44,5h0.42l-2.52-5h-0.34Zm-2.69-5.53v0.24s0.9-.08,1.48-0.08c1.33,0,3,.39,3,2.39a2.72,2.72,0,0,1-2.72,3H448v0.29h1.61c1.6,0,3-1,3-3.33s-1.92-2.62-3.33-2.6a14.31,14.31,0,0,0-1.47.1m0,10.5h0.31v-10.5h-0.31v10.5Zm-6.72,0h4.83v-0.29H441.1v0.29Zm0-5.39h4.38V493.1H441.1v0.29Zm0-4.82h4.76v-0.29H441.1v0.29ZM441,498.78h0.31v-10.5H441v10.5Zm-6.58-10.5v0.24s0.9-.08,1.48-0.08c1.33,0,3.16.6,3.16,2.63a3,3,0,0,1-3,3.05,1.15,1.15,0,0,1-.91-0.17v0.29a1.13,1.13,0,0,0,.92.17,3.18,3.18,0,0,0,3.29-3.39c0-2.28-2.06-2.86-3.47-2.84a14.31,14.31,0,0,0-1.47.1m0,10.5h0.31v-10.5h-0.31v10.5Zm-6.83-10.5v0.24s0.9-.08,1.48-0.08c1.33,0,3.16.6,3.16,2.63a3,3,0,0,1-3,3.05,1.15,1.15,0,0,1-.91-0.17v0.29a1.13,1.13,0,0,0,.92.17,3.18,3.18,0,0,0,3.29-3.39c0-2.28-2.06-2.86-3.47-2.84a14.31,14.31,0,0,0-1.47.1m0,10.5h0.31v-10.5h-0.31v10.5Zm-7.39.25a5.19,5.19,0,0,0,5.53-5.46c0-4-2.91-5.5-5.67-5.5v0.27c2.53,0,5.4,1.41,5.4,5.24a5,5,0,0,1-5.25,5.17V499Zm-0.06-11a5.09,5.09,0,0,0-5.42,5.33,5.39,5.39,0,0,0,5.56,5.63v-0.29a5.17,5.17,0,0,1-5.25-5.33,4.88,4.88,0,0,1,5.11-5.07v-0.27Zm-11.91,10.71h4.83v-0.29h-4.83v0.29Zm0,0h0.31v-10.5h-0.31v10.5Zm-8.71-.18h0.29v-4.49h-0.29v4.49Zm0.29-9.66c0-.15-0.91-0.8-3.19-0.8-3,0-5.67,1.55-5.67,5.35,0,4.12,3.47,5.46,6,5.46a6.84,6.84,0,0,0,2.83-.32V498.2c0,0.24-1.34.48-2.8,0.48-2.23,0-5.75-1.25-5.75-5.18,0-3.7,2.79-5.1,5.36-5.1,1.88,0,3.19.67,3.19,0.9v-0.35Zm-18-.66,7.25,10.5h0.29l-7.22-10.5H381.8Zm7.25,0,0,10.5h0.27v-10.5H389Zm-7.25,0v10.5h0.29l0-10.5H381.8Zm-2.8,10.5h0.31v-10.5H379v10.5Zm-1.79-10.5-4.82,10.51h-0.32l4.82-10.51h0.32Zm-10,0h0.32l4.82,10.51h-0.32ZM360.39,499a5.19,5.19,0,0,0,5.53-5.46c0-4-2.91-5.5-5.67-5.5v0.27c2.53,0,5.4,1.41,5.4,5.24a5,5,0,0,1-5.25,5.17V499Zm-0.06-11a5.09,5.09,0,0,0-5.42,5.33,5.39,5.39,0,0,0,5.56,5.63v-0.29a5.17,5.17,0,0,1-5.25-5.33,4.88,4.88,0,0,1,5.11-5.07v-0.27Zm-9.88,5.74,2.43,5h0.42l-2.52-5h-0.34Zm-2.69-5.53v0.24s0.9-.08,1.48-0.08c1.33,0,3,.39,3,2.39a2.72,2.72,0,0,1-2.72,3H348v0.29h1.61c1.6,0,3-1,3-3.33s-1.92-2.62-3.33-2.6a14.31,14.31,0,0,0-1.47.1m0,10.5h0.31v-10.5h-0.31v10.5Zm-8.92-.18h0.29v-4.49h-0.29v4.49Zm0.29-9.66c0-.15-0.91-0.8-3.19-0.8-3,0-5.67,1.55-5.67,5.35,0,4.12,3.47,5.46,6,5.46a6.84,6.84,0,0,0,2.83-.32V498.2c0,0.24-1.34.48-2.8,0.48-2.23,0-5.75-1.25-5.75-5.18,0-3.7,2.79-5.1,5.36-5.1,1.88,0,3.19.67,3.19,0.9v-0.35Zm-18-.66,7.25,10.5h0.29l-7.22-10.5h-0.32Zm7.25,0,0,10.5h0.27v-10.5h-0.29Zm-7.25,0v10.5h0.29l0-10.5h-0.27Zm-2.8,10.5h0.31v-10.5h-0.31v10.5Zm-7-1.09c0,0.39.73,1.19,2.09,1.19a2.57,2.57,0,0,0,2.76-2.69c0-2-1.85-2.62-2.49-2.87v0.31a2.78,2.78,0,0,1,2.2,2.56,2.34,2.34,0,0,1-2.45,2.42,2.42,2.42,0,0,1-2.09-1.22v0.29Zm4.55-8.88c0-.17-0.49-0.6-1.79-0.6a2.53,2.53,0,0,0-2.73,2.58,3,3,0,0,0,2.31,2.84v-0.31a2.64,2.64,0,0,1-2-2.53,2.3,2.3,0,0,1,2.42-2.31,2.1,2.1,0,0,1,1.79.63v-0.29ZM304.11,499a5.19,5.19,0,0,0,5.53-5.46c0-4-2.91-5.5-5.67-5.5v0.27c2.53,0,5.4,1.41,5.4,5.24a5,5,0,0,1-5.25,5.17V499Zm-0.06-11a5.09,5.09,0,0,0-5.42,5.33A5.39,5.39,0,0,0,304.2,499v-0.29a5.17,5.17,0,0,1-5.25-5.33,4.88,4.88,0,0,1,5.11-5.07v-0.27Zm-11.91,10.71H297v-0.29h-4.83v0.29Zm0,0h0.31v-10.5H292.1v10.5Zm-1.62-9.84c0-.15-0.91-0.8-3.37-0.8-2.72,0-5.56,1.5-5.56,5.35,0,4.12,3.32,5.46,5.63,5.46s3.44-.69,3.44-0.77v-0.43c0,0.24-1.41.92-3.42,0.92a5.13,5.13,0,0,1-5.35-5.18,4.93,4.93,0,0,1,5.17-5.1c2.14,0,3.46.67,3.46,0.9v-0.35Zm-22.13,8.75c0,0.39.73,1.19,2.09,1.19a2.57,2.57,0,0,0,2.76-2.69c0-2-1.85-2.62-2.49-2.87v0.31a2.78,2.78,0,0,1,2.2,2.56,2.34,2.34,0,0,1-2.45,2.42,2.42,2.42,0,0,1-2.09-1.22v0.29Zm4.55-8.88c0-.17-0.49-0.6-1.79-0.6a2.53,2.53,0,0,0-2.73,2.58,3,3,0,0,0,2.31,2.84v-0.31a2.64,2.64,0,0,1-2-2.53,2.3,2.3,0,0,1,2.42-2.31,2.1,2.1,0,0,1,1.79.63v-0.29Zm-6.33,9.79h0.29v-4.49h-0.29v4.49Zm0.29-9.66c0-.15-0.91-0.8-3.19-0.8-3,0-5.67,1.55-5.67,5.35,0,4.12,3.47,5.46,6,5.46a6.84,6.84,0,0,0,2.83-.32V498.2c0,0.24-1.34.48-2.8,0.48-2.23,0-5.75-1.25-5.75-5.18,0-3.7,2.79-5.1,5.36-5.1,1.88,0,3.19.67,3.19,0.9v-0.35Zm-18-.66,7.25,10.5h0.29l-7.22-10.5h-0.32Zm7.25,0,0,10.5h0.27v-10.5h-0.29Zm-7.25,0v10.5h0.29l0-10.5h-0.27Zm-2.8,10.5h0.31v-10.5H246v10.5Zm-10-10.5,7.25,10.5h0.29l-7.22-10.5H236Zm7.25,0,0,10.5h0.27v-10.5h-0.29Zm-7.25,0v10.5h0.29l0-10.5H236Zm-9.76,0,7.25,10.5h0.29l-7.22-10.5h-0.32Zm7.25,0,0,10.5h0.27v-10.5H233.5Zm-7.25,0v10.5h0.29l0-10.5h-0.27Zm-8.74,5.85h4.76l0.13,0.28h-5Zm7.08,4.65h-0.32l-4.72-10.5h0.32Zm-9.06,0,4-10.5h0.31l-4,10.5h-0.31Zm-2.69-10.5h0.29l1.23,10.51h-0.29Zm-9,0-1.23,10.51h-0.29l1.23-10.51h0.29Zm9.37,0-4.65,10.51H208.2l4.65-10.51h0.32Zm-9.63,0h0.32l4.65,10.51h-0.32Zm-17.71,0,7.25,10.5h0.29l-7.22-10.5h-0.32Zm7.25,0,0,10.5h0.27v-10.5h-0.29Zm-7.25,0v10.5h0.29l0-10.5h-0.27Zm-8.74,5.85h4.76l0.13,0.28h-5Zm7.08,4.65h-0.32l-4.72-10.5h0.32Zm-9.06,0,4-10.5h0.31l-4,10.5h-0.31Zm-2.69-10.5h0.29L174,498.8h-0.29Zm-9,0-1.23,10.51h-0.29l1.23-10.51h0.29Zm9.37,0L168.1,498.8h-0.32l4.65-10.51h0.32Zm-9.63,0h0.32l4.65,10.51h-0.32Zm-7.66,9.41c0,0.39.73,1.19,2.09,1.19a2.57,2.57,0,0,0,2.76-2.69c0-2-1.85-2.62-2.49-2.87v0.31a2.78,2.78,0,0,1,2.2,2.56,2.34,2.34,0,0,1-2.45,2.42,2.42,2.42,0,0,1-2.09-1.22v0.29Zm4.55-8.88c0-.17-0.49-0.6-1.79-0.6a2.53,2.53,0,0,0-2.73,2.58,3,3,0,0,0,2.31,2.84v-0.31a2.64,2.64,0,0,1-2-2.53,2.3,2.3,0,0,1,2.42-2.31,2.1,2.1,0,0,1,1.79.63v-0.29Zm-10.92,8.88c0,0.39.73,1.19,2.09,1.19a2.57,2.57,0,0,0,2.76-2.69c0-2-1.85-2.62-2.49-2.87v0.31a2.78,2.78,0,0,1,2.2,2.56,2.34,2.34,0,0,1-2.45,2.42,2.42,2.42,0,0,1-2.09-1.22v0.29Zm4.55-8.88c0-.17-0.49-0.6-1.79-0.6a2.53,2.53,0,0,0-2.73,2.58,3,3,0,0,0,2.31,2.84v-0.31a2.64,2.64,0,0,1-2-2.53,2.3,2.3,0,0,1,2.42-2.31,2.1,2.1,0,0,1,1.79.63v-0.29ZM141.87,499a5.19,5.19,0,0,0,5.53-5.46c0-4-2.91-5.5-5.67-5.5v0.27c2.53,0,5.4,1.41,5.4,5.24a5,5,0,0,1-5.25,5.17V499Zm-0.06-11a5.09,5.09,0,0,0-5.42,5.33A5.39,5.39,0,0,0,142,499v-0.29a5.17,5.17,0,0,1-5.25-5.33,4.88,4.88,0,0,1,5.11-5.07v-0.27Zm-9.88,5.74,2.44,5h0.42l-2.52-5h-0.34Zm-2.69-5.53v0.24s0.9-.08,1.48-0.08c1.33,0,3,.39,3,2.39a2.72,2.72,0,0,1-2.72,3h-1.6v0.29H131c1.6,0,3-1,3-3.33s-1.92-2.62-3.33-2.6a14.31,14.31,0,0,0-1.47.1m0,10.5h0.31v-10.5h-0.31v10.5Zm-1.92-.18h0.29v-4.49h-0.29v4.49Zm0.29-9.66c0-.15-0.91-0.8-3.19-0.8-3,0-5.67,1.55-5.67,5.35,0,4.12,3.47,5.46,6,5.46a6.84,6.84,0,0,0,2.83-.32V498.2c0,0.24-1.34.48-2.8,0.48-2.23,0-5.75-1.25-5.75-5.18,0-3.7,2.79-5.1,5.36-5.1,1.88,0,3.19.67,3.19,0.9v-0.35Z"/><path class="cls-1" d="M701.93,484.6h0.29v-4.49h-0.29v4.49Zm0.29-9.66c0-.15-0.91-0.8-3.19-0.8-3,0-5.67,1.55-5.67,5.35,0,4.12,3.47,5.46,6,5.46a6.84,6.84,0,0,0,2.83-.32V484.2c0,0.24-1.34.48-2.8,0.48-2.23,0-5.75-1.25-5.75-5.18,0-3.7,2.79-5.1,5.36-5.1,1.88,0,3.19.67,3.19,0.9v-0.35Zm-18-.66,7.25,10.5h0.29l-7.22-10.5h-0.32Zm7.25,0,0,10.5h0.27v-10.5h-0.29Zm-7.25,0v10.5h0.29l0-10.5h-0.27Zm-2.8,10.5h0.31v-10.5h-0.31v10.5ZM679,484.6h0.29v-4.49H679v4.49Zm0.29-9.66c0-.15-0.91-0.8-3.19-0.8-3,0-5.67,1.55-5.67,5.35,0,4.12,3.47,5.46,6,5.46a6.84,6.84,0,0,0,2.83-.32V484.2c0,0.24-1.34.48-2.8,0.48-2.23,0-5.75-1.25-5.75-5.18,0-3.7,2.79-5.1,5.36-5.1,1.88,0,3.19.67,3.19,0.9v-0.35Zm-10.37,9.66h0.29v-4.49h-0.29v4.49Zm0.29-9.66c0-.15-0.91-0.8-3.19-0.8-3,0-5.67,1.55-5.67,5.35,0,4.12,3.47,5.46,6,5.46a6.84,6.84,0,0,0,2.83-.32V484.2c0,0.24-1.34.48-2.8,0.48-2.23,0-5.75-1.25-5.75-5.18,0-3.7,2.79-5.1,5.36-5.1,1.88,0,3.19.67,3.19,0.9v-0.35Zm-17,5.19H657l0.13,0.28h-5Zm7.08,4.65H659l-4.72-10.5h0.32Zm-9.06,0,4-10.5h0.31l-4,10.5h-0.31Zm-6.2-5.74,0,0.25h1.23c1,0,3.3.21,3.3,2.32,0,2.35-2.42,2.9-3.32,2.9s-1.19,0-1.19,0v0.29a11.2,11.2,0,0,0,1.12,0c1.19,0,3.68-.59,3.68-3.21,0-2.35-2.28-2.58-3.61-2.58-0.84,0-1.19,0-1.19,0m0-4.76v0.29s0.77-.07,1.27-0.07c1.13,0,2.59.24,2.59,2,0,2-2,2.51-3.22,2.51H644v0.2h0.84c1.15,0,3.35-.52,3.35-2.7,0-2-1.72-2.27-2.93-2.25-0.57,0-1.26.07-1.26,0.07m-0.08,10.5h0.28v-10.5h-0.28v10.5Zm-13.68-1.09c0,0.39.73,1.19,2.09,1.19a2.57,2.57,0,0,0,2.76-2.69c0-2-1.85-2.62-2.49-2.87v0.31a2.78,2.78,0,0,1,2.2,2.56,2.34,2.34,0,0,1-2.45,2.42,2.42,2.42,0,0,1-2.09-1.22v0.29Zm4.55-8.88c0-.17-0.49-0.6-1.79-0.6a2.53,2.53,0,0,0-2.73,2.58,3,3,0,0,0,2.31,2.84v-0.31a2.64,2.64,0,0,1-2-2.53,2.3,2.3,0,0,1,2.42-2.31,2.1,2.1,0,0,1,1.79.63v-0.29Zm-11.91-.22h6.4v-0.31h-6.4v0.31Zm3,10.19h0.31v-10.5h-0.31v10.5Zm-9.62.25a5.19,5.19,0,0,0,5.53-5.46c0-4-2.91-5.5-5.67-5.5v0.27c2.53,0,5.4,1.41,5.4,5.24a5,5,0,0,1-5.25,5.17V485Zm-0.06-11a5.09,5.09,0,0,0-5.42,5.33,5.39,5.39,0,0,0,5.56,5.63v-0.29a5.17,5.17,0,0,1-5.25-5.33,4.88,4.88,0,0,1,5.11-5.07v-0.27Zm-12,5,0,0.25h1.23c1,0,3.3.21,3.3,2.32,0,2.35-2.42,2.9-3.32,2.9s-1.19,0-1.19,0v0.29a11.2,11.2,0,0,0,1.12,0c1.19,0,3.68-.59,3.68-3.21,0-2.35-2.28-2.58-3.61-2.58-0.84,0-1.19,0-1.19,0m0-4.76v0.29s0.77-.07,1.27-0.07c1.13,0,2.59.24,2.59,2,0,2-2,2.51-3.22,2.51h-0.64v0.2h0.84c1.15,0,3.35-.52,3.35-2.7,0-2-1.72-2.27-2.93-2.25-0.57,0-1.26.07-1.26,0.07m-0.08,10.5h0.28v-10.5h-0.28v10.5Zm-7.53.25a5.19,5.19,0,0,0,5.53-5.46c0-4-2.91-5.5-5.67-5.5v0.27c2.53,0,5.4,1.41,5.4,5.24a5,5,0,0,1-5.25,5.17V485Zm-0.06-11a5.09,5.09,0,0,0-5.42,5.33,5.39,5.39,0,0,0,5.56,5.63v-0.29a5.17,5.17,0,0,1-5.25-5.33,4.88,4.88,0,0,1,5.11-5.07v-0.27Zm-9.88,5.74,2.44,5h0.42l-2.52-5h-0.34ZM584,474.28v0.24s0.9-.08,1.48-0.08c1.33,0,3,.39,3,2.39a2.72,2.72,0,0,1-2.72,3h-1.6v0.29h1.61c1.6,0,3-1,3-3.33s-1.92-2.62-3.33-2.6a14.31,14.31,0,0,0-1.47.1m0,10.5h0.31v-10.5H584v10.5Zm-11.52-5,2.44,5h0.42l-2.52-5H572.5Zm-2.69-5.53v0.24s0.9-.08,1.48-0.08c1.33,0,3,.39,3,2.39a2.72,2.72,0,0,1-2.72,3H570v0.29h1.61c1.6,0,3-1,3-3.33s-1.92-2.62-3.33-2.6a14.31,14.31,0,0,0-1.47.1m0,10.5h0.31v-10.5h-0.31v10.5Zm-6.72,0h4.83v-0.29h-4.83v0.29Zm0-5.39h4.38V479.1h-4.38v0.29Zm0-4.82h4.76v-0.29h-4.76v0.29ZM563,484.78h0.31v-10.5H563v10.5Zm-1.09-10.5-4.82,10.51h-0.32l4.82-10.51h0.32Zm-10,0h0.32l4.82,10.51h-0.32Zm-6.2,10.5h4.83v-0.29h-4.83v0.29Zm0-5.39h4.38V479.1h-4.38v0.29Zm0-4.82h4.76v-0.29h-4.76v0.29Zm-0.06,10.21H546v-10.5h-0.31v10.5Zm-6.33,0h4.83v-0.29h-4.83v0.29Zm0,0h0.31v-10.5h-0.31v10.5Zm-1.62-9.84c0-.15-0.91-0.8-3.37-0.8-2.72,0-5.56,1.5-5.56,5.35,0,4.12,3.32,5.46,5.63,5.46s3.44-.69,3.44-0.77v-0.43c0,0.24-1.41.92-3.42,0.92a5.13,5.13,0,0,1-5.35-5.18,4.93,4.93,0,0,1,5.17-5.1c2.14,0,3.46.67,3.46,0.9v-0.35Zm-20.15,4.87,2.44,5h0.42l-2.52-5h-0.34Zm-2.69-5.53v0.24s0.9-.08,1.48-0.08c1.33,0,3,.39,3,2.39a2.72,2.72,0,0,1-2.72,3h-1.6v0.29h1.61c1.6,0,3-1,3-3.33s-1.92-2.62-3.33-2.6a14.31,14.31,0,0,0-1.47.1m0,10.5h0.31v-10.5h-0.31v10.5Zm-6.72,0H513v-0.29h-4.83v0.29Zm0-5.39h4.38V479.1h-4.38v0.29Zm0-4.82h4.76v-0.29h-4.76v0.29Zm-0.06,10.21h0.31v-10.5h-0.31v10.5Zm-6.58-10.5v0.24s0.9-.08,1.48-0.08c1.33,0,3.16.6,3.16,2.63a3,3,0,0,1-3,3.05,1.15,1.15,0,0,1-.91-0.17v0.29a1.13,1.13,0,0,0,.92.17,3.18,3.18,0,0,0,3.29-3.39c0-2.28-2.06-2.86-3.47-2.84a14.31,14.31,0,0,0-1.47.1m0,10.5h0.31v-10.5h-0.31v10.5Zm-6.83-10.5v0.24s0.9-.08,1.48-0.08c1.33,0,3.16.6,3.16,2.63a3,3,0,0,1-3,3.05,1.15,1.15,0,0,1-.91-0.17v0.29a1.13,1.13,0,0,0,.92.17,3.18,3.18,0,0,0,3.29-3.39c0-2.28-2.06-2.86-3.47-2.84a14.31,14.31,0,0,0-1.47.1m0,10.5H495v-10.5H494.7v10.5Zm-7.39.25a5.19,5.19,0,0,0,5.53-5.46c0-4-2.91-5.5-5.67-5.5v0.27c2.53,0,5.4,1.41,5.4,5.24a5,5,0,0,1-5.25,5.17V485Zm-0.06-11a5.09,5.09,0,0,0-5.42,5.33A5.39,5.39,0,0,0,487.4,485v-0.29a5.17,5.17,0,0,1-5.25-5.33,4.88,4.88,0,0,1,5.11-5.07v-0.27Zm-11.91,10.71h4.83v-0.29h-4.83v0.29Zm0,0h0.31v-10.5H475.3v10.5Zm-8.71-.18h0.29v-4.49h-0.29v4.49Zm0.29-9.66c0-.15-0.91-0.8-3.19-0.8-3,0-5.67,1.55-5.67,5.35,0,4.12,3.47,5.46,6,5.46a6.84,6.84,0,0,0,2.83-.32V484.2c0,0.24-1.34.48-2.8,0.48-2.23,0-5.75-1.25-5.75-5.18,0-3.7,2.79-5.1,5.36-5.1,1.88,0,3.19.67,3.19,0.9v-0.35Zm-18-.66,7.25,10.5h0.29l-7.22-10.5h-0.32Zm7.25,0,0,10.5h0.27v-10.5h-0.29Zm-7.25,0v10.5h0.29l0-10.5h-0.27Zm-2.8,10.5h0.31v-10.5h-0.31v10.5Zm-1.79-10.5-4.82,10.51h-0.32L444,474.28h0.32Zm-10,0h0.32l4.82,10.51h-0.32ZM427.46,485a5.19,5.19,0,0,0,5.53-5.46c0-4-2.91-5.5-5.67-5.5v0.27c2.53,0,5.4,1.41,5.4,5.24a5,5,0,0,1-5.25,5.17V485Zm-0.06-11a5.09,5.09,0,0,0-5.42,5.33,5.39,5.39,0,0,0,5.56,5.63v-0.29a5.17,5.17,0,0,1-5.25-5.33,4.88,4.88,0,0,1,5.11-5.07v-0.27Zm-9.88,5.74,2.44,5h0.42l-2.52-5h-0.34Zm-2.69-5.53v0.24s0.9-.08,1.48-0.08c1.33,0,3,.39,3,2.39a2.72,2.72,0,0,1-2.72,3H415v0.29h1.61c1.6,0,3-1,3-3.33s-1.92-2.62-3.33-2.6a14.31,14.31,0,0,0-1.47.1m0,10.5h0.31v-10.5h-0.31v10.5Zm-8.92-.18h0.29v-4.49h-0.29v4.49Zm0.29-9.66c0-.15-0.91-0.8-3.19-0.8-3,0-5.67,1.55-5.67,5.35,0,4.12,3.47,5.46,6,5.46a6.84,6.84,0,0,0,2.83-.32V484.2c0,0.24-1.34.48-2.8,0.48-2.23,0-5.75-1.25-5.75-5.18,0-3.7,2.79-5.1,5.36-5.1,1.88,0,3.19.67,3.19,0.9v-0.35Zm-18-.66,7.25,10.5h0.29l-7.22-10.5h-0.32Zm7.25,0,0,10.5h0.27v-10.5h-0.29Zm-7.25,0v10.5h0.29l0-10.5h-0.27Zm-2.8,10.5h0.31v-10.5h-0.31v10.5Zm-7-1.09c0,0.39.73,1.19,2.09,1.19a2.57,2.57,0,0,0,2.76-2.69c0-2-1.85-2.62-2.49-2.87v0.31a2.78,2.78,0,0,1,2.2,2.56,2.34,2.34,0,0,1-2.45,2.42,2.42,2.42,0,0,1-2.09-1.22v0.29Zm4.55-8.88c0-.17-0.49-0.6-1.79-0.6a2.53,2.53,0,0,0-2.73,2.58,3,3,0,0,0,2.31,2.84v-0.31a2.64,2.64,0,0,1-2-2.53,2.3,2.3,0,0,1,2.42-2.31,2.1,2.1,0,0,1,1.79.63v-0.29ZM371.18,485a5.19,5.19,0,0,0,5.53-5.46c0-4-2.91-5.5-5.67-5.5v0.27c2.53,0,5.4,1.41,5.4,5.24a5,5,0,0,1-5.25,5.17V485Zm-0.06-11a5.09,5.09,0,0,0-5.42,5.33,5.39,5.39,0,0,0,5.56,5.63v-0.29a5.17,5.17,0,0,1-5.25-5.33,4.88,4.88,0,0,1,5.11-5.07v-0.27Zm-11.91,10.71H364v-0.29h-4.83v0.29Zm0,0h0.31v-10.5h-0.31v10.5Zm-1.62-9.84c0-.15-0.91-0.8-3.37-0.8-2.72,0-5.56,1.5-5.56,5.35,0,4.12,3.32,5.46,5.63,5.46s3.44-.69,3.44-0.77v-0.43c0,0.24-1.41.92-3.42,0.92a5.13,5.13,0,0,1-5.35-5.18,4.93,4.93,0,0,1,5.17-5.1c2.14,0,3.46.67,3.46,0.9v-0.35Zm-22.13,8.75c0,0.39.73,1.19,2.09,1.19a2.57,2.57,0,0,0,2.76-2.69c0-2-1.85-2.62-2.49-2.87v0.31a2.78,2.78,0,0,1,2.2,2.56,2.34,2.34,0,0,1-2.45,2.42,2.42,2.42,0,0,1-2.09-1.22v0.29Zm4.55-8.88c0-.17-0.49-0.6-1.79-0.6a2.53,2.53,0,0,0-2.73,2.58,3,3,0,0,0,2.31,2.84v-0.31a2.64,2.64,0,0,1-2-2.53,2.3,2.3,0,0,1,2.42-2.31,2.1,2.1,0,0,1,1.79.63v-0.29Zm-6.33,9.79h0.29v-4.49h-0.29v4.49Zm0.29-9.66c0-.15-0.91-0.8-3.19-0.8-3,0-5.67,1.55-5.67,5.35,0,4.12,3.47,5.46,6,5.46a6.84,6.84,0,0,0,2.83-.32V484.2c0,0.24-1.34.48-2.8,0.48-2.23,0-5.75-1.25-5.75-5.18,0-3.7,2.79-5.1,5.36-5.1,1.88,0,3.19.67,3.19,0.9v-0.35Zm-18-.66,7.25,10.5h0.29l-7.22-10.5h-0.32Zm7.25,0,0,10.5h0.27v-10.5h-0.29Zm-7.25,0v10.5h0.29l0-10.5h-0.27Zm-2.8,10.5h0.31v-10.5h-0.31v10.5Zm-10-10.5,7.25,10.5h0.29l-7.22-10.5h-0.32Zm7.25,0,0,10.5h0.27v-10.5h-0.29Zm-7.25,0v10.5h0.29l0-10.5h-0.27Zm-9.76,0,7.25,10.5h0.29l-7.22-10.5h-0.32Zm7.25,0,0,10.5h0.27v-10.5h-0.29Zm-7.25,0v10.5h0.29l0-10.5h-0.27Zm-8.74,5.85h4.76l0.13,0.28h-5Zm7.08,4.65h-0.32l-4.72-10.5h0.32Zm-9.06,0,4-10.5h0.31l-4,10.5h-0.31Zm-2.69-10.5h0.29l1.23,10.51h-0.29Zm-9,0-1.23,10.51h-0.29l1.23-10.51h0.29Zm9.37,0-4.65,10.51h-0.32l4.65-10.51h0.32Zm-9.63,0h0.32l4.65,10.51h-0.32Zm-17.71,0,7.25,10.5h0.29l-7.22-10.5H252.9Zm7.25,0,0,10.5h0.27v-10.5h-0.29Zm-7.25,0v10.5h0.29l0-10.5H252.9Zm-8.74,5.85h4.76l0.13,0.28h-5Zm7.08,4.65h-0.32l-4.72-10.5h0.32Zm-9.06,0,4-10.5h0.31l-4,10.5h-0.31Zm-2.69-10.5h0.29L241,484.8h-0.29Zm-9,0-1.23,10.51h-0.29l1.23-10.51h0.29Zm9.37,0-4.65,10.51h-0.32l4.65-10.51h0.32Zm-9.63,0h0.32l4.65,10.51h-0.32Zm-7.66,9.41c0,0.39.73,1.19,2.09,1.19a2.57,2.57,0,0,0,2.76-2.69c0-2-1.85-2.62-2.49-2.87v0.31a2.78,2.78,0,0,1,2.2,2.56,2.34,2.34,0,0,1-2.45,2.42,2.42,2.42,0,0,1-2.09-1.22v0.29Zm4.55-8.88c0-.17-0.49-0.6-1.79-0.6a2.53,2.53,0,0,0-2.73,2.58,3,3,0,0,0,2.31,2.84v-0.31a2.64,2.64,0,0,1-2-2.53,2.3,2.3,0,0,1,2.42-2.31,2.1,2.1,0,0,1,1.79.63v-0.29Zm-10.92,8.88c0,0.39.73,1.19,2.09,1.19a2.57,2.57,0,0,0,2.76-2.69c0-2-1.85-2.62-2.49-2.87v0.31a2.78,2.78,0,0,1,2.2,2.56,2.34,2.34,0,0,1-2.45,2.42,2.42,2.42,0,0,1-2.09-1.22v0.29Zm4.55-8.88c0-.17-0.49-0.6-1.79-0.6a2.53,2.53,0,0,0-2.73,2.58,3,3,0,0,0,2.31,2.84v-0.31a2.64,2.64,0,0,1-2-2.53,2.3,2.3,0,0,1,2.42-2.31,2.1,2.1,0,0,1,1.79.63v-0.29ZM208.94,485a5.19,5.19,0,0,0,5.53-5.46c0-4-2.91-5.5-5.67-5.5v0.27c2.53,0,5.4,1.41,5.4,5.24a5,5,0,0,1-5.25,5.17V485Zm-0.06-11a5.09,5.09,0,0,0-5.42,5.33A5.39,5.39,0,0,0,209,485v-0.29a5.17,5.17,0,0,1-5.25-5.33,4.88,4.88,0,0,1,5.11-5.07v-0.27ZM199,479.81l2.44,5h0.42l-2.52-5H199Zm-2.69-5.53v0.24s0.9-.08,1.48-0.08c1.33,0,3,.39,3,2.39a2.72,2.72,0,0,1-2.72,3h-1.6v0.29h1.61c1.6,0,3-1,3-3.33s-1.92-2.62-3.33-2.6a14.31,14.31,0,0,0-1.47.1m0,10.5h0.31v-10.5h-0.31v10.5Zm-1.92-.18h0.29v-4.49H194.4v4.49Zm0.29-9.66c0-.15-0.91-0.8-3.19-0.8-3,0-5.67,1.55-5.67,5.35,0,4.12,3.47,5.46,6,5.46a6.84,6.84,0,0,0,2.83-.32V484.2c0,0.24-1.34.48-2.8,0.48-2.23,0-5.75-1.25-5.75-5.18,0-3.7,2.79-5.1,5.36-5.1,1.88,0,3.19.67,3.19,0.9v-0.35Zm-17.37,9.66h0.29v-4.49h-0.29v4.49Zm0.29-9.66c0-.15-0.91-0.8-3.19-0.8-3,0-5.67,1.55-5.67,5.35,0,4.12,3.47,5.46,6,5.46a6.84,6.84,0,0,0,2.83-.32V484.2c0,0.24-1.34.48-2.8,0.48-2.23,0-5.75-1.25-5.75-5.18,0-3.7,2.79-5.1,5.36-5.1,1.88,0,3.19.67,3.19,0.9v-0.35Zm-18-.66,7.25,10.5h0.29l-7.22-10.5h-0.32Zm7.25,0,0,10.5h0.27v-10.5h-0.29Zm-7.25,0v10.5h0.29l0-10.5h-0.27Zm-2.8,10.5h0.31v-10.5h-0.31v10.5Zm-2.39-.18h0.29v-4.49H154.4v4.49Zm0.29-9.66c0-.15-0.91-0.8-3.19-0.8-3,0-5.67,1.55-5.67,5.35,0,4.12,3.47,5.46,6,5.46a6.84,6.84,0,0,0,2.83-.32V484.2c0,0.24-1.34.48-2.8,0.48-2.23,0-5.75-1.25-5.75-5.18,0-3.7,2.79-5.1,5.36-5.1,1.88,0,3.19.67,3.19,0.9v-0.35Zm-10.37,9.66h0.29v-4.49h-0.29v4.49Zm0.29-9.66c0-.15-0.91-0.8-3.19-0.8-3,0-5.67,1.55-5.67,5.35,0,4.12,3.47,5.46,6,5.46a6.84,6.84,0,0,0,2.83-.32V484.2c0,0.24-1.34.48-2.8,0.48-2.23,0-5.75-1.25-5.75-5.18,0-3.7,2.79-5.1,5.36-5.1,1.88,0,3.19.67,3.19,0.9v-0.35Zm-17,5.19h4.76l0.13,0.28h-5Zm7.08,4.65h-0.32l-4.72-10.5H130Zm-9.06,0,4-10.5H130l-4,10.5h-0.31Zm-6.2-5.74,0,0.25h1.23c1,0,3.3.21,3.3,2.32,0,2.35-2.42,2.9-3.32,2.9s-1.19,0-1.19,0v0.29a11.2,11.2,0,0,0,1.12,0c1.19,0,3.68-.59,3.68-3.21,0-2.35-2.28-2.58-3.61-2.58-0.84,0-1.19,0-1.19,0m0-4.76v0.29s0.77-.07,1.27-0.07c1.13,0,2.59.24,2.59,2,0,2-2,2.51-3.22,2.51h-0.64v0.2h0.84c1.15,0,3.35-.52,3.35-2.7,0-2-1.72-2.27-2.93-2.25-0.57,0-1.26.07-1.26,0.07m-0.08,10.5h0.28v-10.5h-0.28v10.5Z"/><path class="cls-1" d="M744.94,469.69c0,0.39.73,1.19,2.09,1.19a2.57,2.57,0,0,0,2.76-2.69c0-2-1.85-2.62-2.49-2.87v0.31a2.78,2.78,0,0,1,2.2,2.56,2.34,2.34,0,0,1-2.45,2.42,2.42,2.42,0,0,1-2.09-1.22v0.29Zm4.55-8.88c0-.17-0.49-0.6-1.79-0.6a2.53,2.53,0,0,0-2.73,2.58,3,3,0,0,0,2.31,2.84v-0.31a2.64,2.64,0,0,1-2-2.53,2.3,2.3,0,0,1,2.42-2.31,2.1,2.1,0,0,1,1.79.63v-0.29Zm-11.91-.22H744v-0.31h-6.4v0.31Zm3,10.19h0.31v-10.5h-0.31v10.5ZM731,471a5.19,5.19,0,0,0,5.53-5.46c0-4-2.91-5.5-5.67-5.5v0.27c2.53,0,5.4,1.41,5.4,5.24a5,5,0,0,1-5.25,5.17V471Zm-0.06-11a5.09,5.09,0,0,0-5.42,5.33,5.39,5.39,0,0,0,5.56,5.63v-0.29a5.17,5.17,0,0,1-5.25-5.33,4.88,4.88,0,0,1,5.11-5.07v-0.27Zm-12,5,0,0.25h1.23c1,0,3.3.21,3.3,2.32,0,2.35-2.42,2.9-3.32,2.9s-1.19,0-1.19,0v0.29a11.2,11.2,0,0,0,1.12,0c1.19,0,3.68-.59,3.68-3.21,0-2.35-2.28-2.58-3.61-2.58-0.84,0-1.19,0-1.19,0m0-4.76v0.29s0.77-.07,1.27-0.07c1.13,0,2.59.24,2.59,2,0,2-2,2.51-3.22,2.51h-0.64v0.2h0.84c1.15,0,3.35-.52,3.35-2.7,0-2-1.72-2.27-2.93-2.25-0.57,0-1.26.07-1.26,0.07m-0.08,10.5h0.28v-10.5h-0.28v10.5Zm-7.53.25a5.19,5.19,0,0,0,5.53-5.46c0-4-2.91-5.5-5.67-5.5v0.27c2.53,0,5.4,1.41,5.4,5.24a5,5,0,0,1-5.25,5.17V471Zm-0.06-11a5.09,5.09,0,0,0-5.42,5.33,5.39,5.39,0,0,0,5.56,5.63v-0.29a5.17,5.17,0,0,1-5.25-5.33,4.88,4.88,0,0,1,5.11-5.07v-0.27Zm-9.88,5.74,2.44,5h0.42l-2.52-5h-0.34Zm-2.69-5.53v0.24s0.9-.08,1.48-0.08c1.33,0,3,.39,3,2.39a2.72,2.72,0,0,1-2.72,3h-1.6v0.29h1.61c1.6,0,3-1,3-3.33s-1.92-2.62-3.33-2.6a14.31,14.31,0,0,0-1.47.1m0,10.5H699v-10.5H698.7v10.5Zm-11.52-5,2.44,5H690l-2.52-5h-0.34Zm-2.69-5.53v0.24s0.9-.08,1.48-0.08c1.33,0,3,.39,3,2.39a2.72,2.72,0,0,1-2.72,3h-1.6v0.29h1.61c1.6,0,3-1,3-3.33s-1.92-2.62-3.33-2.6a14.31,14.31,0,0,0-1.47.1m0,10.5h0.31v-10.5h-0.31v10.5Zm-6.72,0h4.83v-0.29h-4.83v0.29Zm0-5.39h4.38V465.1h-4.38v0.29Zm0-4.82h4.76v-0.29h-4.76v0.29Zm-0.06,10.21H678v-10.5h-0.31v10.5Zm-1.09-10.5L671.8,470.8h-0.32l4.82-10.51h0.32Zm-10,0H667l4.82,10.51h-0.32Zm-6.2,10.5h4.83v-0.29h-4.83v0.29Zm0-5.39h4.38V465.1h-4.38v0.29Zm0-4.82h4.76v-0.29h-4.76v0.29Zm-0.06,10.21h0.31v-10.5h-0.31v10.5Zm-6.33,0h4.83v-0.29h-4.83v0.29Zm0,0h0.31v-10.5H654v10.5Zm-1.62-9.84c0-.15-0.91-0.8-3.37-0.8-2.72,0-5.56,1.5-5.56,5.35,0,4.12,3.32,5.46,5.63,5.46s3.44-.69,3.44-0.77v-0.43c0,0.24-1.41.92-3.42,0.92a5.13,5.13,0,0,1-5.35-5.18,4.93,4.93,0,0,1,5.17-5.1c2.14,0,3.46.67,3.46,0.9v-0.35Zm-20.15,4.87,2.44,5h0.42l-2.52-5h-0.34Zm-2.69-5.53v0.24s0.9-.08,1.48-0.08c1.33,0,3,.39,3,2.39a2.72,2.72,0,0,1-2.72,3h-1.6v0.29h1.61c1.6,0,3-1,3-3.33s-1.92-2.62-3.33-2.6a14.31,14.31,0,0,0-1.47.1m0,10.5h0.31v-10.5h-0.31v10.5Zm-6.72,0h4.83v-0.29h-4.83v0.29Zm0-5.39h4.38V465.1h-4.38v0.29Zm0-4.82h4.76v-0.29h-4.76v0.29Zm-0.06,10.21h0.31v-10.5h-0.31v10.5Zm-6.58-10.5v0.24s0.9-.08,1.48-0.08c1.33,0,3.16.6,3.16,2.63a3,3,0,0,1-3,3.05,1.15,1.15,0,0,1-.91-0.17v0.29a1.13,1.13,0,0,0,.92.17,3.18,3.18,0,0,0,3.29-3.39c0-2.28-2.06-2.86-3.47-2.84a14.31,14.31,0,0,0-1.47.1m0,10.5h0.31v-10.5h-0.31v10.5Zm-6.83-10.5v0.24s0.9-.08,1.48-0.08c1.33,0,3.16.6,3.16,2.63a3,3,0,0,1-3,3.05,1.15,1.15,0,0,1-.91-0.17v0.29a1.13,1.13,0,0,0,.92.17,3.18,3.18,0,0,0,3.29-3.39c0-2.28-2.06-2.86-3.47-2.84a14.31,14.31,0,0,0-1.47.1m0,10.5h0.31v-10.5h-0.31v10.5ZM602,471a5.19,5.19,0,0,0,5.53-5.46c0-4-2.91-5.5-5.67-5.5v0.27c2.53,0,5.4,1.41,5.4,5.24a5,5,0,0,1-5.25,5.17V471Zm-0.06-11a5.09,5.09,0,0,0-5.42,5.33,5.39,5.39,0,0,0,5.56,5.63v-0.29a5.17,5.17,0,0,1-5.25-5.33,4.88,4.88,0,0,1,5.11-5.07v-0.27ZM590,470.78h4.83v-0.29H590v0.29Zm0,0h0.31v-10.5H590v10.5Zm-8.71-.18h0.29v-4.49h-0.29v4.49Zm0.29-9.66c0-.15-0.91-0.8-3.19-0.8-3,0-5.67,1.55-5.67,5.35,0,4.12,3.47,5.46,6,5.46a6.84,6.84,0,0,0,2.83-.32V470.2c0,0.24-1.34.48-2.8,0.48-2.23,0-5.75-1.25-5.75-5.18,0-3.7,2.79-5.1,5.36-5.1,1.88,0,3.19.67,3.19,0.9v-0.35Zm-18-.66,7.25,10.5h0.29l-7.22-10.5h-0.32Zm7.25,0,0,10.5h0.27v-10.5h-0.29Zm-7.25,0v10.5h0.29l0-10.5h-0.27Zm-2.8,10.5h0.31v-10.5h-0.31v10.5ZM559,460.28l-4.82,10.51h-0.32l4.82-10.51H559Zm-10,0h0.32l4.82,10.51H553.8ZM542.14,471a5.19,5.19,0,0,0,5.53-5.46c0-4-2.91-5.5-5.67-5.5v0.27c2.53,0,5.4,1.41,5.4,5.24a5,5,0,0,1-5.25,5.17V471Zm-0.06-11a5.09,5.09,0,0,0-5.42,5.33,5.39,5.39,0,0,0,5.56,5.63v-0.29a5.17,5.17,0,0,1-5.25-5.33,4.88,4.88,0,0,1,5.11-5.07v-0.27Zm-9.88,5.74,2.44,5h0.42l-2.52-5H532.2Zm-2.69-5.53v0.24s0.9-.08,1.48-0.08c1.33,0,3,.39,3,2.39a2.72,2.72,0,0,1-2.72,3h-1.6v0.29h1.61c1.6,0,3-1,3-3.33s-1.92-2.62-3.33-2.6a14.31,14.31,0,0,0-1.47.1m0,10.5h0.31v-10.5h-0.31v10.5Zm-8.92-.18h0.29v-4.49h-0.29v4.49Zm0.29-9.66c0-.15-0.91-0.8-3.19-0.8-3,0-5.67,1.55-5.67,5.35,0,4.12,3.47,5.46,6,5.46a6.84,6.84,0,0,0,2.83-.32V470.2c0,0.24-1.34.48-2.8,0.48-2.23,0-5.75-1.25-5.75-5.18,0-3.7,2.79-5.1,5.36-5.1,1.88,0,3.19.67,3.19,0.9v-0.35Zm-18-.66,7.25,10.5h0.29l-7.22-10.5h-0.32Zm7.25,0,0,10.5h0.27v-10.5h-0.29Zm-7.25,0v10.5h0.29l0-10.5h-0.27Zm-2.8,10.5h0.31v-10.5h-0.31v10.5Zm-7-1.09c0,0.39.73,1.19,2.09,1.19a2.57,2.57,0,0,0,2.76-2.69c0-2-1.85-2.62-2.49-2.87v0.31a2.78,2.78,0,0,1,2.2,2.56,2.34,2.34,0,0,1-2.45,2.42,2.42,2.42,0,0,1-2.09-1.22v0.29Zm4.55-8.88c0-.17-0.49-0.6-1.79-0.6a2.53,2.53,0,0,0-2.73,2.58,3,3,0,0,0,2.31,2.84v-0.31a2.64,2.64,0,0,1-2-2.53,2.3,2.3,0,0,1,2.42-2.31,2.1,2.1,0,0,1,1.79.63v-0.29ZM485.86,471a5.19,5.19,0,0,0,5.53-5.46c0-4-2.91-5.5-5.67-5.5v0.27c2.53,0,5.4,1.41,5.4,5.24a5,5,0,0,1-5.25,5.17V471Zm-0.06-11a5.09,5.09,0,0,0-5.42,5.33,5.39,5.39,0,0,0,5.56,5.63v-0.29a5.17,5.17,0,0,1-5.25-5.33,4.88,4.88,0,0,1,5.11-5.07v-0.27Zm-11.91,10.71h4.83v-0.29h-4.83v0.29Zm0,0h0.31v-10.5h-0.31v10.5Zm-1.62-9.84c0-.15-0.91-0.8-3.37-0.8-2.72,0-5.56,1.5-5.56,5.35,0,4.12,3.32,5.46,5.63,5.46s3.44-.69,3.44-0.77v-0.43c0,0.24-1.41.92-3.42,0.92a5.13,5.13,0,0,1-5.35-5.18,4.93,4.93,0,0,1,5.17-5.1c2.14,0,3.46.67,3.46,0.9v-0.35Zm-22.13,8.75c0,0.39.73,1.19,2.09,1.19a2.57,2.57,0,0,0,2.76-2.69c0-2-1.85-2.62-2.49-2.87v0.31a2.78,2.78,0,0,1,2.2,2.56,2.34,2.34,0,0,1-2.45,2.42,2.42,2.42,0,0,1-2.09-1.22v0.29Zm4.55-8.88c0-.17-0.49-0.6-1.79-0.6a2.53,2.53,0,0,0-2.73,2.58,3,3,0,0,0,2.31,2.84v-0.31a2.64,2.64,0,0,1-2-2.53,2.3,2.3,0,0,1,2.42-2.31,2.1,2.1,0,0,1,1.79.63v-0.29Zm-6.33,9.79h0.29v-4.49h-0.29v4.49Zm0.29-9.66c0-.15-0.91-0.8-3.19-0.8-3,0-5.67,1.55-5.67,5.35,0,4.12,3.47,5.46,6,5.46a6.84,6.84,0,0,0,2.83-.32V470.2c0,0.24-1.34.48-2.8,0.48-2.23,0-5.75-1.25-5.75-5.18,0-3.7,2.79-5.1,5.36-5.1,1.88,0,3.19.67,3.19,0.9v-0.35Zm-18-.66,7.25,10.5h0.29l-7.22-10.5h-0.32Zm7.25,0,0,10.5h0.27v-10.5h-0.29Zm-7.25,0v10.5h0.29l0-10.5h-0.27Zm-2.8,10.5h0.31v-10.5h-0.31v10.5Zm-10-10.5,7.25,10.5h0.29l-7.22-10.5h-0.32Zm7.25,0,0,10.5h0.27v-10.5H425Zm-7.25,0v10.5H418l0-10.5h-0.27Zm-9.76,0,7.25,10.5h0.29l-7.22-10.5H408Zm7.25,0,0,10.5h0.27v-10.5h-0.29Zm-7.25,0v10.5h0.29l0-10.5H408Zm-8.74,5.85H404l0.13,0.28h-5Zm7.08,4.65H406l-4.72-10.5h0.32Zm-9.06,0,4-10.5h0.31l-4,10.5h-0.31Zm-2.69-10.5h0.29l1.23,10.51h-0.29Zm-9,0-1.23,10.51H384l1.23-10.51h0.29Zm9.37,0-4.65,10.51h-0.32l4.65-10.51h0.32Zm-9.63,0h0.32l4.65,10.51h-0.32Zm-17.71,0,7.25,10.5h0.29l-7.22-10.5h-0.32Zm7.25,0,0,10.5h0.27v-10.5h-0.29Zm-7.25,0v10.5h0.29l0-10.5h-0.27Zm-8.74,5.85h4.76l0.13,0.28h-5Zm7.08,4.65H365.6l-4.72-10.5h0.32Zm-9.06,0,4-10.5h0.31l-4,10.5h-0.31Zm-2.69-10.5h0.29l1.23,10.51h-0.29Zm-9,0L343.9,470.8h-0.29l1.23-10.51h0.29Zm9.37,0-4.65,10.51h-0.32l4.65-10.51h0.32Zm-9.63,0h0.32l4.65,10.51h-0.32Zm-7.66,9.41c0,0.39.73,1.19,2.09,1.19a2.57,2.57,0,0,0,2.76-2.69c0-2-1.85-2.62-2.49-2.87v0.31a2.78,2.78,0,0,1,2.2,2.56,2.34,2.34,0,0,1-2.45,2.42,2.42,2.42,0,0,1-2.09-1.22v0.29Zm4.55-8.88c0-.17-0.49-0.6-1.79-0.6a2.53,2.53,0,0,0-2.73,2.58,3,3,0,0,0,2.31,2.84v-0.31a2.64,2.64,0,0,1-2-2.53,2.3,2.3,0,0,1,2.42-2.31,2.1,2.1,0,0,1,1.79.63v-0.29Zm-10.92,8.88c0,0.39.73,1.19,2.09,1.19a2.57,2.57,0,0,0,2.76-2.69c0-2-1.85-2.62-2.49-2.87v0.31a2.78,2.78,0,0,1,2.2,2.56,2.34,2.34,0,0,1-2.45,2.42,2.42,2.42,0,0,1-2.09-1.22v0.29Zm4.55-8.88c0-.17-0.49-0.6-1.79-0.6a2.53,2.53,0,0,0-2.73,2.58,3,3,0,0,0,2.31,2.84v-0.31a2.64,2.64,0,0,1-2-2.53,2.3,2.3,0,0,1,2.42-2.31,2.1,2.1,0,0,1,1.79.63v-0.29ZM323.61,471a5.19,5.19,0,0,0,5.53-5.46c0-4-2.91-5.5-5.67-5.5v0.27c2.53,0,5.4,1.41,5.4,5.24a5,5,0,0,1-5.25,5.17V471Zm-0.06-11a5.09,5.09,0,0,0-5.42,5.33A5.39,5.39,0,0,0,323.7,471v-0.29a5.17,5.17,0,0,1-5.25-5.33,4.88,4.88,0,0,1,5.11-5.07v-0.27Zm-9.88,5.74,2.44,5h0.42l-2.52-5h-0.34ZM311,460.28v0.24s0.9-.08,1.48-0.08c1.33,0,3,.39,3,2.39a2.72,2.72,0,0,1-2.72,3h-1.6v0.29h1.61c1.6,0,3-1,3-3.33s-1.92-2.62-3.33-2.6a14.31,14.31,0,0,0-1.47.1m0,10.5h0.31v-10.5H311v10.5Zm-1.92-.18h0.29v-4.49h-0.29v4.49Zm0.29-9.66c0-.15-0.91-0.8-3.19-0.8-3,0-5.67,1.55-5.67,5.35,0,4.12,3.47,5.46,6,5.46a6.84,6.84,0,0,0,2.83-.32V470.2c0,0.24-1.34.48-2.8,0.48-2.23,0-5.75-1.25-5.75-5.18,0-3.7,2.79-5.1,5.36-5.1,1.88,0,3.19.67,3.19,0.9v-0.35ZM292,470.6h0.29v-4.49H292v4.49Zm0.29-9.66c0-.15-0.91-0.8-3.19-0.8-3,0-5.67,1.55-5.67,5.35,0,4.12,3.47,5.46,6,5.46a6.84,6.84,0,0,0,2.83-.32V470.2c0,0.24-1.34.48-2.8,0.48-2.23,0-5.75-1.25-5.75-5.18,0-3.7,2.79-5.1,5.36-5.1,1.88,0,3.19.67,3.19,0.9v-0.35Zm-18-.66,7.25,10.5h0.29l-7.22-10.5h-0.32Zm7.25,0,0,10.5h0.27v-10.5h-0.29Zm-7.25,0v10.5h0.29l0-10.5h-0.27Zm-2.8,10.5h0.31v-10.5h-0.31v10.5Zm-2.39-.18h0.29v-4.49h-0.29v4.49Zm0.29-9.66c0-.15-0.91-0.8-3.19-0.8-3,0-5.67,1.55-5.67,5.35,0,4.12,3.47,5.46,6,5.46a6.84,6.84,0,0,0,2.83-.32V470.2c0,0.24-1.34.48-2.8,0.48-2.23,0-5.75-1.25-5.75-5.18,0-3.7,2.79-5.1,5.36-5.1,1.88,0,3.19.67,3.19,0.9v-0.35ZM259,470.6h0.29v-4.49H259v4.49Zm0.29-9.66c0-.15-0.91-0.8-3.19-0.8-3,0-5.67,1.55-5.67,5.35,0,4.12,3.47,5.46,6,5.46a6.84,6.84,0,0,0,2.83-.32V470.2c0,0.24-1.34.48-2.8,0.48-2.23,0-5.75-1.25-5.75-5.18,0-3.7,2.79-5.1,5.36-5.1,1.88,0,3.19.67,3.19,0.9v-0.35Zm-17,5.19H247l0.13,0.28h-5Zm7.08,4.65h-0.32l-4.72-10.5h0.32Zm-9.06,0,4-10.5h0.31l-4,10.5h-0.31Zm-6.2-5.74,0,0.25h1.23c1,0,3.3.21,3.3,2.32,0,2.35-2.42,2.9-3.32,2.9s-1.19,0-1.19,0v0.29a11.2,11.2,0,0,0,1.12,0c1.19,0,3.68-.59,3.68-3.21,0-2.35-2.28-2.58-3.61-2.58-0.84,0-1.19,0-1.19,0m0-4.76v0.29s0.77-.07,1.27-0.07c1.13,0,2.59.24,2.59,2,0,2-2,2.51-3.22,2.51h-0.64v0.2h0.84c1.15,0,3.35-.52,3.35-2.7,0-2-1.72-2.27-2.93-2.25-0.57,0-1.26.07-1.26,0.07M234,470.78h0.28v-10.5H234v10.5Zm-13.68-1.09c0,0.39.73,1.19,2.09,1.19a2.57,2.57,0,0,0,2.76-2.69c0-2-1.85-2.62-2.49-2.87v0.31a2.78,2.78,0,0,1,2.2,2.56,2.34,2.34,0,0,1-2.45,2.42,2.42,2.42,0,0,1-2.09-1.22v0.29Zm4.55-8.88c0-.17-0.49-0.6-1.79-0.6a2.53,2.53,0,0,0-2.73,2.58,3,3,0,0,0,2.31,2.84v-0.31a2.64,2.64,0,0,1-2-2.53,2.3,2.3,0,0,1,2.42-2.31,2.1,2.1,0,0,1,1.79.63v-0.29ZM213,460.59h6.4v-0.31H213v0.31Zm3,10.19h0.31v-10.5H216v10.5Zm-9.62.25a5.19,5.19,0,0,0,5.53-5.46c0-4-2.91-5.5-5.67-5.5v0.27c2.53,0,5.4,1.41,5.4,5.24a5,5,0,0,1-5.25,5.17V471Zm-0.06-11a5.09,5.09,0,0,0-5.42,5.33,5.39,5.39,0,0,0,5.56,5.63v-0.29a5.17,5.17,0,0,1-5.25-5.33,4.88,4.88,0,0,1,5.11-5.07v-0.27Zm-12,5,0,0.25h1.23c1,0,3.3.21,3.3,2.32,0,2.35-2.42,2.9-3.32,2.9s-1.19,0-1.19,0v0.29a11.2,11.2,0,0,0,1.12,0c1.19,0,3.68-.59,3.68-3.21,0-2.35-2.28-2.58-3.61-2.58-0.84,0-1.19,0-1.19,0m0-4.76v0.29s0.77-.07,1.27-0.07c1.13,0,2.59.24,2.59,2,0,2-2,2.51-3.22,2.51h-0.64v0.2h0.84c1.15,0,3.35-.52,3.35-2.7,0-2-1.72-2.27-2.93-2.25-0.57,0-1.26.07-1.26,0.07m-0.08,10.5h0.28v-10.5h-0.28v10.5Zm-7.53.25a5.19,5.19,0,0,0,5.53-5.46c0-4-2.91-5.5-5.67-5.5v0.27c2.53,0,5.4,1.41,5.4,5.24a5,5,0,0,1-5.25,5.17V471Zm-0.06-11a5.09,5.09,0,0,0-5.42,5.33,5.39,5.39,0,0,0,5.56,5.63v-0.29a5.17,5.17,0,0,1-5.25-5.33,4.88,4.88,0,0,1,5.11-5.07v-0.27Zm-9.88,5.74,2.44,5h0.42l-2.52-5h-0.34Zm-2.69-5.53v0.24s0.9-.08,1.48-0.08c1.33,0,3,.39,3,2.39a2.72,2.72,0,0,1-2.72,3h-1.6v0.29h1.61c1.6,0,3-1,3-3.33s-1.92-2.62-3.33-2.6a14.31,14.31,0,0,0-1.47.1m0,10.5h0.31v-10.5h-0.31v10.5Zm-11.52-5,2.44,5h0.42l-2.52-5h-0.34Zm-2.69-5.53v0.24s0.9-.08,1.48-0.08c1.33,0,3,.39,3,2.39a2.72,2.72,0,0,1-2.72,3h-1.6v0.29h1.61c1.6,0,3-1,3-3.33s-1.92-2.62-3.33-2.6a14.31,14.31,0,0,0-1.47.1m0,10.5h0.31v-10.5h-0.31v10.5Zm-6.72,0H158v-0.29h-4.83v0.29Zm0-5.39h4.38V465.1h-4.38v0.29Zm0-4.82h4.76v-0.29h-4.76v0.29Zm-0.06,10.21h0.31v-10.5H153.1v10.5ZM152,460.28l-4.82,10.51h-0.32l4.82-10.51H152Zm-10,0h0.32l4.82,10.51h-0.32Zm-6.2,10.5h4.83v-0.29h-4.83v0.29Zm0-5.39h4.38V465.1h-4.38v0.29Zm0-4.82h4.76v-0.29h-4.76v0.29Zm-0.06,10.21h0.31v-10.5h-0.31v10.5Zm-6.33,0h4.83v-0.29h-4.83v0.29Zm0,0h0.31v-10.5h-0.31v10.5Zm-1.62-9.84c0-.15-0.91-0.8-3.37-0.8-2.72,0-5.56,1.5-5.56,5.35,0,4.12,3.32,5.46,5.63,5.46s3.44-.69,3.44-0.77v-0.43c0,0.24-1.41.92-3.42,0.92a5.13,5.13,0,0,1-5.35-5.18,4.93,4.93,0,0,1,5.17-5.1c2.14,0,3.46.67,3.46,0.9v-0.35Z"/></svg>