<svg id="Layer_12" data-name="Layer 12" xmlns="http://www.w3.org/2000/svg" viewBox="0 0 850 600"><defs><style>.cls-1{fill:#fff;}.cls-2{fill:#231f20;}</style></defs><title>term1-comparison-02</title><rect class="cls-1" width="850" height="600"/><path class="cls-2" d="M213,106.58c-13.24,0-29.67-9.37-29.67-32.25,0-19.52,14.71-30.62,28.9-30.62,14.88,0,30.27,8.6,30.27,31.56C242.49,96.51,228.21,106.58,213,106.58Zm0-8.26c10,0,20.3-7.65,20.3-23,0-16.77-11.44-23.31-20.9-23.31s-19.69,7.57-19.69,22.45C192.69,91.18,204.73,98.32,213,98.32Z"/><path class="cls-2" d="M290.73,101.07c0.09-6,.09-16.17.09-21.67,0-10-4.21-15-12.56-15-8.17,0-13.16,5.59-13.16,15.14,0,5.93-.09,12,0,17.8a1.47,1.47,0,0,0,1,1.38c1.12,0.52,5.85,1.89,5.93,2.15a3.52,3.52,0,0,1,.43,2.06c0,1.2-.26,2.15-0.6,2.15h-20c-0.34,0-.6-0.95-0.69-2.15a10.2,10.2,0,0,1,.26-2.06c0.26-.26,3.35-1.63,4-2.15a1.81,1.81,0,0,0,.86-1.55V66a1,1,0,0,0-.52-0.86l-6.19-2.58c-0.43,0-.6-1.55-0.6-2.49s0.09-2.32.6-2.32H260.2c1.55,0,2.75.69,2.84,2.32l0.34,5.85c2.32-4.9,8.51-9.46,16.77-9.46,12.56,0,19.52,5.68,19.52,23.13V97.2a2.48,2.48,0,0,0,.95,1.38c0.77,0.43,5.85,2,6.36,2.32s0.6,0.6.6,2c0,1.12-.34,2.24-0.6,2.24H293.74C291.85,105.11,290.73,103.74,290.73,101.07Z"/><path class="cls-2" d="M353.68,96.43c-2,4.3-8.17,9.89-17,9.89-13.67,0-23.74-11.09-23.74-24.85s9.89-25,23.56-25c7.48,0,14.62,4.56,17.2,9.29,0-2.32.09-4.56,0.09-5,0.09-2.67.86-3,2.75-3h9.72c0.43,0,.95.43,0.95,1.81s-0.26,2.15-.69,2.32l-5,2.15a1.1,1.1,0,0,0-.69.95V97.12a2.12,2.12,0,0,0,1,1.55,59.18,59.18,0,0,0,5.68,2.15c0.6,0.26.69,1.46,0.69,2.15S367.79,105,367,105H356.78C355.75,105,354.29,100.47,353.68,96.43Zm-31.39-15c0,9.29,5.33,17.46,14.88,17.46,8.34,0,15.22-8.69,15.22-17.46,0-9.29-6-17.63-15-17.63C328.06,63.75,322.3,72.09,322.3,81.38Z"/><path class="cls-2" d="M381.46,116.38c0-.86,1.63-1.81,2.75-2.41,1.46-.77,3.44-1.2,3.44-0.34,0,3.35,6.11,8.08,13.24,8.08,6.36,0,11.09-3.1,11.09-7.65,0-4-1.89-7.48-15.74-8.86-9.2-.95-22.19-7.14-22.19-24,0-13.93,9.46-24.42,24.6-24.42A25.55,25.55,0,0,1,413.11,61c2.41-1.46,5.25-3,6.88-3.87,1.2-.6,7.48-0.26,8.86-0.26,0.86,0-.69,8.69-2.06,8.69H424.2c0-.34-2.15-2.49-3-2.49a7,7,0,0,0-3.7,1.81,24.23,24.23,0,0,1,5.93,16.08c0,10.49-7.65,19-12.9,21.76,5.16,1.12,10.49,4.73,10.49,11.61,0,10.92-11.09,14.53-19.18,14.53C388.69,128.85,381.46,120.59,381.46,116.38Zm1.46-35.17c0.17,11,6.88,17.37,15.74,17.54,9.37,0,15.65-7.48,15.65-17.54,0-9.12-5.76-16.77-15.65-16.77C389.89,64.44,382.93,72.09,382.93,81.21Z"/><path class="cls-2" d="M492.57,105a1.87,1.87,0,0,1-1.38-1.12L474.43,65.38a2.63,2.63,0,0,0-.95-1.46l-5.85-1.72c-0.52-.09-0.95-1.38-0.95-2.06s0.17-2.41.77-2.41h12A2.37,2.37,0,0,1,482,60.05l14.36,35.69,14.28-31.13a0.49,0.49,0,0,0-.43-0.6l-5.93-1.81a4.4,4.4,0,0,1-.43-2.24c0-.69.09-2.24,0.43-2.24h18c0.6,0,.77,1.46.77,2.15,0,1-.09,2.24-0.43,2.41-0.69.34-2.49,1.12-2.92,1.38a1.68,1.68,0,0,0-.77.77l-18.15,39.3a2.22,2.22,0,0,1-1.46,1.29h-6.71Z"/><path class="cls-2" d="M526.63,81.46a25,25,0,0,1,25.28-25.2c11.61,0,21.5,9.8,21.5,22.62,0,1-3.61,3.61-4.64,3.61h-33.2c0.52,10.58,8.34,16.51,16,16.51,8.08,0,12.64-2.92,17.63-7.14,0.43-.43,1.72.52,2.58,1.63a5.36,5.36,0,0,1,.95,3.18c-3.78,4-9.37,9.55-21.41,9.55C536.69,106.23,526.63,96.17,526.63,81.46Zm9.72-5.59h29c-1.12-5.68-6.19-12.13-13.85-12.13S538.24,69.08,536.35,75.88Z"/><path class="cls-2" d="M581.15,81.46a25,25,0,0,1,25.28-25.2c11.61,0,21.5,9.8,21.5,22.62,0,1-3.61,3.61-4.64,3.61H590.1c0.52,10.58,8.34,16.51,16,16.51,8.08,0,12.64-2.92,17.63-7.14,0.43-.43,1.72.52,2.58,1.63a5.36,5.36,0,0,1,.95,3.18c-3.78,4-9.37,9.55-21.41,9.55C591.21,106.23,581.15,96.17,581.15,81.46Zm9.72-5.59h29c-1.12-5.68-6.19-12.13-13.85-12.13S592.76,69.08,590.87,75.88Z"/><path class="cls-2" d="M656.49,105H637.05a15.78,15.78,0,0,1-.26-2.15,10.2,10.2,0,0,1,.26-2.06c0.26-.26,2.15-1.63,2.84-2.15a1.53,1.53,0,0,0,.69-1.46V65.38a1.4,1.4,0,0,0-.86-1.38c-1.38-.52-5.16-2.06-5.33-2.41a2.83,2.83,0,0,1-.26-1.72,6.24,6.24,0,0,1,.26-2.15h12.38c1.55,0,1.89.6,2,2.24l-0.43,3.44c4-4,8.26-7,12.81-7,2.32,0,5.85.43,7.65,1.89,0.52,0.43-.09,6.88-0.95,7.74a4,4,0,0,1-2.84.17,8,8,0,0,0-5.25-2.32c-7,0-10.32,5.25-10.41,12.9-0.09,4.82,0,18,0,20,0.09,1,.34,1.63,1,1.81,1,0.6,6,1.89,6.11,2.15a3,3,0,0,1,.26,2.06A3.47,3.47,0,0,1,656.49,105Z"/><path class="cls-2" d="M120.41,159.47a25.16,25.16,0,1,1-24.85,25.2A25.11,25.11,0,0,1,120.41,159.47Zm-16.08,25.2c0,9.12,6.11,17.46,16,17.46s15.91-8.34,15.91-17.46-6.28-17.8-15.82-17.8C110.52,166.86,104.33,175.55,104.33,184.67Z"/><path class="cls-2" d="M172.78,208.23a1.87,1.87,0,0,1-1.38-1.12l-16.77-38.53a2.63,2.63,0,0,0-.95-1.46l-5.85-1.72c-0.52-.09-0.95-1.38-0.95-2.06s0.17-2.41.77-2.41h12a2.37,2.37,0,0,1,2.58,2.32l14.36,35.69,14.28-31.13a0.49,0.49,0,0,0-.43-0.6l-5.93-1.81a4.4,4.4,0,0,1-.43-2.24c0-.69.09-2.24,0.43-2.24h18c0.6,0,.77,1.46.77,2.15,0,1-.09,2.24-0.43,2.41-0.69.34-2.49,1.12-2.92,1.38a1.68,1.68,0,0,0-.77.77L181,206.94a2.22,2.22,0,0,1-1.46,1.29h-6.71Z"/><path class="cls-2" d="M206.84,184.67a25,25,0,0,1,25.28-25.2c11.61,0,21.5,9.8,21.5,22.62,0,1-3.61,3.61-4.64,3.61h-33.2c0.52,10.58,8.34,16.51,16,16.51,8.08,0,12.64-2.92,17.63-7.14,0.43-.43,1.72.52,2.58,1.63a5.36,5.36,0,0,1,.95,3.18c-3.78,4-9.37,9.55-21.41,9.55C216.9,209.43,206.84,199.37,206.84,184.67Zm9.72-5.59h29c-1.12-5.68-6.19-12.13-13.85-12.13S218.45,172.28,216.56,179.08Z"/><path class="cls-2" d="M294,194.64c0,9.12-8.08,14.62-17.2,14.62-9.8,0-14.79-5.25-14.45-5.25l-1.63-9.89,2.15-.26,2.24,0.26c0,4.21,4.47,7.65,10.84,7.65,4.47,0,9.63-1.81,9.63-6.28,0-5.68-9.72-7.65-12.73-9s-11.18-4.47-11.18-13.33c0-8.34,9.55-13.59,18.06-13.59,8.08,0,11.18,2.06,11.18,2.41l1.12,9.63-1.89.17-1.72-.17c0-2.41-4-5.16-9.37-5.16-4.3,0-8.69,1.72-8.69,5.76,0,4.82,7.83,7.4,11,8.69C283.9,181.91,294,185.44,294,194.64Z"/><path class="cls-2" d="M325.86,159.47A25.16,25.16,0,1,1,301,184.67,25.11,25.11,0,0,1,325.86,159.47Zm-16.08,25.2c0,9.12,6.11,17.46,16,17.46s15.91-8.34,15.91-17.46-6.28-17.8-15.82-17.8C316,166.86,309.78,175.55,309.78,184.67Z"/><path class="cls-2" d="M358.46,184.67a25,25,0,0,1,25.28-25.2c11.61,0,21.5,9.8,21.5,22.62,0,1-3.61,3.61-4.64,3.61H367.4c0.52,10.58,8.34,16.51,16,16.51,8.08,0,12.64-2.92,17.63-7.14,0.43-.43,1.72.52,2.58,1.63a5.36,5.36,0,0,1,.95,3.18c-3.78,4-9.37,9.55-21.41,9.55C368.52,209.43,358.46,199.37,358.46,184.67Zm9.72-5.59h29c-1.12-5.68-6.19-12.13-13.85-12.13S370.07,172.28,368.18,179.08Z"/><path class="cls-2" d="M481.35,204.27V180.45c0-10.15-5.85-13-10.92-13-5.42,0-10.84,4.39-10.84,12.13v20.47c0.09,1,.34,1.63,1,1.81,1,0.6,5.76,2,6.11,2.15a3.67,3.67,0,0,1,.34,2c0,1.2-.26,2.24-0.6,2.24H447.64a3.78,3.78,0,0,1-.34-2.15,4.94,4.94,0,0,1,.34-2.06,17.34,17.34,0,0,1,2.49-2.15,1.53,1.53,0,0,0,.69-1.46v-20c0-10.15-6-13-12.3-13-5.76,0-10.84,4.56-10.84,14.1v18.49c0.09,1,.34,1.63,1,1.81,1,0.6,5.16,2,5.5,2.15a3.67,3.67,0,0,1,.34,2c0,1.2-.26,2.24-0.6,2.24H415.47a3.78,3.78,0,0,1-.34-2.15,4.94,4.94,0,0,1,.34-2.06,23.93,23.93,0,0,1,2.84-2.15,1.53,1.53,0,0,0,.69-1.46V169.19a1,1,0,0,0-.52-0.86l-6.19-2.58c-0.43,0-.6-1.55-0.6-2.49s0.09-2.32.6-2.32H422.7c1.55,0,2.75.69,2.84,2.32v6.54c1.72-4.73,6.71-10.15,15.57-10.15,8.43,0,13.85,3.7,15.65,7.65,2.24-4,8.6-7.57,15.74-7.57,12.73,0,17.63,8,17.63,18.75V200.4a2.48,2.48,0,0,0,.95,1.38c0.77,0.43,5.85,2,6.36,2.32s0.6,0.6.6,2c0,1.12-.34,2.24-0.6,2.24H484.36C482.47,208.31,481.35,206.94,481.35,204.27Z"/><path class="cls-2" d="M543.44,204.27c0.09-6,.09-16.17.09-21.67,0-10-4.21-15-12.56-15-8.17,0-13.16,5.59-13.16,15.14,0,5.93-.09,12,0,17.8a1.47,1.47,0,0,0,1,1.38c1.12,0.52,5.85,1.89,5.93,2.15a3.52,3.52,0,0,1,.43,2.06c0,1.2-.26,2.15-0.6,2.15h-20c-0.34,0-.6-0.95-0.69-2.15a10.2,10.2,0,0,1,.26-2.06c0.26-.26,3.35-1.63,4-2.15a1.81,1.81,0,0,0,.86-1.55V169.19a1,1,0,0,0-.52-0.86l-6.19-2.58c-0.43,0-.6-1.55-0.6-2.49s0.09-2.32.6-2.32h10.58c1.55,0,2.75.69,2.84,2.32l0.34,5.85c2.32-4.9,8.51-9.46,16.77-9.46,12.56,0,19.52,5.68,19.52,23.13V200.4a2.48,2.48,0,0,0,.95,1.38c0.77,0.43,5.85,2,6.36,2.32s0.6,0.6.6,2c0,1.12-.34,2.24-0.6,2.24H546.45C544.56,208.31,543.44,206.94,543.44,204.27Z"/><path class="cls-2" d="M605.45,204.27c0.09-6,.09-16.17.09-21.67,0-10-4.21-15-12.56-15-8.17,0-13.16,5.59-13.16,15.14,0,5.93-.09,12,0,17.8a1.47,1.47,0,0,0,1,1.38c1.12,0.52,5.85,1.89,5.93,2.15a3.52,3.52,0,0,1,.43,2.06c0,1.2-.26,2.15-0.6,2.15h-20c-0.34,0-.6-0.95-0.69-2.15a10.2,10.2,0,0,1,.26-2.06c0.26-.26,3.35-1.63,4-2.15a1.81,1.81,0,0,0,.86-1.55V169.19a1,1,0,0,0-.52-0.86l-6.19-2.58c-0.43,0-.6-1.55-0.6-2.49s0.09-2.32.6-2.32h10.58c1.55,0,2.75.69,2.84,2.32l0.34,5.85c2.32-4.9,8.51-9.46,16.77-9.46,12.56,0,19.52,5.68,19.52,23.13V200.4a2.48,2.48,0,0,0,.95,1.38c0.77,0.43,5.85,2,6.36,2.32s0.6,0.6.6,2c0,1.12-.34,2.24-0.6,2.24H608.46C606.57,208.31,605.45,206.94,605.45,204.27Z"/><path class="cls-2" d="M627.64,184.67a25,25,0,0,1,25.28-25.2c11.61,0,21.5,9.8,21.5,22.62,0,1-3.61,3.61-4.64,3.61h-33.2c0.52,10.58,8.34,16.51,16,16.51,8.08,0,12.64-2.92,17.63-7.14,0.43-.43,1.72.52,2.58,1.63a5.36,5.36,0,0,1,.95,3.18c-3.78,4-9.37,9.55-21.41,9.55C637.7,209.43,627.64,199.37,627.64,184.67Zm9.72-5.59h29c-1.12-5.68-6.19-12.13-13.85-12.13S639.24,172.28,637.35,179.08Z"/><path class="cls-2" d="M714.75,194.64c0,9.12-8.08,14.62-17.2,14.62-9.8,0-14.79-5.25-14.45-5.25l-1.63-9.89,2.15-.26,2.24,0.26c0,4.21,4.47,7.65,10.83,7.65,4.47,0,9.63-1.81,9.63-6.28,0-5.68-9.72-7.65-12.73-9s-11.18-4.47-11.18-13.33c0-8.34,9.55-13.59,18.06-13.59,8.08,0,11.18,2.06,11.18,2.41l1.12,9.63-1.89.17-1.72-.17c0-2.41-4-5.16-9.37-5.16-4.3,0-8.69,1.72-8.69,5.76,0,4.82,7.83,7.4,11,8.69C704.69,181.91,714.75,185.44,714.75,194.64Z"/><path class="cls-2" d="M754.4,194.64c0,9.12-8.08,14.62-17.2,14.62-9.8,0-14.79-5.25-14.45-5.25l-1.63-9.89,2.15-.26,2.24,0.26c0,4.21,4.47,7.65,10.84,7.65,4.47,0,9.63-1.81,9.63-6.28,0-5.68-9.72-7.65-12.73-9s-11.18-4.47-11.18-13.33c0-8.34,9.55-13.59,18.06-13.59,8.08,0,11.18,2.06,11.18,2.41l1.12,9.63-1.89.17-1.72-.17c0-2.41-4-5.16-9.37-5.16-4.3,0-8.69,1.72-8.69,5.76,0,4.82,7.83,7.4,11,8.69C744.33,181.91,754.4,185.44,754.4,194.64Z"/><path class="cls-2" d="M121.44,262.67a25.16,25.16,0,1,1-24.85,25.2A25.11,25.11,0,0,1,121.44,262.67Zm-16.08,25.2c0,9.12,6.11,17.46,16,17.46s15.91-8.34,15.91-17.46-6.28-17.8-15.82-17.8C111.55,270.06,105.36,278.75,105.36,287.86Z"/><path class="cls-2" d="M173.82,311.43a1.87,1.87,0,0,1-1.38-1.12l-16.77-38.53a2.63,2.63,0,0,0-.95-1.46l-5.85-1.72c-0.52-.09-0.95-1.38-0.95-2.06s0.17-2.41.77-2.41h12a2.37,2.37,0,0,1,2.58,2.32l14.36,35.69L191.88,271a0.49,0.49,0,0,0-.43-0.6l-5.93-1.81a4.4,4.4,0,0,1-.43-2.24c0-.69.09-2.24,0.43-2.24h18c0.6,0,.77,1.46.77,2.15,0,1-.09,2.24-0.43,2.41-0.69.34-2.49,1.12-2.92,1.38a1.67,1.67,0,0,0-.77.77L182,310.14a2.22,2.22,0,0,1-1.46,1.29h-6.71Z"/><path class="cls-2" d="M207.87,287.86a25,25,0,0,1,25.28-25.2c11.61,0,21.5,9.8,21.5,22.62,0,1-3.61,3.61-4.64,3.61h-33.2c0.52,10.58,8.34,16.51,16,16.51,8.08,0,12.64-2.92,17.63-7.14,0.43-.43,1.72.52,2.58,1.63a5.36,5.36,0,0,1,.95,3.18c-3.78,4-9.37,9.55-21.41,9.55C217.94,312.63,207.87,302.57,207.87,287.86Zm9.72-5.59h29c-1.12-5.68-6.19-12.13-13.85-12.13S219.48,275.48,217.59,282.27Z"/><path class="cls-2" d="M283.21,311.43H263.77a15.69,15.69,0,0,1-.26-2.15,10.15,10.15,0,0,1,.26-2.06c0.26-.26,2.15-1.63,2.84-2.15a1.53,1.53,0,0,0,.69-1.46V271.78a1.4,1.4,0,0,0-.86-1.38c-1.38-.52-5.16-2.06-5.33-2.41a2.83,2.83,0,0,1-.26-1.72,6.23,6.23,0,0,1,.26-2.15h12.38c1.55,0,1.89.6,2,2.24L275,269.81c4-4,8.26-7,12.81-7,2.32,0,5.85.43,7.65,1.89,0.52,0.43-.09,6.88-0.95,7.74a4,4,0,0,1-2.84.17,8,8,0,0,0-5.25-2.32c-7,0-10.32,5.25-10.41,12.9-0.09,4.82,0,18,0,20,0.09,1,.34,1.63,1,1.81,1,0.6,6,1.89,6.11,2.15a3,3,0,0,1,.26,2.06A3.47,3.47,0,0,1,283.21,311.43Z"/><path class="cls-2" d="M322.6,311.43H301.7a15.8,15.8,0,0,1-.26-2.15,10.19,10.19,0,0,1,.26-2.06c0.26-.26,3.35-1.63,4-2.15a1.8,1.8,0,0,0,.86-1.55V254.58a1.4,1.4,0,0,0-.86-1.38c-1.38-.52-5.16-2.06-5.33-2.41a2.83,2.83,0,0,1-.26-1.72,6.23,6.23,0,0,1,.26-2.15h12.3a2.24,2.24,0,0,1,2.58,2.32v21a18.45,18.45,0,0,1,15-7.4c14.1,0,19.52,8.69,19.52,20v19.87a2.47,2.47,0,0,0,.95,1.38c0.77,0.43,6.45,2.75,7,3.1s0.6,0.6.6,2c0,1.12-.26,2.24-0.86,2.24H343.84c-1.89,0-3-1.38-3-4,0.09-5.93,0-16.94,0-22.53,0-10.49-5-14.45-12.73-14.45-7.05,0-12.56,5.25-12.56,14.53v18.75a1.47,1.47,0,0,0,1,1.38c1.12,0.52,5.85,1.89,5.93,2.15a3.52,3.52,0,0,1,.43,2.06A5.13,5.13,0,0,1,322.6,311.43Z"/><path class="cls-2" d="M403.86,302.83c-2,4.3-8.17,9.89-17,9.89-13.67,0-23.74-11.09-23.74-24.85s9.89-25,23.56-25c7.48,0,14.62,4.56,17.2,9.29,0-2.32.09-4.56,0.09-5,0.09-2.67.86-3,2.75-3h9.72c0.43,0,.95.43,0.95,1.81s-0.26,2.15-.69,2.32l-5,2.15a1.1,1.1,0,0,0-.69.95v32.16a2.12,2.12,0,0,0,1,1.55,59.24,59.24,0,0,0,5.68,2.15c0.6,0.26.69,1.46,0.69,2.15s-0.43,2.06-1.2,2.06H407C405.93,311.43,404.47,306.87,403.86,302.83Zm-31.39-15.05c0,9.29,5.33,17.46,14.88,17.46,8.34,0,15.22-8.69,15.22-17.46,0-9.29-6-17.63-15-17.63C378.24,270.15,372.47,278.49,372.47,287.78Z"/><path class="cls-2" d="M445.06,311.43H425.62a15.8,15.8,0,0,1-.26-2.15,10.19,10.19,0,0,1,.26-2.06c0.26-.26,2.15-1.63,2.84-2.15a1.53,1.53,0,0,0,.69-1.46V271.78a1.4,1.4,0,0,0-.86-1.38c-1.38-.52-5.16-2.06-5.33-2.41a2.83,2.83,0,0,1-.26-1.72,6.24,6.24,0,0,1,.26-2.15h12.38c1.55,0,1.89.6,2,2.24l-0.43,3.44c4-4,8.26-7,12.81-7,2.32,0,5.85.43,7.65,1.89,0.52,0.43-.09,6.88-0.95,7.74a4,4,0,0,1-2.84.17,8,8,0,0,0-5.25-2.32c-7,0-10.32,5.25-10.41,12.9-0.09,4.82,0,18,0,20,0.09,1,.34,1.63,1,1.81,1,0.6,6,1.89,6.11,2.15a3,3,0,0,1,.26,2.06A3.47,3.47,0,0,1,445.06,311.43Z"/><path class="cls-2" d="M495.63,297.84c0,9.12-8.08,14.62-17.2,14.62-9.8,0-14.79-5.25-14.45-5.25l-1.63-9.89,2.15-.26,2.24,0.26c0,4.21,4.47,7.65,10.84,7.65,4.47,0,9.63-1.81,9.63-6.28,0-5.68-9.72-7.65-12.73-9s-11.18-4.47-11.18-13.33c0-8.34,9.55-13.59,18.06-13.59,8.08,0,11.18,2.06,11.18,2.41l1.12,9.63-1.89.17-1.72-.17c0-2.41-4-5.16-9.37-5.16-4.3,0-8.69,1.72-8.69,5.76,0,4.82,7.83,7.4,11,8.69C485.56,285.11,495.63,288.64,495.63,297.84Z"/><path class="cls-2" d="M524.09,311.43h-20.9a15.8,15.8,0,0,1-.26-2.15,10.19,10.19,0,0,1,.26-2.06c0.26-.26,3.35-1.63,4-2.15a1.81,1.81,0,0,0,.86-1.55V254.58a1.4,1.4,0,0,0-.86-1.38c-1.38-.52-5.16-2.06-5.33-2.41a2.83,2.83,0,0,1-.26-1.72,6.24,6.24,0,0,1,.26-2.15h12.3a2.24,2.24,0,0,1,2.58,2.32v21a18.45,18.45,0,0,1,15-7.4c14.1,0,19.52,8.69,19.52,20v19.87a2.47,2.47,0,0,0,.95,1.38c0.77,0.43,6.45,2.75,7,3.1s0.6,0.6.6,2c0,1.12-.26,2.24-0.86,2.24H545.33c-1.89,0-3-1.38-3-4,0.09-5.93,0-16.94,0-22.53,0-10.49-5-14.45-12.73-14.45-7.05,0-12.56,5.25-12.56,14.53v18.75a1.47,1.47,0,0,0,1,1.38c1.12,0.52,5.85,1.89,5.93,2.15a3.51,3.51,0,0,1,.43,2.06A5.13,5.13,0,0,1,524.09,311.43Z"/><path class="cls-2" d="M604.41,307.47c0.09-6,.09-16.17.09-21.67,0-10-4.21-15-12.56-15-8.17,0-13.16,5.59-13.16,15.14,0,5.93-.09,12,0,17.8a1.47,1.47,0,0,0,1,1.38c1.12,0.52,5.85,1.89,5.93,2.15a3.52,3.52,0,0,1,.43,2.06c0,1.2-.26,2.15-0.6,2.15h-20c-0.34,0-.6-0.95-0.69-2.15a10.19,10.19,0,0,1,.26-2.06c0.26-.26,3.35-1.63,4-2.15a1.8,1.8,0,0,0,.86-1.55V272.38a1,1,0,0,0-.52-0.86l-6.19-2.58c-0.43,0-.6-1.55-0.6-2.49s0.09-2.32.6-2.32h10.58c1.55,0,2.75.69,2.84,2.32l0.34,5.85c2.32-4.9,8.51-9.46,16.77-9.46,12.56,0,19.52,5.68,19.52,23.13V303.6a2.48,2.48,0,0,0,.95,1.38c0.77,0.43,5.85,2,6.36,2.32s0.6,0.6.6,2c0,1.12-.34,2.24-0.6,2.24H607.42C605.53,311.51,604.41,310.14,604.41,307.47Z"/><path class="cls-2" d="M626.6,287.86a25,25,0,0,1,25.28-25.2c11.61,0,21.5,9.8,21.5,22.62,0,1-3.61,3.61-4.64,3.61h-33.2c0.52,10.58,8.34,16.51,16,16.51,8.08,0,12.64-2.92,17.63-7.14,0.43-.43,1.72.52,2.58,1.63a5.36,5.36,0,0,1,.95,3.18c-3.78,4-9.37,9.55-21.41,9.55C636.66,312.63,626.6,302.57,626.6,287.86Zm9.72-5.59h29c-1.12-5.68-6.19-12.13-13.85-12.13S638.21,275.48,636.32,282.27Z"/><path class="cls-2" d="M713.72,297.84c0,9.12-8.08,14.62-17.2,14.62-9.8,0-14.79-5.25-14.45-5.25l-1.63-9.89,2.15-.26,2.24,0.26c0,4.21,4.47,7.65,10.83,7.65,4.47,0,9.63-1.81,9.63-6.28,0-5.68-9.72-7.65-12.73-9s-11.18-4.47-11.18-13.33c0-8.34,9.55-13.59,18.06-13.59,8.08,0,11.18,2.06,11.18,2.41l1.12,9.63-1.89.17-1.72-.17c0-2.41-4-5.16-9.37-5.16-4.3,0-8.69,1.72-8.69,5.76,0,4.82,7.83,7.4,11,8.69C703.66,285.11,713.72,288.64,713.72,297.84Z"/><path class="cls-2" d="M753.36,297.84c0,9.12-8.08,14.62-17.2,14.62-9.8,0-14.79-5.25-14.45-5.25l-1.63-9.89,2.15-.26,2.24,0.26c0,4.21,4.47,7.65,10.84,7.65,4.47,0,9.63-1.81,9.63-6.28,0-5.68-9.72-7.65-12.73-9S721,285.2,721,276.34c0-8.34,9.55-13.59,18.06-13.59,8.08,0,11.18,2.06,11.18,2.41l1.12,9.63-1.89.17-1.72-.17c0-2.41-4-5.16-9.37-5.16-4.3,0-8.69,1.72-8.69,5.76,0,4.82,7.83,7.4,11,8.69C743.3,285.11,753.36,288.64,753.36,297.84Z"/><path class="cls-2" d="M109.49,414.63H88a6.24,6.24,0,0,1-.26-2.15,4.24,4.24,0,0,1,.26-2.06c0.17-.34,3.7-1.55,4.9-2.15A1.52,1.52,0,0,0,94,406.72V362.43a1.47,1.47,0,0,0-.95-1.38c-1.29-.77-4.9-2.06-5.07-2.41a4.24,4.24,0,0,1-.26-2.06,6.24,6.24,0,0,1,.26-2.15h21.5a6.25,6.25,0,0,1,.26,2.15,4.25,4.25,0,0,1-.26,2.06c-0.17.34-4.3,1.89-5.25,2.41a1.44,1.44,0,0,0-1,1.38V378H130.3V362.43a1.47,1.47,0,0,0-.95-1.38c-1.2-.6-5.16-2.06-5.33-2.41a4.25,4.25,0,0,1-.26-2.06,6.25,6.25,0,0,1,.26-2.15h21.5a6.23,6.23,0,0,1,.26,2.15,4.24,4.24,0,0,1-.26,2.06c-0.17.34-4,1.89-5,2.41a1.44,1.44,0,0,0-1,1.38v44a1.61,1.61,0,0,0,1,1.81c0.95,0.52,4.82,1.81,5,2.15a4.24,4.24,0,0,1,.26,2.06,6.23,6.23,0,0,1-.26,2.15H124a6.24,6.24,0,0,1-.26-2.15,4.25,4.25,0,0,1,.26-2.06c0.17-.34,4-1.72,5.16-2.15a1.46,1.46,0,0,0,1.12-1.55V386H103.21v20.47a1.61,1.61,0,0,0,1,1.81c0.95,0.52,5.07,1.81,5.25,2.15a4.25,4.25,0,0,1,.26,2.06A6.24,6.24,0,0,1,109.49,414.63Z"/><path class="cls-2" d="M180.44,365.87a25.16,25.16,0,1,1-24.85,25.2A25.11,25.11,0,0,1,180.44,365.87Zm-16.08,25.2c0,9.12,6.11,17.46,16,17.46s15.91-8.34,15.91-17.46-6.28-17.8-15.82-17.8C170.55,373.26,164.36,381.95,164.36,391.07Z"/><path class="cls-2" d="M281.4,410.67V386.85c0-10.15-5.85-13-10.92-13-5.42,0-10.84,4.39-10.84,12.13v20.47c0.09,1,.34,1.63,1,1.81,1,0.6,5.76,2,6.11,2.15a3.67,3.67,0,0,1,.34,2c0,1.2-.26,2.24-0.6,2.24H247.69a3.78,3.78,0,0,1-.34-2.15,4.94,4.94,0,0,1,.34-2.06,17.35,17.35,0,0,1,2.49-2.15,1.53,1.53,0,0,0,.69-1.46v-20c0-10.15-6-13-12.3-13-5.76,0-10.84,4.56-10.84,14.1v18.49c0.09,1,.34,1.63,1,1.81,1,0.6,5.16,2,5.5,2.15a3.67,3.67,0,0,1,.34,2c0,1.2-.26,2.24-0.6,2.24H215.53a3.78,3.78,0,0,1-.34-2.15,4.94,4.94,0,0,1,.34-2.06,24,24,0,0,1,2.84-2.15,1.53,1.53,0,0,0,.69-1.46V375.59a1,1,0,0,0-.52-0.86l-6.19-2.58c-0.43,0-.6-1.55-0.6-2.49s0.09-2.32.6-2.32h10.41c1.55,0,2.75.69,2.84,2.32v6.54c1.72-4.73,6.71-10.15,15.57-10.15,8.43,0,13.85,3.7,15.65,7.65,2.24-4,8.6-7.57,15.74-7.57,12.73,0,17.63,8,17.63,18.75V406.8a2.47,2.47,0,0,0,.95,1.38c0.77,0.43,5.85,2,6.36,2.32s0.6,0.6.6,2c0,1.12-.34,2.24-0.6,2.24H284.41C282.52,414.71,281.4,413.34,281.4,410.67Z"/><path class="cls-2" d="M343.49,410.67c0.09-6,.09-16.17.09-21.67,0-10-4.21-15-12.56-15-8.17,0-13.16,5.59-13.16,15.14,0,5.93-.09,12,0,17.8a1.47,1.47,0,0,0,1,1.38c1.12,0.52,5.85,1.89,5.93,2.15a3.52,3.52,0,0,1,.43,2.06c0,1.2-.26,2.15-0.6,2.15h-20c-0.34,0-.6-0.95-0.69-2.15a10.2,10.2,0,0,1,.26-2.06c0.26-.26,3.35-1.63,4-2.15a1.8,1.8,0,0,0,.86-1.55V375.59a1,1,0,0,0-.52-0.86l-6.19-2.58c-0.43,0-.6-1.55-0.6-2.49s0.09-2.32.6-2.32H313c1.55,0,2.75.69,2.84,2.32l0.34,5.85c2.32-4.9,8.51-9.46,16.77-9.46,12.56,0,19.52,5.68,19.52,23.13V406.8a2.47,2.47,0,0,0,.95,1.38c0.77,0.43,5.85,2,6.36,2.32s0.6,0.6.6,2c0,1.12-.34,2.24-0.6,2.24H346.5C344.61,414.71,343.49,413.34,343.49,410.67Z"/><path class="cls-2" d="M390.53,365.87a25.16,25.16,0,1,1-24.85,25.2A25.11,25.11,0,0,1,390.53,365.87Zm-16.08,25.2c0,9.12,6.11,17.46,16,17.46s15.91-8.34,15.91-17.46-6.28-17.8-15.82-17.8C380.64,373.26,374.45,381.95,374.45,391.07Z"/><path class="cls-2" d="M532.17,410.67V386.85c0-10.15-5.85-13-10.92-13-5.42,0-10.84,4.39-10.84,12.13v20.47c0.09,1,.34,1.63,1,1.81,1,0.6,5.76,2,6.11,2.15a3.67,3.67,0,0,1,.34,2c0,1.2-.26,2.24-0.6,2.24H498.46a3.78,3.78,0,0,1-.34-2.15,4.94,4.94,0,0,1,.34-2.06,17.32,17.32,0,0,1,2.49-2.15,1.53,1.53,0,0,0,.69-1.46v-20c0-10.15-6-13-12.3-13-5.76,0-10.83,4.56-10.83,14.1v18.49c0.09,1,.34,1.63,1,1.81,1,0.6,5.16,2,5.5,2.15a3.67,3.67,0,0,1,.34,2c0,1.2-.26,2.24-0.6,2.24H466.3a3.77,3.77,0,0,1-.34-2.15,4.92,4.92,0,0,1,.34-2.06,24,24,0,0,1,2.84-2.15,1.53,1.53,0,0,0,.69-1.46V375.59a1,1,0,0,0-.52-0.86l-6.19-2.58c-0.43,0-.6-1.55-0.6-2.49s0.09-2.32.6-2.32h10.41c1.55,0,2.75.69,2.84,2.32v6.54c1.72-4.73,6.71-10.15,15.57-10.15,8.43,0,13.85,3.7,15.65,7.65,2.24-4,8.6-7.57,15.74-7.57,12.73,0,17.63,8,17.63,18.75V406.8a2.47,2.47,0,0,0,.95,1.38c0.77,0.43,5.85,2,6.36,2.32s0.6,0.6.6,2c0,1.12-.34,2.24-0.6,2.24H535.19C533.29,414.71,532.17,413.34,532.17,410.67Z"/><path class="cls-2" d="M579.3,365.87a25.16,25.16,0,1,1-24.85,25.2A25.11,25.11,0,0,1,579.3,365.87Zm-16.08,25.2c0,9.12,6.11,17.46,16,17.46s15.91-8.34,15.91-17.46-6.28-17.8-15.82-17.8C569.41,373.26,563.22,381.95,563.22,391.07Z"/><path class="cls-2" d="M632.71,414.63H613.27a15.78,15.78,0,0,1-.26-2.15,10.2,10.2,0,0,1,.26-2.06c0.26-.26,2.15-1.63,2.84-2.15a1.53,1.53,0,0,0,.69-1.46V375a1.4,1.4,0,0,0-.86-1.38c-1.38-.52-5.16-2.06-5.33-2.41a2.83,2.83,0,0,1-.26-1.72,6.24,6.24,0,0,1,.26-2.15H623c1.55,0,1.89.6,2,2.24L624.54,373c4-4,8.26-7,12.81-7,2.32,0,5.85.43,7.65,1.89,0.52,0.43-.09,6.88-0.95,7.74a4,4,0,0,1-2.84.17,8,8,0,0,0-5.25-2.32c-7,0-10.32,5.25-10.41,12.9-0.09,4.82,0,18,0,20,0.09,1,.34,1.63,1,1.81,1,0.6,6,1.89,6.11,2.15a3,3,0,0,1,.26,2.06A3.47,3.47,0,0,1,632.71,414.63Z"/><path class="cls-2" d="M658.08,426c0-.86,1.63-1.81,2.75-2.41,1.46-.77,3.44-1.2,3.44-0.34,0,3.35,6.11,8.08,13.24,8.08,6.36,0,11.09-3.1,11.09-7.65,0-4-1.89-7.48-15.74-8.86-9.2-.95-22.19-7.14-22.19-24,0-13.93,9.46-24.42,24.6-24.42a25.55,25.55,0,0,1,14.45,4.21c2.41-1.46,5.25-3,6.88-3.87,1.2-.6,7.48-0.26,8.86-0.26,0.86,0-.69,8.69-2.06,8.69h-2.58c0-.34-2.15-2.49-3-2.49a7,7,0,0,0-3.7,1.81A24.23,24.23,0,0,1,700,390.55c0,10.49-7.65,19-12.9,21.76,5.16,1.12,10.49,4.73,10.49,11.61,0,10.92-11.09,14.53-19.18,14.53C665.3,438.45,658.08,430.19,658.08,426Zm1.46-35.17c0.17,11,6.88,17.37,15.74,17.54,9.37,0,15.65-7.48,15.65-17.54,0-9.12-5.76-16.77-15.65-16.77C666.51,374,659.54,381.69,659.54,390.81Z"/><path class="cls-2" d="M749.49,406c-2,4.3-8.17,9.89-17,9.89-13.67,0-23.74-11.09-23.74-24.85s9.89-25,23.56-25c7.48,0,14.62,4.56,17.2,9.29,0-2.32.09-4.56,0.09-5,0.09-2.67.86-3,2.75-3h9.72c0.43,0,.95.43,0.95,1.81s-0.26,2.15-.69,2.32l-5,2.15a1.1,1.1,0,0,0-.69.95v32.16a2.12,2.12,0,0,0,1,1.55,58.75,58.75,0,0,0,5.68,2.15c0.6,0.26.69,1.46,0.69,2.15s-0.43,2.06-1.2,2.06H752.59C751.56,414.63,750.1,410.07,749.49,406Zm-31.39-15c0,9.29,5.33,17.46,14.88,17.46,8.34,0,15.22-8.69,15.22-17.46,0-9.29-6-17.63-15-17.63C723.87,373.35,718.11,381.69,718.11,391Z"/><path class="cls-2" d="M98.61,511.21l-3.44,5.33a1.86,1.86,0,0,1-1.72,1.29H90.27v-57l-6.19-3.1c-0.43,0-.86-1.29-0.86-2.24s0.34-2.15.86-2.15H96.29a2.24,2.24,0,0,1,2.58,2.32L99,477.24c2.58-3.7,9-8,16.51-8,13.93,0,22,10.92,22,24,0,16.68-11.61,26-23.74,26C108.24,519.21,100.5,514.91,98.61,511.21Zm15.57-.34c9.12,0,14.62-7.48,14.62-16.94,0-11.18-6.62-17.29-15.39-17.29-8.34,0-14.88,8.26-14.88,17.63C98.53,505,104.89,510.86,114.18,510.86Z"/><path class="cls-2" d="M186.59,510.09c-2.41,4.39-8.77,9-16.68,9-12.38,0-18.66-8.26-18.66-18.83V477.84a1,1,0,0,0-.77-0.77L143.42,475a3.89,3.89,0,0,1-.77-2.32c0-.77.34-2.15,0.77-2.15h13.42c1.89,0,3.27,1,3.27,2.58v25.2c0,10.15,5.85,13,12,13.16A13.6,13.6,0,0,0,185.3,498c0-5.93.09-14.19,0-20a0.65,0.65,0,0,0-.43-0.6l-7.65-2.32c-0.69-.34-0.86-1.55-0.86-2.41s0.34-2.15.86-2.15h13.85c1.89,0,3,1.38,3,4v34.14a2.24,2.24,0,0,0,1.12,1.89l5.33,2.15a3.57,3.57,0,0,1,.77,2.49c0,1-.34,2.58-0.77,2.58H189.43a2.24,2.24,0,0,1-2.58-2.32Z"/><path class="cls-2" d="M228.13,517.83H208.69a15.75,15.75,0,0,1-.26-2.15,10.16,10.16,0,0,1,.26-2.06c0.26-.26,2.15-1.63,2.84-2.15a1.53,1.53,0,0,0,.69-1.46V478.18a1.4,1.4,0,0,0-.86-1.38c-1.38-.52-5.16-2.06-5.33-2.41a2.83,2.83,0,0,1-.26-1.72,6.23,6.23,0,0,1,.26-2.15h12.38c1.55,0,1.89.6,2,2.24L220,476.21c4-4,8.26-7,12.81-7,2.32,0,5.85.43,7.65,1.89,0.52,0.43-.09,6.88-0.95,7.74a4,4,0,0,1-2.84.17,8,8,0,0,0-5.25-2.32c-7,0-10.32,5.25-10.41,12.9-0.09,4.82,0,18,0,20,0.09,1,.34,1.63,1,1.81,1,0.6,6,1.89,6.11,2.15a3,3,0,0,1,.26,2.06A3.47,3.47,0,0,1,228.13,517.83Z"/><path class="cls-2" d="M253.49,529.18c0-.86,1.63-1.81,2.75-2.41,1.46-.77,3.44-1.2,3.44-0.34,0,3.35,6.11,8.08,13.24,8.08,6.36,0,11.09-3.1,11.09-7.65,0-4-1.89-7.48-15.74-8.86-9.2-.95-22.19-7.14-22.19-24,0-13.93,9.46-24.42,24.6-24.42a25.55,25.55,0,0,1,14.45,4.21c2.41-1.46,5.25-3,6.88-3.87,1.2-.6,7.48-0.26,8.86-0.26,0.86,0-.69,8.69-2.06,8.69h-2.58c0-.34-2.15-2.49-3-2.49a7,7,0,0,0-3.7,1.81,24.24,24.24,0,0,1,5.93,16.08c0,10.49-7.65,19-12.9,21.76,5.16,1.12,10.49,4.73,10.49,11.61,0,10.92-11.09,14.53-19.18,14.53C260.72,541.65,253.49,533.39,253.49,529.18ZM255,494c0.17,11,6.88,17.37,15.74,17.54,9.37,0,15.65-7.48,15.65-17.54,0-9.12-5.76-16.77-15.65-16.77C261.92,477.24,255,484.89,255,494Z"/><path class="cls-2" d="M317.91,509.14a2.48,2.48,0,0,0,.95,1.38c0.77,0.43,6.19,2.75,6.71,3.1s0.6,0.6.6,2a10.29,10.29,0,0,1-.43,2.24H311.8c-1.89,0-3-1.38-3-4L309,461a1.4,1.4,0,0,0-.86-1.38c-1.38-.52-5.16-2.06-5.33-2.41a2.83,2.83,0,0,1-.26-1.72,6.24,6.24,0,0,1,.26-2.15h12.73a2.24,2.24,0,0,1,2.58,2.32Z"/><path class="cls-2" d="M373.12,509.23c-2,4.3-8.17,9.89-17,9.89-13.67,0-23.74-11.09-23.74-24.85s9.89-25,23.56-25c7.48,0,14.62,4.56,17.2,9.29,0-2.32.09-4.56,0.09-5,0.09-2.67.86-3,2.75-3h9.72c0.43,0,.95.43,0.95,1.81s-0.26,2.15-.69,2.32l-5,2.15a1.1,1.1,0,0,0-.69.95v32.16a2.12,2.12,0,0,0,1,1.55,59,59,0,0,0,5.68,2.15c0.6,0.26.69,1.46,0.69,2.15s-0.43,2.06-1.2,2.06H376.21C375.18,517.83,373.72,513.27,373.12,509.23Zm-31.39-15c0,9.29,5.33,17.46,14.88,17.46,8.34,0,15.22-8.69,15.22-17.46,0-9.29-6-17.63-15-17.63C347.49,476.55,341.73,484.89,341.73,494.18Z"/><path class="cls-2" d="M414.31,517.83H394.88a15.67,15.67,0,0,1-.26-2.15,10.16,10.16,0,0,1,.26-2.06c0.26-.26,2.15-1.63,2.84-2.15a1.53,1.53,0,0,0,.69-1.46V478.18a1.4,1.4,0,0,0-.86-1.38c-1.38-.52-5.16-2.06-5.33-2.41a2.83,2.83,0,0,1-.26-1.72,6.22,6.22,0,0,1,.26-2.15h12.38c1.55,0,1.89.6,2,2.24l-0.43,3.44c4-4,8.26-7,12.81-7,2.32,0,5.85.43,7.65,1.89,0.52,0.43-.09,6.88-0.95,7.74a4,4,0,0,1-2.84.17,8,8,0,0,0-5.25-2.32c-7,0-10.32,5.25-10.41,12.9-0.09,4.82,0,18,0,20,0.09,1,.34,1.63,1,1.81,1,0.6,6,1.89,6.11,2.15a3,3,0,0,1,.26,2.06A3.46,3.46,0,0,1,414.31,517.83Z"/><path class="cls-2" d="M480.36,529.18c0-.86,1.63-1.81,2.75-2.41,1.46-.77,3.44-1.2,3.44-0.34,0,3.35,6.11,8.08,13.24,8.08,6.36,0,11.09-3.1,11.09-7.65,0-4-1.89-7.48-15.74-8.86-9.2-.95-22.19-7.14-22.19-24,0-13.93,9.46-24.42,24.6-24.42A25.55,25.55,0,0,1,512,473.8c2.41-1.46,5.25-3,6.88-3.87,1.2-.6,7.48-0.26,8.86-0.26,0.86,0-.69,8.69-2.06,8.69H523.1c0-.34-2.15-2.49-3-2.49a7,7,0,0,0-3.7,1.81,24.23,24.23,0,0,1,5.93,16.08c0,10.49-7.65,19-12.9,21.76,5.16,1.12,10.49,4.73,10.49,11.61,0,10.92-11.09,14.53-19.18,14.53C487.58,541.65,480.36,533.39,480.36,529.18ZM481.82,494c0.17,11,6.88,17.37,15.74,17.54,9.37,0,15.65-7.48,15.65-17.54,0-9.12-5.76-16.77-15.65-16.77C488.79,477.24,481.82,484.89,481.82,494Z"/><path class="cls-2" d="M555.87,469.07A25.16,25.16,0,1,1,531,494.27,25.11,25.11,0,0,1,555.87,469.07Zm-16.08,25.2c0,9.12,6.11,17.46,16,17.46s15.91-8.34,15.91-17.46-6.28-17.8-15.82-17.8C546,476.46,539.78,485.15,539.78,494.27Z"/><path class="cls-2" d="M600.41,511.21L597,516.54a1.86,1.86,0,0,1-1.72,1.29h-3.18v-57l-6.19-3.1c-0.43,0-.86-1.29-0.86-2.24s0.34-2.15.86-2.15h12.21a2.24,2.24,0,0,1,2.58,2.32l0.17,21.59c2.58-3.7,9-8,16.51-8,13.93,0,22,10.92,22,24,0,16.68-11.61,26-23.74,26C610,519.21,602.31,514.91,600.41,511.21Zm15.57-.34c9.12,0,14.62-7.48,14.62-16.94,0-11.18-6.62-17.29-15.39-17.29-8.34,0-14.88,8.26-14.88,17.63C600.33,505,606.69,510.86,616,510.86Z"/><path class="cls-2" d="M688,509.23c-2,4.3-8.17,9.89-17,9.89-13.67,0-23.74-11.09-23.74-24.85s9.89-25,23.56-25c7.48,0,14.62,4.56,17.2,9.29,0-2.32.09-4.56,0.09-5,0.09-2.67.86-3,2.75-3h9.72c0.43,0,.95.43,0.95,1.81s-0.26,2.15-.69,2.32l-5,2.15a1.1,1.1,0,0,0-.69.95v32.16a2.12,2.12,0,0,0,1,1.55,59.08,59.08,0,0,0,5.68,2.15c0.6,0.26.69,1.46,0.69,2.15s-0.43,2.06-1.2,2.06H691.06C690,517.83,688.56,513.27,688,509.23Zm-31.39-15c0,9.29,5.33,17.46,14.88,17.46,8.34,0,15.22-8.69,15.22-17.46,0-9.29-6-17.63-15-17.63C662.33,476.55,656.57,484.89,656.57,494.18Z"/><path class="cls-2" d="M748.16,513.87c0.09-6,.09-16.17.09-21.67,0-10-4.21-15-12.56-15-8.17,0-13.16,5.59-13.16,15.14,0,5.93-.09,12,0,17.8a1.47,1.47,0,0,0,1,1.38c1.12,0.52,5.85,1.89,5.93,2.15a3.52,3.52,0,0,1,.43,2.06c0,1.2-.26,2.15-0.6,2.15h-20c-0.34,0-.6-0.95-0.69-2.15a10.2,10.2,0,0,1,.26-2.06c0.26-.26,3.35-1.63,4-2.15a1.8,1.8,0,0,0,.86-1.55V478.79a0.94,0.94,0,0,0-.52-0.86l-6.19-2.58c-0.43,0-.6-1.55-0.6-2.49s0.09-2.32.6-2.32h10.58c1.55,0,2.75.69,2.84,2.32l0.34,5.85c2.32-4.9,8.51-9.46,16.77-9.46,12.56,0,19.52,5.68,19.52,23.13V510a2.48,2.48,0,0,0,.95,1.38c0.77,0.43,5.85,2,6.36,2.32s0.6,0.6.6,2c0,1.12-.34,2.24-0.6,2.24H751.17C749.28,517.92,748.16,516.54,748.16,513.87Z"/></svg>