<svg id="Layer_12" data-name="Layer 12" xmlns="http://www.w3.org/2000/svg" viewBox="0 0 850 600"><defs><style>.cls-1{fill:#fff;}.cls-2{fill:#231f20;}</style></defs><title>term1-comparison-01</title><rect class="cls-1" width="850" height="600"/><path class="cls-2" d="M730.68,492.75c0.26-9.48,5.08-15,12.58-15s12.32,2.93,13,13.09c0.52,7.49-.09,17.23-0.34,25.32,0,1.55,1.29,2.58,3.19,2.58h13.35v-5.51L764.79,511c0-4.13.52-12.75,0-22.05-0.6-10.6-4.82-18.86-18.86-18.86-10.94,0-17.74,5.94-17.74,12.06l1.21,0.17L729,473.71a2.25,2.25,0,0,0-2.58-2.33H715.26v5.08l6.72,2.41-0.52,35.83c0,2.67,1.12,4,3,4H738.6v-5.51l-8.1-2.24c-0.09-5.77,0-12.32.17-18.26m-39.19,26h14.13l-0.17-5.51-8.1-2.24c-0.43-7.41-.69-22.91-0.09-32.9l5.77-2.24,0.17-5.51H691.57c-1.9,0-3,1.38-3,4,0,0.69.43,5.6,0.43,8.87l1-1c-2.58-7.41-8.79-12.15-18.18-12.15-13.7,0-23.86,11.2-23.86,25.07s10.34,25,24,25c11,0,18.26-7.92,18.26-12.75h-1c0,4.82.09,11.37,2.24,11.37m-18.35-40.92c9,0,16,7.92,16,17.23s-6.37,17.14-16,17.14c-9,0-16.62-7.84-16.62-17.14s7.24-17.23,16.62-17.23m-59.26,41.95c14.39,0,23.52-10.42,23.52-26.62,0-11.46-4.82-23.09-19.47-23.09-6.72,0-11.8,2.84-16.28,7.84l1.29,0.95,0.43-22.4a2.25,2.25,0,0,0-2.58-2.33H587.86v5.08l6.2,2.41V512.9c0,2.67,1.12,4,3,4a45.46,45.46,0,0,0,16.8,2.84M603,509.71c-0.09-5.77-.26-11-0.26-17,0-9.39,5.6-15.07,13.09-15.07,6.63,0,12.92,5.94,12.92,16.19,0,9.3-4.91,18.69-14.3,18.69-5.69,0-9.56-1.46-11.46-2.84m-62.54-14.56c0,9.3,7.49,17.23,16.45,17.23,9.65,0,16.45-7.92,16.45-17.23s-7.49-17.31-16.45-17.31c-9.39,0-16.45,8-16.45,17.31m16.45-25.24A25.2,25.2,0,1,1,532,495.16a25.15,25.15,0,0,1,24.89-25.24m-46.6,4.22,15.16-7.67,2.15,2.33v5.51l-5.34-.26-8.79,3.53Zm-7.24,36,12.32-5.34L503.62,518l-0.86-1.29c9,0,19.55,4,19.55,15.5,0,10.16-9,19.38-22.14,19.38-14.9,0-20.59-13.18-20.59-23.17H486c0,7.15,5.17,15.25,14.47,15.25,7.49,0,12.49-4.48,12.49-10.6,0-7.49-7.15-10.6-16.11-10.6l-2.5-4Zm-15.68-18.09c0,7.41,5.86,14,12.75,14,7.41,0,12.75-6.55,12.75-14s-5.86-14-12.75-14c-7.15,0-12.75,6.55-12.75,14m12.75-21.36A21.32,21.32,0,1,1,478.73,492a21.41,21.41,0,0,1,21.45-21.28m-94.41,22.05c0.26-9.48,4-14.82,10.6-14.82a8.49,8.49,0,0,1,5.25,2l2.84-.17c0.09-.95,1.46-7.32.95-7.75-1.81-1.46-5.34-1.9-7.67-1.9-8.79,0-14.64,5.94-14.64,12.06l1.21,0.17-0.43-8.61a2.25,2.25,0,0,0-2.58-2.33h-10.6v4.82l6.2,2.67-0.52,35.83c0,2.67,1.12,4,3,4h12.83v-4.91L405.6,511c-0.09-5.77,0-12.32.17-18.26m-39.37,26h14.13l-0.17-5.51-8.1-2.24c-0.43-7.41-.69-22.91-0.09-32.9l5.77-2.24,0.17-5.51H366.49c-1.9,0-3,1.38-3,4,0,0.69.43,5.6,0.43,8.87l1-1c-2.58-7.41-8.79-12.15-18.18-12.15-13.7,0-23.86,11.2-23.86,25.07s10.34,25,24,25c11,0,18.26-7.92,18.26-12.75h-1c0,4.82.09,11.37,2.24,11.37m-18.35-40.92c9,0,16,7.92,16,17.23s-6.37,17.14-16,17.14c-9,0-16.62-7.84-16.62-17.14s7.24-17.23,16.62-17.23m-44.62-21.36a2.25,2.25,0,0,0-2.58-2.33H288.1v5.08l6.2,2.41L294,514.71c0,2.67,1.12,4,3,4h13.44v-5.51L303,511Zm-35.75,17.66,15.16-7.67L285,468.8v5.51l-5.34-.26-8.79,3.53Zm-7.24,36,12.32-5.34L261,518l-0.86-1.29c9,0,19.55,4,19.55,15.5,0,10.16-9,19.38-22.14,19.38-14.9,0-20.59-13.18-20.59-23.17h6.37c0,7.15,5.17,15.25,14.47,15.25,7.49,0,12.49-4.48,12.49-10.6,0-7.49-7.15-10.6-16.11-10.6l-2.5-4Zm-15.68-18.09c0,7.41,5.86,14,12.75,14,7.41,0,12.75-6.55,12.75-14s-5.86-14-12.75-14c-7.15,0-12.75,6.55-12.75,14m12.75-21.36A21.32,21.32,0,1,1,236.08,492a21.41,21.41,0,0,1,21.45-21.28m-51.34,22.05c0.26-9.48,4-14.82,10.6-14.82a8.49,8.49,0,0,1,5.25,2l2.84-.17c0.09-.95,1.46-7.32.95-7.75-1.81-1.46-5.34-1.9-7.67-1.9-8.79,0-14.64,5.94-14.64,12.06l1.21,0.17-0.43-8.61a2.25,2.25,0,0,0-2.58-2.33h-10.6v4.82l6.2,2.67-0.52,35.83c0,2.67,1.12,4,3,4h12.83v-4.91L206,511c-0.09-5.77,0-12.32.17-18.26m-38.42,4.65c-0.26,9.48-4.91,14.82-12.4,14.82-6.63,0-12.06-2.84-12.75-13-0.52-7.49-.09-17.14.17-25.24,0-1.55-1.29-2.58-3.19-2.58H126.17v5.51l7.67,2.24c0,4.13-.52,12.75,0,22.05,0.6,10.6,4.82,18.86,18.86,18.86,10.94,0,17.74-5.94,17.74-12.06l-1.21-.17,0.43,8.61a2.25,2.25,0,0,0,2.58,2.33h11.11v-5.08l-6.72-2.41,0.52-35.83c0-2.67-1.12-4-3-4h-14.3v5.51l8.1,2.24c0.09,5.77,0,12.32-.17,18.26m-71.06,22.4c14.39,0,23.52-10.42,23.52-26.62,0-11.46-4.82-23.09-19.47-23.09-6.72,0-11.8,2.84-16.28,7.84l1.29,0.95,0.43-22.4a2.25,2.25,0,0,0-2.58-2.33H70.69v5.08l6.2,2.41V512.9c0,2.67,1.12,4,3,4a45.46,45.46,0,0,0,16.8,2.84M85.85,509.71c-0.09-5.77-.26-11-0.26-17,0-9.39,5.6-15.07,13.09-15.07,6.63,0,12.92,5.94,12.92,16.19,0,9.3-4.91,18.69-14.3,18.69-5.69,0-9.56-1.46-11.46-2.84"/><path class="cls-2" d="M757.21,415.39h14.13l-0.17-5.51-8.1-2.24c-0.43-7.41-.69-22.91-0.09-32.9l5.77-2.24,0.17-5.51H757.3c-1.9,0-3,1.38-3,4,0,0.69.43,5.6,0.43,8.87l1-1c-2.58-7.41-8.79-12.15-18.18-12.15-13.7,0-23.86,11.2-23.86,25.07s10.34,25,24,25c11,0,18.26-7.92,18.26-12.75h-1c0,4.82.09,11.37,2.24,11.37m-18.35-40.92c9,0,16,7.92,16,17.23s-6.37,17.14-16,17.14c-9,0-16.62-7.84-16.62-17.14s7.24-17.23,16.62-17.23m-48.67-3.7,15.16-7.67,2.15,2.33v5.51l-5.34-.26-8.79,3.53Zm-7.24,36,12.32-5.34-11.8,13.18-0.86-1.29c9,0,19.55,4,19.55,15.5,0,10.16-9,19.38-22.14,19.38-14.9,0-20.59-13.18-20.59-23.17h6.37c0,7.15,5.17,15.25,14.47,15.25,7.49,0,12.49-4.48,12.49-10.6,0-7.49-7.15-10.6-16.11-10.6l-2.5-4Zm-15.68-18.09c0,7.41,5.86,14,12.75,14,7.41,0,12.75-6.55,12.75-14s-5.86-14-12.75-14c-7.15,0-12.75,6.55-12.75,14M680,367.33a21.32,21.32,0,1,1-21.45,21.28A21.41,21.41,0,0,1,680,367.33M628.7,389.38c0.26-9.48,4-14.82,10.6-14.82a8.49,8.49,0,0,1,5.25,2l2.84-.17c0.09-.95,1.46-7.32.95-7.75-1.81-1.46-5.34-1.9-7.67-1.9-8.79,0-14.64,5.94-14.64,12.06l1.21,0.17-0.43-8.61a2.25,2.25,0,0,0-2.58-2.33h-10.6v4.82l6.2,2.67-0.52,35.83c0,2.67,1.12,4,3,4h12.83v-4.91l-6.63-2.84c-0.09-5.77,0-12.32.17-18.26m-66.15,2.41c0,9.3,7.49,17.23,16.45,17.23,9.65,0,16.45-7.92,16.45-17.23S588,374.48,579,374.48c-9.39,0-16.45,8-16.45,17.31M579,366.55a25.2,25.2,0,1,1-24.89,25.24A25.15,25.15,0,0,1,579,366.55m-95.7,43.33-8.1-2.24c-0.09-5.77,0-12.32.17-18.26,0.26-9.48,4.31-14.82,11-14.82,5.08,0,11.11,2.84,11.8,13,0.52,7.49.09,17.14-.17,25.24,0,1.55,1.29,2.58,3.19,2.58h13.52v-5.51L507,407.64V384.56c1.64-7,6.89-10,12.49-10,3.36,0,9.65,2.84,10.34,13,0.52,7.49.09,17.14-.17,25.24,0,1.55,1.29,2.58,3.19,2.58h13.44v-5.51l-7.67-2.24c0-4.13.52-12.75,0-22.05-0.6-10.6-5.6-18.86-16.37-18.86-8.1,0-15.07,3-18.78,10.08h2.33c-3.53-7.58-8.1-10.08-16.11-10.08-7.75,0-13.7,3.62-17.06,10.42l1.29,0.26-0.43-7.06a2.25,2.25,0,0,0-2.58-2.33H459.78v5.08l6.72,2.41L466,411.34c0,2.67,1.12,4,3,4h14.3v-5.51ZM366.15,391.79c0,9.3,7.49,17.23,16.45,17.23,9.65,0,16.45-7.92,16.45-17.23s-7.49-17.31-16.45-17.31c-9.39,0-16.45,8-16.45,17.31m16.45-25.24a25.2,25.2,0,1,1-24.89,25.24,25.15,25.15,0,0,1,24.89-25.24m-75.28,22.83c0.26-9.48,5.08-15,12.58-15s12.32,2.93,13,13.09c0.52,7.49-.09,17.23-0.34,25.32,0,1.55,1.29,2.58,3.19,2.58h13.35v-5.51l-7.67-2.24c0-4.13.52-12.75,0-22.05-0.6-10.6-4.82-18.86-18.86-18.86-10.94,0-17.74,5.94-17.74,12.06L306,379l-0.43-8.61A2.25,2.25,0,0,0,303,368H291.9v5.08l6.72,2.41-0.52,35.83c0,2.67,1.12,4,3,4h14.13v-5.51l-8.1-2.24c-0.09-5.77,0-12.32.17-18.26M222,409.88l-8.1-2.24c-0.09-5.77,0-12.32.17-18.26,0.26-9.48,4.31-14.82,11-14.82,5.08,0,11.11,2.84,11.8,13,0.52,7.49.09,17.14-.17,25.24,0,1.55,1.29,2.58,3.19,2.58h13.52v-5.51l-7.75-2.24V384.56c1.64-7,6.89-10,12.49-10,3.36,0,9.65,2.84,10.34,13,0.52,7.49.09,17.14-.17,25.24,0,1.55,1.29,2.58,3.19,2.58H285v-5.51l-7.67-2.24c0-4.13.52-12.75,0-22.05-0.6-10.6-5.6-18.86-16.37-18.86-8.1,0-15.07,3-18.78,10.08h2.33c-3.53-7.58-8.1-10.08-16.11-10.08-7.75,0-13.7,3.62-17.06,10.42l1.29,0.26-0.43-7.06a2.25,2.25,0,0,0-2.58-2.33H198.52v5.08l6.72,2.41-0.52,35.83c0,2.67,1.12,4,3,4H222v-5.51ZM148,391.79c0,9.3,7.49,17.23,16.45,17.23,9.65,0,16.45-7.92,16.45-17.23s-7.49-17.31-16.45-17.31c-9.39,0-16.45,8-16.45,17.31m16.45-25.24a25.2,25.2,0,1,1-24.89,25.24,25.15,25.15,0,0,1,24.89-25.24M117.29,355.1v4.22l4.65,1.9v54.18h14.3v-3.62l-5.08-2.84V355.1H117.29Zm-39.37,0v4.22l4.65,1.9v54.18h14.3v-3.62l-5.08-2.84V355.1H77.93Zm8.44,30.41h39.37v-8.87H86.37v8.87Z"/><path class="cls-2" d="M759.54,284.63c-3.19-1.29-10.16-3.88-10.16-8.7,0-4,3.53-5.77,7.84-5.77,5.34,0,8.44,3.88,8.44,5.17h3.62v-9.65c0-.34-3.27-2.41-11.37-2.41-8.53,0-17.92,5.25-17.92,13.61,0,8.87,8.18,12,11.2,13.35s11.8,3.36,11.8,9c0,4.48-4.39,6.29-8.87,6.29-6.37,0-9.65-4.82-9.65-7.67h-4V309c-0.35,0,4.74,4,14.56,4,9.13,0,17-5.51,17-14.64s-9.82-12.75-12.4-13.78m-43.24,0c-3.19-1.29-10.16-3.88-10.16-8.7,0-4,3.53-5.77,7.84-5.77,5.34,0,8.44,3.88,8.44,5.17H726v-9.65c0-.34-3.27-2.41-11.37-2.41-8.53,0-17.92,5.25-17.92,13.61,0,8.87,8.18,12,11.2,13.35s11.8,3.36,11.8,9c0,4.48-4.39,6.29-8.87,6.29-6.37,0-9.65-4.82-9.65-7.67h-4V309c-0.34,0,4.74,4,14.56,4,9.13,0,17-5.51,17-14.64s-9.82-12.75-12.4-13.78m-31.18,21.28c-3.53,4.48-10.42,7.32-20.59,7.32-15.94,0-25.32-11-25.32-24.81a25.32,25.32,0,0,1,25.67-25.24c8.1,0,16.88,6.63,19.12,10.68v6.37a203.66,203.66,0,0,1-37.21,18.18l-2.5-7.32A204.45,204.45,0,0,0,677.71,276l-0.17,2.67c-3.62-4.91-8-7.67-13.44-7.67-9.39,0-15.94,8.1-15.94,17.4,0,10.77,9.56,17.14,19.21,17.14,7.41,0,12.58-2.58,17.49-6.37ZM589.59,286c0.26-9.48,5.08-15,12.58-15s12.32,2.93,13,13.09c0.52,7.49-.09,17.23-0.34,25.32,0,1.55,1.29,2.58,3.19,2.58h13.35v-5.51l-7.67-2.24c0-4.13.52-12.75,0-22.05-0.6-10.6-4.82-18.86-18.86-18.86-10.94,0-17.74,5.94-17.74,12.06l1.21,0.17L587.86,267a2.25,2.25,0,0,0-2.58-2.33H574.17v5.08l6.72,2.41L580.37,308c0,2.67,1.12,4,3,4h14.13v-5.51l-8.1-2.24c-0.09-5.77,0-12.32.17-18.26m-64.78,0c0.26-9.48,5.08-15,12.58-15,7.32,0,12.15,2.76,12.83,13.18,0.52,7.49.09,17.14-.17,25.24,0,1.55,1.29,2.58,3.19,2.58h13.35v-5.51l-7.67-2.24c0-4.13.52-12.75,0-22.05-0.6-10.6-4.82-18.86-19.47-18.86-10.34,0-16.8,6.72-16.8,10.6l2.24-.17v-24a2.25,2.25,0,0,0-2.58-2.33H509.39v5.08l6.2,2.41V308c0,2.67,1.12,4,3,4h14.13v-5.51l-8.1-2.24c-0.09-5.77,0-12.32.17-18.26m-37.13-1.38c-3.19-1.29-10.16-3.88-10.16-8.7,0-4,3.53-5.77,7.84-5.77,5.34,0,8.44,3.88,8.44,5.17h3.62v-9.65c0-.34-3.27-2.41-11.37-2.41-8.53,0-17.92,5.25-17.92,13.61,0,8.87,8.18,12,11.2,13.35s11.8,3.36,11.8,9c0,4.48-4.39,6.29-8.87,6.29-6.37,0-9.65-4.82-9.65-7.67h-4V309c-0.34,0,4.74,4,14.56,4,9.13,0,17-5.51,17-14.64s-9.82-12.75-12.4-13.78M437.3,286c0.26-9.48,4-14.82,10.6-14.82a8.49,8.49,0,0,1,5.25,2L456,273c0.09-.95,1.46-7.32.95-7.75-1.81-1.46-5.34-1.9-7.67-1.9-8.79,0-14.64,5.94-14.64,12.06l1.21,0.17L435.4,267a2.25,2.25,0,0,0-2.58-2.33h-10.6v4.82l6.2,2.67L427.91,308c0,2.67,1.12,4,3,4h12.83v-4.91l-6.63-2.84c-0.09-5.77,0-12.32.17-18.26m-39.36,26h14.13l-0.17-5.51-8.1-2.24c-0.43-7.41-.69-22.91-0.09-32.9l5.77-2.24,0.17-5.51H398c-1.9,0-3,1.38-3,4,0,0.69.43,5.6,0.43,8.87l1-1c-2.58-7.41-8.79-12.15-18.18-12.15-13.7,0-23.86,11.2-23.86,25.07s10.34,25,24,25c11,0,18.26-7.92,18.26-12.75h-1c0,4.82.09,11.37,2.24,11.37m-18.35-40.92c9,0,16,7.92,16,17.23s-6.37,17.14-16,17.14c-9,0-16.62-7.84-16.62-17.14s7.24-17.23,16.62-17.23M302.32,286c0.26-9.48,5.08-15,12.58-15,7.32,0,12.15,2.76,12.83,13.18,0.52,7.49.09,17.14-.17,25.24,0,1.55,1.29,2.58,3.19,2.58H344.1v-5.51l-7.67-2.24c0-4.13.52-12.75,0-22.05-0.6-10.6-4.82-18.86-19.47-18.86-10.34,0-16.8,6.72-16.8,10.6l2.24-.17v-24a2.25,2.25,0,0,0-2.58-2.33H286.9v5.08l6.2,2.41V308c0,2.67,1.12,4,3,4h14.13v-5.51l-8.1-2.24c-0.09-5.77,0-12.32.17-18.26M258,286c0.26-9.48,4-14.82,10.6-14.82a8.49,8.49,0,0,1,5.25,2l2.84-.17c0.09-.95,1.46-7.32.95-7.75-1.81-1.46-5.34-1.9-7.67-1.9-8.79,0-14.64,5.94-14.64,12.06l1.21,0.17L256.15,267a2.25,2.25,0,0,0-2.58-2.33H243v4.82l6.2,2.67L248.65,308c0,2.67,1.12,4,3,4H264.5v-4.91l-6.63-2.84c-0.09-5.77,0-12.32.17-18.26m-25.24,19.9c-3.53,4.48-10.42,7.32-20.59,7.32-15.94,0-25.32-11-25.32-24.81a25.32,25.32,0,0,1,25.67-25.24c8.1,0,16.88,6.63,19.12,10.68v6.37a203.67,203.67,0,0,1-37.21,18.18L192,291.1A204.45,204.45,0,0,0,225.4,276l-0.17,2.67c-3.62-4.91-8-7.67-13.44-7.67-9.39,0-15.94,8.1-15.94,17.4,0,10.77,9.56,17.14,19.21,17.14,7.41,0,12.58-2.58,17.49-6.37ZM148.48,267a2.25,2.25,0,0,0-2.58-2.33H133.14v4.82l6.2,2.07L152.7,312h9.22l19-42.47v-4.91H165v4.82l6.12,1.9-12.75,31ZM85.77,288.43c0,9.3,7.49,17.23,16.45,17.23,9.65,0,16.45-7.92,16.45-17.23s-7.49-17.31-16.45-17.31c-9.39,0-16.45,8-16.45,17.31m16.45-25.24a25.2,25.2,0,1,1-24.89,25.24,25.15,25.15,0,0,1,24.89-25.24"/><path class="cls-2" d="M752.26,181.27c-3.19-1.29-10.16-3.88-10.16-8.7,0-4,3.53-5.77,7.84-5.77,5.34,0,8.44,3.88,8.44,5.17H762v-9.65c0-.34-3.27-2.41-11.37-2.41-8.53,0-17.92,5.25-17.92,13.61,0,8.87,8.18,12,11.2,13.35s11.8,3.36,11.8,9c0,4.48-4.39,6.29-8.87,6.29-6.37,0-9.65-4.82-9.65-7.67h-4v11.11c-0.34,0,4.74,4,14.56,4,9.13,0,17-5.51,17-14.64s-9.82-12.75-12.4-13.78m-43.24,0c-3.19-1.29-10.16-3.88-10.16-8.7,0-4,3.53-5.77,7.84-5.77,5.34,0,8.44,3.88,8.44,5.17h3.62v-9.65c0-.34-3.27-2.41-11.37-2.41-8.53,0-17.92,5.25-17.92,13.61,0,8.87,8.18,12,11.2,13.35s11.8,3.36,11.8,9c0,4.48-4.39,6.29-8.87,6.29-6.37,0-9.65-4.82-9.65-7.67h-4v11.11c-0.34,0,4.74,4,14.56,4,9.13,0,17-5.51,17-14.64S711.6,182.3,709,181.27m-31.18,21.28c-3.53,4.48-10.42,7.32-20.59,7.32-15.94,0-25.32-11-25.32-24.81a25.31,25.31,0,0,1,25.67-25.24c8.1,0,16.88,6.63,19.12,10.68v6.37a203.67,203.67,0,0,1-37.21,18.18l-2.5-7.32a204.44,204.44,0,0,0,33.42-15.07l-0.17,2.67c-3.62-4.91-8-7.67-13.44-7.67-9.39,0-15.94,8.1-15.94,17.4,0,10.77,9.56,17.14,19.21,17.14,7.41,0,12.58-2.58,17.49-6.37Zm-95.53-19.9c0.26-9.48,5.08-15,12.58-15s12.32,2.93,13,13.09c0.52,7.49-.09,17.23-0.34,25.32,0,1.55,1.29,2.58,3.19,2.58h13.35v-5.51l-7.67-2.24c0-4.13.52-12.75,0-22.05-0.6-10.6-4.82-18.86-18.86-18.86-10.94,0-17.74,5.94-17.74,12.06l1.21,0.17-0.43-8.61a2.25,2.25,0,0,0-2.58-2.33H566.89v5.08l6.72,2.41-0.52,35.83c0,2.67,1.12,4,3,4h14.13v-5.51l-8.1-2.24c-0.09-5.77,0-12.32.17-18.26m-64.86,0c0.26-9.48,5.08-15,12.58-15s12.32,2.93,13,13.09c0.52,7.49-.09,17.23-0.34,25.32,0,1.55,1.29,2.58,3.19,2.58h13.35v-5.51l-7.67-2.24c0-4.13.52-12.75,0-22.05C551,168.26,546.73,160,532.69,160c-10.94,0-17.74,5.94-17.74,12.06l1.21,0.17-0.43-8.61a2.25,2.25,0,0,0-2.58-2.33H502v5.08l6.72,2.41-0.52,35.83c0,2.67,1.12,4,3,4h14.13v-5.51l-8.1-2.24c-0.09-5.77,0-12.32.17-18.26m-85.28,20.5-8.1-2.24c-0.09-5.77,0-12.32.17-18.26,0.26-9.48,4.31-14.82,11-14.82,5.08,0,11.11,2.84,11.8,13,0.52,7.49.09,17.14-.17,25.24,0,1.55,1.29,2.58,3.19,2.58h13.52v-5.51l-7.75-2.24V177.82c1.64-7,6.89-10,12.49-10,3.36,0,9.65,2.84,10.34,13,0.52,7.49.09,17.14-.17,25.24,0,1.55,1.29,2.58,3.19,2.58h13.44v-5.51l-7.67-2.24c0-4.13.52-12.75,0-22.05-0.6-10.6-5.6-18.86-16.37-18.86-8.1,0-15.07,3-18.78,10.08h2.33c-3.53-7.58-8.1-10.08-16.11-10.08-7.75,0-13.7,3.62-17.06,10.42l1.29,0.26-0.43-7.06a2.25,2.25,0,0,0-2.58-2.33H408.65v5.08l6.72,2.41-0.52,35.83c0,2.67,1.12,4,3,4h14.3v-5.51Zm-33.16-.6c-3.53,4.48-10.42,7.32-20.59,7.32-15.94,0-25.32-11-25.32-24.81a25.32,25.32,0,0,1,25.67-25.24c8.1,0,16.88,6.63,19.12,10.68v6.37a203.67,203.67,0,0,1-37.21,18.18l-2.5-7.32a204.45,204.45,0,0,0,33.42-15.07l-0.17,2.67c-3.62-4.91-8-7.67-13.44-7.67-9.39,0-15.94,8.1-15.94,17.4,0,10.77,9.56,17.14,19.21,17.14,7.41,0,12.58-2.58,17.49-6.37Zm-96.65-17.49c0,9.3,7.49,17.23,16.45,17.23,9.65,0,16.45-7.92,16.45-17.23s-7.49-17.31-16.45-17.31c-9.39,0-16.45,8-16.45,17.31m16.45-25.24a25.2,25.2,0,1,1-24.89,25.24,25.15,25.15,0,0,1,24.89-25.24m-47.55,21.45c-3.19-1.29-10.16-3.88-10.16-8.7,0-4,3.53-5.77,7.84-5.77,5.34,0,8.44,3.88,8.44,5.17H281v-9.65c0-.34-3.27-2.41-11.37-2.41-8.53,0-17.92,5.25-17.92,13.61,0,8.87,8.18,12,11.2,13.35s11.8,3.36,11.8,9c0,4.48-4.39,6.29-8.87,6.29-6.37,0-9.65-4.82-9.65-7.67h-4v11.11c-0.34,0,4.74,4,14.56,4,9.13,0,17-5.51,17-14.64s-9.82-12.75-12.4-13.78m-31.18,21.28c-3.53,4.48-10.42,7.32-20.59,7.32-15.94,0-25.32-11-25.32-24.81a25.31,25.31,0,0,1,25.67-25.24c8.1,0,16.88,6.63,19.12,10.68v6.37a203.67,203.67,0,0,1-37.21,18.18l-2.5-7.32a204.44,204.44,0,0,0,33.42-15.07l-0.17,2.67c-3.62-4.91-8-7.67-13.44-7.67-9.39,0-15.94,8.1-15.94,17.4,0,10.77,9.56,17.14,19.21,17.14,7.41,0,12.58-2.58,17.49-6.37Zm-84.33-38.93a2.25,2.25,0,0,0-2.58-2.33H140.42v4.82l6.2,2.07L160,208.66h9.22l19-42.47v-4.91H172.29v4.82l6.12,1.9-12.75,31ZM93,185.06c0,9.3,7.49,17.23,16.45,17.23,9.65,0,16.45-7.92,16.45-17.23s-7.49-17.31-16.45-17.31c-9.39,0-16.45,8-16.45,17.31m16.45-25.24a25.2,25.2,0,1,1-24.89,25.24,25.15,25.15,0,0,1,24.89-25.24"/><path class="cls-2" d="M655.81,79.28c0.26-9.48,4-14.82,10.6-14.82a8.49,8.49,0,0,1,5.25,2l2.84-.17c0.09-.95,1.46-7.32.95-7.75-1.81-1.46-5.34-1.9-7.67-1.9-8.79,0-14.64,5.94-14.64,12.06l1.21,0.17-0.43-8.61a2.25,2.25,0,0,0-2.58-2.33h-10.6v4.82l6.2,2.67-0.52,35.83c0,2.67,1.12,4,3,4h12.83v-4.91l-6.63-2.84c-0.09-5.77,0-12.32.17-18.26m-25.24,19.9c-3.53,4.48-10.42,7.32-20.59,7.32-15.94,0-25.32-11-25.32-24.81a25.32,25.32,0,0,1,25.67-25.24c8.1,0,16.88,6.63,19.12,10.68v6.37a203.67,203.67,0,0,1-37.21,18.18l-2.5-7.32a204.45,204.45,0,0,0,33.42-15.07L623,72c-3.62-4.91-8-7.67-13.44-7.67-9.39,0-15.94,8.1-15.94,17.4,0,10.77,9.56,17.14,19.21,17.14,7.41,0,12.58-2.58,17.49-6.37Zm-55.73,0c-3.53,4.48-10.42,7.32-20.59,7.32-15.94,0-25.32-11-25.32-24.81A25.31,25.31,0,0,1,554.6,56.45c8.1,0,16.88,6.63,19.12,10.68v6.37a203.67,203.67,0,0,1-37.21,18.18L534,84.36a204.44,204.44,0,0,0,33.42-15.07L567.26,72c-3.62-4.91-8-7.67-13.44-7.67-9.39,0-15.94,8.1-15.94,17.4,0,10.77,9.56,17.14,19.21,17.14,7.41,0,12.58-2.58,17.49-6.37ZM490.52,60.24a2.25,2.25,0,0,0-2.58-2.33H475.18v4.82l6.2,2.07,13.35,40.49H504l19-42.47V57.92H507.05v4.82l6.12,1.9-12.75,31Zm-76,.43L429.7,53l2.15,2.33v5.51l-5.34-.26-8.79,3.53Zm-7.24,36,12.32-5.34-11.8,13.18L407,103.23c9,0,19.55,4,19.55,15.5,0,10.16-9,19.38-22.14,19.38-14.9,0-20.59-13.18-20.59-23.17h6.37c0,7.15,5.17,15.25,14.47,15.25,7.49,0,12.49-4.48,12.49-10.6,0-7.49-7.15-10.6-16.11-10.6l-2.5-4ZM391.63,78.59c0,7.41,5.86,14,12.75,14,7.41,0,12.75-6.55,12.75-14s-5.86-14-12.75-14c-7.15,0-12.75,6.55-12.75,14m12.75-21.36a21.32,21.32,0,1,1-21.45,21.28,21.41,21.41,0,0,1,21.45-21.28m-46.26,48.07h14.13l-0.17-5.51L364,97.54c-0.43-7.41-.69-22.91-0.09-32.9l5.77-2.24,0.17-5.51H358.21c-1.9,0-3,1.38-3,4,0,0.69.43,5.6,0.43,8.87l1-1c-2.58-7.41-8.79-12.15-18.18-12.15-13.7,0-23.86,11.2-23.86,25.07s10.34,25,24,25c11,0,18.26-7.92,18.26-12.75h-1c0,4.82.09,11.37,2.24,11.37M339.77,64.38c9,0,16,7.92,16,17.23s-6.37,17.14-16,17.14c-9,0-16.62-7.84-16.62-17.14s7.24-17.23,16.62-17.23m-77.35,14.9c0.26-9.48,5.08-15,12.58-15s12.32,2.93,13,13.09c0.52,7.49-.09,17.23-0.34,25.32,0,1.55,1.29,2.58,3.19,2.58H304.2V99.78l-7.67-2.24c0-4.13.52-12.75,0-22.05-0.6-10.6-4.82-18.86-18.86-18.86-10.94,0-17.74,5.94-17.74,12.06l1.21,0.17-0.43-8.61a2.25,2.25,0,0,0-2.58-2.33H247V63l6.72,2.41-0.52,35.83c0,2.67,1.12,4,3,4h14.13V99.78l-8.1-2.24c-0.09-5.77,0-12.32.17-18.26m-78.9-4.65c0-14.9,9.82-22.14,19.29-22.14s20.5,6.2,20.5,23c0,15.42-9.91,22.65-19.9,22.65-8.27,0-19.9-6.72-19.9-23.52M233,75.49c0-23-15.42-31.61-30.32-31.61-15.16,0-28.94,10.25-28.94,30.67,0,22.91,16.45,32.3,29.72,32.3,15.25,0,29.55-10.08,29.55-31.35"/></svg>